<svg width="32" height="32" viewBox="0 0 32 32" fill="none" xmlns="http://www.w3.org/2000/svg">
<path d="M15.9934 2.66663C8.62675 2.66663 2.66675 8.63329 2.66675 16C2.66675 23.3666 8.62675 29.3333 15.9934 29.3333C23.3601 29.3333 29.3334 23.3666 29.3334 16C29.3334 8.63329 23.3601 2.66663 15.9934 2.66663ZM16.0001 26.6666C10.1067 26.6666 5.33341 21.8933 5.33341 16C5.33341 10.1066 10.1067 5.33329 16.0001 5.33329C21.8934 5.33329 26.6667 10.1066 26.6667 16C26.6667 21.8933 21.8934 26.6666 16.0001 26.6666Z" fill="black"/>
<path d="M16.6667 9.33337H14.6667V17.3334L21.6601 21.5334L22.6667 19.8934L16.6667 16.3334V9.33337Z" fill="black"/>
</svg>
