<svg width="86" height="73" viewBox="0 0 86 73" fill="none" xmlns="http://www.w3.org/2000/svg">
<path fill-rule="evenodd" clip-rule="evenodd" d="M10.7482 0.212071C10.5867 0.0447338 10.5986 0.288285 10.3658 0.288285C10.1334 0.288285 10.1334 0.167338 9.90056 0.167338C9.66777 0.167338 9.66777 0.200142 9.43497 0.200142C9.20217 0.200142 9.20217 0.0566629 8.96904 0.0566629C8.73625 0.0566629 8.73625 0.16071 8.50312 0.16071C8.27032 0.16071 8.27032 0.213728 8.03719 0.213728C7.8044 0.213728 7.8044 0.242557 7.5716 0.242557C7.33847 0.242557 7.33847 0 7.10534 0C6.87255 0 6.87255 0.0463906 6.64008 0.0463906C6.40762 0.0463906 6.40762 0.103385 6.17548 0.103385C5.94202 0.103385 5.94202 0.124592 5.70889 0.124592C5.4761 0.124592 5.4761 0.243882 5.24297 0.243882C5.00984 0.243882 5.00984 0.224332 4.77671 0.224332C4.54325 0.224332 4.54325 0.103053 4.30979 0.103053C4.07666 0.103053 4.07666 0.0417516 3.84387 0.0417516C3.61008 0.0417516 3.61008 0.183574 3.37662 0.183574C3.14216 0.183574 3.14216 0.203456 2.90804 0.203456C2.67425 0.203456 2.61223 -0.0271717 2.44874 0.139835C2.28128 0.310486 2.44709 0.370794 2.44709 0.609043C2.44709 0.847623 2.30482 0.847623 2.30482 1.0862C2.30482 1.32478 2.53165 1.32478 2.53165 1.56336C2.53165 1.80228 2.52336 1.80228 2.52336 2.04119C2.52336 2.27977 2.46002 2.27977 2.46002 2.51868C2.46002 2.75759 2.46101 2.75759 2.46101 2.9965C2.46101 3.23575 2.47826 3.23575 2.47826 3.47499C2.47826 3.7139 2.34196 3.7139 2.34196 3.95348C2.34196 4.19272 2.37678 4.19272 2.37678 4.43163C2.37678 4.67087 2.53032 4.67087 2.53032 4.91012C2.53032 5.1487 2.31477 5.1487 2.31477 5.38761C2.31477 5.62685 2.3675 5.62685 2.3675 5.86577C2.3675 6.10435 2.34594 6.10435 2.34594 6.34326C2.34594 6.58217 2.44543 6.58217 2.44543 6.82075C2.44543 7.05933 2.3486 7.05933 2.3486 7.29824C2.3486 7.53682 2.45372 7.53682 2.45372 7.77573C2.45372 8.01465 2.54491 8.01465 2.54491 8.25356C2.54491 8.49214 2.58637 8.49214 2.58637 8.73138C2.58637 8.97029 2.46765 8.97029 2.46765 9.2092C2.46765 9.44845 2.53994 9.44845 2.53994 9.68769C2.53994 9.92693 2.56514 9.92693 2.56514 10.1662C2.56514 10.4058 2.52535 10.4058 2.52535 10.6447C2.52535 10.8839 2.3088 10.8839 2.3088 11.1231C2.3088 11.3621 2.31444 11.3621 2.31444 11.6013C2.31444 11.8402 2.35655 11.8402 2.35655 12.0791C2.35655 12.318 2.42852 12.318 2.42852 12.5573C2.42852 12.7962 2.49252 12.7962 2.49252 13.0351C2.49252 13.274 2.28095 13.274 2.28095 13.5133C2.28095 13.7522 2.29321 13.7522 2.29321 13.9914C2.29321 14.2307 2.31145 14.2307 2.31145 14.4699C2.31145 14.7095 2.57874 14.7095 2.57874 14.9487C2.57874 15.188 2.49252 15.188 2.49252 15.4275C2.49252 15.6668 2.41127 15.6668 2.41127 15.9057C2.41127 16.1449 2.47627 16.1449 2.47627 16.3842C2.47627 16.6228 2.51573 16.6228 2.51573 16.862C2.51573 17.1012 2.37512 17.1012 2.37512 17.3402C2.37512 17.5797 2.36916 17.5797 2.36916 17.819C2.36916 18.0582 2.32439 18.0582 2.32439 18.2975C2.32439 18.537 2.57045 18.537 2.57045 18.7763C2.57045 19.0159 2.54989 19.0159 2.54989 19.2551C2.54989 19.494 2.50678 19.494 2.50678 19.7333C2.50678 19.9728 2.52502 19.9728 2.52502 20.2117C2.52502 20.451 2.5469 20.451 2.5469 20.6906C2.5469 20.9288 2.46101 20.9288 2.46101 21.1671C2.46101 21.4056 2.57642 21.4056 2.57642 21.6439C2.57642 21.8825 2.43084 21.8825 2.43084 22.121C2.43084 22.36 2.57244 22.36 2.57244 22.5989C2.57244 22.8378 2.34627 22.8378 2.34627 23.0774C2.34627 23.3169 2.50844 23.3169 2.50844 23.5565C2.50844 23.7957 2.36087 23.7957 2.36087 24.0353C2.36087 24.2739 2.27962 24.2739 2.27962 24.5131C2.27962 24.7521 2.35622 24.7521 2.35622 24.9906C2.35622 25.2295 2.44576 25.2295 2.44576 25.4688C2.44576 25.7077 2.31278 25.7077 2.31278 25.9466C2.31278 26.1862 2.32638 26.1862 2.32638 26.4254C2.32638 26.6653 2.39403 26.6653 2.39403 26.9052C2.39403 27.1445 2.42619 27.1445 2.42619 27.3837C2.42619 27.623 2.41359 27.623 2.41359 27.8622C2.41359 28.1015 2.42321 28.1015 2.42321 28.341C2.42321 28.5806 2.43482 28.5806 2.43482 28.8202C2.43482 29.0601 2.59996 29.0601 2.59996 29.2997C2.59996 29.5392 2.30615 29.5392 2.30615 29.7788C2.30615 30.0181 2.46466 30.0181 2.46466 30.258C2.46466 30.4975 2.59598 30.4975 2.59598 30.7374C2.59598 30.9773 2.36982 30.9773 2.36982 31.2166C2.36982 31.4568 2.46234 31.4568 2.46234 31.6967C2.46234 31.9363 2.59532 31.9363 2.59532 32.1762C2.59532 32.4165 2.38176 32.4165 2.38176 32.656C2.38176 32.8956 2.32439 32.8956 2.32439 33.1348C2.32439 33.3741 2.29454 33.3741 2.29454 33.6137C2.29454 33.8536 2.50446 33.8536 2.50446 34.0938C2.50446 34.3337 2.3486 34.3337 2.3486 34.573C2.3486 34.8132 2.37977 34.8132 2.37977 35.0534C2.37977 35.2937 2.37314 35.2937 2.37314 35.5339C2.37314 35.7738 2.40696 35.7738 2.40696 36.014C2.40696 36.2546 2.31577 36.2546 2.31577 36.4949C2.31577 36.7361 2.32008 36.7361 2.32008 36.9767C2.32008 37.2179 2.17251 37.3822 2.33997 37.5555C2.50147 37.7229 2.67292 37.5307 2.90605 37.5307C3.13851 37.5307 3.13851 37.5509 3.37098 37.5509C3.60377 37.5509 3.60377 37.4349 3.83657 37.4349C4.06937 37.4349 4.06937 37.3527 4.3025 37.3527C4.53563 37.3527 4.53563 37.478 4.76842 37.478C5.00122 37.478 5.00122 37.6062 5.23435 37.6062C5.46714 37.6062 5.46714 37.5416 5.69994 37.5416C5.93307 37.5416 5.93307 37.4422 6.16653 37.4422C6.39899 37.4422 6.39899 37.4452 6.63146 37.4452C6.86359 37.4452 6.86359 37.4439 7.09606 37.4439C7.32952 37.4439 7.32952 37.3872 7.56298 37.3872C7.79578 37.3872 7.79577 37.4853 8.02857 37.4853C8.2617 37.4853 8.2617 37.5632 8.49483 37.5632C8.72829 37.5632 8.72829 37.3856 8.96175 37.3856C9.19455 37.3856 9.19455 37.4462 9.42801 37.4462C9.6618 37.4462 9.6618 37.5459 9.89526 37.5459C10.1294 37.5459 10.1294 37.3186 10.3635 37.3186C10.5973 37.3186 10.5615 37.5214 10.725 37.3544C10.8924 37.1841 10.8583 37.2202 10.8583 36.9816C10.8583 36.743 10.9753 36.743 10.9753 36.5041C10.9753 36.2659 10.912 36.2659 10.912 36.027C10.912 35.7884 10.6921 35.7884 10.6921 35.5498C10.6921 35.3109 10.6736 35.3109 10.6736 35.072C10.6736 34.8327 10.8546 34.8327 10.8546 34.5942C10.8546 34.3549 10.7963 34.3549 10.7963 34.1157C10.7963 33.8768 10.9362 33.8768 10.9362 33.6372C10.9362 33.3979 10.8828 33.3979 10.8828 33.159C10.8828 32.9198 10.9541 32.9198 10.9541 32.6805C10.9541 32.442 10.8012 32.442 10.8012 32.2027C10.8012 31.9638 10.8241 31.9638 10.8241 31.7252C10.8241 31.4863 10.9117 31.4863 10.9117 31.2474C10.9117 31.0085 10.921 31.0085 10.921 30.7699C10.921 30.531 10.8085 30.531 10.8085 30.2921C10.8085 30.0538 10.6892 30.0538 10.6892 29.8149C10.6892 29.576 10.7442 29.576 10.7442 29.3374C10.7442 29.0982 10.921 29.0982 10.921 28.8593C10.921 28.62 10.7246 28.62 10.7246 28.3815C10.7246 28.1422 10.8397 28.1422 10.8397 27.903C10.8397 27.6637 10.9226 27.6637 10.9226 27.4242C10.9226 27.1849 10.6795 27.1849 10.6795 26.9457C10.6795 26.7064 10.8991 26.7064 10.8991 26.4672C10.8991 26.2283 10.711 26.2283 10.711 25.9894C10.711 25.7501 10.7369 25.7501 10.7369 25.5115C10.7369 25.2723 10.9269 25.2723 10.9269 25.0334C10.9269 24.7945 10.8961 24.7945 10.8961 24.5556C10.8961 24.3163 10.6901 24.3163 10.6901 24.0774C10.6901 23.8385 10.6938 23.8385 10.6938 23.5992C10.6938 23.3597 10.7681 23.3597 10.7681 23.1208C10.7681 22.8812 10.9614 22.8812 10.9614 22.6416C10.9614 22.4027 10.7124 22.4027 10.7124 22.1631C10.7124 21.9239 10.9196 21.9239 10.9196 21.685C10.9196 21.4457 10.9183 21.4457 10.9183 21.2065C10.9183 20.9676 10.7455 20.9676 10.7455 20.7283C10.7455 20.4891 10.8371 20.4891 10.8371 20.2502C10.8371 20.0109 10.917 20.0109 10.917 19.7717C10.917 19.5324 10.6908 19.5324 10.6908 19.2929C10.6908 19.0533 10.9541 19.0533 10.9541 18.8141C10.9541 18.5748 10.9001 18.5748 10.9001 18.3356C10.9001 18.0963 10.9554 18.0963 10.9554 17.8571C10.9554 17.6178 10.9923 17.6178 10.9923 17.3789C10.9923 17.1394 10.8188 17.1394 10.8188 16.9001C10.8188 16.6619 10.8009 16.6619 10.8009 16.4236C10.8009 16.185 10.9004 16.185 10.9004 15.9465C10.9004 15.7082 10.8815 15.7082 10.8815 15.4696C10.8815 15.2307 10.7134 15.2307 10.7134 14.9921C10.7134 14.7526 10.8351 14.7526 10.8351 14.5133C10.8351 14.2737 10.7366 14.2737 10.7366 14.0342C10.7366 13.7946 10.9505 13.7946 10.9505 13.5557C10.9505 13.3164 10.8228 13.3164 10.8228 13.0775C10.8228 12.8386 10.985 12.8386 10.985 12.6C10.985 12.3608 10.9137 12.3608 10.9137 12.1219C10.9137 11.883 10.7409 11.883 10.7409 11.6437C10.7409 11.4041 10.8729 11.4041 10.8729 11.1649C10.8729 10.9253 10.9007 10.9253 10.9007 10.6854C10.9007 10.4462 10.8019 10.4462 10.8019 10.2066C10.8019 9.96736 10.8059 9.96736 10.8059 9.72845C10.8059 9.48887 10.7807 9.48887 10.7807 9.24963C10.7807 9.01006 10.8062 9.01006 10.8062 8.77015C10.8062 8.53057 10.6782 8.53058 10.6782 8.291C10.6782 8.05143 10.9475 8.05143 10.9475 7.81218C10.9475 7.57261 10.9355 7.57261 10.9355 7.3327C10.9355 7.09313 10.7512 7.09313 10.7512 6.85289C10.7512 6.61332 10.8914 6.61332 10.8914 6.37374C10.8914 6.13384 10.9163 6.13384 10.9163 5.89393C10.9163 5.65436 10.9823 5.65436 10.9823 5.41445C10.9823 5.17454 10.7697 5.17454 10.7697 4.93431C10.7697 4.69506 10.969 4.69506 10.969 4.45582C10.969 4.21658 10.7522 4.21658 10.7522 3.977C10.7522 3.7371 10.7764 3.7371 10.7764 3.49686C10.7764 3.25695 10.6941 3.25695 10.6941 3.01738C10.6941 2.77714 10.9445 2.77714 10.9445 2.53757C10.9445 2.297 10.7485 2.297 10.7485 2.05643C10.7485 1.81686 10.7356 1.81686 10.7356 1.57662C10.7356 1.33638 10.848 1.33638 10.848 1.09581C10.848 0.854582 10.6666 0.83702 10.6951 0.597777C10.7207 0.383054 10.9157 0.385374 10.7482 0.212071Z" fill="#196CF2"/>
<path fill-rule="evenodd" clip-rule="evenodd" d="M35.9352 9.51186C35.773 9.34519 35.8184 9.28389 35.5856 9.28389C35.3532 9.28389 35.3532 9.47508 35.1207 9.47508C34.8879 9.47508 34.8879 9.25738 34.6551 9.25738C34.4223 9.25738 34.4223 9.34154 34.1889 9.34154C33.9561 9.34154 33.9561 9.41577 33.7236 9.41577C33.4905 9.41577 33.4905 9.35281 33.2573 9.35281C33.0245 9.35281 33.0245 9.5228 32.7917 9.5228C32.5583 9.5228 32.5583 9.48801 32.3252 9.48801C32.0927 9.48801 32.0927 9.28587 31.8606 9.28587C31.6281 9.28587 31.6281 9.30277 31.3956 9.30277C31.1622 9.30277 31.1622 9.26898 30.9287 9.26898C30.6959 9.26898 30.6959 9.36573 30.4631 9.36573C30.23 9.36573 30.23 9.33326 29.9969 9.33326C29.7634 9.33326 29.7634 9.54434 29.5303 9.54434C29.2968 9.54434 29.2968 9.49132 29.0637 9.49132C28.8299 9.49132 28.8299 9.2428 28.5964 9.2428C28.3623 9.2428 28.3623 9.28124 28.1285 9.28124C27.8944 9.28124 27.835 9.2428 27.6709 9.40947C27.5041 9.5788 27.5926 9.63679 27.5926 9.87437C27.5926 10.112 27.6128 10.112 27.6128 10.3495C27.6128 10.5875 27.5737 10.5875 27.5737 10.825C27.5737 11.0626 27.7014 11.0626 27.7014 11.2999C27.7014 11.5375 27.6351 11.5375 27.6351 11.7751C27.6351 12.0123 27.584 12.0123 27.584 12.2499C27.584 12.4872 27.7962 12.4872 27.7962 12.7244C27.7962 12.9617 27.8092 12.9617 27.8092 13.1993C27.8092 13.4368 27.5601 13.4368 27.5601 13.6741C27.5601 13.9114 27.7568 13.9114 27.7568 14.1489C27.7568 14.3869 27.6211 14.3869 27.6211 14.6244C27.6211 14.862 27.5525 14.862 27.5525 15.0999C27.5525 15.3375 27.8228 15.3375 27.8228 15.5755C27.8228 15.813 27.7319 15.813 27.7319 16.0503C27.7319 16.2879 27.5134 16.2879 27.5134 16.5255C27.5134 16.7631 27.8019 16.7631 27.8019 17.0006C27.8019 17.2379 27.6132 17.2379 27.6132 17.4755C27.6132 17.7131 27.6543 17.7131 27.6543 17.951C27.6543 18.1886 27.7763 18.1886 27.7763 18.4262C27.7763 18.6641 27.5163 18.6641 27.5163 18.902C27.5163 19.1399 27.774 19.1399 27.774 19.3772C27.774 19.6148 27.5863 19.6148 27.5863 19.8527C27.5863 20.0903 27.8244 20.0903 27.8244 20.3278C27.8244 20.5654 27.6301 20.5654 27.6301 20.803C27.6301 21.0399 27.6162 21.0399 27.6162 21.2765C27.6162 21.5135 27.8052 21.5135 27.8052 21.7504C27.8052 21.987 27.5604 21.987 27.5604 22.2239C27.5604 22.4615 27.7206 22.4615 27.7206 22.6987C27.7206 22.9363 27.6271 22.9363 27.6271 23.1736C27.6271 23.4118 27.7123 23.4118 27.7123 23.6501C27.7123 23.8877 27.6924 23.8877 27.6924 24.1252C27.6924 24.3625 27.4951 24.3625 27.4951 24.6001C27.4951 24.8373 27.6702 24.8373 27.6702 25.0746C27.6702 25.3119 27.51 25.3119 27.51 25.5491C27.51 25.7867 27.6172 25.7867 27.6172 26.0239C27.6172 26.2619 27.7057 26.2619 27.7057 26.4998C27.7057 26.7377 27.6997 26.7377 27.6997 26.976C27.6997 27.2139 27.6828 27.2139 27.6828 27.4515C27.6828 27.689 27.6473 27.689 27.6473 27.9266C27.6473 28.1645 27.6168 28.1645 27.6168 28.4021C27.6168 28.6404 27.5515 28.6404 27.5515 28.8783C27.5515 29.1162 27.7836 29.1162 27.7836 29.3545C27.7836 29.5924 27.587 29.5924 27.587 29.83C27.587 30.0682 27.5624 30.0682 27.5624 30.3061C27.5624 30.5447 27.5303 30.5447 27.5303 30.7826C27.5303 31.0206 27.5223 31.0206 27.5223 31.2588C27.5223 31.497 27.7627 31.497 27.7627 31.7353C27.7627 31.9735 27.7369 31.9735 27.7369 32.2118C27.7369 32.45 27.6802 32.45 27.6802 32.6883C27.6802 32.9262 27.6778 32.9262 27.6778 33.1638C27.6778 33.4017 27.5021 33.4017 27.5021 33.6393C27.5021 33.8779 27.7922 33.8779 27.7922 34.1165C27.7922 34.3544 27.7836 34.3544 27.7836 34.5923C27.7836 34.8309 27.5306 34.8309 27.5306 35.0695C27.5306 35.3084 27.4968 35.3084 27.4968 35.5466C27.4968 35.7852 27.6606 35.7852 27.6606 36.0238C27.6606 36.2624 27.6467 36.2624 27.6467 36.5013C27.6467 36.7408 27.6095 36.7408 27.6095 36.9801C27.6095 37.2193 27.5425 37.2392 27.7093 37.4109C27.8718 37.5775 27.8931 37.5732 28.1259 37.5732C28.3583 37.5732 28.3583 37.4039 28.5911 37.4039C28.8239 37.4039 28.8239 37.2999 29.0567 37.2999C29.2898 37.2999 29.2898 37.3916 29.5226 37.3916C29.7554 37.3916 29.7554 37.6143 29.9882 37.6143C30.2214 37.6143 30.2214 37.5249 30.4545 37.5249C30.6873 37.5249 30.6873 37.3641 30.9201 37.3641C31.1532 37.3641 31.1532 37.324 31.3863 37.324C31.6188 37.324 31.6188 37.5746 31.8516 37.5746C32.0841 37.5746 32.0841 37.2979 32.3165 37.2979C32.5497 37.2979 32.5497 37.564 32.7828 37.564C33.0156 37.564 33.0156 37.4235 33.2484 37.4235C33.4818 37.4235 33.4818 37.4602 33.715 37.4602C33.9484 37.4602 33.9484 37.2965 34.1819 37.2965C34.415 37.2965 34.415 37.3058 34.6478 37.3058C34.8816 37.3058 34.8816 37.3767 35.1151 37.3767C35.3492 37.3767 35.3492 37.3774 35.5833 37.3774C35.8174 37.3774 35.8426 37.5812 36.0068 37.4145C36.1736 37.2452 36.1491 37.221 36.1491 36.9834C36.1491 36.7458 35.9282 36.7458 35.9282 36.5082C35.9282 36.2703 35.9206 36.2703 35.9206 36.0327C35.9206 35.7951 36.1079 35.7951 36.1079 35.5579C36.1079 35.3203 35.9063 35.3203 35.9063 35.0827C35.9063 34.8451 36.0144 34.8451 36.0144 34.6079C36.0144 34.3706 36.035 34.3706 36.035 34.1334C36.035 33.8958 36.1424 33.8958 36.1424 33.6585C36.1424 33.4209 36.0482 33.4209 36.0482 33.1837C36.0482 32.9464 36.1736 32.9464 36.1736 32.7088C36.1736 32.4709 36.1567 32.4709 36.1567 32.2333C36.1567 31.9957 36.1938 31.9957 36.1938 31.7578C36.1938 31.5199 36.1229 31.5199 36.1229 31.2823C36.1229 31.0447 36.0612 31.0447 36.0612 30.8072C36.0612 30.5699 36.1792 30.5699 36.1792 30.3323C36.1792 30.0947 36.0512 30.0947 36.0512 29.8571C36.0512 29.6199 36.0098 29.6199 36.0098 29.3823C36.0098 29.1444 36.1753 29.1444 36.1753 28.9068C36.1753 28.6689 36.0439 28.6689 36.0439 28.4316C36.0439 28.1937 36.0237 28.1937 36.0237 27.9558C36.0237 27.7179 35.9726 27.7179 35.9726 27.4806C35.9726 27.243 35.9368 27.243 35.9368 27.0051C35.9368 26.7675 36.1355 26.7675 36.1355 26.5299C36.1355 26.2924 36.095 26.2924 36.095 26.0548C36.095 25.8178 36.092 25.8178 36.092 25.5812C36.092 25.3443 35.8901 25.3443 35.8901 25.1074C35.8901 24.8708 35.9972 24.8708 35.9972 24.6336C35.9972 24.3963 36.161 24.3963 36.161 24.159C36.161 23.9215 35.8911 23.9215 35.8911 23.6842C35.8911 23.446 36.0904 23.446 36.0904 23.2077C36.0904 22.9701 36.0685 22.9701 36.0685 22.7322C36.0685 22.4953 35.9716 22.4953 35.9716 22.2577C35.9716 22.0204 36.1408 22.0204 36.1408 21.7832C36.1408 21.5456 36.1792 21.5456 36.1792 21.3087C36.1792 21.0711 36.0691 21.0711 36.0691 20.8335C36.0691 20.5956 35.8937 20.5956 35.8937 20.3577C35.8937 20.1201 36.0283 20.1201 36.0283 19.8818C36.0283 19.6439 36.1955 19.6439 36.1955 19.406C36.1955 19.1687 36.0535 19.1687 36.0535 18.9312C36.0535 18.6932 36.1093 18.6932 36.1093 18.4556C36.1093 18.2174 35.965 18.2174 35.965 17.9795C35.965 17.7412 35.9796 17.7412 35.9796 17.5033C35.9796 17.2654 36.0744 17.2654 36.0744 17.0278C36.0744 16.7896 36.035 16.7896 36.035 16.5516C36.035 16.3131 35.905 16.3131 35.905 16.0751C35.905 15.8369 36.2028 15.8369 36.2028 15.599C36.2028 15.3604 36.1816 15.3604 36.1816 15.1225C36.1816 14.8842 35.8874 14.8842 35.8874 14.646C35.8874 14.4074 36.1311 14.4074 36.1311 14.1695C36.1311 13.9316 35.9047 13.9316 35.9047 13.694C35.9047 13.4561 36.0015 13.4561 36.0015 13.2185C36.0015 12.9799 36.2107 12.9799 36.2107 12.7413C36.2107 12.5031 36.0177 12.5031 36.0177 12.2651C36.0177 12.0269 36.1865 12.0269 36.1865 11.7883C36.1865 11.5494 35.9557 11.5494 35.9557 11.3112C35.9557 11.0726 35.9633 11.0726 35.9633 10.834C35.9633 10.5954 36.0681 10.5954 36.0681 10.3565C36.0681 10.1169 35.9836 10.1123 36.0015 9.87404C36.0167 9.67423 36.1023 9.68384 35.9352 9.51186Z" fill="#A8D0FF"/>
<path fill-rule="evenodd" clip-rule="evenodd" d="M23.4486 20.0141C23.2854 19.8478 23.2085 19.8829 22.9757 19.8829C22.7432 19.8829 22.7432 19.97 22.5107 19.97C22.2779 19.97 22.2779 20.0357 22.0452 20.0357C21.812 20.0357 21.812 19.9465 21.5789 19.9465C21.3461 19.9465 21.3461 20.1791 21.1136 20.1791C20.8805 20.1791 20.8805 19.8779 20.6474 19.8779C20.4146 19.8779 20.4146 19.8657 20.1815 19.8657C19.9483 19.8657 19.9483 20.0048 19.7152 20.0048C19.4827 20.0048 19.4827 19.9641 19.2503 19.9641C19.0181 19.9641 19.0181 20.0761 18.7853 20.0761C18.5519 20.0761 18.5519 19.9329 18.3187 19.9329C18.0859 19.9329 18.0859 20.0038 17.8532 20.0038C17.62 20.0038 17.62 20.0095 17.3869 20.0095C17.1534 20.0095 17.1534 20.1728 16.92 20.1728C16.6868 20.1728 16.6868 20.1858 16.4537 20.1858C16.2199 20.1858 16.2199 20.0201 15.9865 20.0201C15.7523 20.0201 15.7523 19.8693 15.5182 19.8693C15.2844 19.8693 15.1694 19.8097 15.0045 19.9757C14.8384 20.1427 14.8954 20.256 14.8954 20.4916C14.8954 20.7269 15.1528 20.7269 15.1528 20.9625C15.1528 21.1967 14.8898 21.1967 14.8898 21.4314C14.8898 21.666 14.9369 21.666 14.9369 21.9002C14.9369 22.1352 15.0205 22.1352 15.0205 22.3698C15.0205 22.6047 14.9634 22.6047 14.9634 22.8396C14.9634 23.0749 14.9647 23.0749 14.9647 23.3105C14.9647 23.5461 15.0148 23.5461 15.0148 23.782C15.0148 24.0173 15.0198 24.0173 15.0198 24.2529C15.0198 24.4878 14.9395 24.4878 14.9395 24.7231C14.9395 24.958 15.1558 24.958 15.1558 25.193C15.1558 25.4282 15.0377 25.4282 15.0377 25.6632C15.0377 25.8984 14.9329 25.8984 14.9329 26.1337C14.9329 26.3693 15.1899 26.3693 15.1899 26.6049C15.1899 26.8405 15.166 26.8405 15.166 27.0761C15.166 27.3117 15.177 27.3117 15.177 27.547C15.177 27.7826 15.183 27.7826 15.183 28.0178C15.183 28.2531 15.045 28.2531 15.045 28.4887C15.045 28.7246 15.1458 28.7246 15.1458 28.9602C15.1458 29.1962 14.9213 29.1962 14.9213 29.4321C14.9213 29.6677 15.0496 29.6677 15.0496 29.9033C15.0496 30.1389 15.1442 30.1389 15.1442 30.3748C15.1442 30.6107 15.2131 30.6107 15.2131 30.8463C15.2131 31.0823 14.9933 31.0823 14.9933 31.3179C14.9933 31.5541 15.1216 31.5541 15.1216 31.7901C15.1216 32.026 14.9966 32.026 14.9966 32.2619C14.9966 32.4982 15.1103 32.4982 15.1103 32.7341C15.1103 32.9697 14.9332 32.9697 14.9332 33.205C14.9332 33.4406 14.907 33.4406 14.907 33.6758C14.907 33.9118 15.0702 33.9118 15.0702 34.148C15.0702 34.384 15.1916 34.384 15.1916 34.6199C15.1916 34.8561 15.1531 34.8561 15.1531 35.0924C15.1531 35.3287 15.1899 35.3287 15.1899 35.5653C15.1899 35.8012 15.0407 35.8012 15.0407 36.0371C15.0407 36.2737 15.1611 36.2737 15.1611 36.5103C15.1611 36.7476 15.176 36.7476 15.176 36.9845C15.176 37.2217 14.8341 37.338 15.0002 37.5074C15.1637 37.6734 15.2831 37.5856 15.5159 37.5856C15.7484 37.5856 15.7484 37.4275 15.9808 37.4275C16.214 37.4275 16.214 37.3072 16.4468 37.3072C16.6799 37.3072 16.6799 37.5296 16.9127 37.5296C17.1455 37.5296 17.1455 37.4623 17.3783 37.4623C17.6111 37.4623 17.6111 37.4504 17.8445 37.4504C18.0773 37.4504 18.0773 37.464 18.3101 37.464C18.5433 37.464 18.5433 37.4358 18.7764 37.4358C19.0088 37.4358 19.0088 37.5604 19.2413 37.5604C19.4741 37.5604 19.4741 37.3609 19.7062 37.3609C19.9397 37.3609 19.9397 37.5869 20.1728 37.5869C20.4056 37.5869 20.4056 37.3805 20.6384 37.3805C20.8716 37.3805 20.8716 37.4 21.105 37.4C21.3385 37.4 21.3385 37.3062 21.5719 37.3062C21.8051 37.3062 21.8051 37.3831 22.0379 37.3831C22.2716 37.3831 22.2716 37.6061 22.5051 37.6061C22.7392 37.6061 22.7392 37.5286 22.9734 37.5286C23.2071 37.5286 23.1624 37.511 23.3272 37.3453C23.4933 37.1783 23.4031 37.2234 23.4031 36.9881C23.4031 36.7525 23.4638 36.7525 23.4638 36.5173C23.4638 36.2827 23.2954 36.2827 23.2954 36.0484C23.2954 35.8138 23.3113 35.8138 23.3113 35.5792C23.3113 35.3446 23.3365 35.3446 23.3365 35.11C23.3365 34.8747 23.5941 34.8747 23.5941 34.6398C23.5941 34.4045 23.3856 34.4045 23.3856 34.1692C23.3856 33.9333 23.3723 33.9333 23.3723 33.6974C23.3723 33.4621 23.5361 33.4621 23.5361 33.2268C23.5361 32.9916 23.4466 32.9916 23.4466 32.7566C23.4466 32.5214 23.3182 32.5214 23.3182 32.2864C23.3182 32.0515 23.3239 32.0515 23.3239 31.8166C23.3239 31.5813 23.4864 31.5813 23.4864 31.346C23.4864 31.1104 23.2871 31.1104 23.2871 30.8748C23.2871 30.6389 23.4446 30.6389 23.4446 30.4033C23.4446 30.168 23.3945 30.168 23.3945 29.9324C23.3945 29.6972 23.4068 29.6972 23.4068 29.4619C23.4068 29.2263 23.5162 29.2263 23.5162 28.9907C23.5162 28.7551 23.2954 28.7551 23.2954 28.5192C23.2954 28.2832 23.5991 28.2833 23.5991 28.0477C23.5991 27.8121 23.4436 27.8121 23.4436 27.5765C23.4436 27.3405 23.5792 27.3405 23.5792 27.1049C23.5792 26.869 23.5902 26.869 23.5902 26.6331C23.5902 26.3975 23.5165 26.3975 23.5165 26.1615C23.5165 25.9256 23.5806 25.9256 23.5806 25.6894C23.5806 25.4534 23.4675 25.4534 23.4675 25.2178C23.4675 24.9816 23.3385 24.9816 23.3385 24.7453C23.3385 24.51 23.3703 24.51 23.3703 24.2744C23.3703 24.0392 23.5882 24.0392 23.5882 23.8039C23.5882 23.5676 23.3693 23.5676 23.3693 23.3314C23.3693 23.0955 23.5477 23.0955 23.5477 22.8595C23.5477 22.6236 23.5394 22.6236 23.5394 22.3873C23.5394 22.1507 23.499 22.1507 23.499 21.9145C23.499 21.6782 23.4874 21.6782 23.4874 21.4423C23.4874 21.2057 23.3474 21.2057 23.3474 20.9691C23.3474 20.7318 23.3962 20.7275 23.4469 20.4963C23.5023 20.2454 23.6147 20.1831 23.4486 20.0141Z" fill="#00BFE1"/>
<path fill-rule="evenodd" clip-rule="evenodd" d="M66.6893 0.249929C66.5288 0.249929 66.372 0.332769 66.2125 0.337077C66.0513 0.340722 65.8918 0.280083 65.7316 0.288036C65.5715 0.29632 65.4136 0.310237 65.2541 0.322166C65.0936 0.334426 64.9407 0.390426 64.7815 0.406663C64.6217 0.422569 64.4539 0.349338 64.2951 0.369551C64.1359 0.390095 63.9694 0.358284 63.8112 0.382474C63.6524 0.407326 63.5141 0.545504 63.3566 0.574001C63.1984 0.602167 63.0395 0.614096 62.8827 0.646569C62.7255 0.679374 62.5793 0.750285 62.4237 0.786735C62.2672 0.823516 62.0888 0.76354 61.9339 0.804297C61.7784 0.845055 61.6053 0.821859 61.4514 0.866262C61.2972 0.910996 61.1171 0.879516 60.9646 0.928226C60.8114 0.976937 60.7355 1.25661 60.5842 1.30896C60.4324 1.36165 60.2549 1.33746 60.105 1.39412C59.9545 1.45078 59.8096 1.51838 59.6613 1.57869C59.5124 1.639 59.3844 1.74437 59.2375 1.80832C59.0906 1.87261 58.9228 1.88818 58.7779 1.95611C58.6327 2.02404 58.4277 1.97235 58.2845 2.04425C58.1412 2.11616 57.9731 2.14797 57.8315 2.22319C57.6899 2.29907 57.5652 2.4124 57.4259 2.49159C57.2866 2.57046 57.2511 2.82925 57.1138 2.91176C56.9765 2.9946 56.7487 2.93197 56.6134 3.01812C56.4785 3.10395 56.4078 3.2905 56.2748 3.37964C56.1419 3.46944 56.0042 3.55162 55.8739 3.6444C55.7429 3.73718 55.5957 3.80743 55.4677 3.90385C55.3393 3.99995 55.2309 4.12222 55.1056 4.22163C54.9795 4.32104 54.9175 4.496 54.7945 4.59872C54.6715 4.70177 54.5753 4.83034 54.4549 4.93638C54.3345 5.04208 54.2228 5.15209 54.1054 5.26078C53.9877 5.3698 53.7509 5.35124 53.6365 5.46291C53.5214 5.57458 53.4199 5.70017 53.3078 5.81515C53.1964 5.93013 53.0435 6.00701 52.9344 6.12464C52.8253 6.24194 52.76 6.40033 52.6546 6.52062C52.5484 6.6409 52.4393 6.7592 52.3369 6.88213C52.2341 7.00507 52.0195 7.03953 51.9197 7.16512C51.8202 7.2907 51.917 7.56905 51.8205 7.69728C51.7244 7.82486 51.5695 7.90869 51.4763 8.03925C51.3835 8.16947 51.3672 8.35139 51.2773 8.48427C51.1878 8.61714 50.9779 8.66983 50.8917 8.80503C50.8058 8.94022 50.6924 9.06017 50.6095 9.19769C50.5269 9.33454 50.4354 9.46907 50.3561 9.60858C50.2772 9.74775 50.185 9.88295 50.1097 10.0244C50.0341 10.1656 50.1167 10.3889 50.045 10.5321C49.9734 10.6756 49.7021 10.7233 49.6342 10.8684C49.5662 11.0132 49.7632 11.2783 49.6988 11.4254C49.6345 11.5722 49.5828 11.72 49.5221 11.8685C49.4617 12.0169 49.3417 12.1385 49.285 12.2886C49.2286 12.4384 49.1752 12.5869 49.1225 12.7386C49.0697 12.8901 48.9553 13.019 48.9066 13.172C48.8582 13.3245 48.761 13.4626 48.7162 13.6167C48.6715 13.7701 48.6294 13.9256 48.5886 14.081C48.5481 14.2357 48.5176 14.3941 48.4811 14.5502C48.444 14.7059 48.3724 14.855 48.3395 15.0124C48.3067 15.1688 48.4247 15.3547 48.3962 15.5128C48.3677 15.6698 48.1701 15.7994 48.1455 15.9581C48.1213 16.1162 48.0779 16.2743 48.0573 16.4336C48.0371 16.592 48.1896 16.7713 48.173 16.931C48.1568 17.0901 47.931 17.2319 47.9187 17.3919C47.9064 17.5516 48.1575 17.7283 48.1495 17.8886C48.1412 18.0487 48.1339 18.2058 48.1299 18.3665C48.126 18.5262 48.0828 18.6839 48.0828 18.8446C48.0828 19.0053 47.8603 19.1694 47.8643 19.3291C47.8683 19.4898 48.1711 19.6389 48.1793 19.7983C48.1873 19.959 47.9857 20.131 47.998 20.2904C48.0102 20.4507 48.0268 20.6118 48.0431 20.7708C48.0593 20.9305 48.188 21.0773 48.2085 21.2361C48.2288 21.3951 48.3309 21.5406 48.3551 21.6986C48.3796 21.857 48.4002 22.0131 48.4287 22.1702C48.4572 22.3286 48.4287 22.4949 48.4609 22.6513C48.4937 22.8087 48.3498 23.0055 48.3866 23.1613C48.4234 23.3173 48.5335 23.4575 48.5743 23.6123C48.6151 23.7677 48.7023 23.9105 48.7471 24.0639C48.7915 24.2183 48.9404 24.3393 48.9888 24.4917C49.0379 24.6444 48.9132 24.8545 48.966 25.0056C49.0187 25.1574 49.1689 25.2744 49.2256 25.4241C49.282 25.5742 49.475 25.668 49.5353 25.8161C49.5957 25.9649 49.5135 26.1714 49.5778 26.3178C49.6421 26.4646 49.7592 26.5862 49.8272 26.7314C49.8955 26.8765 49.7592 27.122 49.8311 27.2652C49.9031 27.4087 50.0394 27.5223 50.115 27.6635C50.1906 27.805 50.38 27.8845 50.4596 28.0237C50.5385 28.1632 50.4599 28.3968 50.5425 28.534C50.625 28.6715 50.7292 28.7997 50.8154 28.9349C50.9016 29.0701 51.025 29.1844 51.1142 29.3173C51.204 29.4502 51.3185 29.5685 51.4116 29.6987C51.5048 29.8293 51.6915 29.8912 51.7877 30.0195C51.8842 30.1477 51.9764 30.2773 52.0762 30.4028C52.1754 30.5284 52.2593 30.666 52.3621 30.7889C52.4649 30.9118 52.6071 30.9996 52.7132 31.1199C52.819 31.2402 52.8993 31.3814 53.0084 31.4993C53.1172 31.6166 53.1749 31.783 53.287 31.8976C53.399 32.0123 53.5635 32.0746 53.6786 32.1862C53.793 32.2982 53.8474 32.4742 53.9651 32.5829C54.0825 32.6916 54.1634 32.845 54.2838 32.951C54.4038 33.0567 54.7053 32.9507 54.8283 33.0531C54.9517 33.1558 55.0664 33.2622 55.1921 33.3616C55.3178 33.4613 55.2989 33.7463 55.4272 33.8424C55.5556 33.9385 55.7698 33.9176 55.9004 34.011C56.0308 34.1038 56.0609 34.3434 56.1943 34.4329C56.3269 34.5223 56.4536 34.6277 56.5889 34.7139C56.7239 34.8 56.9192 34.7934 57.0565 34.8759C57.1938 34.9584 57.4023 34.9177 57.5416 34.9965C57.6812 35.076 57.7466 35.2875 57.8882 35.363C58.0298 35.4382 58.2649 35.3289 58.4081 35.4008C58.5514 35.4727 58.5958 35.7461 58.7411 35.814C58.8863 35.8819 59.0949 35.8097 59.2418 35.8743C59.3884 35.9382 59.5181 36.039 59.667 36.0993C59.8155 36.1596 59.9227 36.3263 60.0729 36.3829C60.2224 36.4396 60.4035 36.4131 60.5551 36.4658C60.7063 36.5181 60.9036 36.4267 61.0565 36.4754C61.209 36.5241 61.3224 36.6928 61.4766 36.7378C61.6302 36.7822 61.7578 36.925 61.913 36.9658C62.0676 37.0062 62.2503 36.9386 62.4065 36.9754C62.5623 37.0119 62.6771 37.2418 62.8346 37.2743C62.9915 37.3068 63.1603 37.2962 63.3184 37.325C63.476 37.3535 63.6593 37.2355 63.8182 37.26C63.9764 37.2849 64.1283 37.3532 64.2881 37.3734C64.4463 37.3936 64.5942 37.5301 64.754 37.5467C64.9132 37.5626 65.0953 37.3283 65.2558 37.3406C65.4153 37.3528 65.5698 37.4108 65.7303 37.4188C65.8905 37.4267 66.05 37.3883 66.2112 37.3923C66.3707 37.3966 66.5285 37.5868 66.6893 37.5868C66.8502 37.5868 67.0067 37.3515 67.1662 37.3475C67.3274 37.3432 67.4958 37.5752 67.6554 37.5669C67.8159 37.5589 67.9697 37.4423 68.1296 37.43C68.2897 37.4181 68.4599 37.5116 68.619 37.4953C68.7789 37.4791 68.9148 37.26 69.0734 37.2398C69.2329 37.2193 69.4129 37.3542 69.5708 37.3296C69.73 37.3051 69.8935 37.3031 70.0513 37.2746C70.2092 37.2461 70.3869 37.3041 70.5434 37.2716C70.7009 37.2388 70.8621 37.2057 71.018 37.1693C71.1742 37.1325 71.2836 36.8999 71.4381 36.8591C71.5933 36.8183 71.7349 36.7335 71.8885 36.6888C72.043 36.644 72.1806 36.5549 72.3332 36.5065C72.4857 36.4578 72.6257 36.3816 72.7769 36.3289C72.9284 36.2762 73.1722 36.479 73.3221 36.4227C73.4723 36.366 73.5668 36.1656 73.7154 36.1049C73.8639 36.0443 73.9886 35.9313 74.1352 35.8667C74.2821 35.8027 74.5169 35.9303 74.6618 35.8624C74.8071 35.7944 74.8933 35.6019 75.0369 35.5303C75.1801 35.4584 75.3227 35.3855 75.464 35.3103C75.6056 35.2344 75.7416 35.1499 75.8812 35.0711C76.0208 34.9922 76.1355 34.8729 76.2728 34.7904C76.4101 34.7076 76.5013 34.5555 76.6366 34.4697C76.7716 34.3835 76.9513 34.3699 77.0843 34.2801C77.2173 34.1906 77.4232 34.2062 77.5539 34.1128C77.6842 34.02 77.6812 33.7463 77.8092 33.6499C77.9375 33.5538 78.0818 33.4842 78.2075 33.3844C78.3332 33.285 78.615 33.3772 78.7381 33.2741C78.8611 33.1717 78.8273 32.8851 78.9473 32.7797C79.0677 32.6737 79.1698 32.5521 79.2872 32.443C79.405 32.3344 79.6407 32.3513 79.7555 32.2396C79.8702 32.1276 79.9462 31.9762 80.0579 31.8612C80.1697 31.7469 80.3826 31.7256 80.4913 31.608C80.6004 31.4904 80.6164 31.2869 80.7222 31.1666C80.8283 31.0464 81.0428 31.0169 81.146 30.8939C81.2484 30.7707 81.1496 30.4834 81.2494 30.3578C81.3489 30.2322 81.5837 30.2117 81.6799 30.0837C81.7764 29.9555 81.7827 29.7617 81.8755 29.6308C81.9684 29.5002 82.1266 29.4151 82.2161 29.2822C82.3056 29.1493 82.3335 28.976 82.4197 28.8408C82.5056 28.7059 82.7192 28.6483 82.8021 28.5111C82.8846 28.3739 82.9649 28.2321 83.0438 28.0926C83.1231 27.9531 82.9656 27.6847 83.0412 27.5432C83.1164 27.402 83.3499 27.3444 83.4219 27.2009C83.4935 27.0578 83.4444 26.8573 83.5127 26.7118C83.581 26.567 83.6998 26.4474 83.7638 26.3003C83.8284 26.1538 84.0383 26.0676 84.099 25.9192C84.1597 25.7711 84.0211 25.5444 84.0778 25.3943C84.1342 25.2449 84.306 25.1375 84.3587 24.9857C84.4111 24.835 84.3792 24.6557 84.4277 24.503C84.4767 24.3505 84.5119 24.1958 84.557 24.0417C84.6018 23.8883 84.6283 23.7315 84.6691 23.5765C84.7099 23.4217 84.7716 23.2739 84.8087 23.1182C84.8452 22.9621 84.9845 22.8296 85.0173 22.6722C85.0498 22.5154 84.8976 22.3239 84.9264 22.1662C84.9549 22.0088 85.2809 21.9008 85.3058 21.742C85.33 21.5843 85.0786 21.3862 85.0992 21.2271C85.1194 21.0687 85.2889 20.9279 85.3051 20.7682C85.3217 20.6091 85.2415 20.4415 85.2537 20.2811C85.2663 20.122 85.3923 19.9693 85.4006 19.8089C85.4086 19.6492 85.4696 19.4891 85.4739 19.3281C85.4776 19.1687 85.2932 19.0053 85.2932 18.8446C85.2932 18.6839 85.4782 18.5209 85.4743 18.3608C85.4703 18.2005 85.3622 18.0424 85.3539 17.883C85.3459 17.7223 85.3953 17.5576 85.3831 17.3986C85.3708 17.2385 85.3615 17.0761 85.3449 16.9174C85.3287 16.7574 85.2013 16.6103 85.1811 16.4519C85.1605 16.2925 85.272 16.1142 85.2474 15.9558C85.2229 15.7974 84.9675 15.6781 84.9387 15.5207C84.9102 15.3627 85.0468 15.1741 85.0146 15.0174C84.9818 14.8603 84.8535 14.7248 84.817 14.5691C84.7802 14.4127 84.7961 14.2443 84.7556 14.0899C84.7145 13.9345 84.6442 13.788 84.5994 13.6346C84.5547 13.4805 84.497 13.3314 84.4486 13.179C84.3995 13.0259 84.2595 12.906 84.2068 12.7549C84.1541 12.6034 84.1385 12.4417 84.0821 12.2919C84.0254 12.1422 84.0009 11.9815 83.9405 11.8333C83.8802 11.6849 83.7933 11.5497 83.7289 11.4029C83.6646 11.2558 83.5306 11.1441 83.4623 10.9993C83.3943 10.8542 83.5893 10.5821 83.5174 10.439C83.4454 10.2955 83.1536 10.2657 83.0783 10.1245C83.0027 9.98302 83.0803 9.75802 83.001 9.61885C82.9218 9.47968 82.9198 9.2918 82.8372 9.15461C82.7543 9.0171 82.6416 8.89416 82.5557 8.7593C82.4695 8.62377 82.364 8.49818 82.2745 8.36498C82.1849 8.23243 81.9806 8.17743 81.8878 8.04687C81.7946 7.91664 81.6513 7.82453 81.5548 7.69695C81.4587 7.56871 81.5635 7.28441 81.464 7.15882C81.3642 7.03323 81.0786 7.05742 80.9755 6.93449C80.873 6.81155 80.7805 6.68133 80.6747 6.56138C80.5689 6.44109 80.3995 6.38145 80.2907 6.26381C80.1819 6.14618 80.1126 5.99508 80.0009 5.8801C79.8888 5.76578 79.7532 5.6783 79.6384 5.56663C79.5233 5.45463 79.5757 5.16701 79.4584 5.05832C79.3406 4.9493 79.1612 4.90556 79.0408 4.79953C78.9208 4.69382 78.7938 4.59441 78.6708 4.49169C78.5477 4.38897 78.3172 4.42045 78.1919 4.32104C78.0662 4.2213 78.1216 3.88762 77.9933 3.79119C77.8649 3.69477 77.597 3.78821 77.4663 3.6951C77.3357 3.60232 77.2733 3.41178 77.1407 3.32198C77.0074 3.23252 76.9288 3.0559 76.7935 2.96975C76.6585 2.88359 76.3584 3.06385 76.2211 2.98134C76.0838 2.8985 76.0122 2.7083 75.8726 2.62944C75.7333 2.55024 75.6238 2.41703 75.4826 2.34148C75.341 2.26626 75.1337 2.32094 74.9901 2.24903C74.8469 2.17746 74.7072 2.10456 74.562 2.03663C74.4171 1.9687 74.3216 1.79407 74.1743 1.72979C74.0278 1.66551 73.8338 1.71587 73.6852 1.65523C73.5366 1.59526 73.4859 1.28444 73.3357 1.22778C73.1858 1.17145 72.9692 1.29306 72.8173 1.24037C72.6665 1.18801 72.5381 1.06607 72.3849 1.01703C72.2324 0.968653 72.0297 1.08695 71.8759 1.04255C71.722 0.997812 71.6285 0.737031 71.473 0.696273C71.3181 0.655516 71.143 0.688983 70.9865 0.652534C70.8306 0.615752 70.6376 0.754262 70.4804 0.721788C70.3236 0.689315 70.2178 0.39606 70.0596 0.367231C69.9021 0.339065 69.7313 0.377172 69.5721 0.352651C69.4143 0.32813 69.2587 0.269479 69.0996 0.248935C68.9407 0.228722 68.761 0.391089 68.6011 0.374852C68.442 0.358284 68.2997 0.143231 68.1395 0.131302C67.9803 0.11871 67.8046 0.361929 67.6441 0.353645C67.4842 0.345693 67.3317 0.178355 67.1709 0.174047C67.011 0.170402 66.8502 0.249929 66.6893 0.249929Z" fill="#00BFE1"/>
<path fill-rule="evenodd" clip-rule="evenodd" d="M79.8385 5.47525C79.8455 5.46763 79.9848 5.49215 79.9775 5.48387C79.8657 5.37253 79.745 5.26451 79.6306 5.15615C79.5162 5.0478 79.4552 4.87714 79.3378 4.77177C79.2211 4.6664 78.9478 4.73632 78.8281 4.63359C78.7084 4.53087 78.6096 4.40562 78.4872 4.30654C78.3652 4.2068 78.1811 4.18824 78.0564 4.09182C77.9317 3.99539 77.9609 3.69551 77.8336 3.6024C77.7066 3.50895 77.4552 3.58947 77.3255 3.49934C77.1959 3.40954 77.1856 3.14346 77.0539 3.05664C76.9223 2.96983 76.6404 3.11795 76.5068 3.03444C76.3731 2.95127 76.2428 2.86942 76.1068 2.78957C75.9712 2.70938 75.8462 2.61792 75.7082 2.54138C75.5706 2.46483 75.5248 2.21962 75.3849 2.14639C75.2453 2.07349 75.04 2.13049 74.8984 2.06123C74.7568 1.99165 74.6052 1.94956 74.4617 1.88395C74.3184 1.81834 74.1659 1.78189 74.0206 1.71993C73.876 1.65763 73.8024 1.42601 73.6555 1.36769C73.5096 1.30904 73.3812 1.19737 73.2333 1.1427C73.0858 1.08802 72.9352 1.03335 72.7853 0.982319C72.6364 0.931621 72.4816 0.890201 72.3307 0.843147C72.1804 0.796094 72.0365 0.717893 71.8846 0.674816C71.7331 0.631407 71.5169 0.824922 71.364 0.78549C71.2115 0.74639 71.0937 0.569443 70.9399 0.533987C70.7863 0.498531 70.6192 0.525371 70.4643 0.493892C70.3104 0.462413 70.1871 0.260282 70.0312 0.232448C69.8764 0.204945 69.6837 0.399785 69.5272 0.375927C69.372 0.352401 69.2231 0.287454 69.0665 0.267572C68.9104 0.248022 68.7624 0.152921 68.6049 0.137678C68.4484 0.121773 68.2866 0.15524 68.1287 0.143311C67.9722 0.131714 67.8104 0.210909 67.6525 0.203288C67.495 0.195335 67.3431 0.060471 67.1849 0.0564946C67.0277 0.0528497 66.8692 0.151927 66.7107 0.151927C66.5525 0.151927 66.394 0.0647787 66.2365 0.068755C66.0783 0.0724 65.9201 0.084329 65.763 0.0926131C65.6048 0.100234 65.4559 0.232779 65.2987 0.244708C65.1412 0.256306 64.9647 0.0581515 64.8082 0.0740568C64.6507 0.0899622 64.4975 0.158885 64.3413 0.178767C64.1841 0.198649 64.0442 0.338483 63.8883 0.36201C63.7321 0.3862 63.5789 0.417016 63.4237 0.444519C63.2678 0.472354 63.1259 0.557514 62.9714 0.588993C62.8165 0.620804 62.656 0.61252 62.5021 0.648307C62.3479 0.683762 62.1901 0.69536 62.0375 0.734792C61.8843 0.774224 61.7096 0.731478 61.5577 0.774556C61.4058 0.817964 61.2751 0.932946 61.1249 0.98C60.974 1.02738 60.8072 1.0244 60.658 1.07543C60.5084 1.12646 60.338 1.12149 60.1901 1.17617C60.0419 1.23117 59.894 1.29247 59.7477 1.35112C59.6011 1.40944 59.5166 1.61754 59.3717 1.67984C59.2264 1.74213 58.9926 1.60594 58.849 1.67188C58.7054 1.73816 58.6869 2.06455 58.5449 2.13413C58.403 2.20405 58.2577 2.25773 58.1178 2.33096C57.9775 2.40386 57.7378 2.28987 57.5998 2.36642C57.4615 2.44329 57.3474 2.56457 57.2118 2.64443C57.0752 2.72462 56.8802 2.71103 56.7459 2.79454C56.6119 2.87837 56.5283 3.04438 56.3967 3.1312C56.2647 3.21802 56.1354 3.31113 56.006 3.40093C55.8764 3.49139 55.8021 3.65807 55.6748 3.75151C55.5474 3.84495 55.4711 4.00169 55.3461 4.09811C55.2214 4.19487 55.0026 4.17134 54.8802 4.27108C54.7578 4.37116 54.6809 4.52424 54.5612 4.62697C54.4415 4.73002 54.2767 4.78171 54.1596 4.88775C54.0425 4.99345 54.0137 5.19293 53.8993 5.30195C53.7849 5.41064 53.5653 5.41064 53.4539 5.52231C53.3421 5.63398 53.2848 5.79866 53.176 5.91265C53.0672 6.0273 52.9558 6.13831 52.8494 6.25528C52.7439 6.37258 52.717 6.55715 52.6139 6.67677C52.5111 6.79639 52.3824 6.89083 52.2823 7.01343C52.1828 7.13571 52.0936 7.26328 51.9968 7.3882C51.9003 7.5128 51.638 7.51313 51.5444 7.64037C51.4509 7.76728 51.5371 8.02342 51.4469 8.15299C51.3564 8.28255 51.1412 8.32629 51.054 8.45784C50.9674 8.58939 50.9857 8.78854 50.9018 8.92241C50.8182 9.05628 50.6786 9.15469 50.5983 9.29088C50.5181 9.42674 50.3579 9.51787 50.281 9.65571C50.2044 9.79356 50.137 9.93903 50.0634 10.0789C49.9901 10.2184 49.8419 10.3237 49.7719 10.4656C49.7026 10.6067 49.6552 10.7635 49.5892 10.9069C49.5232 11.0501 49.6406 11.2761 49.5783 11.4212C49.5159 11.566 49.3481 11.6674 49.2894 11.8139C49.2307 11.9603 49.2112 12.123 49.1561 12.2711C49.1014 12.4186 49.2171 12.6254 49.1661 12.7748C49.1153 12.9239 48.8978 13.017 48.8507 13.1678C48.8033 13.3183 48.7379 13.4637 48.6945 13.6158C48.6511 13.7672 48.7008 13.9442 48.6607 14.0973C48.6215 14.2494 48.534 14.3895 48.4982 14.5436C48.463 14.697 48.5781 14.8816 48.5466 15.0364C48.5151 15.1908 48.4537 15.3362 48.4259 15.492C48.3984 15.6467 48.2588 15.7819 48.2349 15.9383C48.2113 16.0941 48.333 16.268 48.3135 16.4251C48.2936 16.5815 48.073 16.7137 48.0571 16.8711C48.0412 17.0275 48.1344 17.1942 48.1221 17.3522C48.1105 17.509 47.9255 17.6564 47.9175 17.8142C47.9099 17.9719 47.9165 18.1326 47.9125 18.291C47.9086 18.4484 47.9676 18.7416 47.9676 18.9004C48.1948 18.9753 48.2511 18.736 48.4906 18.736C48.73 18.736 48.73 18.6489 48.9694 18.6489C49.2088 18.6489 49.2088 18.8039 49.4483 18.8039C49.6877 18.8039 49.6877 18.7585 49.9275 18.7585C50.1659 18.7585 50.1659 18.7801 50.4043 18.7801C50.6431 18.7801 50.6431 18.6581 50.8819 18.6581C51.1203 18.6581 51.1203 18.7857 51.3591 18.7857C51.5985 18.7857 51.5985 18.8884 51.8376 18.8884C52.0767 18.8884 52.0767 18.8984 52.3161 18.8984C52.5562 18.8984 52.5562 18.734 52.796 18.734C53.0354 18.734 53.0354 18.8623 53.2748 18.8623C53.5143 18.8623 53.5143 18.634 53.7534 18.634C53.9928 18.634 53.9928 18.847 54.2316 18.847C54.4707 18.847 54.4707 18.8013 54.7101 18.8013C54.9488 18.8013 54.9488 18.8679 55.1883 18.8679C55.4284 18.8679 55.4284 18.8692 55.6678 18.8692C55.9076 18.8692 55.9076 18.6949 56.1476 18.6949C56.3871 18.6949 56.3871 18.7847 56.6268 18.7847C56.8663 18.7847 56.8663 18.907 57.1057 18.907C57.3451 18.907 57.3451 18.8059 57.5849 18.8059C57.8246 18.8059 57.8246 18.7065 58.0647 18.7065C58.3045 18.7065 58.3045 18.903 58.5443 18.903C58.784 18.903 58.784 18.8195 59.0235 18.8195C59.2635 18.8195 59.2635 18.8016 59.5036 18.8016C59.7434 18.8016 59.7434 18.7042 59.9835 18.7042C60.2236 18.7042 60.2236 18.6068 60.4633 18.6068C60.7034 18.6068 60.7034 18.7294 60.9435 18.7294C61.1836 18.7294 61.1836 18.7231 61.4237 18.7231C61.6638 18.7231 61.6638 18.9203 61.9039 18.9203C62.1437 18.9203 62.1437 18.8815 62.3831 18.8815C62.6225 18.8815 62.6225 18.634 62.8623 18.634C63.1024 18.634 63.1024 18.8182 63.3428 18.8182C63.5826 18.8182 63.5826 18.8947 63.8226 18.8947C64.0631 18.8947 64.0631 18.8656 64.3032 18.8656C64.5439 18.8656 64.5439 18.8132 64.7843 18.8132C65.0244 18.8132 65.0244 18.6045 65.2649 18.6045C65.5053 18.6045 65.5053 18.7579 65.7464 18.7579C65.9871 18.7579 65.9871 18.7933 66.2285 18.7933C66.47 18.7933 66.4547 18.7781 66.6772 18.6863C66.8984 18.5955 66.8643 18.5826 67.0334 18.4136C67.2022 18.2446 67.2294 18.2718 67.3982 18.1031C67.567 17.9348 67.6432 18.0103 67.8117 17.8417C67.9805 17.6733 67.9344 17.6273 68.1029 17.4586C68.2717 17.29 68.2292 17.2475 68.3977 17.0792C68.5665 16.9105 68.6646 17.0083 68.8331 16.8396C69.0019 16.671 68.7923 16.4615 68.9614 16.2929C69.1305 16.1239 69.3534 16.3469 69.5225 16.1779C69.6916 16.0086 69.6734 15.9904 69.8425 15.8214C70.0123 15.6517 69.883 15.5221 70.0524 15.3528C70.2219 15.1838 70.2441 15.2057 70.4136 15.0364C70.5827 14.8677 70.6812 14.9661 70.8503 14.7971C71.0194 14.6281 71.0311 14.6401 71.2002 14.4711C71.3693 14.3024 71.1959 14.1284 71.3647 13.9594C71.5338 13.7904 71.7258 13.9823 71.8949 13.813C72.0647 13.6437 72.0634 13.6427 72.2328 13.4733C72.4026 13.3037 72.3456 13.2467 72.5154 13.0774C72.6848 12.908 72.517 12.7407 72.6865 12.5714C72.8556 12.402 72.853 12.3994 73.0218 12.2301C73.1912 12.0607 73.2111 12.0806 73.3802 11.9113C73.55 11.7416 73.5686 11.7599 73.7381 11.5905C73.9075 11.4209 74.064 11.5773 74.2338 11.4076C74.403 11.2383 74.2687 11.1041 74.4384 10.9348C74.6079 10.7654 74.5741 10.7313 74.7439 10.5623C74.9133 10.3923 75.0201 10.4987 75.1896 10.329C75.359 10.1604 75.3846 10.1859 75.5537 10.0169C75.7228 9.84823 75.6674 9.7929 75.8366 9.62423C76.0053 9.45524 76.0027 9.45226 76.1715 9.28326C76.3416 9.11327 76.392 9.16397 76.5621 8.99398C76.7316 8.82433 76.711 8.80411 76.8805 8.63445C77.0503 8.4648 77.0499 8.4648 77.2197 8.29547C77.3895 8.12548 77.302 8.03767 77.4718 7.86768C77.6419 7.69803 77.8213 7.87729 77.9911 7.70764C78.1612 7.53765 78.1098 7.48596 78.2799 7.3163C78.4494 7.14697 78.4683 7.16619 78.6377 6.99687C78.8079 6.82655 78.6218 6.64098 78.7923 6.47099C78.9627 6.30034 79.101 6.43852 79.2715 6.26853C79.4426 6.09755 79.49 6.1287 79.6326 5.93353C79.7795 5.73173 79.675 5.65352 79.8385 5.47525Z" fill="#196CF2"/>
<path fill-rule="evenodd" clip-rule="evenodd" d="M85.2701 18.8447C85.2701 18.6863 85.5191 18.525 85.5151 18.3682C85.5115 18.2098 85.4389 18.0518 85.4309 17.895C85.4229 17.737 85.2034 17.5935 85.1915 17.4364C85.1799 17.2787 85.1513 17.1263 85.1358 16.9702C85.1198 16.8128 85.4004 16.6219 85.3805 16.4659C85.3606 16.3095 85.0625 16.1908 85.0389 16.0354C85.015 15.8794 85.0747 15.7117 85.0472 15.5566C85.0194 15.4012 84.8724 15.2713 84.8409 15.1169C84.8091 14.9622 84.9743 14.766 84.9391 14.6129C84.9036 14.4591 84.8811 14.3008 84.8416 14.1483C84.8021 13.9952 84.6111 13.8842 84.568 13.7328C84.5246 13.581 84.6993 13.3633 84.6523 13.2132C84.6048 13.0625 84.2643 13.0084 84.2132 12.8597C84.1621 12.7102 84.1959 12.5339 84.1412 12.3865C84.0862 12.2384 83.9476 12.1264 83.8889 11.9799C83.8302 11.8338 83.8587 11.6545 83.7967 11.5097C83.7343 11.3649 83.677 11.2194 83.6113 11.0766C83.5453 10.9331 83.5642 10.7496 83.4949 10.6087C83.4256 10.4669 83.2813 10.3632 83.2081 10.2237C83.1351 10.0842 83.1487 9.89762 83.0721 9.75978C82.9955 9.62193 82.9441 9.46752 82.8642 9.33199C82.7839 9.19613 82.506 9.18089 82.4224 9.04735C82.3389 8.91348 82.2371 8.79618 82.1505 8.66463C82.0636 8.53308 82.1193 8.30742 82.0291 8.17819C81.9389 8.04896 81.8985 7.88261 81.805 7.7557C81.7118 7.62879 81.4661 7.61719 81.3696 7.4926C81.2727 7.36801 81.2754 7.16654 81.1756 7.0446C81.0761 6.92233 80.9441 6.82723 80.8416 6.70794C80.7385 6.58831 80.5922 6.50912 80.4861 6.39248C80.3807 6.27551 80.3873 6.05416 80.2789 5.9405C80.1701 5.82618 79.9953 5.77615 79.8839 5.66448C79.8816 5.66514 79.7983 5.55215 79.7964 5.55413C79.6269 5.72213 79.6872 5.7831 79.5181 5.9521C79.3493 6.12076 79.342 6.11281 79.1732 6.28147C79.0044 6.45014 79.1626 6.60753 78.9938 6.7762C78.8254 6.94453 78.6085 6.72782 78.4397 6.89582C78.2716 7.06415 78.3114 7.10424 78.1429 7.27258C77.9744 7.44124 78.0822 7.5486 77.9134 7.71726C77.745 7.88593 77.7088 7.84948 77.54 8.01814C77.3716 8.1868 77.4475 8.26268 77.2784 8.43168C77.1096 8.60067 77.0021 8.49364 76.8333 8.66231C76.6639 8.83163 76.7173 8.88531 76.5478 9.05464C76.3787 9.22363 76.2805 9.12555 76.1114 9.29454C75.9423 9.46321 75.9562 9.47712 75.7874 9.64612C75.6186 9.81478 75.7546 9.95064 75.5858 10.1196C75.4167 10.2883 75.281 10.1528 75.1122 10.3214C74.9431 10.4904 74.9262 10.4729 74.7571 10.6419C74.5876 10.8112 74.6211 10.8443 74.452 11.0136C74.2822 11.183 74.388 11.2883 74.2185 11.458C74.0494 11.627 73.9582 11.5359 73.7891 11.7049C73.6199 11.8739 73.5423 11.7963 73.3732 11.9653C73.2041 12.1346 73.3241 12.2543 73.1547 12.4233C72.9852 12.5929 72.9474 12.5551 72.778 12.7241C72.6082 12.8935 72.58 12.8653 72.4109 13.0346C72.2414 13.2039 72.4032 13.3657 72.2341 13.5346C72.065 13.704 71.9924 13.6317 71.8229 13.8007C71.6531 13.9701 71.5506 13.8673 71.3808 14.0367C71.2121 14.2057 71.1789 14.1722 71.0101 14.3412C70.8413 14.5098 70.8536 14.5221 70.6851 14.6908C70.516 14.8598 70.5664 14.9101 70.3973 15.0791C70.2278 15.2485 70.2533 15.2743 70.0836 15.4436C69.9141 15.6129 69.9413 15.6398 69.7722 15.8091C69.6027 15.9784 69.5357 15.9115 69.3663 16.0808C69.1961 16.2508 69.2691 16.3237 69.099 16.493C68.9295 16.6627 68.9282 16.6614 68.7584 16.831C68.5883 17.0007 68.6447 17.0567 68.4749 17.2263C68.3057 17.3957 68.2427 17.333 68.0739 17.502C67.9038 17.672 67.9589 17.727 67.7887 17.897C67.6183 18.067 67.5649 18.0137 67.3948 18.184C67.224 18.3546 67.23 18.3603 67.0589 18.5313C66.8881 18.7016 66.7667 18.6154 66.6742 18.8381C66.582 19.0588 66.5538 19.0836 66.5538 19.3225C66.5538 19.5615 66.7637 19.5615 66.7637 19.8007C66.7637 20.0393 66.7972 20.0393 66.7972 20.2785C66.7972 20.5178 66.5359 20.5178 66.5359 20.7567C66.5359 20.9946 66.6453 20.9946 66.6453 21.2328C66.6453 21.4711 66.7796 21.4711 66.7796 21.7093C66.7796 21.9473 66.5856 21.9473 66.5856 22.1858C66.5856 22.4244 66.7478 22.4244 66.7478 22.663C66.7478 22.9019 66.6782 22.9019 66.6782 23.1412C66.6782 23.3804 66.6357 23.3804 66.6357 23.6196C66.6357 23.8589 66.6062 23.8589 66.6062 24.0981C66.6062 24.3364 66.8055 24.3364 66.8055 24.5753C66.8055 24.8142 66.7644 24.8142 66.7644 25.0525C66.7644 25.2914 66.8539 25.2914 66.8539 25.5299C66.8539 25.7689 66.7889 25.7689 66.7889 26.0074C66.7889 26.247 66.6599 26.247 66.6599 26.4863C66.6599 26.7255 66.6639 26.7255 66.6639 26.9651C66.6639 27.2043 66.6095 27.2043 66.6095 27.4432C66.6095 27.6821 66.5455 27.6821 66.5455 27.9214C66.5455 28.1603 66.6224 28.1603 66.6224 28.3992C66.6224 28.6388 66.7196 28.6388 66.7196 28.878C66.7196 29.1176 66.8168 29.1176 66.8168 29.3572C66.8168 29.5964 66.7203 29.5964 66.7203 29.8357C66.7203 30.0752 66.7083 30.0752 66.7083 30.3141C66.7083 30.554 66.6649 30.554 66.6649 30.7936C66.6649 31.0329 66.7067 31.0329 66.7067 31.2724C66.7067 31.5123 66.5893 31.5123 66.5893 31.7516C66.5893 31.9912 66.8403 31.9912 66.8403 32.2307C66.8403 32.4706 66.8271 32.4706 66.8271 32.7106C66.8271 32.9491 66.6798 32.9491 66.6798 33.1884C66.6798 33.4276 66.8324 33.4276 66.8324 33.6665C66.8324 33.9064 66.832 33.9064 66.832 34.1463C66.832 34.3859 66.8032 34.3859 66.8032 34.6255C66.8032 34.8654 66.8198 34.8654 66.8198 35.105C66.8198 35.3452 66.6675 35.3452 66.6675 35.5854C66.6675 35.8247 66.5929 35.8247 66.5929 36.0646C66.5929 36.3048 66.8062 36.3048 66.8062 36.5451C66.8062 36.786 66.5661 36.786 66.5661 37.0265C66.5661 37.2674 66.6457 37.2688 66.7219 37.4971C66.8828 37.4971 67.0078 37.3963 67.1676 37.3924C67.3281 37.3884 67.4883 37.4301 67.6478 37.4219C67.8086 37.4139 67.9834 37.6177 68.1429 37.6054C68.3031 37.5935 68.4354 37.2744 68.5949 37.2582C68.7548 37.2419 68.9133 37.2492 69.0721 37.2287C69.2316 37.2085 69.4167 37.3791 69.5748 37.3543C69.7337 37.3297 69.8766 37.2091 70.0341 37.1806C70.192 37.1521 70.3435 37.0971 70.5004 37.0643C70.6579 37.0318 70.8075 36.9742 70.9633 36.9377C71.1199 36.9006 71.2538 36.7883 71.4087 36.7475C71.5642 36.7068 71.7649 36.8373 71.9184 36.7926C72.0729 36.7479 72.2195 36.677 72.3717 36.6282C72.5246 36.5795 72.6224 36.3724 72.7736 36.3197C72.9252 36.2674 73.1812 36.5033 73.3311 36.4467C73.4813 36.39 73.6296 36.3191 73.7781 36.2588C73.9267 36.1981 73.9748 35.9002 74.1217 35.836C74.2686 35.7717 74.5203 35.938 74.6652 35.8701C74.8105 35.8018 74.8715 35.5579 75.0144 35.486C75.158 35.4141 75.2678 35.2822 75.409 35.207C75.5506 35.1315 75.8212 35.2902 75.9608 35.2113C76.1005 35.1321 76.1449 34.8889 76.2822 34.8064C76.4201 34.7239 76.5448 34.6242 76.6805 34.538C76.8154 34.4519 76.9385 34.3508 77.0714 34.261C77.2047 34.1715 77.3215 34.0635 77.4525 33.9704C77.5828 33.8776 77.8037 33.9094 77.932 33.813C78.0603 33.7169 78.1628 33.586 78.2885 33.4869C78.4142 33.3872 78.5269 33.2719 78.6499 33.1692C78.773 33.0664 78.9176 32.9882 79.0379 32.8822C79.158 32.7765 79.1527 32.5336 79.2701 32.4246C79.3878 32.3156 79.5238 32.2314 79.6388 32.1201C79.7532 32.0081 79.8789 31.9113 79.991 31.7963C80.1028 31.6817 80.2732 31.6243 80.382 31.5067C80.4908 31.3891 80.5253 31.2072 80.6314 31.0865C80.7372 30.9663 80.8625 30.8662 80.9656 30.7433C81.0681 30.6203 81.2001 30.5232 81.2996 30.3976C81.3991 30.2721 81.4067 30.0785 81.5029 29.9506C81.5994 29.8227 81.8557 29.8138 81.9486 29.6829C82.0417 29.5523 82.1021 29.3989 82.1916 29.2657C82.2812 29.1332 82.4079 29.0235 82.4941 28.8886C82.5803 28.7531 82.7547 28.6699 82.8373 28.5324C82.9199 28.3952 82.9491 28.2232 83.0283 28.0837C83.1076 27.9446 83.0343 27.7212 83.1096 27.5797C83.1852 27.4386 83.2183 27.2782 83.29 27.1351C83.3619 26.9919 83.5214 26.8932 83.5894 26.748C83.6574 26.6029 83.6975 26.4462 83.7619 26.2994C83.8262 26.1529 84.0023 26.0528 84.0626 25.9044C84.123 25.7559 84.0192 25.5439 84.0756 25.3938C84.1323 25.244 84.1442 25.0813 84.1973 24.9298C84.25 24.7787 84.4264 24.6711 84.4755 24.518C84.5239 24.3659 84.5024 24.1932 84.5471 24.0391C84.5919 23.8854 84.7501 23.7635 84.7909 23.6084C84.8313 23.4536 84.7919 23.279 84.8287 23.1226C84.8652 22.9669 84.9477 22.8217 84.9806 22.6643C85.0131 22.5083 85.1387 22.3678 85.1676 22.2097C85.1961 22.0526 85.0054 21.8585 85.03 21.6997C85.0545 21.5417 85.2349 21.4061 85.2551 21.2471C85.2757 21.0884 85.1371 20.9124 85.153 20.7527C85.1696 20.5936 85.3082 20.4465 85.3205 20.2865C85.3327 20.1271 85.4123 19.9704 85.4203 19.81C85.4286 19.6503 85.472 19.4889 85.4763 19.3285C85.4803 19.1688 85.2701 19.0051 85.2701 18.8447Z" fill="#A8D0FF"/>
<path fill-rule="evenodd" clip-rule="evenodd" d="M85.748 55.7368C85.5739 55.8999 85.6163 55.7259 85.3775 55.7259C85.1388 55.7259 85.1388 55.767 84.9 55.767C84.6616 55.767 84.6616 55.8568 84.4228 55.8568C84.184 55.8568 84.184 55.6885 83.9456 55.6885C83.7072 55.6885 83.7072 55.7355 83.4684 55.7355C83.2296 55.7355 83.2296 55.8323 82.9912 55.8323C82.7528 55.8323 82.7528 55.9237 82.514 55.9237C82.2752 55.9237 82.2752 55.9128 82.0368 55.9128C81.7984 55.9128 81.7984 55.7044 81.5596 55.7044C81.3208 55.7044 81.3208 55.9502 81.0824 55.9502C80.8436 55.9502 80.8436 55.8661 80.6052 55.8661C80.3664 55.8661 80.3664 56.0162 80.128 56.0162C79.8892 56.0162 79.8892 55.9015 79.6505 55.9015C79.412 55.9015 79.412 55.826 79.1733 55.826C78.9345 55.826 78.9345 55.9704 78.6957 55.9704C78.4573 55.9704 78.4573 55.8932 78.2185 55.8932C77.9794 55.8932 77.9794 55.9724 77.7407 55.9724C77.5022 55.9724 77.5022 55.9151 77.2631 55.9151C77.0244 55.9151 77.0244 55.7233 76.7856 55.7233C76.5465 55.7233 76.5465 55.714 76.3077 55.714C76.069 55.714 76.069 55.8051 75.8299 55.8051C75.5908 55.8051 75.5908 55.8167 75.3517 55.8167C75.1129 55.8167 75.1129 55.8071 74.8738 55.8071C74.6347 55.8071 74.6347 55.6957 74.396 55.6957C74.1569 55.6957 74.1569 55.708 73.9178 55.708C73.679 55.708 73.679 55.9761 73.4402 55.9761C73.2015 55.9761 73.2015 55.9171 72.9624 55.9171C72.7239 55.9171 72.7239 56.0042 72.4848 56.0042C72.2461 56.0042 72.2461 55.9012 72.0073 55.9012C71.7689 55.9012 71.7689 55.878 71.5298 55.878C71.291 55.878 71.291 55.7683 71.0526 55.7683C70.8138 55.7683 70.8138 56.0046 70.575 56.0046C70.3363 56.0046 70.3363 55.8346 70.0978 55.8346C69.8591 55.8346 69.8591 55.987 69.62 55.987C69.3812 55.987 69.3812 55.9141 69.1428 55.9141C68.904 55.9141 68.904 55.8972 68.6652 55.8972C68.4268 55.8972 68.4268 55.9903 68.188 55.9903C67.949 55.9903 67.949 55.9433 67.7102 55.9433C67.4717 55.9433 67.4717 55.8154 67.2327 55.8154C66.9939 55.8154 66.9939 55.989 66.7554 55.989C66.5163 55.989 66.5164 55.7199 66.2773 55.7199C66.0385 55.7199 66.0385 55.9516 65.7997 55.9516C65.5606 55.9516 65.5606 55.7163 65.3215 55.7163C65.0828 55.7163 65.0828 55.9598 64.8437 55.9598C64.6046 55.9598 64.6046 55.7445 64.3655 55.7445C64.1267 55.7445 64.1267 55.8548 63.8876 55.8548C63.6485 55.8548 63.6485 55.7889 63.4097 55.7889C63.1706 55.7889 63.1706 56.0155 62.9315 56.0155C62.6928 56.0155 62.6928 55.8787 62.454 55.8787C62.2149 55.8787 62.2149 55.8429 61.9762 55.8429C61.7374 55.8429 61.7374 55.7981 61.4986 55.7981C61.2595 55.7981 61.2595 55.988 61.0211 55.988C60.783 55.988 60.783 55.9446 60.5449 55.9446C60.3068 55.9446 60.3068 55.9499 60.0687 55.9499C59.8306 55.9499 59.8306 55.6961 59.5921 55.6961C59.354 55.6961 59.354 55.9221 59.1156 55.9221C58.8775 55.9221 58.8775 55.7474 58.6391 55.7474C58.4006 55.7474 58.4006 55.9602 58.1619 55.9602C57.9234 55.9602 57.9234 55.7633 57.685 55.7633C57.4462 55.7633 57.4462 55.8763 57.2078 55.8763C56.9687 55.8763 56.9687 55.7743 56.7299 55.7743C56.4908 55.7743 56.4908 55.8654 56.2521 55.8654C56.013 55.8654 56.013 55.7156 55.7735 55.7156C55.5348 55.7156 55.5348 55.8237 55.2957 55.8237C55.0566 55.8237 55.0566 55.8111 54.8178 55.8111C54.5791 55.8111 54.5791 55.8396 54.34 55.8396C54.1012 55.8396 54.1012 55.6921 53.8628 55.6921C53.624 55.6921 53.624 55.6957 53.3852 55.6957C53.1468 55.6957 53.1468 55.7981 52.9084 55.7981C52.6699 55.7981 52.6699 55.8717 52.4312 55.8717C52.1927 55.8717 52.1927 55.9062 51.9546 55.9062C51.7162 55.9062 51.7162 55.7975 51.4777 55.7975C51.2393 55.7975 51.2393 55.7875 51.0012 55.7875C50.7628 55.7875 50.7628 55.6885 50.5243 55.6885C50.2859 55.6885 50.2859 55.8717 50.0481 55.8717C49.8097 55.8717 49.8097 55.9784 49.5713 55.9784C49.3332 55.9784 49.3332 56.0019 49.0951 56.0019C48.8566 56.0019 48.8566 55.7584 48.6185 55.7584C48.3801 55.7584 48.3801 55.9612 48.142 55.9612C47.9036 55.9612 47.9036 55.7746 47.6651 55.7746C47.4267 55.7746 47.4267 55.8465 47.1886 55.8465C46.9501 55.8465 46.9501 55.7097 46.7117 55.7097C46.4729 55.7097 46.4729 55.9091 46.2348 55.9091C45.9961 55.9091 45.9961 55.8942 45.7576 55.8942C45.5189 55.8942 45.5189 55.8684 45.2804 55.8684C45.0413 55.8684 45.0413 55.9197 44.8026 55.9197C44.5641 55.9197 44.5641 55.9963 44.3251 55.9963C44.086 55.9963 44.086 55.9728 43.8469 55.9728C43.6078 55.9728 43.6078 55.8694 43.3687 55.8694C43.1292 55.8694 43.1292 55.9612 42.8901 55.9612C42.6507 55.9612 42.6507 55.8694 42.4116 55.8694C42.1725 55.8694 42.1725 55.935 41.9334 55.935C41.6946 55.935 41.6946 55.8177 41.4559 55.8177C41.2168 55.8177 41.2168 55.992 40.978 55.992C40.7389 55.992 40.7389 55.7229 40.5005 55.7229C40.2617 55.7229 40.2617 55.876 40.023 55.876C39.7845 55.876 39.7845 55.7557 39.5457 55.7557C39.307 55.7557 39.307 55.764 39.0682 55.764C38.8298 55.764 38.8298 55.8034 38.5914 55.8034C38.3526 55.8034 38.3526 55.8442 38.1138 55.8442C37.8754 55.8442 37.8754 55.707 37.6366 55.707C37.3979 55.707 37.3979 55.6904 37.1591 55.6904C36.9207 55.6904 36.9207 55.9804 36.6816 55.9804C36.4428 55.9804 36.4428 55.7428 36.204 55.7428C35.9649 55.7428 35.9649 55.7633 35.7262 55.7633C35.4871 55.7633 35.4871 55.9645 35.248 55.9645C35.0085 55.9645 35.0085 55.9744 34.7694 55.9744C34.53 55.9744 34.53 55.7282 34.2906 55.7282C34.0511 55.7282 34.0512 55.6911 33.8121 55.6911C33.573 55.6911 33.573 55.8512 33.3335 55.8512C33.0948 55.8512 33.0948 56.0059 32.8557 56.0059C32.6166 56.0059 32.6166 56.0029 32.3778 56.0029C32.1387 56.0029 32.1387 55.8999 31.8996 55.8999C31.6605 55.8999 31.6605 55.7733 31.4221 55.7733C31.183 55.7733 31.183 55.8034 30.9442 55.8034C30.7054 55.8034 30.7054 55.7219 30.4663 55.7219C30.2272 55.7219 30.2272 55.7988 29.9881 55.7988C29.7494 55.7988 29.7494 55.7014 29.5103 55.7014C29.2712 55.7014 29.2712 55.711 29.0324 55.711C28.793 55.711 28.793 55.8651 28.5536 55.8651C28.3141 55.8651 28.3141 55.6861 28.0747 55.6861C27.8353 55.6861 27.8353 55.7736 27.5958 55.7736C27.3568 55.7736 27.3567 55.8402 27.1173 55.8402C26.8782 55.8402 26.8782 55.8614 26.6391 55.8614C26.3997 55.8614 26.3997 55.8836 26.1606 55.8836C25.9218 55.8836 25.9218 55.9757 25.6827 55.9757C25.4433 55.9757 25.4433 55.6868 25.2045 55.6868C24.9654 55.6868 24.9654 55.7763 24.726 55.7763C24.4872 55.7763 24.4872 55.9473 24.2478 55.9473C24.0084 55.9473 24.0084 55.8372 23.7693 55.8372C23.5295 55.8372 23.5295 55.7938 23.2898 55.7938C23.0507 55.7938 23.0507 55.8299 22.8112 55.8299C22.5718 55.8299 22.5718 55.9449 22.3327 55.9449C22.0933 55.9449 22.0933 55.9386 21.8539 55.9386C21.6148 55.9386 21.6148 55.9174 21.3757 55.9174C21.1362 55.9174 21.1362 55.7852 20.8971 55.7852C20.658 55.7852 20.658 56.0099 20.4183 56.0099C20.1788 56.0099 20.1788 55.8962 19.9394 55.8962C19.7 55.8962 19.7 55.9241 19.4602 55.9241C19.2211 55.9241 19.2211 55.9095 18.9817 55.9095C18.7423 55.9095 18.7423 55.8296 18.5032 55.8296C18.2637 55.8296 18.2637 55.9174 18.0243 55.9174C17.7849 55.9174 17.7849 55.8657 17.5455 55.8657C17.307 55.8657 17.307 55.7617 17.0686 55.7617C16.8302 55.7617 16.8302 55.9082 16.5914 55.9082C16.3526 55.9082 16.3526 55.9297 16.1142 55.9297C15.8751 55.9297 15.8751 55.82 15.6363 55.82C15.3969 55.82 15.3969 55.8127 15.1578 55.8127C14.9177 55.8127 14.9177 55.9685 14.6783 55.9685C14.4388 55.9685 14.4388 55.7348 14.1991 55.7348C13.96 55.7348 13.96 55.925 13.7212 55.925C13.4821 55.925 13.4821 55.8323 13.243 55.8323C13.0043 55.8323 13.0043 55.9794 12.7652 55.9794C12.5257 55.9794 12.5257 55.824 12.2866 55.824C12.0472 55.824 12.0472 55.871 11.8074 55.871C11.5677 55.871 11.5677 55.7196 11.3279 55.7196C11.0882 55.7196 11.0882 55.8339 10.8491 55.8339C10.6096 55.8339 10.6096 56.0013 10.3702 56.0013C10.1308 56.0013 10.1308 55.9284 9.89135 55.9284C9.65159 55.9284 9.65159 55.6891 9.41183 55.6891C9.17207 55.6891 9.17207 55.8449 8.93198 55.8449C8.69255 55.8449 8.69255 55.7733 8.45312 55.7733C8.21303 55.7733 8.21303 55.7988 7.9736 55.7988C7.73351 55.7988 7.73351 55.8551 7.49341 55.8551C7.25398 55.8551 7.25398 55.7551 7.01389 55.7551C6.77413 55.7551 6.77413 55.9642 6.53404 55.9642C6.29395 55.9642 6.29395 55.6881 6.05418 55.6881C5.81409 55.6881 5.81409 55.7696 5.57367 55.7696C5.33457 55.7696 5.33457 55.7415 5.09514 55.7415C4.85538 55.7415 4.85538 55.8946 4.61628 55.8946C4.37586 55.8946 4.37586 55.8806 4.13544 55.8806C3.89601 55.8806 3.89601 55.9502 3.65591 55.9502C3.41615 55.9502 3.41615 55.7875 3.17573 55.7875C2.9353 55.7875 2.9353 55.878 2.69488 55.878C2.45479 55.878 2.45479 55.9091 2.2147 55.9091C1.97394 55.9091 1.97394 55.9864 1.73318 55.9864C1.49243 55.9864 1.49243 55.9148 1.25134 55.9148C1.01025 55.9148 1.04043 55.9121 0.863678 55.7484C0.70019 55.5977 0.727715 55.6281 0.727715 55.4055C0.727715 55.1828 0.722409 55.1828 0.722409 54.9598C0.722409 54.7368 0.663049 54.7368 0.663049 54.5138C0.663049 54.2911 0.686594 54.2911 0.686594 54.0681C0.686594 53.8448 0.791717 53.8448 0.791717 53.6214C0.791717 53.3978 0.625244 53.3978 0.625244 53.1741C0.625244 52.9504 0.694884 52.9743 0.858041 52.8215C1.03214 52.6582 1.00793 52.7337 1.2467 52.7337C1.48513 52.7337 1.48513 52.8235 1.7239 52.8235C1.96267 52.8235 1.96267 52.62 2.2011 52.62C2.43987 52.62 2.43987 52.7049 2.6783 52.7049C2.91707 52.7049 2.91707 52.8533 3.1555 52.8533C3.39427 52.8533 3.39427 52.7095 3.63303 52.7095C3.87147 52.7095 3.87147 52.5816 4.1099 52.5816C4.34867 52.5816 4.34867 52.8305 4.58743 52.8305C4.82587 52.8305 4.82587 52.6585 5.0643 52.6585C5.30307 52.6585 5.30307 52.6946 5.54183 52.6946C5.78027 52.6946 5.78027 52.7357 6.0187 52.7357C6.25747 52.7357 6.25747 52.8613 6.49623 52.8613C6.73467 52.8613 6.73467 52.6654 6.97343 52.6654C7.2122 52.6654 7.2122 52.8881 7.45097 52.8881C7.6894 52.8881 7.6894 52.8175 7.92817 52.8175C8.16693 52.8175 8.16693 52.5737 8.40537 52.5737C8.64446 52.5737 8.64446 52.57 8.88323 52.57C9.122 52.57 9.122 52.6472 9.36076 52.6472C9.59953 52.6472 9.59953 52.5849 9.83862 52.5849C10.0774 52.5849 10.0774 52.6373 10.3162 52.6373C10.5553 52.6373 10.5553 52.79 10.7944 52.79C11.0331 52.79 11.0331 52.6439 11.2722 52.6439C11.5113 52.6439 11.5113 52.7357 11.7501 52.7357C11.9892 52.7357 11.9892 52.7668 12.2283 52.7668C12.4674 52.7668 12.4674 52.6303 12.7061 52.6303C12.9449 52.6303 12.9449 52.6956 13.184 52.6956C13.4224 52.6956 13.4224 52.8192 13.6615 52.8192C13.9003 52.8192 13.9003 52.8911 14.1394 52.8911C14.3778 52.8911 14.3778 52.566 14.6166 52.566C14.8554 52.566 14.8554 52.8802 15.0941 52.8802C15.3329 52.8802 15.3329 52.8812 15.5717 52.8812C15.8104 52.8812 15.8104 52.8646 16.0489 52.8646C16.2876 52.8646 16.2876 52.7102 16.5264 52.7102C16.7648 52.7102 16.7648 52.7065 17.0039 52.7065C17.2427 52.7065 17.2427 52.8281 17.4815 52.8281C17.7199 52.8281 17.7199 52.6946 17.9587 52.6946C18.1974 52.6946 18.1974 52.6479 18.4362 52.6479C18.675 52.6479 18.675 52.565 18.9137 52.565C19.1525 52.565 19.1525 52.6071 19.3913 52.6071C19.63 52.6071 19.63 52.7801 19.8688 52.7801C20.1079 52.7801 20.1079 52.6519 20.3466 52.6519C20.5854 52.6519 20.5854 52.8725 20.8245 52.8725C21.0633 52.8725 21.0633 52.8146 21.3024 52.8146C21.5415 52.8146 21.5415 52.8218 21.7802 52.8218C22.0193 52.8218 22.0193 52.846 22.2584 52.846C22.4975 52.846 22.4975 52.8305 22.7363 52.8305C22.9754 52.8305 22.9754 52.8725 23.2145 52.8725C23.4533 52.8725 23.4533 52.8765 23.6924 52.8765C23.9315 52.8765 23.9315 52.6568 24.1702 52.6568C24.409 52.6568 24.409 52.8209 24.6478 52.8209C24.8868 52.8209 24.8868 52.6787 25.1253 52.6787C25.3644 52.6787 25.3644 52.5684 25.6031 52.5684C25.8412 52.5684 25.8412 52.742 26.079 52.742C26.3171 52.742 26.3171 52.7466 26.5556 52.7466C26.7937 52.7466 26.7937 52.8729 27.0318 52.8729C27.2699 52.8729 27.2699 52.5859 27.5083 52.5859C27.7467 52.5859 27.7467 52.8023 27.9848 52.8023C28.2233 52.8023 28.2233 52.6681 28.462 52.6681C28.7008 52.6681 28.7008 52.6857 28.9389 52.6857C29.1777 52.6857 29.1777 52.8262 29.4164 52.8262C29.6555 52.8262 29.6555 52.7569 29.894 52.7569C30.1331 52.7569 30.1331 52.6744 30.3722 52.6744C30.6109 52.6744 30.6109 52.7542 30.8504 52.7542C31.0895 52.7542 31.0895 52.6366 31.3282 52.6366C31.5673 52.6366 31.5673 52.6823 31.8064 52.6823C32.0452 52.6823 32.0452 52.7092 32.284 52.7092C32.5227 52.7092 32.5227 52.6002 32.7615 52.6002C33.0002 52.6002 33.0002 52.8199 33.2387 52.8199C33.4771 52.8199 33.4771 52.6969 33.7159 52.6969C33.954 52.6969 33.954 52.6081 34.1928 52.6081C34.4312 52.6081 34.4312 52.8109 34.6696 52.8109C34.9077 52.8109 34.9077 52.5945 35.1462 52.5945C35.3846 52.5945 35.3846 52.8311 35.623 52.8311C35.8611 52.8311 35.8611 52.7314 36.0996 52.7314C36.338 52.7314 36.338 52.6008 36.5761 52.6008C36.8142 52.6008 36.8142 52.7665 37.0526 52.7665C37.2907 52.7665 37.2907 52.741 37.5292 52.741C37.7673 52.741 37.7673 52.796 38.0054 52.796C38.2438 52.796 38.2438 52.8059 38.4823 52.8059C38.7207 52.8059 38.7207 52.678 38.9588 52.678C39.1972 52.678 39.1972 52.6253 39.4357 52.6253C39.6741 52.6253 39.6741 52.6138 39.9122 52.6138C40.151 52.6138 40.151 52.6621 40.3894 52.6621C40.6278 52.6621 40.6278 52.8497 40.8663 52.8497C41.105 52.8497 41.105 52.5634 41.3438 52.5634C41.5826 52.5634 41.5826 52.6605 41.8213 52.6605C42.0601 52.6605 42.0601 52.7403 42.2992 52.7403C42.538 52.7403 42.538 52.8725 42.7771 52.8725C43.0165 52.8725 43.0165 52.6157 43.2552 52.6157C43.4947 52.6157 43.4947 52.8861 43.7341 52.8861C43.9732 52.8861 43.9732 52.7248 44.2123 52.7248C44.4517 52.7248 44.4517 52.8146 44.6905 52.8146C44.9293 52.8146 44.9293 52.57 45.1684 52.57C45.4075 52.57 45.4075 52.6628 45.6459 52.6628C45.885 52.6628 45.885 52.7552 46.1238 52.7552C46.3622 52.7552 46.3622 52.6741 46.601 52.6741C46.8397 52.6741 46.8397 52.679 47.0785 52.679C47.3169 52.679 47.3169 52.5945 47.5557 52.5945C47.7945 52.5945 47.7945 52.6588 48.0329 52.6588C48.2713 52.6588 48.2713 52.845 48.5101 52.845C48.7489 52.845 48.7489 52.6101 48.9873 52.6101C49.2261 52.6101 49.2261 52.8083 49.4648 52.8083C49.7036 52.8083 49.7036 52.8225 49.9424 52.8225C50.1811 52.8225 50.1811 52.7725 50.4202 52.7725C50.659 52.7725 50.659 52.6128 50.8977 52.6128C51.1372 52.6128 51.1372 52.7559 51.3763 52.7559C51.6154 52.7559 51.6154 52.6804 51.8545 52.6804C52.0942 52.6804 52.0942 52.7476 52.3333 52.7476C52.5728 52.7476 52.5728 52.7947 52.8122 52.7947C53.051 52.7947 53.0509 52.7718 53.2904 52.7718C53.5295 52.7718 53.5295 52.5647 53.7682 52.5647C54.0073 52.5647 54.0073 52.7221 54.2464 52.7221C54.4855 52.7221 54.4855 52.8523 54.7243 52.8523C54.9634 52.8523 54.9634 52.8192 55.2022 52.8192C55.4409 52.8192 55.4409 52.5693 55.6797 52.5693C55.9188 52.5693 55.9188 52.7443 56.1579 52.7443C56.3967 52.7443 56.3967 52.789 56.6358 52.789C56.8749 52.789 56.8749 52.6393 57.1136 52.6393C57.3527 52.6393 57.3527 52.8523 57.5918 52.8523C57.8309 52.8523 57.8309 52.8772 58.0703 52.8772C58.3101 52.8772 58.3101 52.6621 58.5492 52.6621C58.7886 52.6621 58.7886 52.7118 59.0284 52.7118C59.2672 52.7118 59.2672 52.6674 59.5066 52.6674C59.746 52.6674 59.746 52.5717 59.9851 52.5717C60.2242 52.5717 60.2242 52.8802 60.4633 52.8802C60.7024 52.8802 60.7024 52.62 60.9412 52.62C61.1806 52.62 61.1806 52.8875 61.4197 52.8875C61.6585 52.8875 61.6585 52.6396 61.8979 52.6396C62.137 52.6396 62.137 52.7615 62.3761 52.7615C62.6155 52.7615 62.6155 52.86 62.8549 52.86C63.0944 52.86 63.0944 52.68 63.3341 52.68C63.5736 52.68 63.5736 52.8573 63.8127 52.8573C64.0521 52.8573 64.0521 52.855 64.2915 52.855C64.5309 52.855 64.5309 52.7095 64.77 52.7095C65.0091 52.7095 65.0091 52.7155 65.2486 52.7155C65.4877 52.7155 65.4877 52.6419 65.7268 52.6419C65.9662 52.6419 65.9662 52.7688 66.2056 52.7688C66.4451 52.7688 66.4451 52.8414 66.6848 52.8414C66.9239 52.8414 66.9239 52.5929 67.1637 52.5929C67.4031 52.5929 67.4031 52.8079 67.6422 52.8079C67.8816 52.8079 67.8816 52.6552 68.1211 52.6552C68.3602 52.6552 68.3602 52.6512 68.5996 52.6512C68.8393 52.6512 68.8393 52.8725 69.0784 52.8725C69.3169 52.8725 69.3169 52.5843 69.5556 52.5843C69.7941 52.5843 69.7941 52.7503 70.0325 52.7503C70.2713 52.7503 70.2713 52.6459 70.51 52.6459C70.7491 52.6459 70.7491 52.7145 70.9876 52.7145C71.227 52.7145 71.227 52.8301 71.4664 52.8301C71.7062 52.8301 71.7062 52.8255 71.946 52.8255C72.1854 52.8255 72.1854 52.844 72.4248 52.844C72.6639 52.844 72.6639 52.8424 72.903 52.8424C73.1418 52.8424 73.1418 52.6698 73.3809 52.6698C73.62 52.6698 73.62 52.569 73.8587 52.569C74.0982 52.569 74.0982 52.573 74.3376 52.573C74.5767 52.573 74.5767 52.856 74.8165 52.856C75.0565 52.856 75.0565 52.7977 75.296 52.7977C75.5357 52.7977 75.5357 52.7695 75.7752 52.7695C76.0143 52.7695 76.0143 52.8901 76.2537 52.8901C76.4935 52.8901 76.4935 52.6075 76.7326 52.6075C76.9723 52.6075 76.9723 52.6827 77.2124 52.6827C77.4518 52.6827 77.4518 52.6886 77.6919 52.6886C77.9317 52.6886 77.9317 52.7519 78.1708 52.7519C78.4109 52.7519 78.4109 52.621 78.6506 52.621C78.8904 52.621 78.8904 52.5995 79.1305 52.5995C79.3703 52.5995 79.3703 52.7711 79.61 52.7711C79.8501 52.7711 79.8501 52.7576 80.0899 52.7576C80.33 52.7576 80.33 52.6777 80.5701 52.6777C80.8098 52.6777 80.8098 52.6823 81.0502 52.6823C81.2897 52.6823 81.2897 52.7771 81.5288 52.7771C81.7685 52.7771 81.7685 52.624 82.0079 52.624C82.248 52.624 82.248 52.8192 82.4885 52.8192C82.7282 52.8192 82.7282 52.6469 82.968 52.6469C83.2081 52.6469 83.2081 52.8291 83.4482 52.8291C83.6886 52.8291 83.6886 52.5677 83.9294 52.5677C84.1691 52.5677 84.1691 52.58 84.4095 52.58C84.65 52.58 84.65 52.6572 84.8907 52.6572C85.1318 52.6572 85.1318 52.7582 85.3726 52.7582C85.614 52.7582 85.6952 52.5445 85.872 52.7079C86.0355 52.859 85.8856 52.9494 85.8856 53.1721C85.8856 53.3948 85.9012 53.3948 85.9012 53.6174C85.9012 53.8405 85.9731 53.8405 85.9731 54.0638C85.9731 54.2865 85.9035 54.2865 85.9035 54.5095C85.9035 54.7328 85.7917 54.7328 85.7917 54.9561C85.7917 55.1795 85.7562 55.1878 85.7765 55.4104C85.7931 55.5937 85.9111 55.5837 85.748 55.7368Z" fill="#A8D0FF"/>
<path fill-rule="evenodd" clip-rule="evenodd" d="M85.9487 69.797C85.7749 69.9603 85.6161 69.6919 85.3773 69.6919C85.1389 69.6919 85.1389 69.7075 84.9001 69.7075C84.6614 69.7075 84.6614 69.7088 84.4226 69.7088C84.1842 69.7088 84.1842 69.733 83.9457 69.733C83.707 69.733 83.707 69.6976 83.4685 69.6976C83.2298 69.6976 83.2298 69.7274 82.991 69.7274C82.7526 69.7274 82.7526 69.6306 82.5141 69.6306C82.2754 69.6306 82.2754 69.785 82.0366 69.785C81.7982 69.785 81.7982 69.8039 81.5597 69.8039C81.321 69.8039 81.321 69.5703 81.0822 69.5703C80.8434 69.5703 80.8434 69.8308 80.6053 69.8308C80.3666 69.8308 80.3666 69.5571 80.1278 69.5571C79.8894 69.5571 79.8894 69.6376 79.6506 69.6376C79.4118 69.6376 79.4118 69.785 79.1731 69.785C78.9346 69.785 78.9346 69.7738 78.6959 69.7738C78.4571 69.7738 78.4571 69.8109 78.2183 69.8109C77.9796 69.8109 77.9796 69.8162 77.7408 69.8162C77.502 69.8162 77.502 69.7575 77.2633 69.7575C77.0245 69.7575 77.0245 69.5481 76.7854 69.5481C76.5463 69.5481 76.5463 69.8235 76.3079 69.8235C76.0688 69.8235 76.0688 69.7198 75.8297 69.7198C75.5909 69.7198 75.5909 69.5359 75.3518 69.5359C75.1127 69.5359 75.1127 69.7837 74.8739 69.7837C74.6348 69.7837 74.6348 69.5826 74.3958 69.5826C74.1567 69.5826 74.1567 69.8069 73.9179 69.8069C73.6791 69.8069 73.6791 69.6151 73.44 69.6151C73.2016 69.6151 73.2016 69.5939 72.9625 69.5939C72.7237 69.5939 72.7237 69.5372 72.4846 69.5372C72.2462 69.5372 72.2462 69.7827 72.0074 69.7827C71.7687 69.7827 71.7687 69.7327 71.5299 69.7327C71.2911 69.7327 71.2911 69.8391 71.0524 69.8391C70.8136 69.8391 70.8136 69.6933 70.5752 69.6933C70.3364 69.6933 70.3364 69.6714 70.0976 69.6714C69.8589 69.6714 69.8589 69.5412 69.6201 69.5412C69.3813 69.5412 69.3813 69.6313 69.1426 69.6313C68.9041 69.6313 68.9041 69.6803 68.6654 69.6803C68.4266 69.6803 68.4266 69.7463 68.1878 69.7463C67.9491 69.7463 67.9491 69.5521 67.7103 69.5521C67.4715 69.5521 67.4715 69.6714 67.2328 69.6714C66.994 69.6714 66.994 69.5952 66.7552 69.5952C66.5161 69.5952 66.5161 69.7413 66.2774 69.7413C66.0386 69.7413 66.0386 69.5915 65.7995 69.5915C65.5607 69.5915 65.5607 69.6757 65.3216 69.6757C65.0826 69.6757 65.0826 69.5962 64.8435 69.5962C64.6047 69.5962 64.6047 69.5895 64.3656 69.5895C64.1265 69.5895 64.1265 69.7794 63.8877 69.7794C63.6486 69.7794 63.6486 69.8414 63.4095 69.8414C63.1704 69.8414 63.1704 69.7191 62.9317 69.7191C62.6926 69.7191 62.6926 69.7947 62.4538 69.7947C62.215 69.7947 62.215 69.6233 61.9763 69.6233C61.7372 69.6233 61.7372 69.567 61.4987 69.567C61.2597 69.567 61.2596 69.5408 61.0209 69.5408C60.7828 69.5408 60.7828 69.7065 60.545 69.7065C60.3069 69.7065 60.3069 69.5746 60.0685 69.5746C59.8304 69.5746 59.8304 69.7397 59.5923 69.7397C59.3542 69.7397 59.3542 69.8225 59.1157 69.8225C58.8773 69.8225 58.8773 69.7589 58.6389 69.7589C58.4008 69.7589 58.4008 69.6412 58.162 69.6412C57.9232 69.6412 57.9232 69.8096 57.6851 69.8096C57.4464 69.8096 57.4464 69.8 57.2076 69.8C56.9685 69.8 56.9685 69.6422 56.7301 69.6422C56.491 69.6422 56.491 69.7406 56.2519 69.7406C56.0131 69.7406 56.0131 69.6104 55.7737 69.6104C55.5346 69.6104 55.5346 69.5355 55.2955 69.5355C55.0567 69.5355 55.0567 69.7966 54.8176 69.7966C54.5788 69.7966 54.5788 69.6926 54.3401 69.6926C54.1013 69.6926 54.1013 69.8033 53.8625 69.8033C53.6238 69.8033 53.6238 69.6807 53.3853 69.6807C53.1469 69.6807 53.1469 69.856 52.9081 69.856C52.6697 69.856 52.6697 69.5707 52.4313 69.5707C52.1928 69.5707 52.1928 69.6277 51.9544 69.6277C51.7163 69.6277 51.7163 69.7758 51.4779 69.7758C51.2394 69.7758 51.2394 69.7681 51.001 69.7681C50.7629 69.7681 50.7629 69.6313 50.5245 69.6313C50.286 69.6313 50.286 69.7602 50.0479 69.7602C49.8095 69.7602 49.8095 69.6936 49.5714 69.6936C49.3333 69.6936 49.3333 69.5465 49.0949 69.5465C48.8564 69.5465 48.8564 69.5385 48.6187 69.5385C48.3802 69.5385 48.3802 69.6817 48.1418 69.6817C47.9033 69.6817 47.9033 69.73 47.6652 69.73C47.4268 69.73 47.4268 69.729 47.1884 69.729C46.9499 69.729 46.9499 69.7612 46.7118 69.7612C46.4731 69.7612 46.4731 69.6803 46.2346 69.6803C45.9959 69.6803 45.9959 69.6303 45.7578 69.6303C45.519 69.6303 45.519 69.8238 45.2802 69.8238C45.0415 69.8238 45.0415 69.5528 44.8027 69.5528C44.5639 69.5528 44.5639 69.5345 44.3248 69.5345C44.0861 69.5345 44.0861 69.6787 43.847 69.6787C43.6076 69.6787 43.6075 69.8076 43.3688 69.8076C43.1294 69.8076 43.1294 69.689 42.8899 69.689C42.6508 69.689 42.6508 69.6966 42.4117 69.6966C42.1723 69.6966 42.1723 69.8361 41.9335 69.8361C41.6948 69.8361 41.6948 69.6286 41.4557 69.6286C41.2166 69.6286 41.2166 69.7406 40.9781 69.7406C40.739 69.7406 40.739 69.68 40.5003 69.68C40.2615 69.68 40.2615 69.7171 40.0231 69.7171C39.7843 69.7171 39.7843 69.7933 39.5455 69.7933C39.3071 69.7933 39.3071 69.7098 39.0683 69.7098C38.8296 69.7098 38.8296 69.793 38.5911 69.793C38.3527 69.793 38.3527 69.7029 38.1139 69.7029C37.8752 69.7029 37.8752 69.6499 37.6364 69.6499C37.398 69.6499 37.398 69.7834 37.1592 69.7834C36.9204 69.7834 36.9204 69.5975 36.6817 69.5975C36.4429 69.5975 36.4429 69.6803 36.2038 69.6803C35.9647 69.6803 35.9647 69.7572 35.7263 69.7572C35.4869 69.7572 35.4869 69.7486 35.2478 69.7486C35.0087 69.7486 35.0087 69.5717 34.7696 69.5717C34.5298 69.5717 34.5298 69.6856 34.2907 69.6856C34.0513 69.6856 34.0513 69.6522 33.8118 69.6522C33.5731 69.6522 33.5731 69.7791 33.3337 69.7791C33.0946 69.7791 33.0946 69.6863 32.8555 69.6863C32.6167 69.6863 32.6167 69.6038 32.3776 69.6038C32.1385 69.6038 32.1385 69.7221 31.8997 69.7221C31.6606 69.7221 31.6606 69.8278 31.4219 69.8278C31.1831 69.8278 31.1831 69.7108 30.9443 69.7108C30.7052 69.7108 30.7052 69.5481 30.4661 69.5481C30.2274 69.5481 30.2274 69.8245 29.9883 69.8245C29.7492 69.8245 29.7492 69.6608 29.5104 69.6608C29.2713 69.6608 29.2713 69.6025 29.0322 69.6025C28.7931 69.6025 28.7931 69.7314 28.5537 69.7314C28.3139 69.7314 28.3139 69.7075 28.0745 69.7075C27.8354 69.7075 27.8354 69.7582 27.5956 69.7582C27.3565 69.7582 27.3565 69.8251 27.1174 69.8251C26.878 69.8251 26.878 69.7973 26.6389 69.7973C26.3998 69.7973 26.3998 69.85 26.1607 69.85C25.9216 69.85 25.9216 69.8135 25.6829 69.8135C25.4434 69.8135 25.4434 69.6157 25.2043 69.6157C24.9656 69.6157 24.9656 69.7334 24.7261 69.7334C24.487 69.7334 24.487 69.8119 24.2476 69.8119C24.0085 69.8119 24.0085 69.6909 23.7691 69.6909C23.5293 69.6909 23.5293 69.677 23.2899 69.677C23.0505 69.677 23.0505 69.683 22.811 69.683C22.5719 69.683 22.5719 69.6734 22.3325 69.6734C22.0931 69.6734 22.0931 69.5789 21.854 69.5789C21.6149 69.5789 21.6149 69.6886 21.3755 69.6886C21.1364 69.6886 21.1364 69.7907 20.8973 69.7907C20.6578 69.7907 20.6578 69.675 20.4184 69.675C20.179 69.675 20.179 69.5554 19.9392 69.5554C19.7001 69.5554 19.7001 69.7688 19.4604 69.7688C19.2209 69.7688 19.2209 69.7088 18.9818 69.7088C18.7424 69.7088 18.7424 69.6459 18.503 69.6459C18.2639 69.6459 18.2639 69.6127 18.0244 69.6127C17.7847 69.6127 17.7847 69.5925 17.5456 69.5925C17.3072 69.5925 17.3072 69.5663 17.0684 69.5663C16.83 69.5663 16.83 69.6402 16.5915 69.6402C16.3528 69.6402 16.3528 69.6972 16.114 69.6972C15.8749 69.6972 15.8749 69.6561 15.6365 69.6561C15.397 69.6561 15.397 69.7121 15.1576 69.7121C14.9178 69.7121 14.9178 69.7198 14.6781 69.7198C14.4386 69.7198 14.4386 69.8109 14.1992 69.8109C13.9601 69.8109 13.9601 69.7257 13.721 69.7257C13.4823 69.7257 13.4823 69.7015 13.2432 69.7015C13.0041 69.7015 13.0041 69.6379 12.765 69.6379C12.5259 69.6379 12.5259 69.7363 12.2864 69.7363C12.047 69.7363 12.047 69.6161 11.8076 69.6161C11.5675 69.6161 11.5675 69.8046 11.3277 69.8046C11.0883 69.8046 11.0883 69.6784 10.8489 69.6784C10.6094 69.6784 10.6094 69.7585 10.3703 69.7585C10.1306 69.7585 10.1306 69.6571 9.89115 69.6571C9.65172 69.6571 9.65172 69.5455 9.41163 69.5455C9.1722 69.5455 9.1722 69.7638 8.93211 69.7638C8.69234 69.7638 8.69234 69.6174 8.45325 69.6174C8.21315 69.6174 8.21315 69.7065 7.97339 69.7065C7.73363 69.7065 7.73363 69.8589 7.49354 69.8589C7.25378 69.8589 7.25378 69.736 7.01402 69.736C6.77393 69.736 6.77393 69.7228 6.53383 69.7228C6.29407 69.7228 6.29407 69.6886 6.05398 69.6886C5.81422 69.6886 5.81422 69.7297 5.5738 69.7297C5.33437 69.7297 5.33437 69.5813 5.09527 69.5813C4.85551 69.5813 4.85551 69.5448 4.61608 69.5448C4.37599 69.5448 4.37599 69.8603 4.13556 69.8603C3.8958 69.8603 3.8958 69.5365 3.65604 69.5365C3.41595 69.5365 3.41595 69.8583 3.17552 69.8583C2.93543 69.8583 2.93543 69.8606 2.69468 69.8606C2.45492 69.8606 2.45492 69.8112 2.21449 69.8112C1.97374 69.8112 1.97374 69.6462 1.73331 69.6462C1.49223 69.6462 1.49223 69.7728 1.25147 69.7728C1.01005 69.7728 0.881051 69.9312 0.703634 69.7675C0.540146 69.6167 0.775596 69.4742 0.775596 69.2516C0.775596 69.0292 0.618408 69.0292 0.618408 68.8062C0.618408 68.5832 0.685395 68.5832 0.685395 68.3599C0.685395 68.1372 0.830645 68.1372 0.830645 67.9142C0.830645 67.6912 0.769627 67.6912 0.769627 67.4678C0.769627 67.2442 0.690038 67.2442 0.690038 67.0202C0.690038 66.7965 0.714909 66.8422 0.878398 66.6891C1.05217 66.5261 1.00773 66.5413 1.2465 66.5413C1.48526 66.5413 1.48526 66.6096 1.72403 66.6096C1.96246 66.6096 1.96246 66.6533 2.20123 66.6533C2.43999 66.6533 2.43999 66.5314 2.6781 66.5314C2.91686 66.5314 2.91686 66.5095 3.15563 66.5095C3.39439 66.5095 3.39439 66.546 3.63283 66.546C3.87126 66.546 3.87126 66.6881 4.11003 66.6881C4.34879 66.6881 4.34879 66.6146 4.58723 66.6146C4.82566 66.6146 4.82566 66.5795 5.06443 66.5795C5.30319 66.5795 5.30319 66.6232 5.54163 66.6232C5.7804 66.6232 5.78039 66.496 6.01883 66.496C6.25726 66.496 6.25726 66.6944 6.49603 66.6944C6.7348 66.6944 6.7348 66.5619 6.97356 66.5619C7.212 66.5619 7.212 66.544 7.45076 66.544C7.68953 66.544 7.68953 66.6848 7.92829 66.6848C8.16673 66.6848 8.16673 66.6414 8.40549 66.6414C8.64459 66.6414 8.64459 66.5049 8.88303 66.5049C9.12179 66.5049 9.12179 66.7388 9.36089 66.7388C9.59966 66.7388 9.59965 66.6954 9.83842 66.6954C10.0775 66.6954 10.0775 66.7173 10.3163 66.7173C10.555 66.7173 10.555 66.5327 10.7941 66.5327C11.0332 66.5327 11.0332 66.4999 11.2723 66.4999C11.5111 66.4999 11.5111 66.5947 11.7502 66.5947C11.9893 66.5947 11.9893 66.4293 12.2281 66.4293C12.4672 66.4293 12.4672 66.5085 12.7063 66.5085C12.9447 66.5085 12.9447 66.437 13.1838 66.437C13.4226 66.437 13.4226 66.6219 13.6617 66.6219C13.9001 66.6219 13.9001 66.7272 14.1392 66.7272C14.378 66.7272 14.378 66.4578 14.6164 66.4578C14.8552 66.4578 14.8552 66.6209 15.0943 66.6209C15.333 66.6209 15.333 66.6567 15.5715 66.6567C15.8102 66.6567 15.8102 66.4966 16.049 66.4966C16.2878 66.4966 16.2878 66.545 16.5262 66.545C16.765 66.545 16.765 66.539 17.0041 66.539C17.2425 66.539 17.2425 66.6471 17.4813 66.6471C17.72 66.6471 17.72 66.6799 17.9588 66.6799C18.1972 66.6799 18.1972 66.5476 18.436 66.5476C18.6751 66.5476 18.6751 66.5251 18.9135 66.5251C19.1523 66.5251 19.1523 66.5291 19.3914 66.5291C19.6301 66.5291 19.6301 66.6862 19.8686 66.6862C20.1077 66.6862 20.1077 66.605 20.3468 66.605C20.5855 66.605 20.5855 66.4993 20.8243 66.4993C21.0634 66.4993 21.0634 66.6669 21.3025 66.6669C21.5413 66.6669 21.5413 66.4194 21.7804 66.4194C22.0195 66.4194 22.0195 66.5291 22.2582 66.5291C22.4973 66.5291 22.4973 66.661 22.7364 66.661C22.9755 66.661 22.9755 66.6898 23.2143 66.6898C23.4534 66.6898 23.4534 66.538 23.6925 66.538C23.9312 66.538 23.9312 66.4519 24.17 66.4519C24.4091 66.4519 24.4091 66.6331 24.6479 66.6331C24.8866 66.6331 24.8866 66.7349 25.1254 66.7349C25.3645 66.7349 25.3645 66.6925 25.6029 66.6925C25.841 66.6925 25.841 66.4347 26.0791 66.4347C26.3172 66.4347 26.3172 66.7007 26.5554 66.7007C26.7935 66.7007 26.7935 66.649 27.0319 66.649C27.27 66.649 27.27 66.6129 27.5081 66.6129C27.7465 66.6129 27.7465 66.4728 27.985 66.4728C28.2234 66.4728 28.2234 66.655 28.4618 66.655C28.7006 66.655 28.7006 66.4999 28.939 66.4999C29.1778 66.4999 29.1778 66.4761 29.4162 66.4761C29.6553 66.4761 29.6553 66.5245 29.8941 66.5245C30.1332 66.5245 30.1332 66.5423 30.372 66.5423C30.6111 66.5423 30.6111 66.6007 30.8505 66.6007C31.0893 66.6007 31.0893 66.4615 31.3283 66.4615C31.5674 66.4615 31.5674 66.6673 31.8062 66.6673C32.045 66.6673 32.045 66.4933 32.2841 66.4933C32.5228 66.4933 32.5228 66.4194 32.7613 66.4194C33 66.4194 33 66.5573 33.2388 66.5573C33.4772 66.5573 33.4772 66.6696 33.7157 66.6696C33.9541 66.6696 33.9541 66.6093 34.1929 66.6093C34.431 66.6093 34.431 66.5443 34.6694 66.5443C34.9078 66.5443 34.9078 66.5288 35.1463 66.5288C35.3844 66.5288 35.3844 66.4254 35.6228 66.4254C35.8613 66.4254 35.8613 66.7378 36.0997 66.7378C36.3378 66.7378 36.3378 66.4479 36.5759 66.4479H37.0528C37.2909 66.4479 37.2909 66.5208 37.529 66.5208C37.7674 66.5208 37.7674 66.4519 38.0055 66.4519C38.2439 66.4519 38.2439 66.5288 38.482 66.5288C38.7205 66.5288 38.7205 66.7021 38.9589 66.7021C39.1973 66.7021 39.1973 66.4154 39.4354 66.4154C39.6739 66.4154 39.6739 66.7193 39.9123 66.7193C40.1511 66.7193 40.1511 66.5089 40.3892 66.5089C40.628 66.5089 40.6279 66.5566 40.8664 66.5566C41.1048 66.5566 41.1048 66.4641 41.3436 66.4641C41.5827 66.4641 41.5827 66.6189 41.8214 66.6189C42.0599 66.6189 42.0599 66.6858 42.299 66.6858C42.5381 66.6858 42.5381 66.4777 42.7768 66.4777C43.0163 66.4777 43.0163 66.6192 43.2554 66.6192C43.4948 66.6192 43.4948 66.5301 43.7339 66.5301C43.9733 66.5301 43.9733 66.425 44.2124 66.425C44.4515 66.425 44.4515 66.6765 44.6906 66.6765C44.9294 66.6765 44.9294 66.7156 45.1681 66.7156C45.4072 66.7156 45.4072 66.5145 45.646 66.5145C45.8851 66.5145 45.8851 66.7289 46.1235 66.7289C46.3623 66.7289 46.3623 66.7378 46.6011 66.7378C46.8395 66.7378 46.8395 66.4824 47.0783 66.4824C47.317 66.4824 47.317 66.6789 47.5558 66.6789C47.7942 66.6789 47.7942 66.6351 48.0327 66.6351C48.2714 66.6351 48.2714 66.4184 48.5102 66.4184C48.7486 66.4184 48.7486 66.537 48.9874 66.537C49.2262 66.537 49.2262 66.5178 49.4646 66.5178C49.7034 66.5178 49.7034 66.5645 49.9425 66.5645C50.1812 66.5645 50.1812 66.5195 50.42 66.5195C50.6591 66.5195 50.6591 66.5129 50.8979 66.5129C51.137 66.5129 51.137 66.7133 51.3761 66.7133C51.6155 66.7133 51.6155 66.7203 51.8546 66.7203C52.094 66.7203 52.094 66.597 52.3334 66.597C52.5729 66.597 52.5729 66.5586 52.812 66.5586C53.0511 66.5586 53.0511 66.4191 53.2905 66.4191C53.5293 66.4191 53.5293 66.7031 53.7684 66.7031C54.0075 66.7031 54.0075 66.7017 54.2462 66.7017C54.4853 66.7017 54.4853 66.6885 54.7244 66.6885C54.9635 66.6885 54.9635 66.4522 55.202 66.4522C55.4411 66.4522 55.4411 66.6994 55.6798 66.6994C55.9186 66.6994 55.9186 66.6003 56.1577 66.6003C56.3968 66.6003 56.3968 66.5887 56.6355 66.5887C56.8746 66.5887 56.8746 66.4648 57.1137 66.4648C57.3528 66.4648 57.3528 66.4691 57.5916 66.4691C57.831 66.4691 57.831 66.6868 58.0705 66.6868C58.3099 66.6868 58.3099 66.6494 58.5493 66.6494C58.7888 66.6494 58.7887 66.5099 59.0282 66.5099C59.2673 66.5099 59.2673 66.4651 59.5067 66.4651C59.7458 66.4651 59.7458 66.6848 59.9849 66.6848C60.2243 66.6848 60.2243 66.5298 60.4631 66.5298C60.7022 66.5298 60.7022 66.7034 60.9413 66.7034C61.1807 66.7034 61.1807 66.6477 61.4195 66.6477C61.6586 66.6477 61.6586 66.6812 61.898 66.6812C62.1368 66.6812 62.1368 66.6736 62.3762 66.6736C62.6156 66.6736 62.6156 66.4625 62.8547 66.4625C63.0945 66.4625 63.0945 66.6676 63.3343 66.6676C63.5734 66.6676 63.5734 66.5904 63.8128 66.5904C64.0522 66.5904 64.0522 66.4211 64.2913 66.4211C64.5307 66.4211 64.5307 66.6205 64.7702 66.6205C65.0089 66.6205 65.0089 66.6186 65.2484 66.6186C65.4878 66.6186 65.4878 66.6129 65.7269 66.6129C65.966 66.6129 65.966 66.4602 66.2057 66.4602C66.4452 66.4602 66.4452 66.6202 66.6846 66.6202C66.924 66.6202 66.924 66.4081 67.1638 66.4081C67.4029 66.4081 67.4029 66.4257 67.6423 66.4257C67.8818 66.4257 67.8818 66.6109 68.1208 66.6109C68.3603 66.6109 68.3603 66.7239 68.5997 66.7239C68.8391 66.7239 68.8391 66.5864 69.0786 66.5864C69.317 66.5864 69.317 66.6732 69.5554 66.6732C69.7939 66.6732 69.7939 66.6855 70.0326 66.6855C70.2714 66.6855 70.2714 66.4373 70.5098 66.4373C70.7489 66.4373 70.7489 66.6934 70.9877 66.6934C71.2268 66.6934 71.2268 66.5245 71.4662 66.5245C71.7063 66.5245 71.7063 66.7229 71.9457 66.7229C72.1852 66.7229 72.1852 66.4386 72.4249 66.4386C72.6637 66.4386 72.6637 66.6225 72.9028 66.6225C73.1419 66.6225 73.1419 66.4844 73.381 66.4844C73.6198 66.4844 73.6198 66.7097 73.8589 66.7097C74.0983 66.7097 74.0983 66.5341 74.3374 66.5341C74.5768 66.5341 74.5768 66.72 74.8166 66.72C75.0563 66.72 75.0563 66.5937 75.2961 66.5937C75.5359 66.5937 75.5359 66.7382 75.775 66.7382C76.0144 66.7382 76.0144 66.6023 76.2538 66.6023C76.4932 66.6023 76.4932 66.4916 76.7327 66.4916C76.9724 66.4916 76.9724 66.5473 77.2122 66.5473C77.452 66.5473 77.452 66.711 77.6921 66.711C77.9315 66.711 77.9315 66.6941 78.1709 66.6941C78.411 66.6941 78.411 66.5814 78.6504 66.5814C78.8905 66.5814 78.8905 66.4794 79.1303 66.4794C79.37 66.4794 79.37 66.543 79.6101 66.543C79.8499 66.543 79.8499 66.6156 80.09 66.6156C80.3301 66.6156 80.3301 66.5997 80.5698 66.5997C80.8099 66.5997 80.8099 66.6686 81.0504 66.6686C81.2895 66.6686 81.2895 66.6365 81.5289 66.6365C81.7686 66.6365 81.7686 66.4754 82.0077 66.4754C82.2482 66.4754 82.2482 66.4545 82.4883 66.4545C82.728 66.4545 82.728 66.5592 82.9681 66.5592C83.2079 66.5592 83.2079 66.5957 83.4483 66.5957C83.6887 66.5957 83.6887 66.5225 83.9291 66.5225C84.1692 66.5225 84.1692 66.4111 84.4093 66.4111C84.6501 66.4111 84.6501 66.6616 84.8908 66.6616C85.1316 66.6616 85.1316 66.5973 85.3727 66.5973C85.6138 66.5973 85.7673 66.3124 85.9444 66.4764C86.1079 66.6272 85.8559 66.7955 85.8559 67.0182C85.8559 67.2409 85.9938 67.2409 85.9938 67.4639C85.9938 67.6869 85.6983 67.6869 85.6983 67.9102V68.3556C85.6983 68.5789 85.7875 68.5789 85.7875 68.8022C85.7875 69.0259 85.6894 69.0663 85.7547 69.2801C85.8416 69.564 86.1119 69.6442 85.9487 69.797Z" fill="#A8D0FF"/>
<path fill-rule="evenodd" clip-rule="evenodd" d="M28.1421 54.2887C28.1421 54.1329 27.8573 53.9954 27.8403 53.8443C27.8231 53.6899 27.8639 53.5398 27.8301 53.391C27.7956 53.2399 27.7266 53.111 27.6762 52.9669C27.6248 52.8207 27.5568 52.6968 27.4905 52.5589C27.4232 52.4198 27.3724 52.2872 27.2905 52.157C27.2083 52.0268 27.1333 51.9052 27.0375 51.7852C26.9413 51.6649 26.8641 51.54 26.755 51.4313C26.6462 51.3226 26.6306 51.1086 26.5102 51.0125C26.3902 50.9167 26.174 50.9552 26.0436 50.873C25.9136 50.7911 25.8387 50.6135 25.6994 50.5466C25.5615 50.4803 25.391 50.4873 25.2451 50.4366C25.1008 50.3862 24.9954 50.1725 24.8442 50.1383C24.6953 50.1042 24.5036 50.2901 24.3491 50.2729C24.1975 50.256 24.0519 50.2414 23.8961 50.2414C23.7402 50.2414 23.5857 50.1791 23.4345 50.1957C23.2799 50.2129 23.1108 50.1665 22.9619 50.2003C22.8107 50.2348 22.6664 50.316 22.5222 50.3663C22.3759 50.417 22.2549 50.531 22.1169 50.5976C21.9776 50.6646 21.8679 50.7756 21.7379 50.8574C21.6076 50.9396 21.3622 50.868 21.2418 50.9638C21.1214 51.0599 21.0627 51.2408 20.9539 51.3495C20.8452 51.4582 20.7235 51.5642 20.6276 51.6845C20.5318 51.8044 20.4631 51.9512 20.3809 52.0818C20.299 52.2113 20.2917 52.3833 20.2247 52.5222C20.1581 52.66 19.9342 52.7395 19.8831 52.8857C19.8324 53.0298 19.7601 53.1865 19.7256 53.3376C19.6918 53.4861 19.776 53.6683 19.7591 53.8228C19.7422 53.9742 19.9233 54.1329 19.9233 54.2887C19.9233 54.4444 19.775 54.5995 19.7916 54.7512C19.8089 54.9053 19.9664 55.0289 19.9999 55.1777C20.0347 55.3288 20.0092 55.4862 20.0596 55.6307C20.1106 55.7765 20.2148 55.8905 20.2814 56.0283C20.3484 56.1675 20.4535 56.2692 20.5354 56.3988C20.6177 56.5293 20.6064 56.7139 20.7022 56.8342C20.7984 56.9541 20.7991 57.1662 20.9082 57.2749C21.0169 57.3836 21.2176 57.3985 21.3376 57.4946C21.458 57.5903 21.6334 57.5976 21.7641 57.6798C21.8937 57.7613 21.908 58.0579 22.047 58.1248C22.1852 58.1914 22.4121 58.0589 22.558 58.1099C22.7022 58.1606 22.8332 58.2438 22.9844 58.2782C23.1333 58.312 23.2899 58.2739 23.4444 58.2912C23.596 58.3081 23.7402 58.3684 23.8961 58.3684C24.0519 58.3684 24.2111 58.4429 24.363 58.426C24.5172 58.4088 24.6701 58.3624 24.819 58.3283C24.9705 58.2942 25.1088 58.2133 25.2531 58.1626C25.3993 58.1119 25.5747 58.1238 25.7127 58.0572C25.852 57.9903 26.0217 57.9568 26.1521 57.8753C26.2827 57.7931 26.2542 57.4893 26.3743 57.3935C26.4946 57.2974 26.7467 57.3541 26.8554 57.2454C26.9642 57.1367 26.9175 56.8925 27.0136 56.7722C27.1095 56.6523 27.3399 56.6327 27.4222 56.5025C27.5038 56.3726 27.3923 56.1423 27.4593 56.0035C27.5263 55.8653 27.8801 55.8454 27.9312 55.6996C27.9819 55.5551 27.8835 55.3573 27.9176 55.2062C27.9514 55.0571 27.8513 54.8904 27.8685 54.7363C27.8854 54.5852 28.1421 54.4444 28.1421 54.2887Z" fill="#196CF2"/>
<path fill-rule="evenodd" clip-rule="evenodd" d="M56.0957 68.5131C56.0957 68.3573 56.2303 68.1986 56.2134 68.0475C56.1965 67.8928 56.2224 67.7241 56.1885 67.5753C56.154 67.4242 56.167 67.245 56.1162 67.1005C56.0652 66.9547 55.9657 66.8119 55.899 66.6737C55.832 66.5348 55.5273 66.5285 55.4454 66.3987C55.3631 66.2684 55.3595 66.0938 55.2636 65.9742C55.1675 65.8539 55.1413 65.669 55.0325 65.5603C54.9237 65.4516 54.6873 65.4897 54.5669 65.394C54.4465 65.2979 54.483 64.9778 54.3524 64.8956C54.2227 64.8137 54.0075 64.8648 53.8682 64.7978C53.7302 64.7312 53.5465 64.7872 53.4006 64.7365C53.256 64.6858 53.141 64.556 52.9901 64.5215C52.8412 64.488 52.7062 64.3266 52.5517 64.3091C52.4004 64.2925 52.2336 64.5397 52.0781 64.5397C51.9219 64.5397 51.7836 64.548 51.6324 64.5649C51.4779 64.5821 51.2942 64.3979 51.1453 64.432C50.994 64.4662 50.8956 64.6752 50.7513 64.7256C50.6051 64.777 50.3985 64.6762 50.2605 64.7428C50.1212 64.8098 50.0625 65.0202 49.9325 65.1017C49.8019 65.1839 49.654 65.2299 49.5339 65.326C49.4136 65.4221 49.2182 65.4384 49.1095 65.5471C49.0004 65.6557 48.8375 65.7346 48.7417 65.8549C48.6459 65.9748 48.7921 66.2684 48.7099 66.3987C48.6279 66.5285 48.5288 66.6343 48.4615 66.7731C48.3951 66.9109 48.1013 66.959 48.0503 67.1048C47.9999 67.2493 48.0559 67.4368 48.0214 67.5879C47.9879 67.7364 47.8569 67.8815 47.8397 68.0362C47.8228 68.1873 47.9053 68.3573 47.9053 68.5131C47.9053 68.6688 47.8788 68.8328 47.8957 68.9839C47.913 69.1384 47.9541 69.2974 47.9883 69.4459C48.0224 69.597 48.2061 69.7053 48.2565 69.8495C48.3079 69.9956 48.42 70.1036 48.4867 70.2415C48.5537 70.3806 48.4651 70.6007 48.547 70.7302C48.6293 70.8608 48.6412 71.0556 48.7374 71.1756C48.8335 71.2958 49.1605 71.2117 49.2693 71.32C49.3781 71.4287 49.3323 71.7064 49.453 71.8025C49.5731 71.8983 49.7087 71.9914 49.8394 72.0736C49.969 72.1551 50.0987 72.2638 50.238 72.3307C50.3759 72.3976 50.5835 72.3121 50.7294 72.3632C50.874 72.4135 51.0189 72.4516 51.1701 72.4861C51.319 72.5199 51.4683 72.5302 51.6228 72.5474C51.7743 72.5643 51.9219 72.7237 52.0781 72.7237C52.2336 72.7237 52.4044 72.7678 52.5556 72.7509C52.7102 72.7336 52.8418 72.5428 52.9911 72.509C53.1423 72.4745 53.26 72.3502 53.4046 72.2999C53.5505 72.2485 53.7515 72.3376 53.8894 72.271C54.0287 72.2041 54.0609 71.9546 54.1909 71.8727C54.3212 71.7906 54.552 71.8588 54.672 71.7631C54.7924 71.667 54.8458 71.496 54.9549 71.3873C55.0637 71.2786 55.2892 71.2687 55.3854 71.1484C55.4812 71.0284 55.5847 70.8966 55.6669 70.7663C55.7485 70.6364 55.7717 70.4618 55.8393 70.323C55.9057 70.1851 56.0022 70.0489 56.0532 69.9028C56.1036 69.759 56.157 69.6023 56.1912 69.4512C56.2253 69.3027 56.2287 69.1367 56.2459 68.9823C56.2628 68.8312 56.0957 68.6688 56.0957 68.5131Z" fill="#196CF2"/>
</svg>
