<svg width="159" height="184" viewBox="0 0 159 184" fill="none" xmlns="http://www.w3.org/2000/svg">
<path fill-rule="evenodd" clip-rule="evenodd" d="M143.084 150.65C151.914 134.543 154.061 112.322 142.989 96.6988C133.81 83.7465 115.953 76.6691 100.28 77.5375C91.561 78.021 81.2547 83.6828 75.3085 89.9337C68.2843 97.3182 65.8043 106.412 59.3653 114.313C58.0998 115.865 56.8303 117.447 55.2223 118.648C53.0968 120.235 50.5102 121.064 48.0144 121.981C41.4742 124.385 34.4862 128.504 33.2765 135.324C32.7548 138.265 33.4245 141.287 34.3017 144.148C36.2131 150.381 39.2167 156.426 43.9218 160.976C48.6271 165.527 55.1983 168.433 61.7228 167.78C64.2666 167.526 66.7297 166.753 69.2639 166.421C82.1977 164.722 94.2558 174.495 107.305 174.262C122.662 173.987 135.812 163.914 143.084 150.65Z" fill="#E6F0F9"/>
<g filter="url(#filter0_d)">
<path fill-rule="evenodd" clip-rule="evenodd" d="M94.1418 79.3633C94.4166 79.4929 94.5957 79.8137 94.8655 79.9471C95.1379 80.0805 95.5308 79.9597 95.7982 80.0968C96.068 80.234 96.2384 80.5662 96.502 80.7071C96.7693 80.8493 97.1635 80.7524 97.4259 80.8971C97.6908 81.0443 97.8139 81.4457 98.0738 81.5942C98.3362 81.7464 98.6023 81.8848 98.8597 82.0383C99.1196 82.1944 99.4765 82.1843 99.7301 82.3428C99.9876 82.5026 100.218 82.7065 100.469 82.8688C100.724 83.0336 100.864 83.3696 101.112 83.5357C101.365 83.7055 101.644 83.8251 101.889 83.9962C102.139 84.1711 102.606 84.0289 102.849 84.2051C103.094 84.3837 103.316 84.5989 103.554 84.7801C103.798 84.9638 103.747 85.5287 103.98 85.715C104.219 85.905 104.572 85.9389 104.802 86.1302C105.039 86.3265 105.483 86.2686 105.71 86.4661C105.94 86.6675 106.037 87.0236 106.259 87.2261C106.486 87.4338 106.516 87.8465 106.732 88.0541C106.954 88.2667 107.128 88.5121 107.338 88.7235C107.553 88.9424 107.747 89.1651 107.95 89.3828C108.159 89.608 108.497 89.6986 108.693 89.9238C108.895 90.1554 109.201 90.2887 109.389 90.5203C109.583 90.7581 109.881 90.9116 110.06 91.1494C110.244 91.396 110.085 91.8867 110.254 92.1308C110.428 92.3863 110.615 92.6128 110.771 92.8657C110.934 93.1286 111.107 93.3665 111.249 93.6269C111.397 93.9 111.849 94.0082 111.974 94.2762C112.104 94.5568 111.924 94.9657 112.028 95.2425C112.139 95.5344 112.23 95.81 112.31 96.0944C112.394 96.3951 112.337 96.6983 112.387 96.989C112.439 97.2947 112.855 97.5451 112.869 97.8408C112.883 98.1491 112.826 98.4662 112.797 98.7619C112.767 99.0664 112.352 99.2778 112.273 99.5684C112.196 99.8603 112.54 100.297 112.413 100.573C112.285 100.849 112.096 101.122 111.924 101.372C111.752 101.618 111.236 101.563 111.022 101.782C110.817 101.994 110.789 102.388 110.544 102.576C110.311 102.754 110.018 102.844 109.752 103C109.499 103.147 109.17 103.12 108.889 103.246C108.623 103.367 108.506 103.886 108.215 103.986C107.939 104.083 107.532 103.758 107.234 103.838C106.951 103.913 106.691 104.065 106.39 104.126C106.102 104.182 105.845 104.437 105.541 104.478C105.251 104.52 104.952 104.565 104.647 104.593C104.355 104.619 104.038 104.308 103.733 104.323C103.438 104.337 103.152 104.843 102.848 104.844C102.553 104.847 102.246 104.829 101.94 104.82C101.644 104.813 101.338 104.786 101.033 104.769C100.739 104.751 100.438 104.663 100.134 104.637C99.8383 104.61 99.5312 104.63 99.229 104.595C98.9343 104.56 98.6371 104.474 98.3362 104.43C98.0427 104.389 97.7455 104.318 97.4458 104.268C97.1548 104.22 96.9322 103.771 96.6363 103.714C96.3441 103.659 95.9635 104.052 95.6688 103.989C95.3766 103.926 95.164 103.502 94.8693 103.431C94.5808 103.363 94.2711 103.372 93.9789 103.297C93.6904 103.221 93.3285 103.415 93.0351 103.334C92.7478 103.254 92.4705 103.12 92.1795 103.034C91.8923 102.948 91.5951 102.885 91.3053 102.793C91.0218 102.701 90.6948 102.728 90.4088 102.632C90.1265 102.537 89.9885 102.002 89.7037 101.901C89.4214 101.799 89.0583 101.921 88.776 101.814C88.4938 101.709 88.3197 101.32 88.0386 101.208C87.7588 101.097 87.4243 101.136 87.1433 101.019C86.8648 100.905 86.6546 100.634 86.3748 100.513C86.0988 100.394 85.8239 100.282 85.5466 100.156C85.2693 100.03 84.8179 100.292 84.5406 100.161C84.2683 100.031 84.0121 99.8603 83.7435 99.727C83.4712 99.5936 83.1292 99.5986 82.8619 99.4615C82.592 99.3243 82.5311 98.777 82.2662 98.636C81.9989 98.4939 81.5637 98.67 81.3013 98.5253C81.0364 98.3781 80.9618 97.8861 80.7019 97.7364C80.4395 97.5854 79.9546 97.8257 79.6971 97.6722C79.436 97.5162 79.2445 97.2444 78.9883 97.0859C78.7309 96.9261 78.6016 96.5624 78.3504 96.4001C78.0955 96.2353 77.7088 96.2768 77.4601 96.1107C77.2089 95.9409 77.0522 95.6301 76.8072 95.4589C76.5573 95.2853 76.4603 94.9028 76.219 94.7266C75.9741 94.548 75.5376 94.6386 75.3001 94.4574C75.0564 94.2737 74.789 94.1252 74.554 93.939C74.3165 93.7502 74.1635 93.4558 73.9322 93.2645C73.6972 93.0695 73.3552 93.0028 73.1289 92.8065C72.8976 92.6052 72.6415 92.4316 72.4189 92.2302C72.1938 92.0226 72.2547 91.5055 72.0396 91.2991C71.8182 91.0865 71.393 91.0953 71.1828 90.8826C70.9664 90.6637 70.995 90.2183 70.7911 89.9993C70.5822 89.7741 70.2228 89.7024 70.0263 89.4784C69.8249 89.2469 69.7727 88.8996 69.5861 88.6694C69.3922 88.4303 68.9731 88.3825 68.794 88.1447C68.61 87.8993 68.3613 87.7005 68.1922 87.4564C68.0181 87.201 67.9969 86.8474 67.8415 86.5957C67.6786 86.3315 67.6052 86.027 67.4635 85.7666C67.3155 85.496 67.1053 85.2683 66.9797 84.999C66.8504 84.7184 66.8604 84.3938 66.7559 84.117C66.6452 83.8263 66.6204 83.5331 66.5408 83.2488C66.4562 82.9493 66.3779 82.68 66.3281 82.3881C66.2759 82.0836 65.7872 81.8307 65.7748 81.5363C65.7598 81.2267 66.2162 80.9348 66.2448 80.6391C66.2759 80.3334 66.072 80.0025 66.1491 79.7131C66.2274 79.4211 66.3692 79.1468 66.4973 78.8713C66.6241 78.5957 66.7136 78.2887 66.8865 78.0396C67.0581 77.793 67.5144 77.8043 67.7271 77.5853C67.9335 77.3727 68.038 77.0795 68.2817 76.892C68.5167 76.7134 68.6237 76.3309 68.8898 76.1748C69.1422 76.0276 69.519 76.1031 69.8 75.976C70.0674 75.8552 70.377 75.864 70.668 75.7634C70.9453 75.6665 71.1791 75.445 71.4763 75.367C71.7598 75.2915 72.0172 75.0726 72.3181 75.0122C72.6066 74.9556 72.8902 74.7895 73.1923 74.748C73.4846 74.7064 73.783 74.5856 74.0864 74.558C74.3799 74.5303 74.702 74.7618 75.0066 74.748C75.3026 74.7329 75.606 75.0487 75.9106 75.0462C76.2066 75.0437 76.505 74.6951 76.8097 74.7039C77.1069 74.7115 77.3954 74.9417 77.6988 74.9594C77.996 74.977 78.2945 74.9581 78.5979 74.9858C78.8926 75.0109 79.237 74.6272 79.5392 74.6624C79.8339 74.6976 80.0839 75.1254 80.3848 75.1695C80.6808 75.211 80.9543 75.3859 81.2528 75.4362C81.5438 75.4853 81.9044 75.1544 82.2003 75.2123C82.4926 75.2676 82.7015 75.7483 82.9962 75.8125C83.2872 75.8741 83.5856 75.8905 83.8803 75.9597C84.1688 76.0289 84.5469 75.7407 84.8416 75.8162C85.1301 75.8905 85.3875 76.0956 85.6797 76.1773C85.9682 76.2579 86.2803 76.2667 86.57 76.3522C86.8573 76.4378 87.055 76.8216 87.3435 76.9147C87.6283 77.004 87.9466 76.9877 88.2314 77.0846C88.5149 77.1802 88.8544 77.1135 89.1404 77.2154C89.4214 77.3173 89.7236 77.3702 90.0084 77.4759C90.2894 77.5828 90.5829 77.6684 90.8639 77.7804C91.1437 77.8898 91.3675 78.144 91.6473 78.261C91.9259 78.3755 92.1609 78.5919 92.4407 78.7127C92.7167 78.8335 93.0139 78.904 93.29 79.0286C93.5661 79.1544 93.8645 79.2324 94.1418 79.3633Z" fill="#444445"/>
<path fill-rule="evenodd" clip-rule="evenodd" d="M111.748 99.6692C111.335 99.8207 111.344 99.0584 110.945 98.8718C110.547 98.6864 110.548 98.6851 110.149 98.4997C109.751 98.3143 109.639 98.5555 109.242 98.37C108.843 98.1846 108.821 98.2319 108.424 98.0477C108.027 97.8623 108.059 97.7908 107.663 97.6066C107.266 97.4211 107.31 97.3278 106.912 97.1424C106.515 96.957 106.43 97.1412 106.033 96.9558C105.637 96.7716 105.7 96.6322 105.304 96.448C104.906 96.2626 104.802 96.4855 104.406 96.3001C104.008 96.1147 104.184 95.739 103.787 95.5536C103.391 95.3694 103.369 95.413 102.972 95.2276C102.574 95.0422 102.508 95.1876 102.109 95.0022C101.712 94.8168 101.677 94.8931 101.278 94.7077C100.881 94.5211 100.954 94.3623 100.556 94.1769C100.156 93.9902 100.03 94.2617 99.6303 94.0751C99.2317 93.8884 99.3131 93.7151 98.9134 93.5285C98.5124 93.3431 98.4699 93.4328 98.0701 93.2474C97.6715 93.0607 97.6205 93.171 97.2207 92.9844C96.8222 92.799 96.9789 92.4633 96.5804 92.2766C96.1806 92.0924 96.1794 92.0948 95.7808 91.9094C95.3835 91.7228 95.3689 91.7555 94.9691 91.5689C94.5718 91.3847 94.4333 91.6792 94.0347 91.4937C93.6362 91.3083 93.6265 91.3313 93.2279 91.1447C92.8294 90.9593 92.9424 90.7157 92.5438 90.5291C92.144 90.3436 92.1623 90.3061 91.7637 90.1207C91.3639 89.934 91.3311 90.0019 90.9314 89.8165C90.5304 89.6298 90.6689 89.3341 90.2691 89.1463C89.8694 88.9609 89.7454 89.2251 89.3457 89.0384C88.9459 88.853 88.8706 89.0142 88.4708 88.8288C88.0722 88.6421 88.2314 88.3016 87.8316 88.115C87.4319 87.9295 87.4598 87.8726 87.0601 87.6872C86.6603 87.5005 86.602 87.6254 86.2022 87.4399C85.8012 87.2533 85.7915 87.2775 85.3905 87.0909C84.9907 86.9043 84.9118 87.0715 84.5108 86.8849C84.111 86.6983 84.1317 86.6534 83.7319 86.4668C83.3333 86.2814 83.3601 86.2256 82.9627 86.0402C82.5642 85.856 82.5715 85.8402 82.1741 85.6548C81.7768 85.4694 81.7513 85.5227 81.3539 85.3373C80.9566 85.1519 81.0963 84.8537 80.6978 84.6695C80.2992 84.4829 80.2117 84.672 79.8132 84.4865C79.4134 84.2999 79.3624 84.4066 78.9626 84.2199C78.5616 84.0333 78.6418 83.8612 78.2396 83.6734C77.8399 83.4867 77.79 83.5946 77.3891 83.4092C76.9905 83.2225 77.0233 83.1498 76.6235 82.9632C76.2238 82.7766 76.2663 82.6845 75.8665 82.499C75.4643 82.3112 75.4413 82.3597 75.0391 82.1718C74.6381 81.9852 74.4704 82.3427 74.0694 82.1549C73.6684 81.9682 73.813 81.6592 73.412 81.4726C73.0086 81.2847 72.9187 81.4786 72.5153 81.2908C72.1143 81.1041 72.2601 80.7903 71.8591 80.6036C71.4569 80.4158 71.3682 80.6073 70.966 80.4206C70.5638 80.234 70.5007 80.3697 70.0997 80.1831C69.6975 79.9952 69.7157 79.9553 69.3123 79.7674C68.9089 79.5784 69.0316 79.3178 68.6282 79.13C68.2236 78.9409 68.1008 79.2015 67.6962 79.0136C67.2904 78.8246 67.2721 78.9191 67.1154 78.5034C66.9611 78.0974 67.1895 78.2295 67.3742 77.8356C67.5589 77.443 67.6172 77.4697 67.8007 77.0758C67.9854 76.6819 67.7995 76.5947 67.9842 76.2008C68.1701 75.8045 68.4325 75.9269 68.6185 75.5306C68.8032 75.1331 68.3827 74.938 68.5686 74.5405C68.7533 74.1442 68.7132 74.1248 68.8979 73.7297C69.0838 73.3334 69.051 73.3189 69.2369 72.9238C69.4216 72.5275 69.808 72.7069 69.994 72.3106C70.1799 71.9131 70.1944 71.9204 70.3804 71.5217C70.5651 71.1242 70.4994 71.0939 70.6853 70.6964C70.87 70.3001 70.96 70.3413 71.1459 69.9438C71.3318 69.5463 70.9745 69.379 71.1617 68.9815C71.3476 68.584 71.3427 68.5816 71.5286 68.1841C71.7158 67.7866 72.1836 68.0047 72.3707 67.6072C72.5554 67.2097 72.4485 67.16 72.6344 66.7637C72.8215 66.365 72.5068 66.2184 72.6939 65.8197C72.881 65.421 72.8555 65.4088 73.0426 65.0089C73.231 64.609 73.3294 64.655 73.5165 64.2539C73.7037 63.854 73.6283 63.8261 74.0451 63.6734C74.4582 63.5219 74.4023 63.6237 74.8009 63.8103C75.1994 63.9946 75.1035 64.1994 75.502 64.386C75.8993 64.5714 76.061 64.2248 76.4583 64.4102C76.8556 64.5957 76.7001 64.9289 77.0974 65.1143C77.496 65.2986 77.6357 65.0004 78.0331 65.1846C78.4292 65.3701 78.349 65.5434 78.7451 65.7288C79.1425 65.913 79.106 65.9918 79.5021 66.1772C79.8995 66.3614 79.8691 66.4268 80.2664 66.611C80.6625 66.7965 80.7427 66.6232 81.1413 66.8086C81.5386 66.9928 81.4293 67.2243 81.8266 67.4085C82.2239 67.5939 82.2507 67.5381 82.648 67.7236C83.0454 67.9078 83.1559 67.6727 83.5533 67.8581C83.9506 68.0435 84.0405 67.8532 84.4379 68.0374C84.8376 68.2241 84.7246 68.464 85.122 68.6495C85.5217 68.8361 85.5788 68.7137 85.9786 68.8991C86.3772 69.0857 86.2459 69.3681 86.6457 69.5535C87.0455 69.7402 87.0163 69.8044 87.4161 69.9898C87.8146 70.1764 87.8098 70.1874 88.2083 70.374C88.6069 70.5594 88.7612 70.2322 89.1597 70.4176C89.5583 70.6042 89.4003 70.9399 89.8001 71.1266C90.1974 71.312 90.2363 71.2296 90.6337 71.4162C91.0322 71.6004 91.2011 71.2405 91.5997 71.4271C91.9982 71.6125 91.8791 71.8646 92.2789 72.05C92.6775 72.2355 92.6289 72.3397 93.0274 72.5251C93.4272 72.7105 93.5754 72.3942 93.974 72.5796C94.3737 72.7663 94.3154 72.8911 94.7152 73.0777C95.1162 73.2632 95.0688 73.3637 95.4698 73.5504C95.8695 73.737 95.9218 73.6255 96.3216 73.8121C96.7213 73.9976 96.6642 74.1188 97.064 74.3054C97.4625 74.492 97.3787 74.6726 97.7772 74.858C98.177 75.0446 98.1855 75.0265 98.5853 75.2119C98.9838 75.3985 99.1187 75.1089 99.5197 75.2955C99.9195 75.4821 99.9511 75.4131 100.352 75.5997C100.752 75.7863 100.729 75.8372 101.13 76.0251C101.529 76.2105 101.497 76.2784 101.898 76.465C102.296 76.6504 102.225 76.7995 102.623 76.9861C103.02 77.1703 102.977 77.2648 103.373 77.4503C103.771 77.6357 103.762 77.6551 104.159 77.8405C104.556 78.0259 104.56 78.0199 104.957 78.2053C105.356 78.3907 105.431 78.2319 105.83 78.4174C106.229 78.604 106.329 78.3919 106.729 78.5785C107.13 78.7652 107.13 78.7676 107.531 78.9542C107.931 79.1409 107.813 79.3966 108.213 79.5832C108.612 79.7686 108.677 79.6305 109.076 79.8171C109.476 80.0037 109.545 79.8583 109.945 80.0449C110.347 80.2328 110.337 80.2546 110.739 80.4424C111.14 80.6291 111.104 80.7042 111.507 80.8908C111.908 81.0775 111.92 81.052 112.321 81.2387C112.723 81.4265 112.648 81.5865 113.051 81.7743C113.452 81.9609 113.584 81.6798 113.987 81.8676C114.389 82.0543 114.368 82.0955 114.77 82.2821C115.171 82.4687 115.062 82.7051 115.463 82.8917C115.865 83.0795 116.004 82.7838 116.406 82.9717C116.811 83.1595 116.574 83.6649 116.978 83.8539C117.383 84.0418 117.519 83.7497 117.924 83.9388C118.328 84.1266 118.487 83.9509 118.645 84.3678C118.8 84.7726 118.355 84.6453 118.17 85.0392C117.987 85.4318 118.225 85.5433 118.04 85.936C117.856 86.3311 117.746 86.2802 117.56 86.674C117.376 87.0703 117.661 87.2036 117.475 87.5999C117.291 87.9962 116.846 87.7902 116.66 88.1865C116.475 88.5828 116.563 88.624 116.378 89.0203C116.192 89.4153 116.472 89.545 116.286 89.9413C116.101 90.3364 116.117 90.3449 115.93 90.7399C115.744 91.1374 115.785 91.1568 115.599 91.5555C115.413 91.9518 115.099 91.8052 114.913 92.2027C114.727 92.6002 114.865 92.6644 114.679 93.0607C114.493 93.4594 114.508 93.4667 114.322 93.8654C114.136 94.2629 114.125 94.2581 113.939 94.6556C113.752 95.0531 113.959 95.1488 113.773 95.5463C113.588 95.9426 113.202 95.7633 113.016 96.1595C112.83 96.5595 112.965 96.6225 112.779 97.0212C112.591 97.4211 112.323 97.2951 112.135 97.695C111.948 98.0949 112.119 98.1883 112.056 98.6258C111.974 99.1978 112.165 99.5165 111.748 99.6692Z" fill="#444445"/>
<path fill-rule="evenodd" clip-rule="evenodd" d="M106.666 54.3291C107.069 54.5137 107.091 54.4633 107.389 54.7906C107.686 55.1179 107.542 55.2484 107.838 55.5745C108.136 55.9006 108 56.0236 108.298 56.351C108.595 56.6771 108.905 56.3965 109.204 56.7226C109.501 57.0487 109.219 57.3022 109.517 57.6296C109.815 57.9557 110.028 57.7625 110.325 58.0886C110.621 58.4147 110.766 58.2842 111.063 58.6103C111.361 58.9377 111.035 59.2318 111.331 59.5591C111.63 59.8852 111.968 59.58 112.265 59.9061C112.562 60.2322 112.252 60.5128 112.551 60.8401C112.848 61.1675 112.992 61.0383 113.289 61.3656C113.588 61.6929 113.64 61.6449 113.938 61.9735C114.237 62.3021 113.978 62.5346 114.276 62.8632C114.576 63.1918 114.893 62.905 115.193 63.2336C115.493 63.5622 115.592 63.4736 115.891 63.8021C116.19 64.1295 115.836 64.4494 116.135 64.778C116.433 65.1065 116.701 64.8641 117 65.1927C117.298 65.52 116.959 65.8264 117.257 66.1538C117.556 66.4811 117.821 66.2411 118.119 66.5697C118.418 66.897 118.165 67.1247 118.462 67.4533C118.761 67.7806 118.971 67.5911 119.269 67.9184C119.567 68.247 119.452 68.3516 119.751 68.6789C120.048 69.0075 120.127 68.9361 120.426 69.2647C120.727 69.5932 120.62 69.6892 120.919 70.0178C121.218 70.3476 121.518 70.0756 121.82 70.4042C122.119 70.734 122.085 70.7635 122.385 71.0921C122.684 71.4206 122.572 71.5228 122.871 71.8513C123.169 72.1787 123.008 72.3239 123.308 72.6525C123.607 72.981 123.524 73.0549 123.823 73.3834C124.122 73.712 124.431 73.4326 124.73 73.7624C125.029 74.0898 124.94 74.171 125.239 74.4995C125.538 74.8293 125.556 74.8133 125.856 75.1419C126.154 75.4705 126.26 75.3745 126.558 75.7031C126.857 76.0304 126.825 76.0587 127.124 76.386C127.421 76.7134 127.234 76.882 127.531 77.2093C127.829 77.5354 127.844 77.5231 128.14 77.8504C128.438 78.1765 128.297 78.3045 128.595 78.6318C128.893 78.9604 129.122 78.7524 129.421 79.081C129.72 79.4096 129.698 79.4305 129.998 79.7603C130.298 80.0901 130.296 80.0925 130.596 80.4223C130.896 80.7521 130.917 80.7324 131.217 81.0622C131.516 81.3908 131.295 81.5889 131.595 81.9175C131.895 82.2473 131.962 82.1857 132.262 82.5155C132.564 82.8466 132.606 82.8084 132.907 83.1382C133.207 83.468 133.086 83.5788 133.386 83.9086C133.687 84.2383 133.894 84.0501 134.195 84.3799C134.492 84.7084 134.59 84.6198 134.888 84.9472C135.187 85.277 135.2 85.2671 135.499 85.5957C135.8 85.9267 135.675 86.0399 135.977 86.3709C136.279 86.7007 136.085 86.8755 136.388 87.2053C136.689 87.5388 136.729 87.5031 137.03 87.8353C137.334 88.1688 137.285 88.2131 137.587 88.5454C137.891 88.8789 138.014 88.7693 138.317 89.1028C138.621 89.4363 139.479 89.3785 139.298 89.7919C139.12 90.1956 138.577 89.9495 138.133 89.9322C137.69 89.915 137.715 89.3403 137.271 89.3231C136.829 89.3059 136.812 89.7403 136.369 89.723C135.926 89.7058 135.925 89.7809 135.483 89.7624C135.04 89.7452 135.053 89.4092 134.612 89.392C134.171 89.3748 134.173 89.3133 133.73 89.296C133.289 89.2776 133.29 89.2394 132.848 89.221C132.406 89.2037 132.391 89.568 131.95 89.5508C131.506 89.5335 131.504 89.5889 131.063 89.5717C130.621 89.5544 130.639 89.0696 130.197 89.0524C129.752 89.0351 129.738 89.4302 129.294 89.4129C128.851 89.3945 128.844 89.5544 128.401 89.5372C127.956 89.52 127.956 89.52 127.512 89.5028C127.067 89.4843 127.083 89.0905 126.638 89.0733C126.192 89.0548 126.196 88.9896 125.749 88.9724C125.306 88.9552 125.296 89.1865 124.852 89.1693C124.408 89.1508 124.416 88.9355 123.971 88.9182C123.528 88.8998 123.532 88.7903 123.088 88.773C122.646 88.7558 122.637 88.965 122.193 88.9478C121.749 88.9305 121.757 88.746 121.313 88.7287C120.87 88.7103 120.871 88.6857 120.428 88.6672C119.983 88.65 119.979 88.7398 119.536 88.7213C119.092 88.7041 119.08 88.9871 118.635 88.9699C118.191 88.9527 118.204 88.6167 117.758 88.5995C117.312 88.5811 117.294 89.0733 116.847 89.0561C116.402 89.0388 116.423 88.5023 115.978 88.4838C115.534 88.4666 115.529 88.5798 115.083 88.5614C114.639 88.5441 114.621 88.9847 114.177 88.9662C113.733 88.949 113.747 88.5528 113.304 88.5343C112.859 88.5171 112.857 88.5946 112.411 88.5761C111.965 88.5589 111.958 88.746 111.513 88.7287C111.067 88.7103 111.065 88.773 110.617 88.7558C110.173 88.7386 110.181 88.5331 109.734 88.5158C109.29 88.4986 109.281 88.7103 108.836 88.693C108.39 88.6758 108.39 88.7017 107.944 88.6832C107.502 88.666 107.512 88.4469 107.069 88.4297C106.626 88.4125 106.631 88.2857 106.189 88.2685C105.746 88.25 105.744 88.2611 105.302 88.2439C104.855 88.2254 104.853 88.2943 104.408 88.2771C103.961 88.2586 103.967 88.0802 103.521 88.063C103.076 88.0445 103.079 87.9904 102.632 87.9732C102.188 87.9559 102.181 88.1319 101.736 88.1147C101.29 88.0962 101.298 87.9178 100.853 87.8993C100.406 87.8821 100.384 88.4112 99.9364 88.394C99.4892 88.3755 99.4954 88.2291 99.0495 88.2107C98.6023 88.1934 98.6097 88.0408 98.1613 88.0224C97.7142 88.0051 97.7204 87.855 97.2732 87.8366C96.8248 87.8193 96.8112 88.1344 96.3653 88.1171C95.9182 88.0987 95.9231 87.9719 95.476 87.9547C95.03 87.9362 95.0189 88.2217 94.573 88.2033C94.1246 88.186 94.1296 88.0679 93.6799 88.0494C93.2315 88.0322 93.2488 87.5843 92.7992 87.5671C92.3496 87.5486 92.3385 87.807 91.8888 87.7886C91.438 87.7713 91.3182 88.1245 90.9093 87.9362C90.5079 87.7504 90.5659 87.5535 90.2682 87.2262C89.9705 86.9001 90.0471 86.8299 89.7507 86.5038C89.4517 86.1765 89.5876 86.0547 89.2899 85.7286C88.9922 85.4012 89.1306 85.277 88.8329 84.9509C88.5352 84.6247 88.4327 84.7183 88.135 84.3922C87.8385 84.0661 87.7027 84.1867 87.4062 83.8606C87.1097 83.5345 87.1505 83.4975 86.854 83.1702C86.5576 82.8441 86.481 82.913 86.1833 82.5857C85.8869 82.2596 86.1043 82.0627 85.8066 81.7354C85.5089 81.4092 85.1433 81.739 84.8456 81.4129C84.5479 81.0856 84.8999 80.7669 84.6022 80.4396C84.3033 80.1122 84.1946 80.2119 83.8944 79.8846C83.5967 79.556 83.5832 79.5683 83.2842 79.241C82.9841 78.9124 82.8309 79.0502 82.532 78.7217C82.2318 78.3931 82.1688 78.4497 81.8699 78.1211C81.571 77.7926 81.5759 77.7889 81.2757 77.4603C80.9781 77.133 81.0287 77.0875 80.7298 76.7589C80.4321 76.4303 80.6137 76.2667 80.316 75.9393C80.017 75.6108 80.1665 75.4766 79.8676 75.1493C79.5687 74.822 79.4031 74.9721 79.1054 74.6448C78.8053 74.3174 78.8559 74.2731 78.557 73.9446C78.2593 73.6172 78.3544 73.5311 78.0555 73.2025C77.7578 72.8752 77.7195 72.9084 77.4206 72.5798C77.1217 72.2513 77.0463 72.319 76.7474 71.9904C76.4472 71.6606 76.2582 71.8317 75.9593 71.5031C75.6579 71.1733 75.564 71.2582 75.2651 70.9296C74.9662 70.6011 75.3627 70.2442 75.0638 69.9156C74.7648 69.5871 74.5413 69.7889 74.2423 69.4603C73.9434 69.1318 73.9422 69.1342 73.6433 68.8057C73.3431 68.4771 73.5654 68.2765 73.2665 67.948C72.9676 67.6194 72.702 67.8606 72.4031 67.532C72.1029 67.2022 72.3055 67.0201 72.0041 66.6903C71.7064 66.3617 71.7089 66.3593 71.41 66.0307C71.1123 65.7046 70.8368 65.9532 70.5391 65.6259C70.2414 65.2985 70.2303 65.3084 69.9339 64.981C69.6349 64.6549 69.7375 64.5626 69.4398 64.2353C69.1421 63.908 69.3681 63.7049 69.0692 63.3788C68.7703 63.0503 68.3997 63.3862 68.1008 63.0576C67.8006 62.7291 67.9649 62.5802 67.666 62.2504C67.3658 61.9206 67.4053 61.8849 67.1052 61.5539C66.805 61.2253 66.6926 61.3274 66.3925 60.9976C66.0923 60.6691 66.3072 60.4759 66.0083 60.1473C65.7094 59.8175 65.6488 59.8704 65.3499 59.5419C65.0485 59.2108 64.9312 59.3179 64.6298 58.9869C64.3296 58.6571 64.5952 58.4159 64.295 58.0861C63.9949 57.7563 64.0319 57.7218 63.7318 57.3921C63.4341 57.0647 63.3328 57.157 63.0351 56.8297C62.7349 56.5011 62.4212 56.7841 62.121 56.4544C61.8184 56.1233 62.1914 55.7861 61.8913 55.4551C61.5899 55.1241 61.2588 55.4231 60.9587 55.0921C60.656 54.7598 60.5807 54.8275 60.2781 54.4953C59.9754 54.163 60.2398 53.9231 59.9371 53.5908C59.6333 53.2561 59.6197 53.2696 59.3158 52.9349C59.0107 52.6014 58.5364 52.7159 58.718 52.3036C58.8958 51.8988 59.1392 52.0095 59.5826 52.0267C60.0248 52.0452 60.0113 52.3922 60.4535 52.4094C60.8957 52.4267 60.9043 52.1953 61.3478 52.2125C61.79 52.2298 61.7801 52.4599 62.2223 52.4784C62.6645 52.4956 62.6596 52.6186 63.1006 52.6359C63.5428 52.6531 63.5514 52.4439 63.9936 52.4611C64.4359 52.4784 64.4321 52.5645 64.8744 52.5817C65.3153 52.5989 65.3067 52.8537 65.7477 52.8709C66.1899 52.8894 66.2109 52.3553 66.6531 52.3738C67.0965 52.391 67.0879 52.6051 67.5301 52.6236C67.9736 52.6408 67.9649 52.866 68.4071 52.8832C68.8518 52.9004 68.8666 52.4993 69.3113 52.5165C69.7548 52.535 69.7375 53.0112 70.1809 53.0284C70.6256 53.0469 70.6318 52.8771 71.0765 52.8943C71.5236 52.9127 71.5248 52.8771 71.9695 52.8955C72.4142 52.9127 72.4056 53.1318 72.8502 53.149C73.2937 53.1662 73.3147 52.6629 73.7581 52.6814C74.2028 52.6986 74.2053 52.6149 74.6487 52.6334C75.0922 52.6506 75.0724 53.1601 75.5159 53.1773C75.9593 53.1945 75.9568 53.2548 76.4003 53.2733C76.8437 53.2905 76.8487 53.1761 77.2921 53.1933C77.7368 53.2105 77.7306 53.3484 78.1753 53.3656C78.6188 53.3828 78.6274 53.1859 79.0721 53.2032C79.5168 53.2204 79.5168 53.2302 79.9615 53.2487C80.4074 53.2659 80.4111 53.1687 80.857 53.1859C81.3029 53.2032 81.2992 53.2979 81.7439 53.3151C82.1898 53.3324 82.196 53.1552 82.6407 53.1736C83.0854 53.1909 83.0705 53.5613 83.5152 53.5797C83.9599 53.5969 83.9735 53.2647 84.4169 53.2832C84.8629 53.3004 84.869 53.1121 85.315 53.1293C85.7596 53.1478 85.7448 53.5539 86.1895 53.5711C86.6354 53.5883 86.6428 53.4234 87.0875 53.4407C87.5347 53.4579 87.5371 53.3988 87.9818 53.4161C88.4265 53.4345 88.4327 53.2659 88.8798 53.2832C89.3245 53.3016 89.3122 53.5896 89.7581 53.608C90.2003 53.6253 90.1953 53.7348 90.6376 53.7532C91.081 53.7705 91.0884 53.5896 91.5294 53.608C91.9728 53.6253 91.9815 53.4148 92.4262 53.4321C92.8709 53.4505 92.8634 53.6425 93.3094 53.6609C93.7565 53.6782 93.7442 53.9784 94.1901 53.9957C94.636 54.0141 94.6385 53.9661 95.0832 53.9834C95.5278 54.0006 95.534 53.8271 95.9799 53.8443C96.4246 53.8628 96.4345 53.6351 96.8792 53.6523C97.3263 53.6708 97.3214 53.8221 97.7685 53.8406C98.2145 53.8578 98.2182 53.7618 98.6653 53.7791C99.1125 53.7963 99.1112 53.8098 99.5584 53.8271C100.006 53.8443 100.012 53.6769 100.461 53.6954C100.909 53.7126 100.908 53.688 101.356 53.7052C101.803 53.7225 101.781 54.2848 102.228 54.3033C102.674 54.3205 102.685 54.0227 103.132 54.0412C103.58 54.0584 103.59 53.8295 104.037 53.8468C104.487 53.8652 104.473 54.2344 104.922 54.2528C105.371 54.2701 105.38 53.9218 105.831 53.928C106.264 53.9329 106.257 54.1409 106.666 54.3291Z" fill="#2A1E22"/>
<path fill-rule="evenodd" clip-rule="evenodd" d="M114.045 93.8889C113.363 93.8889 112.812 93.3335 112.812 92.649L112.802 91.7835C112.724 91.5703 112.645 91.3186 112.645 90.9181C112.645 90.4481 112.79 90.1307 112.891 89.9459C112.888 89.9286 112.883 89.9087 112.878 89.8815C112.841 89.7079 112.804 89.5107 112.804 89.1908C112.804 88.7258 112.927 88.4357 112.993 88.2795C112.986 88.2063 112.976 88.1418 112.967 88.0774C112.957 88.0116 112.949 87.9459 112.941 87.8666C112.682 87.626 112.375 87.2317 112.375 86.6142C112.375 86.546 112.378 86.4803 112.382 86.4171C112.223 86.1641 112.156 85.9273 112.124 85.7512C111.929 85.6322 111.736 85.497 111.509 85.2453C111.38 85.1995 111.088 85.0643 110.768 84.7084C110.445 84.3513 110.34 84.0302 110.286 83.8417C110.006 83.5119 109.908 83.2317 109.854 83.0779L109.504 82.6985C109.162 82.6811 108.688 82.5844 108.288 82.1418C108.016 81.8392 107.901 81.5317 107.848 81.2924C107.637 81.2069 107.386 81.0618 107.14 80.7915C106.938 80.5658 106.852 80.4393 106.766 80.3153C106.725 80.2558 106.684 80.1975 106.589 80.0922C106.26 79.7276 106.157 79.3804 106.108 79.1758C106.022 79.0816 105.967 79.0258 105.911 78.9688C105.825 78.8807 105.739 78.7927 105.573 78.6092C105.512 78.5422 105.498 78.5323 105.435 78.4864C105.289 78.381 105.128 78.257 104.91 78.0165C104.676 77.7574 104.557 77.5081 104.491 77.311C104.232 77.2403 103.919 77.0965 103.63 76.7766C103.413 76.5373 103.326 76.3996 103.236 76.262C103.204 76.2099 103.17 76.1578 103.089 76.0686C102.82 75.7697 102.709 75.5304 102.625 75.3283C102.399 75.0692 102.281 74.8596 102.204 74.6798C101.94 74.6141 101.598 74.474 101.288 74.1305C101.195 74.0276 101.142 73.983 101.089 73.9383C100.973 73.8391 100.856 73.74 100.654 73.5155C100.438 73.2775 100.351 73.1398 100.262 73.0034C100.229 72.9514 100.197 72.9005 100.115 72.8112C99.8736 72.6476 99.6751 72.5137 99.4297 72.2421C99.1264 71.9073 99.0192 71.5639 98.9785 71.3035C98.7936 71.2142 98.5753 71.0728 98.3509 70.8236C97.8935 70.3177 97.9342 69.5378 98.436 69.0778C98.9156 68.6388 99.6492 68.6525 100.114 69.0939C100.329 69.1757 100.628 69.3134 100.94 69.6581C101.275 70.0276 101.373 70.4095 101.402 70.6761C101.584 70.8013 101.748 70.929 101.944 71.146C102.157 71.3841 102.246 71.5205 102.333 71.6569C102.367 71.7089 102.4 71.7598 102.48 71.8503C102.571 71.9507 102.623 71.9954 102.676 72.04C102.761 72.1107 102.844 72.1813 102.958 72.2979C103.233 72.3525 103.623 72.4789 103.974 72.8695C104.254 73.1795 104.364 73.43 104.444 73.6408C104.709 73.9371 104.82 74.1764 104.903 74.3785C105.132 74.6414 105.22 74.779 105.308 74.9167C105.314 74.9266 105.321 74.9365 105.328 74.9464C105.605 75.0022 105.989 75.1324 106.333 75.5168C106.656 75.8726 106.761 76.2149 106.809 76.4232C106.826 76.4368 106.843 76.4505 106.872 76.4703C107.018 76.5769 107.181 76.6997 107.398 76.9427C107.531 77.089 107.6 77.1585 107.668 77.2291C107.756 77.3172 107.842 77.4064 108.007 77.5887C108.335 77.9545 108.439 78.3017 108.486 78.505C108.64 78.6811 108.716 78.7915 108.791 78.9031C108.817 78.9378 108.841 78.9737 108.879 79.0208C109.117 79.0915 109.452 79.2304 109.778 79.59C109.984 79.8181 110.101 80.0512 110.167 80.2533C110.462 80.3091 110.801 80.448 111.099 80.7791L111.701 81.4387C112.017 81.7896 112.123 82.0909 112.178 82.2534C112.463 82.5646 112.571 82.8622 112.628 83.0556C112.771 83.1139 113.042 83.254 113.336 83.5789C113.565 83.7153 113.787 83.8516 114.052 84.1455C114.407 84.5411 114.497 84.9292 114.533 85.166C114.826 85.5652 114.872 85.9757 114.866 86.2621C115.115 86.5051 115.391 86.8907 115.391 87.4747C115.391 87.6025 115.401 87.6669 115.41 87.7314C115.431 87.8814 115.452 88.0327 115.452 88.334C115.452 88.8002 115.328 89.0904 115.263 89.2466C115.27 89.2764 115.273 89.29 115.289 89.3632C115.326 89.538 115.362 89.7339 115.362 90.0538C115.362 90.4928 115.236 90.799 115.137 90.9887C115.206 91.1871 115.268 91.4252 115.268 91.7835L115.278 92.649C115.278 93.3335 114.727 93.8889 114.045 93.8889Z" fill="#FFCA00"/>
<path fill-rule="evenodd" clip-rule="evenodd" d="M114.654 95.3597C114.321 95.0825 114.155 95.665 113.72 95.665C113.287 95.665 113.287 95.1777 112.853 95.1777C112.418 95.1777 112.418 95.2937 111.983 95.2937C111.547 95.2937 111.575 95.3218 111.237 95.5954C110.903 95.8677 110.747 95.8066 110.663 96.2292C110.576 96.6517 110.671 96.6712 110.587 97.0937C110.502 97.5175 110.435 97.504 110.35 97.9278C110.265 98.354 110.316 98.3637 110.231 98.7899C110.145 99.2161 110.204 99.2283 110.117 99.6557C110.032 100.081 110.463 100.167 110.377 100.592C110.291 101.017 110.037 100.966 109.952 101.391C109.865 101.817 109.903 101.823 109.816 102.249C109.731 102.677 109.522 102.635 109.435 103.063C109.35 103.489 109.696 103.559 109.609 103.985C109.524 104.412 109.6 104.427 109.513 104.853C109.427 105.282 109.439 105.283 109.351 105.711C109.266 106.139 108.97 106.079 108.885 106.505C108.797 106.933 108.978 106.969 108.893 107.397C108.807 107.823 108.824 107.825 108.737 108.253C108.651 108.68 108.334 108.615 108.246 109.045C108.161 109.474 108.562 109.556 108.475 109.984C108.389 110.414 107.826 110.301 107.738 110.73C107.653 111.16 107.76 111.149 108.045 111.483C108.34 111.828 108.305 111.351 108.759 111.351C109.212 111.351 109.212 111.933 109.665 111.933C110.117 111.933 110.117 111.357 110.57 111.357C111.026 111.357 111.026 111.781 111.48 111.781C111.935 111.781 111.935 111.409 112.388 111.409C112.841 111.409 112.841 111.649 113.294 111.649C113.747 111.649 113.747 111.751 114.199 111.751C114.654 111.751 114.654 111.606 115.109 111.606C115.564 111.606 115.564 111.826 116.021 111.826C116.478 111.826 116.478 111.372 116.935 111.372C117.391 111.372 117.551 111.997 117.853 111.654C118.137 111.33 118.02 111.175 117.935 110.752C117.849 110.33 117.43 110.414 117.346 109.992C117.261 109.568 117.262 109.568 117.177 109.144C117.092 108.718 117.527 108.63 117.441 108.205C117.356 107.778 117.354 107.778 117.268 107.351C117.182 106.927 116.614 107.04 116.529 106.615C116.444 106.19 116.642 106.15 116.557 105.725C116.471 105.3 116.355 105.323 116.268 104.898C116.183 104.471 116.407 104.424 116.322 103.998C116.237 103.571 116.178 103.583 116.093 103.156C116.006 102.729 116.232 102.684 116.147 102.258C116.059 101.829 116.078 101.826 115.992 101.398C115.905 100.971 115.429 101.067 115.343 100.64C115.257 100.214 115.538 100.156 115.451 99.7302C115.365 99.3028 115.542 99.2674 115.456 98.8412C115.371 98.4126 115.278 98.4321 115.192 98.0035C115.105 97.5737 114.826 97.631 114.739 97.2012C114.652 96.7714 114.848 96.7445 114.865 96.3061C114.883 95.803 114.992 95.6393 114.654 95.3597Z" fill="#FFCA00"/>
<path fill-rule="evenodd" clip-rule="evenodd" d="M116.73 96.1704C116.73 95.8621 116.772 95.5503 116.704 95.2611C116.637 94.9636 116.289 94.7851 116.159 94.5161C116.026 94.2424 116.016 93.9282 115.827 93.6926C115.638 93.4581 115.32 93.3903 115.084 93.2022C114.849 93.0154 114.644 92.8642 114.368 92.7321C114.099 92.6024 113.899 92.3394 113.6 92.2727C113.309 92.2061 113.013 92.0014 112.704 92.0014C112.394 92.0014 112.031 91.9145 111.742 91.98C111.442 92.0478 111.096 92.1668 110.826 92.2966C110.551 92.4287 110.39 92.8059 110.154 92.994C109.918 93.182 109.699 93.4034 109.51 93.639C109.322 93.8734 109.27 94.19 109.137 94.4626C109.007 94.7327 109.056 95.029 108.988 95.3266C108.922 95.6158 108.355 95.8621 108.355 96.1704C108.355 96.4786 108.529 96.8142 108.595 97.1022C108.664 97.4009 108.816 97.7008 108.947 97.9698C109.079 98.2423 109.221 98.5482 109.409 98.7826C109.598 99.0183 109.834 99.2635 110.071 99.4515C110.308 99.6383 110.586 99.8418 110.861 99.9739C111.131 100.104 111.552 99.8109 111.853 99.8787C112.143 99.943 112.394 100.279 112.704 100.279C113.013 100.279 113.364 100.376 113.655 100.311C113.955 100.243 114.318 100.189 114.589 100.06C114.863 99.9275 115.058 99.5848 115.294 99.3967C115.531 99.2087 115.456 98.7362 115.645 98.5006C115.833 98.2661 116.463 98.3054 116.596 98.0329C116.726 97.7639 116.524 97.3498 116.593 97.0522C116.658 96.7642 116.73 96.4786 116.73 96.1704Z" fill="#FF9200"/>
</g>
<path fill-rule="evenodd" clip-rule="evenodd" d="M98.3627 128.089L98.4491 128.356L98.2562 128.354C97.9707 128.468 97.8104 128.841 97.5349 128.971C97.2569 129.102 96.8812 129.021 96.6158 129.17C96.349 129.32 95.9771 129.307 95.7216 129.474C95.4662 129.642 95.4925 130.198 95.2483 130.382C95.0041 130.566 94.6309 130.571 94.4005 130.771C94.1701 130.97 93.9547 131.18 93.7393 131.395C93.5227 131.611 93.1933 131.72 92.9917 131.95C92.7901 132.179 92.8239 132.592 92.6386 132.835C92.4533 133.076 91.9661 133.106 91.7983 133.361C91.6305 133.614 91.5992 133.959 91.449 134.225C91.2987 134.489 91.1497 134.756 91.0182 135.032C90.8867 135.306 91.0169 135.685 90.9042 135.97L90.6801 135.918L90.4997 135.952C90.387 135.668 90.5048 135.291 90.3733 135.016C90.2418 134.741 90.1704 134.427 90.0214 134.162C89.8711 133.897 89.7321 133.611 89.5656 133.357C89.3965 133.102 88.9883 133.014 88.8029 132.772C88.6176 132.53 88.3997 132.323 88.1994 132.094C87.9977 131.866 87.8888 131.557 87.6722 131.342C87.4568 131.127 87.0823 131.092 86.8519 130.892C86.6215 130.691 86.6916 130.123 86.4475 129.94C86.2045 129.756 85.6873 129.953 85.4306 129.786C85.1752 129.619 85.1789 129.022 84.9122 128.872C84.6455 128.724 84.2009 128.897 83.9229 128.765C83.6474 128.635 83.4132 128.409 83.1265 128.297L83.2767 128.356L83 128.098C83.2868 127.986 83.6412 128.062 83.9166 127.933C84.1947 127.801 84.549 127.817 84.8158 127.669C85.0825 127.52 85.1589 127.067 85.4143 126.9C85.6711 126.734 86.2208 126.977 86.465 126.793C86.7092 126.61 86.738 126.152 86.9684 125.952C87.1988 125.752 87.3428 125.471 87.5595 125.256C87.7748 125.041 88.1367 124.966 88.3384 124.736C88.5387 124.507 88.6927 124.239 88.8781 123.995C89.0622 123.753 89.1473 123.446 89.3151 123.191C89.4829 122.937 89.6933 122.716 89.8436 122.45C89.9926 122.185 90.3244 122.01 90.4559 121.735C90.5874 121.46 90.7752 121.196 90.8879 120.911L90.6801 121.052L90.8955 120.746C91.0082 121.029 90.7327 121.48 90.8629 121.753C90.9956 122.028 91.2298 122.262 91.3801 122.527C91.5304 122.792 91.6794 123.067 91.8472 123.321C92.015 123.576 92.2742 123.772 92.4583 124.015C92.6436 124.257 92.6186 124.684 92.8189 124.913C93.0205 125.143 93.6279 124.998 93.8445 125.214C94.0599 125.429 94.0762 125.849 94.3066 126.05C94.537 126.25 94.6397 126.625 94.8839 126.809C95.1281 126.992 95.4987 127.022 95.7542 127.189C96.0109 127.356 96.4793 127.164 96.746 127.313C97.0115 127.462 97.2356 127.657 97.5124 127.788C97.7879 127.918 98.0759 127.977 98.3627 128.089Z" fill="#FFCA00"/>
<path fill-rule="evenodd" clip-rule="evenodd" d="M38.3497 92.7211L38.1117 92.6153L38.4839 92.8497C38.1953 92.9631 37.6915 92.5863 37.413 92.7186C37.1333 92.8509 36.884 93.0803 36.6156 93.2315C36.3448 93.3827 36.0321 93.4948 35.7739 93.6637C35.5144 93.8325 35.3094 94.1035 35.0638 94.29C34.817 94.4765 34.6866 94.8142 34.4537 95.0158C34.2208 95.2187 34.093 95.5249 33.874 95.7429C33.6551 95.9609 33.2437 95.9987 33.0399 96.2305C32.8374 96.4624 32.6475 96.7157 32.4602 96.9614C32.2741 97.2071 32.0311 97.4251 31.8615 97.6835C31.6919 97.9405 31.6261 98.2707 31.4742 98.5403C31.3223 98.8075 31.4438 99.2107 31.3109 99.4905C31.178 99.7677 30.5818 99.8483 30.4679 100.136L30.7324 100.213L30.9577 100.151C30.8438 99.8635 30.5907 99.624 30.4578 99.3468C30.3249 99.0683 30.2869 98.7268 30.1363 98.4597C29.9844 98.19 29.8755 97.8737 29.7047 97.6167C29.535 97.3596 29.1022 97.2739 28.9148 97.0282C28.7275 96.7837 28.3174 96.7321 28.1149 96.5002C27.9111 96.2671 27.9022 95.8689 27.6833 95.6509C27.4643 95.4329 27.1896 95.2817 26.9555 95.0788C26.7226 94.8759 26.6137 94.5218 26.3669 94.3353C26.1201 94.1501 25.6973 94.2156 25.4391 94.0468C25.1809 93.8779 24.9252 93.7292 24.6543 93.578C24.386 93.4281 24.1632 93.205 23.8835 93.0714C23.605 92.9404 23.2886 92.919 23 92.8056L23.0139 92.6153L23.1557 92.8194C23.4443 92.706 23.6772 92.4389 23.9544 92.3078C24.2354 92.1742 24.4657 91.9449 24.7353 91.7937C25.0049 91.6425 25.315 91.5555 25.5733 91.3867C25.8327 91.2178 26.2352 91.2304 26.4821 91.0439C26.7276 90.8574 26.9263 90.5852 27.1592 90.3823C27.3921 90.1795 27.6769 90.0081 27.8959 89.7901C28.1149 89.5721 27.9858 89.0277 28.1896 88.7946C28.3933 88.5627 28.4921 88.2679 28.6794 88.0222C28.8655 87.7777 29.3882 87.7739 29.5578 87.5168C29.7274 87.2598 29.9451 87.0178 30.097 86.7494C30.2489 86.481 30.1983 86.103 30.3312 85.8232C30.4641 85.546 30.5831 85.265 30.697 84.9765L30.7324 84.7458L30.6236 85.0332C30.7375 85.3217 31.1463 85.478 31.278 85.7565C31.4121 86.0349 31.1691 86.5088 31.3197 86.7772C31.4716 87.0468 31.6261 87.3329 31.7969 87.5899C31.9665 87.8483 32.1286 88.1343 32.3159 88.3788C32.502 88.6245 32.9374 88.6825 33.1412 88.9143C33.3437 89.1462 33.4095 89.5166 33.6285 89.7334C33.8462 89.9514 34.1791 90.061 34.412 90.2639C34.6449 90.4655 34.8006 90.7768 35.0474 90.9633C35.2929 91.1485 35.5284 91.3804 35.7866 91.5492C36.0448 91.7181 36.3726 91.8 36.6422 91.9512C36.9118 92.1024 37.3586 91.9071 37.6384 92.0394C37.9181 92.1717 38.0598 92.6077 38.3497 92.7211Z" fill="#FFCA00"/>
<path fill-rule="evenodd" clip-rule="evenodd" d="M16.3188 38.1204C16.2281 38.1204 16.1335 37.9647 16.0431 37.9678C15.9527 37.9709 15.8712 38.1653 15.7811 38.1715C15.6905 38.1777 15.5887 38.0507 15.4992 38.0597C15.4085 38.0691 15.3219 38.1179 15.2323 38.1301C15.1425 38.1426 15.047 38.1267 14.9578 38.142C14.8689 38.1573 14.7796 38.1843 14.6916 38.2027C14.6026 38.2209 14.5234 38.2835 14.4356 38.3048C14.3475 38.3267 14.2449 38.2969 14.1579 38.3213C14.071 38.3457 14.0026 38.4364 13.9171 38.4637C13.8308 38.4915 13.7607 38.5624 13.6758 38.593C13.5905 38.6234 13.4913 38.6152 13.4075 38.6486C13.3234 38.6818 13.2027 38.6322 13.1201 38.6685C13.0372 38.7048 12.9494 38.7374 12.8681 38.7766C12.7864 38.8154 12.7512 38.9485 12.6714 38.9905C12.5913 39.0322 12.5987 39.2253 12.5204 39.2696C12.4417 39.3141 12.364 39.3482 12.287 39.3953C12.2104 39.4426 12.1186 39.4574 12.0437 39.5073C11.9684 39.5572 11.8243 39.5045 11.7511 39.5567C11.6776 39.6092 11.5718 39.6197 11.5003 39.6744C11.4285 39.7292 11.3421 39.7686 11.2724 39.8259C11.2029 39.8832 11.0902 39.8957 11.0224 39.9552C10.9549 40.0148 11.0181 40.2174 10.9526 40.2792C10.8871 40.341 10.8414 40.4193 10.7779 40.4832C10.7147 40.5473 10.6092 40.5691 10.548 40.6352C10.4868 40.7013 10.3455 40.6982 10.2866 40.7666C10.228 40.8346 10.2792 40.9935 10.2228 41.0636C10.1662 41.1336 10.0595 41.1643 10.0058 41.2363C9.95171 41.3084 9.8662 41.3591 9.81472 41.4329C9.76324 41.5067 9.90852 41.7075 9.85962 41.783C9.811 41.8584 9.61225 41.8383 9.56592 41.9154C9.51987 41.9926 9.55162 42.112 9.50815 42.1909C9.46468 42.2692 9.36201 42.3148 9.32112 42.3951C9.28079 42.4751 9.24819 42.5582 9.21073 42.6399C9.17298 42.7211 9.12379 42.7971 9.08861 42.8799C9.05372 42.9625 9.12837 43.0859 9.09634 43.1698C9.06459 43.2535 8.94076 43.302 8.91188 43.3869C8.88271 43.4717 8.8461 43.5795 8.82008 43.6654C8.73857 43.6441 8.67223 43.4382 8.58986 43.4198C8.50779 43.4013 8.40083 43.4799 8.31789 43.4646C8.23496 43.4493 8.14602 43.4592 8.06251 43.447C7.97901 43.4348 7.90808 43.2969 7.82401 43.2876C7.74021 43.2785 7.62668 43.59 7.5426 43.5837C7.45852 43.5778 7.38788 43.3537 7.30352 43.3505C7.21916 43.3474 7.1325 43.5829 7.04785 43.5829C6.9572 43.5829 6.87197 43.5437 6.78218 43.5471C6.69152 43.5505 6.60773 43.5698 6.51793 43.5769C6.42785 43.584 6.32318 43.4175 6.23366 43.428C6.14387 43.4385 6.08009 43.6209 5.99144 43.6348C5.90193 43.6487 5.77095 43.4254 5.68287 43.4427C5.59392 43.4603 5.50985 43.5131 5.42234 43.5338C5.33454 43.5551 5.31109 43.8118 5.22444 43.8362C5.13721 43.8606 5.00395 43.7202 4.91844 43.748C4.83236 43.7758 4.69051 43.6529 4.60586 43.6839C4.52121 43.7151 4.55896 44.0546 4.47574 44.0889C4.39223 44.1236 4.17031 43.8444 4.08823 43.8819C4.00644 43.9196 3.92208 43.9678 3.842 44.0084C3.76164 44.0492 3.80511 44.3221 3.72647 44.3658C3.64754 44.4098 3.47395 44.2932 3.39702 44.34C3.32038 44.3871 3.32495 44.5615 3.25031 44.6112C3.1751 44.6611 3.15594 44.7828 3.08301 44.8356C3.01009 44.8883 2.8405 44.8109 2.76958 44.8662C2.69894 44.9218 2.57025 44.9113 2.50161 44.9695C2.43298 45.0279 2.55309 45.2946 2.48703 45.3553C2.42068 45.4163 2.30457 45.4182 2.2408 45.4815C2.17702 45.5448 2.04004 45.5363 1.97884 45.6018C1.91764 45.6673 1.7349 45.631 1.67627 45.6988C1.61764 45.7669 1.74948 45.9924 1.69314 46.0628C1.63738 46.1331 1.63394 46.2378 1.58104 46.3101C1.52785 46.3825 1.42518 46.4156 1.37485 46.49C1.3248 46.5643 1.27246 46.6344 1.22528 46.7107C1.17809 46.7867 1.07714 46.8304 1.0331 46.9084C0.988771 46.9864 1.0514 47.1186 1.01022 47.1983C0.969325 47.278 0.840633 47.3123 0.802598 47.3938C0.764562 47.4749 0.64588 47.5223 0.611276 47.6048C0.576672 47.6874 0.702504 47.8317 0.67076 47.916C0.639588 47.9997 0.420527 48.019 0.392787 48.1044C0.36476 48.1892 0.506321 48.3262 0.481727 48.4124C0.457132 48.4984 0.27439 48.5441 0.253514 48.6311C0.232351 48.7179 0.237213 48.8138 0.219482 48.9018C0.202323 48.9891 0.386781 49.1114 0.372482 49.2002C0.358469 49.2884 0.316716 49.3681 0.306134 49.4572C0.295553 49.546 0.00728411 49.6092 0.000134585 49.6986C-0.00672896 49.7877 0.251226 49.8941 0.247794 49.9837C0.244076 50.0731 0.13712 50.159 0.13712 50.2489C0.13712 50.3389 0.135404 50.4294 0.139121 50.5184C0.142553 50.6081 0.0264448 50.7076 0.0335944 50.7967C0.0404579 50.8861 0.187452 50.9646 0.198034 51.0534C0.208615 51.1425 0.307564 51.2177 0.321577 51.3059C0.33559 51.3947 0.0890747 51.5311 0.10652 51.6185C0.123964 51.7067 0.236355 51.7794 0.257232 51.8664C0.278108 51.9535 0.506607 51.9862 0.530916 52.0721C0.55551 52.1586 0.617282 52.2276 0.645022 52.3124C0.673334 52.3978 0.706222 52.4744 0.73768 52.558C0.769138 52.642 0.721951 52.7512 0.756555 52.8338C0.791158 52.9166 0.781149 53.0162 0.819184 53.0973C0.85722 53.1784 0.860652 53.2757 0.901833 53.3555C0.942728 53.4352 1.03195 53.4882 1.076 53.5662C1.12032 53.6442 1.10803 53.7546 1.15521 53.8309C1.20269 53.9072 1.3451 53.9211 1.39486 53.9954C1.4452 54.07 1.5144 54.1262 1.5676 54.1985C1.6205 54.2709 1.537 54.4448 1.59305 54.5148C1.64882 54.5852 1.73461 54.6331 1.79324 54.7012C1.85186 54.769 2.05777 54.7032 2.11897 54.7687C2.18045 54.8345 2.02517 55.1052 2.08894 55.1684C2.15271 55.2317 2.24566 55.2708 2.31172 55.3315C2.37807 55.3925 2.48102 55.4158 2.54994 55.4739C2.61829 55.5321 2.60056 55.7006 2.67148 55.7562C2.74212 55.8115 2.92544 55.7258 2.99836 55.7789C3.07129 55.8314 3.07129 55.9922 3.14593 56.0421C3.22085 56.0921 3.44049 55.9184 3.51742 55.9655C3.59406 56.0123 3.53715 56.285 3.61579 56.3286C3.69415 56.3726 3.7605 56.4523 3.84086 56.4932C3.92094 56.5337 4.09081 56.399 4.1726 56.4367C4.25439 56.4742 4.38051 56.4041 4.46401 56.4384C4.54723 56.4727 4.56897 56.656 4.65391 56.6872C4.73827 56.7181 4.8641 56.6262 4.95018 56.654C5.03598 56.6815 5.09317 56.7942 5.1804 56.8185C5.26676 56.8427 5.36171 56.8327 5.4495 56.8537C5.53701 56.8744 5.59621 57.0285 5.68487 57.0461C5.77324 57.0634 5.88076 56.9836 5.96999 56.9975C6.05893 57.0114 6.12957 57.1797 6.21965 57.1902C6.30888 57.2007 6.42413 56.9618 6.5145 56.9686C6.60401 56.9757 6.68809 57.0384 6.77874 57.0418C6.86854 57.0452 6.9572 57.0716 7.04785 57.0716C7.18112 57.0716 7.18112 56.94 7.31439 56.94C7.44737 56.94 7.44737 57.2622 7.58064 57.2622C7.7139 57.2622 7.7139 56.9992 7.84746 56.9992C7.98072 56.9992 7.98072 56.999 8.11399 56.999C8.24697 56.999 8.24697 57.1354 8.38024 57.1354C8.51351 57.1354 8.51351 56.9212 8.64677 56.9212C8.78004 56.9212 8.78004 57.0234 8.91331 57.0234C9.04658 57.0234 9.04658 57.2174 9.18013 57.2174C9.3134 57.2174 9.3134 57.1314 9.44695 57.1314C9.5805 57.1314 9.5805 57.237 9.71377 57.237C9.84761 57.237 9.84761 57.246 9.98116 57.246C10.1144 57.246 10.1144 57.0018 10.2477 57.0018C10.3812 57.0018 10.3812 57.2563 10.5145 57.2563C10.6481 57.2563 10.6481 56.9967 10.7813 56.9967C10.9149 56.9967 10.9149 57.2358 11.0479 57.2358C11.1811 57.2358 11.1811 57.1144 11.3147 57.1144C11.448 57.1144 11.448 57.0378 11.5815 57.0378C11.7148 57.0378 11.7148 57.1292 11.848 57.1292C11.9816 57.1292 11.9816 57.0347 12.1152 57.0347C12.249 57.0347 12.249 57.1941 12.3823 57.1941C12.5158 57.1941 12.5158 57.2126 12.6494 57.2126C12.7829 57.2126 12.7829 56.9071 12.9165 56.9071C13.0497 56.9071 13.0497 57.0381 13.183 57.0381C13.3166 57.0381 13.3166 57.1695 13.4501 57.1695C13.5834 57.1695 13.5834 57.0336 13.7166 57.0336C13.8502 57.0336 13.8502 57.1317 13.9838 57.1317C14.1173 57.1317 14.1173 56.9913 14.2509 56.9913C14.3844 56.9913 14.3844 57.2682 14.518 57.2682C14.6515 57.2682 14.6515 57.0546 14.7851 57.0546C14.9186 57.0546 14.9186 56.9992 15.0519 56.9992C15.1854 56.9992 15.1854 57.138 15.319 57.138C15.4526 57.138 15.4526 56.9334 15.5858 56.9334C15.7188 56.9334 15.7188 57.0044 15.8518 57.0044C15.9848 57.0044 15.9848 57.0909 16.118 57.0909C16.251 57.0909 16.251 56.9845 16.3843 56.9845C16.5173 56.9845 16.5173 57.2239 16.6505 57.2239C16.7841 57.2239 16.7841 57.0741 16.9176 57.0741C17.0515 57.0741 17.0515 57.0438 17.185 57.0438C17.3186 57.0438 17.3186 56.934 17.4521 56.934C17.5854 56.934 17.5854 57.0021 17.719 57.0021C17.8519 57.0021 17.8519 57.0537 17.9852 57.0537C18.1185 57.0537 18.1185 57.0063 18.252 57.0063C18.3853 57.0063 18.3853 57.1408 18.5186 57.1408C18.6521 57.1408 18.6521 57.1204 18.7859 57.1204C18.9198 57.1204 18.9198 57.1885 19.0536 57.1885C19.1869 57.1885 19.1869 56.9907 19.3204 56.9907C19.454 56.9907 19.454 56.9913 19.5876 56.9913C19.7208 56.9913 19.7208 56.9851 19.8544 56.9851C19.9882 56.9851 19.9882 57.0486 20.1221 57.0486C20.2559 57.0486 20.2559 56.9329 20.3892 56.9329C20.523 56.9329 20.523 56.9649 20.6566 56.9649C20.7904 56.9649 20.7904 56.9635 20.9242 56.9635C21.0578 56.9635 21.0578 57.0208 21.1916 57.0208C21.3255 57.0208 21.3255 57.1249 21.4593 57.1249C21.5929 57.1249 21.5929 57.0265 21.7267 57.0265C21.8605 57.0265 21.8605 56.9439 21.9944 56.9439C22.1282 56.9439 22.1282 57.2327 22.262 57.2327C22.3956 57.2327 22.3956 57.0183 22.5292 57.0183C22.663 57.0183 22.663 57.0038 22.7963 57.0038C22.9301 57.0038 22.9301 57.1034 23.0642 57.1034C23.1981 57.1034 23.1981 57.0438 23.3316 57.0438C23.4657 57.0438 23.4657 57.2466 23.5996 57.2466C23.7337 57.2466 23.7337 57.1782 23.8675 57.1782C24.0017 57.1782 24.0017 57.1198 24.1355 57.1198C24.2699 57.1198 24.2699 56.94 24.4038 56.94C24.5385 56.94 24.5385 56.9405 24.6729 56.9405C24.8073 56.9405 24.8073 57.1326 24.9417 57.1326C25.0309 57.1326 25.1124 56.919 25.2008 56.915C25.29 56.911 25.3858 57.0705 25.4742 57.0625C25.5628 57.0548 25.6541 57.0662 25.7419 57.0543C25.8302 57.0427 25.9017 56.9346 25.9887 56.919C26.0765 56.9031 26.1703 56.9309 26.2569 56.9113C26.3439 56.8917 26.4036 56.7803 26.4888 56.7567C26.5746 56.7332 26.6556 56.7125 26.7397 56.6852C26.8243 56.658 26.9207 56.677 27.0036 56.6458C27.0868 56.6146 27.1529 56.5516 27.2344 56.5167C27.3162 56.4821 27.406 56.4745 27.4858 56.4362C27.5659 56.3979 27.6256 56.3292 27.704 56.2875C27.7821 56.2455 27.9007 56.2804 27.9771 56.235C28.0532 56.1896 28.1415 56.1638 28.2156 56.1153C28.2897 56.0665 28.3503 55.9993 28.4221 55.9474C28.4939 55.8955 28.4733 55.7298 28.5425 55.6748C28.612 55.6195 28.9002 55.8234 28.9672 55.7655C29.0341 55.7074 29.1039 55.641 29.1682 55.58C29.2323 55.519 29.1007 55.2615 29.1622 55.1979C29.2237 55.1341 29.4796 55.245 29.5383 55.1786C29.5966 55.1122 29.4836 54.9006 29.5394 54.8317C29.5946 54.7628 29.6298 54.6825 29.6821 54.611C29.7342 54.5398 29.9149 54.5571 29.9641 54.4836C30.013 54.4102 30.0713 54.3378 30.1168 54.2624C30.1626 54.1869 30.2432 54.1253 30.2858 54.0479C30.3279 53.9705 30.1694 53.79 30.208 53.7106C30.2466 53.6315 30.2549 53.5438 30.2901 53.4627C30.3253 53.3818 30.4528 53.3413 30.4843 53.2587C30.5158 53.1765 30.6613 53.1316 30.6891 53.0479C30.7165 52.9643 30.627 52.8434 30.6507 52.7583C30.6742 52.6738 30.5612 52.5586 30.581 52.4724C30.6007 52.3867 30.7949 52.3393 30.8109 52.2522C30.8266 52.1657 30.8226 52.0752 30.8346 51.9876C30.8463 51.9005 30.9853 51.8242 30.9931 51.7362C31.0013 51.6486 30.9899 51.5538 30.9936 51.4653C30.9979 51.3777 30.9453 51.2843 30.9453 51.1958C30.9453 51.107 31.0451 51.0117 31.0411 50.9241C31.0374 50.8356 30.7248 50.7672 30.7171 50.6798C30.7088 50.5919 30.6593 50.5159 30.6476 50.4288C30.6356 50.3411 30.8649 50.2189 30.8492 50.1323C30.8332 50.0453 30.8555 49.9468 30.8358 49.8614C30.8157 49.7752 30.8429 49.6714 30.8195 49.5866C30.7957 49.5015 30.4814 49.5029 30.4543 49.4192C30.4265 49.3352 30.677 49.1545 30.6459 49.072C30.6144 48.9894 30.3296 49.0073 30.2944 48.9264C30.2595 48.8453 30.2798 48.7435 30.2415 48.6643C30.2026 48.5849 30.0613 48.5633 30.019 48.4859C29.977 48.4082 30.1403 48.2173 30.0945 48.1418C30.0487 48.0661 29.858 48.0825 29.8088 48.009C29.7596 47.9356 29.7848 47.8142 29.7324 47.743C29.6804 47.6715 29.614 47.6119 29.5589 47.5432C29.5034 47.4743 29.3856 47.4613 29.3272 47.3949C29.2686 47.3285 29.2932 47.1904 29.2317 47.1265C29.1702 47.0627 29.236 46.8675 29.1716 46.8065C29.1076 46.7456 28.8945 46.8412 28.8276 46.7833C28.7607 46.7251 28.779 46.5634 28.7095 46.5084C28.6403 46.4534 28.5419 46.4295 28.4701 46.3773C28.3983 46.3257 28.2954 46.3152 28.221 46.2664C28.147 46.2179 28.0806 46.1555 28.0043 46.1101C27.9282 46.0647 27.7643 46.1771 27.6863 46.1351C27.6082 46.0934 27.5175 46.0914 27.4377 46.0531C27.3579 46.0148 27.285 45.9808 27.2032 45.9459C27.1214 45.9113 27.1363 45.6455 27.0531 45.6143C26.9702 45.5833 26.8389 45.6889 26.754 45.6614C26.6699 45.6341 26.6255 45.4747 26.5398 45.4511C26.4542 45.4276 26.3685 45.3927 26.2815 45.3729C26.1951 45.3536 26.1225 45.2358 26.035 45.2202C25.9478 45.2046 25.8488 45.2106 25.7607 45.1987C25.6729 45.187 25.5545 45.4316 25.4656 45.4239C25.3775 45.416 25.2897 45.4841 25.2008 45.4804C25.1121 45.4764 25.0312 45.4767 24.9417 45.4767C24.8533 45.4767 24.7661 45.326 24.6783 45.33C24.5902 45.334 24.4967 45.2676 24.4089 45.2756C24.3211 45.2832 24.3131 45.2548 24.2259 45.2665C24.2202 45.1777 24.0526 45.1868 24.0437 45.0988C24.0346 45.0103 23.9948 44.9289 23.9828 44.8412C23.9708 44.753 24.0111 44.6603 23.9965 44.5732C23.9814 44.4852 24.0157 44.3899 23.9977 44.3031C23.9794 44.216 24.0008 44.1199 23.9799 44.0339C23.9588 43.9477 23.9396 43.8595 23.9156 43.7744C23.8916 43.6887 24.0068 43.5582 23.9797 43.4739C23.9525 43.3891 23.635 43.4002 23.6053 43.3165C23.5753 43.2328 23.5341 43.1579 23.5015 43.0757C23.4686 42.9928 23.591 42.8484 23.5553 42.767C23.5195 42.6856 23.3147 42.6828 23.2761 42.6028C23.2378 42.5228 23.436 42.3265 23.3948 42.2479C23.3536 42.169 23.2332 42.1299 23.1892 42.0527C23.1454 41.9753 23.2081 41.8326 23.1617 41.7569C23.1151 41.6811 22.84 41.7478 22.7908 41.6737C22.7416 41.5997 22.6976 41.5265 22.6458 41.4542C22.5944 41.3816 22.7571 41.1523 22.703 41.0817C22.649 41.0111 22.411 41.0817 22.3544 41.0131C22.2981 40.9444 22.4145 40.7288 22.3559 40.6622C22.2969 40.5952 22.0962 40.6525 22.035 40.5878C21.9741 40.5229 21.8954 40.4772 21.8319 40.4142C21.769 40.3515 21.6941 40.3039 21.6286 40.2432C21.5634 40.1827 21.5711 40.0429 21.5039 39.9845C21.4364 39.926 21.3074 39.9408 21.2382 39.8846C21.169 39.8284 21.0295 39.867 20.9583 39.8134C20.8871 39.7598 20.9468 39.5329 20.8739 39.4818C20.8007 39.4304 20.7215 39.3862 20.6465 39.3374C20.5719 39.2886 20.5107 39.2154 20.4343 39.1692C20.358 39.1229 20.2061 39.2046 20.1281 39.161C20.0506 39.1176 20.058 38.917 19.9788 38.8759C19.8996 38.835 19.7214 38.9907 19.6407 38.9525C19.5604 38.9142 19.5092 38.8186 19.4271 38.7831C19.3453 38.7476 19.2561 38.7352 19.1729 38.7025C19.0897 38.6699 19.0965 38.395 19.0122 38.3652C18.9281 38.3355 18.7262 38.6515 18.641 38.6245C18.5557 38.5976 18.5243 38.4035 18.4382 38.3794C18.3521 38.3556 18.2695 38.3179 18.1825 38.2969C18.0959 38.2756 17.9783 38.3982 17.8905 38.38C17.8033 38.3621 17.7218 38.3357 17.6334 38.3207C17.5456 38.3057 17.4556 38.3349 17.3666 38.3227C17.2783 38.3108 17.2002 38.2501 17.1112 38.241C17.0223 38.2322 16.9445 38.1162 16.855 38.1102C16.7661 38.1043 16.6797 38.0231 16.5896 38.02C16.5007 38.0172 16.4086 38.1204 16.3188 38.1204Z" fill="#A7CFFE"/>
<path fill-rule="evenodd" clip-rule="evenodd" d="M119.288 0.21275C119.166 0.21275 119.038 -0.00432597 118.917 6.57498e-05C118.794 0.00383008 118.684 0.275489 118.562 0.283645C118.44 0.292429 118.303 0.115505 118.181 0.128053C118.06 0.141228 117.942 0.208986 117.822 0.225926C117.701 0.243492 117.571 0.221534 117.452 0.242865C117.331 0.264196 117.211 0.301839 117.091 0.327562C116.972 0.353285 116.864 0.440492 116.746 0.469979C116.628 0.500094 116.489 0.458687 116.371 0.492565C116.254 0.527072 116.162 0.653804 116.046 0.692075C115.93 0.730346 115.835 0.829473 115.72 0.872135C115.605 0.914798 115.472 0.903505 115.359 0.949931C115.246 0.996358 115.082 0.927345 114.97 0.977536C114.859 1.02835 114.74 1.07353 114.63 1.12811C114.52 1.18269 114.473 1.3684 114.365 1.42675C114.257 1.48509 114.267 1.75487 114.161 1.81635C114.055 1.87909 113.95 1.92552 113.846 1.9914C113.743 2.0579 113.618 2.0786 113.518 2.14824C113.416 2.21788 113.222 2.14448 113.123 2.21726C113.024 2.29066 112.881 2.30446 112.784 2.38163C112.688 2.45817 112.571 2.51276 112.477 2.59243C112.383 2.67274 112.23 2.69031 112.139 2.77312C112.048 2.85594 112.134 3.13889 112.045 3.22547C111.957 3.31142 111.895 3.42059 111.809 3.50968C111.724 3.59939 111.581 3.63013 111.499 3.72236C111.417 3.81459 111.225 3.81019 111.146 3.90556C111.068 4.00092 111.136 4.22239 111.06 4.32026C110.984 4.41813 110.839 4.4608 110.767 4.56118C110.694 4.66156 110.579 4.73245 110.508 4.83535C110.439 4.93824 110.636 5.21868 110.57 5.32408C110.504 5.42948 110.236 5.40125 110.174 5.50916C110.111 5.61644 110.154 5.78333 110.095 5.89312C110.037 6.00292 109.898 6.06628 109.843 6.17796C109.788 6.29026 109.744 6.40633 109.694 6.51988C109.642 6.63344 109.576 6.73884 109.529 6.85491C109.482 6.97035 109.583 7.14225 109.539 7.25957C109.497 7.37627 109.33 7.44403 109.29 7.5626C109.251 7.68118 109.202 7.83113 109.167 7.95096C109.056 7.92147 108.967 7.63413 108.855 7.6084C108.745 7.58268 108.601 7.69184 108.489 7.67051C108.377 7.64981 108.257 7.66299 108.144 7.64605C108.031 7.62911 107.935 7.4365 107.822 7.42395C107.709 7.4114 107.556 7.84555 107.442 7.83677C107.329 7.82862 107.233 7.51618 107.119 7.51178C107.006 7.50739 106.888 7.83614 106.774 7.83614C106.652 7.83614 106.537 7.78093 106.416 7.78595C106.294 7.79097 106.18 7.81795 106.059 7.82736C105.938 7.8374 105.796 7.60527 105.676 7.6197C105.555 7.63412 105.468 7.88884 105.348 7.90829C105.228 7.92774 105.051 7.61593 104.932 7.6404C104.812 7.66487 104.698 7.7389 104.581 7.76776C104.462 7.79662 104.43 8.15549 104.313 8.18936C104.196 8.22324 104.015 8.0275 103.9 8.0664C103.784 8.10529 103.593 7.93402 103.478 7.97668C103.364 8.0206 103.415 8.49427 103.303 8.54196C103.19 8.59026 102.89 8.20066 102.78 8.25336C102.669 8.30543 102.555 8.37319 102.448 8.42965C102.339 8.48675 102.397 8.86757 102.292 8.92843C102.185 8.98991 101.95 8.82742 101.847 8.89267C101.743 8.95791 101.75 9.20197 101.649 9.27098C101.547 9.34062 101.521 9.51064 101.423 9.58467C101.324 9.65808 101.096 9.54954 101 9.62671C100.904 9.70451 100.73 9.69008 100.638 9.77101C100.545 9.85257 100.708 10.2246 100.618 10.3093C100.529 10.3946 100.372 10.3971 100.286 10.4856C100.2 10.5741 100.015 10.5621 99.9321 10.6537C99.8501 10.7453 99.603 10.6939 99.5241 10.7886C99.4446 10.884 99.6226 11.1989 99.5467 11.2968C99.4715 11.3947 99.4672 11.5409 99.395 11.6419C99.3234 11.7429 99.1852 11.7893 99.1173 11.8928C99.0494 11.997 98.979 12.0942 98.9148 12.2009C98.8512 12.3069 98.7154 12.3684 98.6554 12.4769C98.5961 12.5861 98.6805 12.7706 98.6255 12.8816C98.5698 12.9926 98.3961 13.041 98.3453 13.1545C98.2939 13.2674 98.1336 13.3333 98.0865 13.4488C98.04 13.5642 98.2095 13.7656 98.1673 13.8829C98.1244 14.0002 97.829 14.0272 97.791 14.1458C97.7537 14.2644 97.9446 14.4557 97.9116 14.5762C97.8785 14.6954 97.6326 14.7594 97.6039 14.8811C97.5751 15.0022 97.5818 15.1358 97.558 15.2588C97.5341 15.3811 97.7837 15.5511 97.7641 15.6754C97.7452 15.7983 97.6883 15.91 97.6742 16.0342C97.6607 16.1578 97.2711 16.2463 97.2619 16.3711C97.2527 16.4954 97.6008 16.6434 97.5959 16.7689C97.591 16.8931 97.4466 17.0136 97.4466 17.1391C97.4466 17.2645 97.4442 17.3906 97.4491 17.5149C97.454 17.6403 97.2974 17.779 97.3066 17.9032C97.3163 18.0281 97.5145 18.1379 97.5286 18.2615C97.5427 18.3863 97.6767 18.4911 97.6956 18.614C97.7146 18.7376 97.3812 18.9284 97.4057 19.0507C97.4295 19.1737 97.5806 19.2747 97.6088 19.3958C97.6369 19.5181 97.9446 19.5633 97.9782 19.6831C98.0113 19.8042 98.0945 19.9002 98.1324 20.0188C98.1703 20.138 98.215 20.2446 98.2572 20.3613C98.2994 20.4786 98.2358 20.6311 98.2823 20.7465C98.3294 20.862 98.3159 21.0006 98.3673 21.1136C98.4181 21.2277 98.4236 21.3626 98.478 21.4743C98.5337 21.5854 98.6548 21.6594 98.7142 21.7679C98.7741 21.8771 98.7564 22.0314 98.8206 22.1375C98.8842 22.2441 99.0769 22.2636 99.1442 22.3677C99.2127 22.4712 99.3057 22.5503 99.3773 22.6507C99.4488 22.7517 99.3363 22.9945 99.4115 23.0923C99.4874 23.1908 99.6024 23.2573 99.6819 23.3521C99.7608 23.4468 100.039 23.3552 100.122 23.4468C100.204 23.5384 99.9951 23.9161 100.081 24.0046C100.167 24.093 100.292 24.147 100.382 24.2323C100.471 24.317 100.611 24.3496 100.703 24.4306C100.796 24.5115 100.771 24.7468 100.867 24.8246C100.963 24.9024 101.21 24.7825 101.309 24.8559C101.407 24.9293 101.407 25.1539 101.509 25.2236C101.609 25.2932 101.906 25.051 102.009 25.1163C102.113 25.1822 102.036 25.5624 102.142 25.6239C102.248 25.6847 102.337 25.7964 102.446 25.8528C102.554 25.9099 102.783 25.7217 102.894 25.7744C103.004 25.8265 103.174 25.7286 103.287 25.7769C103.399 25.8246 103.428 26.08 103.543 26.1239C103.657 26.1672 103.828 26.0392 103.943 26.0775C104.058 26.1164 104.136 26.2732 104.254 26.3071C104.37 26.341 104.498 26.3272 104.617 26.356C104.735 26.3855 104.815 26.6001 104.935 26.6245C105.054 26.649 105.199 26.5373 105.32 26.5568C105.44 26.5762 105.536 26.8115 105.657 26.8259C105.777 26.8404 105.933 26.5072 106.054 26.5166C106.175 26.5267 106.289 26.6139 106.411 26.6189C106.532 26.6239 106.652 26.6603 106.774 26.6603C106.954 26.6603 106.954 26.4771 107.134 26.4771C107.314 26.4771 107.314 26.9263 107.494 26.9263C107.674 26.9263 107.674 26.5593 107.853 26.5593C108.033 26.5593 108.033 26.5593 108.213 26.5593C108.393 26.5593 108.393 26.7494 108.573 26.7494C108.753 26.7494 108.753 26.4501 108.933 26.4501C109.112 26.4501 109.112 26.5932 109.292 26.5932C109.472 26.5932 109.472 26.8636 109.653 26.8636C109.832 26.8636 109.832 26.7437 110.013 26.7437C110.193 26.7437 110.193 26.8912 110.373 26.8912C110.554 26.8912 110.554 26.9037 110.734 26.9037C110.914 26.9037 110.914 26.5631 111.093 26.5631C111.274 26.5631 111.274 26.9182 111.454 26.9182C111.633 26.9182 111.633 26.5562 111.814 26.5562C111.994 26.5562 111.994 26.8899 112.174 26.8899C112.353 26.8899 112.353 26.7199 112.534 26.7199C112.714 26.7199 112.714 26.6132 112.894 26.6132C113.074 26.6132 113.074 26.7406 113.254 26.7406C113.434 26.7406 113.434 26.6089 113.614 26.6089C113.795 26.6089 113.795 26.8316 113.974 26.8316C114.155 26.8316 114.155 26.8567 114.335 26.8567C114.515 26.8567 114.515 26.4307 114.695 26.4307C114.876 26.4307 114.876 26.6139 115.055 26.6139C115.236 26.6139 115.236 26.7971 115.416 26.7971C115.596 26.7971 115.596 26.607 115.776 26.607C115.957 26.607 115.957 26.7444 116.136 26.7444C116.317 26.7444 116.317 26.5486 116.497 26.5486C116.677 26.5486 116.677 26.9345 116.857 26.9345C117.037 26.9345 117.037 26.6365 117.218 26.6365C117.398 26.6365 117.398 26.5593 117.578 26.5593C117.758 26.5593 117.758 26.7532 117.939 26.7532C118.119 26.7532 118.119 26.4677 118.299 26.4677C118.479 26.4677 118.479 26.5662 118.658 26.5662C118.838 26.5662 118.838 26.6873 119.017 26.6873C119.197 26.6873 119.197 26.5386 119.377 26.5386C119.556 26.5386 119.556 26.873 119.736 26.873C119.916 26.873 119.916 26.6641 120.096 26.6641C120.277 26.6641 120.277 26.6214 120.457 26.6214C120.638 26.6214 120.638 26.4683 120.818 26.4683C120.998 26.4683 120.998 26.5637 121.178 26.5637C121.358 26.5637 121.358 26.6352 121.537 26.6352C121.718 26.6352 121.718 26.5693 121.898 26.5693C122.078 26.5693 122.078 26.7569 122.257 26.7569C122.438 26.7569 122.438 26.7287 122.618 26.7287C122.799 26.7287 122.799 26.8234 122.979 26.8234C123.159 26.8234 123.159 26.548 123.34 26.548C123.52 26.548 123.52 26.5486 123.7 26.5486C123.88 26.5486 123.88 26.5392 124.061 26.5392C124.241 26.5392 124.241 26.6283 124.422 26.6283C124.602 26.6283 124.602 26.4671 124.782 26.4671C124.962 26.4671 124.962 26.5116 125.143 26.5116C125.323 26.5116 125.323 26.5097 125.504 26.5097C125.685 26.5097 125.685 26.5894 125.865 26.5894C126.046 26.5894 126.046 26.7343 126.226 26.7343C126.407 26.7343 126.407 26.5976 126.588 26.5976C126.768 26.5976 126.768 26.4821 126.949 26.4821C127.129 26.4821 127.129 26.8855 127.31 26.8855C127.491 26.8855 127.491 26.5856 127.671 26.5856C127.851 26.5856 127.851 26.5656 128.032 26.5656C128.212 26.5656 128.212 26.7048 128.393 26.7048C128.574 26.7048 128.574 26.6214 128.754 26.6214C128.935 26.6214 128.935 26.9044 129.116 26.9044C129.297 26.9044 129.297 26.8096 129.478 26.8096C129.658 26.8096 129.658 26.7274 129.839 26.7274C130.02 26.7274 130.02 26.4765 130.201 26.4765C130.383 26.4765 130.383 26.4777 130.565 26.4777C130.745 26.4777 130.745 26.7456 130.927 26.7456C131.048 26.7456 131.158 26.447 131.277 26.442C131.397 26.4363 131.527 26.6584 131.646 26.6478C131.766 26.6371 131.889 26.6528 132.007 26.6365C132.126 26.6195 132.223 26.4689 132.341 26.447C132.459 26.425 132.585 26.4639 132.702 26.4369C132.82 26.4093 132.9 26.2538 133.015 26.2211C133.132 26.1885 133.24 26.159 133.354 26.1207C133.469 26.0831 133.598 26.1095 133.71 26.0662C133.823 26.0229 133.912 25.9344 134.022 25.8861C134.132 25.8378 134.253 25.8271 134.361 25.7738C134.469 25.7198 134.55 25.6245 134.655 25.5661C134.761 25.5078 134.922 25.5561 135.024 25.4927C135.127 25.4294 135.246 25.3936 135.346 25.3258C135.446 25.2575 135.528 25.164 135.625 25.0912C135.722 25.0191 135.694 24.7875 135.788 24.711C135.881 24.6338 136.27 24.9187 136.36 24.8377C136.451 24.7568 136.545 24.6639 136.632 24.5786C136.718 24.4939 136.541 24.1344 136.624 24.0453C136.707 23.9563 137.052 24.1112 137.131 24.0184C137.21 23.9261 137.058 23.6306 137.133 23.5347C137.208 23.4387 137.255 23.3257 137.325 23.2266C137.396 23.1268 137.64 23.1513 137.706 23.0484C137.772 22.9462 137.851 22.8452 137.912 22.7397C137.974 22.6343 138.084 22.549 138.14 22.4405C138.197 22.3326 137.984 22.081 138.035 21.9699C138.087 21.8595 138.099 21.7372 138.146 21.6236C138.193 21.5107 138.366 21.4542 138.408 21.3394C138.451 21.2246 138.647 21.1625 138.685 21.0452C138.722 20.9285 138.6 20.7597 138.633 20.6411C138.665 20.5232 138.512 20.3619 138.539 20.2421C138.566 20.1223 138.827 20.0558 138.849 19.9347C138.871 19.8142 138.865 19.6875 138.881 19.5652C138.897 19.4441 139.084 19.3374 139.095 19.2145C139.106 19.0921 139.091 18.9597 139.096 18.8368C139.102 18.7144 139.031 18.5839 139.031 18.4603C139.031 18.3367 139.165 18.2031 139.16 18.0808C139.155 17.9578 138.733 17.8624 138.723 17.7401C138.712 17.6171 138.645 17.5111 138.629 17.39C138.613 17.2677 138.922 17.097 138.901 16.9759C138.879 16.8548 138.909 16.7175 138.882 16.5982C138.856 16.4778 138.893 16.3329 138.86 16.2143C138.829 16.0957 138.405 16.0976 138.367 15.9809C138.331 15.8636 138.669 15.6114 138.626 15.4966C138.584 15.3811 138.199 15.4062 138.152 15.2933C138.105 15.1797 138.133 15.0379 138.081 14.9275C138.029 14.8165 137.837 14.7864 137.78 14.6784C137.723 14.5699 137.944 14.3033 137.882 14.1985C137.821 14.0925 137.563 14.1157 137.497 14.0128C137.43 13.9105 137.464 13.7405 137.394 13.6414C137.323 13.5422 137.234 13.4588 137.159 13.3628C137.085 13.2668 136.926 13.248 136.847 13.1558C136.768 13.0629 136.801 12.8703 136.718 12.7812C136.634 12.6928 136.724 12.4198 136.636 12.3345C136.55 12.2498 136.262 12.3828 136.173 12.3019C136.082 12.221 136.106 11.9957 136.013 11.9186C135.919 11.842 135.787 11.8081 135.69 11.736C135.593 11.6632 135.454 11.6494 135.354 11.581C135.254 11.5133 135.164 11.4261 135.061 11.3627C134.958 11.2993 134.737 11.4562 134.632 11.3978C134.526 11.3395 134.404 11.3363 134.296 11.283C134.188 11.2297 134.09 11.1826 133.979 11.1337C133.869 11.0854 133.89 10.714 133.778 10.6707C133.665 10.6274 133.488 10.7748 133.373 10.7366C133.26 10.6983 133.2 10.4762 133.084 10.4436C132.969 10.4103 132.853 10.3614 132.735 10.3344C132.619 10.3068 132.521 10.1431 132.402 10.1205C132.285 10.0991 132.152 10.1073 132.032 10.091C131.914 10.0747 131.755 10.416 131.635 10.4053C131.515 10.3946 131.397 10.4894 131.277 10.4837C131.157 10.4781 131.048 10.4787 130.927 10.4787C130.808 10.4787 130.691 10.2685 130.571 10.2742C130.453 10.2798 130.327 10.187 130.209 10.1983C130.089 10.2089 130.079 10.1694 129.961 10.1857C129.953 10.0615 129.727 10.074 129.715 9.95107C129.703 9.8281 129.649 9.71454 129.633 9.5922C129.617 9.46924 129.672 9.33937 129.651 9.21765C129.631 9.09531 129.677 8.96231 129.653 8.84122C129.628 8.71951 129.657 8.58525 129.629 8.46542C129.6 8.34496 129.574 8.22199 129.543 8.10278C129.51 7.98358 129.665 7.80164 129.628 7.68369C129.592 7.56511 129.164 7.5808 129.123 7.46473C129.083 7.34741 129.027 7.24326 128.983 7.12782C128.939 7.01238 129.104 6.81099 129.056 6.69743C129.008 6.58388 128.731 6.57949 128.679 6.46844C128.627 6.35614 128.895 6.08259 128.839 5.9728C128.783 5.86301 128.621 5.80843 128.562 5.70051C128.503 5.5926 128.587 5.39309 128.525 5.28769C128.462 5.18166 128.09 5.27515 128.024 5.17163C127.958 5.06811 127.898 4.96647 127.828 4.86546C127.759 4.76382 127.978 4.44386 127.906 4.34536C127.833 4.24686 127.511 4.34536 127.435 4.24937C127.359 4.15338 127.516 3.85286 127.437 3.76C127.357 3.66652 127.086 3.74683 127.004 3.65586C126.922 3.56551 126.815 3.50152 126.73 3.41431C126.644 3.32648 126.543 3.25997 126.456 3.17528C126.367 3.09058 126.377 2.89546 126.286 2.8139C126.196 2.73297 126.022 2.75305 125.928 2.67462C125.835 2.5962 125.646 2.65015 125.55 2.57549C125.454 2.50021 125.535 2.184 125.437 2.11248C125.338 2.04096 125.23 1.97885 125.13 1.91109C125.029 1.8427 124.946 1.74107 124.843 1.67645C124.74 1.61183 124.535 1.72601 124.43 1.66515C124.325 1.6043 124.335 1.32385 124.228 1.26676C124.121 1.20967 123.882 1.42737 123.772 1.37405C123.663 1.32072 123.595 1.18708 123.483 1.13752C123.373 1.08858 123.253 1.07102 123.141 1.02522C123.028 0.979419 123.037 0.596084 122.924 0.554049C122.81 0.513269 122.538 0.953696 122.423 0.916052C122.308 0.879037 122.265 0.607377 122.149 0.574126C122.033 0.540874 121.922 0.488174 121.803 0.458687C121.687 0.429199 121.528 0.600476 121.41 0.575381C121.291 0.550285 121.182 0.513269 121.063 0.491938C120.944 0.471234 120.823 0.512015 120.703 0.495075C120.583 0.478136 120.478 0.393438 120.357 0.38089C120.238 0.368343 120.133 0.207104 120.012 0.19832C119.892 0.190164 119.775 0.0766071 119.654 0.0728428C119.533 0.0684511 119.409 0.21275 119.288 0.21275Z" fill="#A7CFFE"/>
<defs>
<filter id="filter0_d" x="57.6777" y="51" width="82.6452" height="61.9333" filterUnits="userSpaceOnUse" color-interpolation-filters="sRGB">
<feFlood flood-opacity="0" result="BackgroundImageFix"/>
<feColorMatrix in="SourceAlpha" type="matrix" values="0 0 0 0 0 0 0 0 0 0 0 0 0 0 0 0 0 0 127 0"/>
<feOffset/>
<feGaussianBlur stdDeviation="0.5"/>
<feColorMatrix type="matrix" values="0 0 0 0 0 0 0 0 0 0 0 0 0 0 0 0 0 0 0.25 0"/>
<feBlend mode="normal" in2="BackgroundImageFix" result="effect1_dropShadow"/>
<feBlend mode="normal" in="SourceGraphic" in2="effect1_dropShadow" result="shape"/>
</filter>
</defs>
</svg>
