<svg width="138" height="121" viewBox="0 0 138 121" fill="none" xmlns="http://www.w3.org/2000/svg">
<path fill-rule="evenodd" clip-rule="evenodd" d="M122.435 87.473C131.696 71.1377 133.775 48.5063 121.826 32.4761C111.92 19.1864 92.8176 11.8036 76.1184 12.5412C66.8291 12.9518 55.8961 18.6262 49.6166 24.9421C42.1985 32.4035 39.6405 41.6505 32.8511 49.6429C31.5168 51.2138 30.1784 52.8138 28.4757 54.0229C26.2248 55.621 23.4754 56.4414 20.8236 57.353C13.8746 59.7416 6.46436 63.8748 5.23909 70.8155C4.71064 73.8088 5.45292 76.8951 6.41498 79.8196C8.51117 86.192 11.7699 92.3818 16.8283 97.0647C21.8868 101.748 28.9189 104.772 35.8677 104.168C38.5769 103.933 41.1953 103.169 43.8935 102.854C57.6647 101.244 70.6103 111.32 84.5181 111.205C100.886 111.07 114.809 100.925 122.435 87.473Z" fill="#E6F0F9"/>
<g clip-path="url(#clip0)">
<path d="M100.778 43.7138C99.2029 42.3558 96.8115 42.6015 95.5438 44.2499L76.6465 68.6887L81.8142 68.9761L101.022 48.9727C102.464 47.4743 102.353 45.0711 100.778 43.7138Z" fill="#DAD8DB"/>
<path d="M83.8417 68.5601C83.8126 69.4119 84.5386 70.1376 85.3891 70.1085C87.156 70.0487 88.9937 69.2872 90.4487 67.8314C91.9029 66.3756 92.6647 64.5368 92.7244 62.7697C92.7535 61.9179 92.0275 61.1915 91.1769 61.2206C89.4101 61.281 87.5723 62.0425 86.1174 63.4984C84.6632 64.9534 83.9021 66.7922 83.8417 68.5601Z" fill="#B3E59F"/>
<path d="M40.9678 91.8613H19.5321L16.4692 47.4316H44.0307L40.9678 91.8613Z" fill="#DBEAFF"/>
<path d="M25.4863 82.8458L24.1253 47.4316H16.4692L19.5314 91.8613H40.9678L41.2849 87.2654H30.0765C27.6083 87.2647 25.581 85.3132 25.4863 82.8458Z" fill="#C3DDFF"/>
<path d="M17.314 59.688L19.5322 91.8613H40.9679L43.1854 59.688H17.314Z" fill="#FFC269"/>
<path d="M30.0766 87.2647C27.6084 87.2647 25.5811 85.3131 25.4864 82.8457L24.5962 59.688H17.314L19.5315 91.8613H40.9679L41.285 87.2654H30.0766V87.2647Z" fill="#FFA95F"/>
<path d="M78.9436 65.4966C78.9727 66.3477 78.2468 67.0741 77.3962 67.045C75.6293 66.9852 73.7916 66.223 72.3366 64.7679C70.8824 63.3121 70.1206 61.4733 70.0609 59.7055C70.0318 58.8544 70.7578 58.128 71.6084 58.1571C73.3752 58.2168 75.213 58.9783 76.6679 60.4341C78.1222 61.8899 78.884 63.7287 78.9436 65.4966Z" fill="#B3E59F"/>
<path d="M67.9652 67.9132C66.834 66.7806 66.4804 64.591 65.0866 63.7839C64.6479 63.5301 64.139 63.4368 63.5988 63.4136L57.138 61.7077C56.6157 61.424 56.08 61.2202 55.5144 61.2202C53.8692 61.2202 52.4717 62.9425 50.9548 63.3487C49.3849 63.7682 47.3167 62.9881 45.943 63.7832C44.5485 64.5902 44.1948 66.7799 43.0637 67.9124C41.9318 69.045 39.7434 69.3981 38.9368 70.7934C38.5018 71.5452 38.5376 72.5046 38.5914 73.4766H73.1225L68.5315 68.3716C68.3248 68.232 68.1331 68.0812 67.9652 67.9132Z" fill="#B3E59F"/>
<path d="M92.464 71.1504C91.3329 69.9887 90.9792 67.7423 89.5854 66.9143C88.2103 66.0983 86.142 66.8987 84.5729 66.4679C83.0552 66.0513 81.6585 64.2842 80.0133 64.2842C78.368 64.2842 76.9705 66.0513 75.4536 66.4679C73.8838 66.8987 71.8155 66.0976 70.4418 66.9136C69.0473 67.7415 68.6936 69.9879 67.5625 71.1496C66.6172 72.1201 64.9339 72.533 63.9355 73.4767L96.0895 73.4759C95.0904 72.533 93.4094 72.1201 92.464 71.1504Z" fill="#95D6A4"/>
<path d="M54.7528 67.0313C54.7237 67.8824 55.4497 68.6088 56.3003 68.5797C58.0671 68.5199 59.9049 67.7577 61.3598 66.3026C62.814 64.8468 63.5758 63.008 63.6355 61.2401C63.6646 60.3891 62.9386 59.6626 62.0881 59.6918C60.3212 59.7515 58.4835 60.513 57.0285 61.9688C55.5735 63.4246 54.8125 65.2634 54.7528 67.0313Z" fill="#95D6A4"/>
<path d="M34.8438 73.4766L38.567 88.3803C39.0781 90.4259 40.9158 91.8615 43.0236 91.8615H97.0975C99.2053 91.8615 101.042 90.4259 101.553 88.3803L105.277 73.4766H34.8438Z" fill="#ECEAEC"/>
<path d="M56.804 87.2649C54.6961 87.2649 52.8584 85.83 52.3473 83.7837L49.7724 73.4766H34.8438L38.567 88.3803C39.0781 90.4259 40.9158 91.8615 43.0236 91.8615H97.0975C99.2053 91.8615 101.042 90.4259 101.553 88.3803L101.832 87.2649H56.804Z" fill="#DAD8DB"/>
<path d="M108.339 90.428H102.229C102.546 89.9114 102.79 89.341 102.943 88.7274L106.667 73.8244C106.774 73.3959 106.678 72.9427 106.406 72.5948C106.135 72.2469 105.718 72.0431 105.277 72.0431H102.611L103.228 71.4264C103.787 70.8665 103.787 69.9587 103.228 69.3987C102.668 68.8396 101.761 68.8396 101.202 69.3987L98.5591 72.0431H97.8375L99.0261 66.0974C99.1813 65.321 98.6784 64.5662 97.9025 64.4109C97.1257 64.2557 96.3721 64.7596 96.2169 65.5353L95.1328 70.9576C95.0746 70.9277 95.0164 70.8986 94.9597 70.8695C94.3635 70.5701 93.801 70.2872 93.4771 69.9639C93.1541 69.6406 92.8713 69.077 92.5713 68.4805C92.4788 68.2946 92.3833 68.1049 92.2826 67.9138C93.8241 65.9078 94.474 63.3911 94.0233 61.0626C93.9121 60.4877 93.4637 60.039 92.8892 59.9278C92.6877 59.889 92.4855 59.8599 92.2833 59.8375L101.785 49.9671C102.743 48.9704 103.257 47.6057 103.193 46.2238C103.128 44.8419 102.491 43.531 101.443 42.6284C100.395 41.725 99.006 41.2875 97.6301 41.4286C96.2542 41.5697 94.9813 42.2797 94.139 43.3757L79.7259 62.125C79.2812 61.2485 78.6932 60.4332 77.9807 59.7203C75.8482 57.5866 72.9398 56.6295 70.1992 57.1595C69.6254 57.2708 69.1763 57.7202 69.0651 58.2951C68.6062 60.6669 69.2628 63.1649 70.829 65.1777C70.4529 65.2643 70.0813 65.4001 69.7247 65.6069C69.3039 65.8503 68.9599 66.1579 68.6667 66.5006C68.4652 66.1937 68.2727 65.813 68.0735 65.4158C67.5557 64.3856 66.9692 63.2179 65.8045 62.543C65.5545 62.3982 65.2837 62.284 64.9905 62.1951C65.1173 61.3104 65.1024 60.4116 64.9315 59.5306C64.8203 58.9565 64.3719 58.5071 63.7974 58.3959C61.55 57.9606 59.1885 58.5287 57.2344 59.9248L56.0309 57.5156C55.6772 56.8072 54.8169 56.5205 54.1088 56.8743C53.4015 57.229 53.1142 58.0898 53.4679 58.7975L54.0917 60.0458C53.3418 60.3138 52.6785 60.7505 52.0667 61.1529C51.522 61.512 51.0071 61.851 50.5856 61.9644C50.1275 62.0869 49.4895 62.051 48.8143 62.0137C47.6712 61.9495 46.3759 61.8778 45.2261 62.543C44.903 62.7304 44.6255 62.9566 44.38 63.206L45.4604 47.5311C45.488 47.1346 45.35 46.7442 45.0784 46.4538C44.8075 46.1634 44.4285 45.9991 44.0315 45.9991H34.8481L35.7838 41.0038C35.9285 40.2326 36.6023 39.6735 37.3857 39.6735H50.1558C50.9475 39.6735 51.5884 39.0314 51.5884 38.24C51.5884 37.4487 50.9475 36.8066 50.1558 36.8066H37.3857C35.2242 36.8066 33.3663 38.3498 32.9679 40.4753L31.933 45.9991H16.4693C16.0724 45.9991 15.6933 46.1641 15.4225 46.4538C15.1517 46.7442 15.0129 47.1346 15.0405 47.5311L17.9967 90.428H13.4072C12.6163 90.428 11.9746 91.0701 11.9746 91.8614C11.9746 92.6535 12.6163 93.2948 13.4072 93.2948H108.339C109.13 93.2948 109.772 92.6535 109.772 91.8614C109.772 91.0701 109.13 90.428 108.339 90.428ZM96.4094 45.1241C96.7795 44.6419 97.3167 44.3425 97.9219 44.2805C98.5247 44.2186 99.1127 44.403 99.5731 44.8001C100.033 45.1966 100.302 45.7498 100.33 46.3575C100.359 46.9644 100.142 47.54 99.7208 47.9783L87.3894 60.7878C87.3827 60.7946 87.3775 60.802 87.3715 60.8088C86.5575 61.241 85.7927 61.8024 85.1077 62.4878C84.5414 63.0544 84.0579 63.6778 83.6595 64.3475C83.5938 64.3042 83.5274 64.2609 83.461 64.2168C83.0909 63.9734 82.7029 63.7174 82.2874 63.4942L96.4094 45.1241ZM91.2984 62.655C91.2783 63.6778 90.9559 64.7185 90.3725 65.6502C90.3486 65.6361 90.3262 65.6211 90.3023 65.6069C89.1525 64.941 87.8572 65.0134 86.7134 65.0769C86.6851 65.0784 86.6575 65.0799 86.6291 65.0814C86.785 64.8858 86.9529 64.6961 87.1335 64.5147C88.2937 63.3538 89.8188 62.6879 91.2984 62.655ZM75.9542 61.7472C76.5376 62.331 77.0017 63.0074 77.3203 63.7331C77.0592 63.8913 76.8077 64.0563 76.5645 64.2168C76.0198 64.5759 75.505 64.9149 75.0834 65.0276C75.0387 65.0395 74.9902 65.0493 74.9409 65.0582C74.4768 64.7812 74.0426 64.4468 73.6493 64.0541C72.4899 62.8932 71.8236 61.3679 71.7907 59.8882C73.2703 59.9211 74.7947 60.587 75.9542 61.7472ZM58.0417 62.9828C59.2012 61.8226 60.7256 61.1559 62.2051 61.1231C62.1723 62.6035 61.506 64.1287 60.3465 65.2889C59.187 66.4498 57.6627 67.1165 56.1831 67.1493C56.2159 65.6689 56.8822 64.1429 58.0417 62.9828ZM44.0763 68.9262C44.7262 68.2759 45.1463 67.4398 45.5163 66.7029C45.87 65.9981 46.2356 65.2695 46.6602 65.0239C47.0698 64.7872 47.8749 64.832 48.6538 64.8753C49.4835 64.9216 50.4244 64.9738 51.3243 64.7327C52.1935 64.5005 52.9299 64.016 53.6418 63.5472C53.9051 63.3732 54.173 63.1978 54.4319 63.0485C53.447 64.8118 53.0844 66.8179 53.4567 68.7418C53.5679 69.3159 54.0163 69.7653 54.5908 69.8766C55.0885 69.9729 55.5921 70.0199 56.0958 70.0199C58.3625 70.0199 60.6271 69.062 62.3715 67.3158C63.0915 66.5961 63.6735 65.7869 64.113 64.9261C64.2107 64.9529 64.2988 64.9843 64.3682 65.0246C64.7927 65.2702 65.1583 65.9981 65.512 66.7029C65.8821 67.4405 66.3022 68.2759 66.952 68.9262C67.011 68.9851 67.0722 69.0426 67.1348 69.0994C66.9461 69.4495 66.7558 69.7556 66.5484 69.9624C66.2253 70.2864 65.662 70.5694 65.0658 70.8687C64.4376 71.1853 63.734 71.5406 63.1356 72.0431H51.04L49.9051 69.7713C49.5514 69.0635 48.6911 68.7761 47.9831 69.1307C47.275 69.4846 46.9885 70.3454 47.3421 71.0531L47.8368 72.0431H40.024C40.0509 71.8348 40.0972 71.6482 40.1763 71.5115C40.4217 71.0867 41.15 70.7209 41.8543 70.367C42.5915 69.996 43.4264 69.5764 44.0763 68.9262ZM18.0041 48.8652H42.4952L41.8483 58.2547H32.55L33.3805 53.8239C33.526 53.046 33.0141 52.2971 32.2366 52.1516C31.4584 52.0052 30.71 52.5181 30.5646 53.2961L29.6349 58.2547H18.6518L18.0041 48.8652ZM20.8693 90.428L18.8487 61.1216H29.0977L24.2485 87.0013C24.1023 87.7792 24.6149 88.528 25.3923 88.6744C25.4819 88.6908 25.5707 88.699 25.658 88.699C26.334 88.699 26.9354 88.2182 27.0644 87.5291L32.0128 61.1216H41.6506L41.2089 67.4741C41.0067 67.5838 40.7903 67.6936 40.568 67.8048C39.5376 68.3229 38.3706 68.9097 37.6961 70.0751C37.3298 70.7097 37.188 71.3883 37.1432 72.0431H34.8429C34.4019 72.0431 33.9856 72.2469 33.714 72.5948C33.4424 72.9427 33.3461 73.3959 33.4536 73.8244L37.1768 88.7274C37.3305 89.341 37.5745 89.9114 37.8916 90.428H20.8693ZM97.0974 90.428H43.0235C41.5708 90.428 40.3098 89.4426 39.9569 88.0323L36.6784 74.9099H82.3097C83.1006 74.9099 83.7423 74.2686 83.7423 73.4765C83.7423 72.6851 83.1006 72.0431 82.3097 72.0431H79.1439C79.1715 71.6444 79.0335 71.236 78.729 70.9314C78.1694 70.3708 77.2621 70.3708 76.7033 70.9314L75.5915 72.0431H68.5174C68.5361 72.0252 68.5562 72.0087 68.5749 71.9901C69.2248 71.3398 69.6448 70.5044 70.0149 69.7668C70.3686 69.062 70.7349 68.3341 71.1588 68.0885C71.5684 67.8511 72.3735 67.8959 73.1524 67.9392C73.9829 67.9855 74.923 68.0378 75.8236 67.7974C76.6928 67.5644 77.4285 67.0799 78.1403 66.6111C78.8066 66.1721 79.4961 65.7174 80.0124 65.7174C80.5287 65.7174 81.2189 66.1721 81.8852 66.6111C82.597 67.0799 83.3327 67.5644 84.2019 67.7974C85.1025 68.0378 86.0426 67.9855 86.8723 67.9392C87.6521 67.8959 88.4571 67.8511 88.8675 68.0885C89.2913 68.3341 89.6569 69.0628 90.0113 69.7668C90.3814 70.5044 90.8007 71.3398 91.4506 71.9901C91.4693 72.0087 91.4887 72.0252 91.5081 72.0431H88.434C87.6431 72.0431 87.0014 72.6844 87.0014 73.4765C87.0014 74.2679 87.6431 74.9099 88.434 74.9099H103.442L100.163 88.0323C99.8111 89.4426 98.5501 90.428 97.0974 90.428Z" fill="#444445" stroke="#444445" stroke-linecap="round" stroke-dasharray="1 1"/>
</g>
<defs>
<clipPath id="clip0">
<rect width="97.7974" height="97.854" fill="white" transform="translate(11.9746 16.1655)"/>
</clipPath>
</defs>
</svg>
