<svg width="134" height="121" viewBox="0 0 134 121" fill="none" xmlns="http://www.w3.org/2000/svg">
<path fill-rule="evenodd" clip-rule="evenodd" d="M117.871 86.6175C126.925 70.1888 129.126 47.5233 117.774 31.5876C108.363 18.3764 90.053 11.1575 73.9826 12.0433C65.043 12.5364 54.4756 18.3114 48.3788 24.6873C41.1766 32.2194 38.6338 41.4955 32.0317 49.5535C30.7342 51.1373 29.4325 52.7503 27.7838 53.9753C25.6043 55.5945 22.9523 56.4398 20.3932 57.3755C13.6874 59.8271 6.52234 64.0287 5.28199 70.9851C4.74705 73.9852 5.43365 77.0671 6.33312 79.9852C8.29292 86.3434 11.3727 92.5087 16.1969 97.1501C21.0214 101.791 27.7591 104.756 34.4489 104.09C37.0571 103.831 39.5827 103.043 42.1811 102.704C55.4426 100.971 67.8062 110.94 81.1858 110.701C96.9318 110.421 110.415 100.146 117.871 86.6175Z" fill="#E6F0F9"/>
<path fill-rule="evenodd" clip-rule="evenodd" d="M61.2206 43.9753C61.403 43.9753 61.403 44.0071 61.5858 44.0071C61.7688 44.0071 61.7688 43.8338 61.9513 43.8338C62.134 43.8338 62.134 44.194 62.3171 44.194C62.5002 44.194 62.5002 44.1502 62.6832 44.1502C62.866 44.1502 62.866 43.7729 63.0487 43.7729C63.2318 43.7729 63.2318 43.913 63.4146 43.913C63.5973 43.913 63.5973 44.0111 63.7801 44.0111C63.9628 44.0111 63.9628 43.7748 64.1456 43.7748C64.3283 43.7748 64.3283 43.8686 64.5111 43.8686C64.6938 43.8686 64.6938 43.8705 64.8769 43.8705C65.06 43.8705 65.06 44.0869 65.2427 44.0869C65.4258 44.0869 65.4258 44.1215 65.6089 44.1215C65.7916 44.1215 65.7916 43.7656 65.9747 43.7656C66.1574 43.7656 66.1574 44.149 66.3402 44.149C66.5229 44.149 66.523 43.9221 66.7057 43.9221C66.8888 43.9221 66.8888 44.1747 67.0718 44.1747C67.254 44.1747 67.254 44.0285 67.4358 44.0285C67.6182 44.0285 67.6182 44.193 67.8004 44.193C67.9828 44.193 67.9828 44.0151 68.1653 44.0151C68.3477 44.0151 68.3477 44.1557 68.5305 44.1557C68.7129 44.1557 68.7129 44.0668 68.896 44.0668C69.079 44.0668 69.079 43.8613 69.2624 43.8613C69.4452 43.8613 69.4452 43.9454 69.6282 43.9454C69.8107 43.9454 69.8107 44.0781 69.9934 44.0781C70.1759 44.0781 70.1759 44.1209 70.3586 44.1209C70.5411 44.1209 70.5411 44.1674 70.7238 44.1674C70.9066 44.1674 70.9066 44.0863 71.089 44.0863C71.2721 44.0863 71.2721 44.0882 71.4552 44.0882C71.6385 44.0882 71.6385 44.1316 71.8219 44.1316C72.0044 44.1316 72.0044 43.8472 72.1874 43.8472C72.3705 43.8472 72.3705 43.9695 72.5532 43.9695C72.7363 43.9695 72.7363 43.9766 72.9194 43.9766C73.1021 43.9766 73.1021 44.0334 73.2855 44.0334C73.4689 44.0334 73.4689 44.1961 73.6519 44.1961C73.835 44.1961 73.835 43.7408 74.0178 43.7408C74.2011 43.7408 74.2011 44.0585 74.3842 44.0585C74.5676 44.0585 74.5676 44.1885 74.751 44.1885C74.934 44.1885 74.934 44.016 75.1171 44.016C75.3008 44.016 75.3008 43.7579 75.4841 43.7579C75.6675 43.7579 75.6675 43.809 75.8503 43.809C76.034 43.809 76.034 43.9212 76.2173 43.9212C76.4004 43.9212 76.4004 44.19 76.5835 44.19C76.7662 44.19 76.7662 43.7044 76.949 43.7044C77.1327 43.7044 77.1327 43.9802 77.3163 43.9802C77.4994 43.9802 77.4994 43.9579 77.6828 43.9579C77.8662 43.9579 77.8662 43.7255 78.0495 43.7255C78.2332 43.7255 78.2332 43.8616 78.4172 43.8616C78.6003 43.8616 78.6003 44.0411 78.7837 44.0411C78.9676 44.0411 78.9676 44.1551 79.1516 44.1551C79.3356 44.1551 79.3356 43.75 79.5196 43.75C79.7039 43.75 79.7039 43.8399 79.8882 43.8399C80.0115 43.8399 80.1425 44.2065 80.2649 44.2028C80.3885 44.1989 80.4957 43.8188 80.618 43.8115C80.7413 43.8035 80.859 43.7885 80.9814 43.7769C81.104 43.7653 81.2372 43.8671 81.359 43.8518C81.481 43.8362 81.5956 43.7778 81.717 43.7586C81.8388 43.7396 82.0156 44.0111 82.1358 43.9882C82.2569 43.9649 82.352 43.7937 82.4716 43.7668C82.5918 43.7399 82.6921 43.6265 82.8108 43.5962C82.93 43.5653 83.023 43.4458 83.1407 43.4112C83.2584 43.3767 83.408 43.4439 83.5244 43.4057C83.6415 43.3675 83.71 43.1981 83.8255 43.1562C83.9411 43.1143 84.1387 43.2819 84.2524 43.2363C84.367 43.1908 84.3942 42.9428 84.5064 42.8939C84.6188 42.8443 84.7718 42.8856 84.8827 42.8327C84.9933 42.7798 85.0562 42.6364 85.1652 42.5805C85.2739 42.5239 85.5041 42.6862 85.6113 42.6269C85.7184 42.5673 85.7491 42.3734 85.8538 42.3105C85.9591 42.2475 86.0232 42.1224 86.1264 42.0564C86.2292 41.99 86.3333 41.9292 86.434 41.8598C86.5353 41.7904 86.6573 41.7521 86.7558 41.6797C86.8543 41.6069 86.8097 41.3589 86.906 41.2831C87.0018 41.2073 87.2976 41.3748 87.3911 41.2962C87.4847 41.2174 87.4215 40.9651 87.5125 40.8838C87.6036 40.8018 87.9617 41 88.0497 40.9153C88.1379 40.8312 88.0698 40.5866 88.155 40.4994C88.2405 40.4123 88.224 40.2331 88.3064 40.1432C88.3891 40.0536 88.4 39.9087 88.4799 39.8164C88.5598 39.724 88.8262 39.7879 88.9027 39.6928C88.9795 39.5983 89.0263 39.4803 89.1 39.3828C89.1734 39.2859 89.1945 39.1528 89.2648 39.0532C89.3354 38.9538 89.3007 38.7896 89.368 38.6878C89.4352 38.5863 89.7957 38.6679 89.8595 38.5639C89.9234 38.4603 89.7685 38.2291 89.8289 38.1233C89.8896 38.0179 89.9023 37.891 89.959 37.7833C90.016 37.6757 90.3375 37.6996 90.3908 37.5898C90.4444 37.4806 90.4369 37.3397 90.4868 37.2287C90.537 37.1177 90.2765 36.8798 90.3223 36.7673C90.3688 36.6551 90.7476 36.6719 90.7901 36.5578C90.8325 36.4441 90.8777 36.3273 90.9164 36.212C90.9551 36.0971 90.8266 35.9295 90.8613 35.8127C90.8966 35.6965 91.2287 35.6589 91.2599 35.5412C91.2909 35.4241 91.0527 35.2382 91.0797 35.1195C91.1069 35.0012 91.2965 34.915 91.3197 34.7957C91.343 34.6768 91.0877 34.5089 91.1072 34.3884C91.1268 34.2692 91.3637 34.1814 91.3792 34.0604C91.395 33.9405 91.5654 33.832 91.5771 33.7109C91.5886 33.5904 91.6004 33.462 91.6081 33.3406C91.6159 33.2198 91.552 33.089 91.5561 32.967C91.5598 32.8462 91.294 32.7193 91.294 32.5976H91.5799C91.5799 32.4759 91.2962 32.3573 91.2925 32.2362C91.2884 32.1145 91.3157 31.994 91.308 31.8735C91.2999 31.7519 91.5883 31.6048 91.5768 31.484C91.5651 31.3629 91.3752 31.2571 91.3597 31.137C91.3439 31.0162 91.1237 30.9263 91.1045 30.8067C91.0849 30.6866 91.111 30.5627 91.0874 30.4435C91.0642 30.3242 91.229 30.1659 91.2017 30.0478C91.1741 29.9292 91.1001 29.8197 91.0688 29.7023C91.0379 29.5849 90.9459 29.4834 90.9112 29.3675C90.8759 29.2507 90.9963 29.0838 90.9576 28.9688C90.9186 28.8532 90.5432 28.8554 90.5004 28.7416C90.4583 28.6276 90.5199 28.4784 90.4735 28.3661C90.4276 28.2536 90.4893 28.0965 90.4397 27.9858C90.3898 27.8748 90.4221 27.7237 90.3688 27.6143C90.3152 27.5048 90.1569 27.4449 90.0999 27.3376C90.0432 27.2299 89.902 27.1688 89.8416 27.063C89.7812 26.9575 89.6297 26.9095 89.5659 26.8058C89.5021 26.7019 89.5495 26.5337 89.4823 26.4322C89.415 26.3304 89.3652 26.2188 89.2952 26.1194C89.2245 26.0197 89.2561 25.8463 89.1824 25.7494C89.109 25.6519 88.978 25.5962 88.9015 25.5011C88.8247 25.4067 88.7035 25.348 88.6239 25.2556C88.544 25.1633 88.6236 24.9291 88.5409 24.8395C88.4582 24.7496 88.2488 24.7728 88.163 24.6857C88.0775 24.5985 87.9217 24.5823 87.8334 24.4979C87.7452 24.4132 87.8111 24.1653 87.7201 24.0836C87.629 24.002 87.3673 24.1111 87.2737 24.0323C87.1802 23.9537 87.2626 23.6626 87.1669 23.5868C87.0705 23.5112 86.801 23.6559 86.7025 23.5831C86.604 23.5103 86.5916 23.3223 86.4907 23.2529C86.39 23.1835 86.2686 23.1431 86.1654 23.0764C86.0626 23.0104 85.9542 22.9529 85.8492 22.8899C85.7441 22.8269 85.562 22.8988 85.4548 22.8392C85.348 22.7795 85.404 22.4227 85.295 22.3661C85.186 22.3102 84.9549 22.4909 84.844 22.438C84.7331 22.3854 84.5637 22.4701 84.4512 22.4209C84.3391 22.372 84.4032 21.9127 84.2892 21.8668C84.1749 21.8213 83.9912 21.9436 83.8757 21.9017C83.7605 21.8598 83.6223 21.8809 83.5056 21.8427C83.3891 21.8045 83.2577 21.8191 83.1394 21.7849C83.0217 21.75 82.9824 21.4302 82.8631 21.3993C82.7442 21.3688 82.624 21.3128 82.5038 21.2859C82.3839 21.259 82.1773 21.6326 82.0565 21.6094C81.936 21.5861 81.8137 21.6076 81.6919 21.588C81.5708 21.569 81.485 21.3269 81.3627 21.3116C81.2412 21.296 81.1099 21.3675 80.9869 21.3556C80.8652 21.3443 80.7549 21.1728 80.632 21.1648C80.5096 21.1575 80.3866 21.0556 80.2634 21.0517C80.1407 21.048 80.0115 21.215 79.8882 21.215C79.7055 21.215 79.7055 21.3788 79.5227 21.3788C79.34 21.3788 79.34 21.3195 79.1572 21.3195C78.9742 21.3195 78.9742 21.2235 78.7917 21.2235C78.6086 21.2235 78.6086 21.3351 78.4256 21.3351C78.2425 21.3351 78.2425 21.2336 78.0594 21.2336C77.8767 21.2336 77.8767 21.251 77.6942 21.251C77.5112 21.251 77.5112 21.3458 77.3284 21.3458C77.1457 21.3458 77.1457 21.1578 76.9629 21.1578C76.7802 21.1578 76.7802 21.2819 76.5977 21.2819C76.4146 21.2819 76.4147 21.1345 76.2319 21.1345C76.0488 21.1345 76.0488 21.0569 75.8658 21.0569C75.6827 21.0569 75.6827 21.4088 75.4999 21.4088C75.3169 21.4088 75.3169 21.4192 75.1341 21.4192C74.9511 21.4192 74.9511 21.0813 74.7683 21.0813C74.5852 21.0813 74.5852 21.1397 74.4028 21.1397C74.2197 21.1397 74.2197 21.0826 74.037 21.0826C73.8548 21.0826 73.8548 21.458 73.6724 21.458C73.4903 21.458 73.4903 21.3736 73.3081 21.3736C73.126 21.3736 73.126 21.2205 72.9435 21.2205C72.7608 21.2205 72.7608 21.1156 72.5783 21.1156C72.3953 21.1156 72.3953 21.033 72.2125 21.033C72.0295 21.033 72.0295 21.2627 71.8464 21.2627C71.6633 21.2627 71.6633 21.152 71.4806 21.152C71.2978 21.152 71.2978 21.4226 71.1151 21.4226C70.9326 21.4226 70.9326 21.3963 70.7502 21.3963C70.5674 21.3963 70.5674 21.4342 70.385 21.4342C70.2019 21.4342 70.2019 21.0437 70.0191 21.0437C69.8361 21.0437 69.8361 21.104 69.6533 21.104C69.47 21.104 69.47 21.1535 69.2869 21.1535C69.1038 21.1535 69.1038 21.3801 68.9208 21.3801C68.7383 21.3801 68.7383 21.2098 68.5552 21.2098C68.3725 21.2098 68.3725 21.2755 68.1894 21.2755C68.0061 21.2755 68.0061 21 67.823 21C67.6399 21 67.6399 21.3498 67.4566 21.3498C67.2735 21.3498 67.2735 21.0468 67.0904 21.0468C66.9074 21.0468 66.9074 21.1125 66.7243 21.1125C66.5409 21.1125 66.5409 21.4183 66.3575 21.4183C66.1745 21.4183 66.1745 21.1385 65.9911 21.1385C65.808 21.1385 65.808 21.148 65.6247 21.148C65.4413 21.148 65.4413 21.2269 65.2579 21.2269C65.0745 21.2269 65.0745 21.3162 64.8912 21.3162C64.7081 21.3162 64.7081 21.3406 64.5253 21.3406C64.3423 21.3406 64.3423 21.0939 64.1592 21.0939C63.9761 21.0939 63.9761 21.4299 63.7925 21.4299C63.6091 21.4299 63.6091 21.2893 63.4257 21.2893C63.2423 21.2893 63.2423 21.3376 63.059 21.3376C62.8753 21.3376 62.8753 21.2682 62.6916 21.2682C62.5079 21.2682 62.5079 21.4308 62.3245 21.4308C62.1409 21.4308 62.1409 21.281 61.9572 21.281C61.7729 21.281 61.7729 21.1786 61.5886 21.1786C61.4046 21.1786 61.4046 21.1391 61.2206 21.1391C61.097 21.1391 60.9706 21.1394 60.8482 21.1434C60.7247 21.1474 60.6144 21.3972 60.4917 21.4051C60.3687 21.4125 60.2247 21.1541 60.103 21.1657C59.98 21.177 59.8837 21.4226 59.7619 21.4379C59.6396 21.4534 59.4689 21.1477 59.3478 21.1666C59.2261 21.1859 59.1139 21.2917 58.9937 21.3149C58.8726 21.3382 58.8098 21.6317 58.6899 21.6586C58.5697 21.6858 58.3628 21.3672 58.2445 21.3978C58.1252 21.4287 58.0558 21.6497 57.9381 21.6843C57.8198 21.7188 57.7352 21.8543 57.6187 21.8925C57.5017 21.9307 57.2985 21.7299 57.1835 21.7717C57.0677 21.8139 57.0067 22.0026 56.8924 22.0482C56.7784 22.094 56.727 22.2808 56.6148 22.3298C56.5024 22.379 56.3051 22.2451 56.1942 22.2977C56.0833 22.3502 55.9755 22.4135 55.8668 22.4698C55.7574 22.5261 55.728 22.7251 55.6208 22.7844C55.5137 22.8444 55.4409 22.9538 55.3359 23.0168C55.2308 23.0801 55.0177 22.9706 54.9149 23.037C54.8118 23.103 54.6714 23.1195 54.5708 23.1893C54.4698 23.2587 54.5522 23.5757 54.4534 23.6485C54.3549 23.7213 54.047 23.525 53.9506 23.6008C53.8549 23.6763 54.0141 24.0558 53.9209 24.1344C53.827 24.2133 53.6539 24.1943 53.5631 24.2759C53.4721 24.3576 53.3723 24.4252 53.284 24.5095C53.1958 24.5939 53.1292 24.6945 53.0437 24.782C52.9579 24.8691 52.632 24.7358 52.5496 24.8257C52.4669 24.9153 52.5797 25.1783 52.5001 25.2706C52.4204 25.3629 52.4465 25.5366 52.37 25.6317C52.2931 25.7265 52.221 25.8176 52.1476 25.9148C52.0741 26.0121 51.8415 25.9925 51.7709 26.0922C51.7009 26.1916 51.7337 26.3582 51.6665 26.46C51.5993 26.5615 51.6231 26.7138 51.5593 26.8174C51.4955 26.9211 51.2892 26.9379 51.2288 27.0437C51.1684 27.1495 51.248 27.3256 51.1907 27.4333C51.134 27.5409 50.8122 27.5155 50.7589 27.625C50.7056 27.7341 50.8224 27.9216 50.7726 28.0326C50.7224 28.1435 50.7252 28.2726 50.679 28.3854C50.6325 28.4976 50.5777 28.6022 50.5353 28.7162C50.4928 28.83 50.272 28.8813 50.2333 28.9966C50.1946 29.1119 50.2698 29.2626 50.2348 29.3791C50.2001 29.4953 49.9848 29.5632 49.9536 29.6809C49.9223 29.7983 49.8767 29.9167 49.8492 30.0356C49.8219 30.1536 49.874 30.2921 49.8507 30.4117C49.8275 30.5303 49.8922 30.6661 49.8727 30.7863C49.8535 30.9058 49.7996 31.0208 49.7838 31.1415C49.7683 31.2617 49.7978 31.3871 49.786 31.5085C49.7745 31.6289 49.6989 31.7451 49.6912 31.8665C49.6835 31.9873 49.7968 32.1139 49.7928 32.2356C49.7891 32.3567 49.6869 32.4759 49.6869 32.5976H49.54C49.54 32.7193 49.9251 32.8343 49.9288 32.9553C49.9328 33.077 49.7305 33.2048 49.7386 33.3256C49.7463 33.4473 49.7869 33.5653 49.7987 33.6861C49.8101 33.8072 50.0013 33.9041 50.0168 34.0246C50.0325 34.1454 49.7525 34.3059 49.7717 34.4254C49.7916 34.5456 50.1118 34.6107 50.1351 34.73C50.1586 34.8492 50.0933 34.9813 50.1205 35.0997C50.1478 35.218 49.8464 35.4176 49.8774 35.5348C49.9086 35.6522 49.9917 35.7619 50.0267 35.8781C50.0617 35.9946 50.1849 36.0879 50.2237 36.2028C50.2624 36.3181 50.1546 36.4897 50.197 36.6031C50.2398 36.7174 50.6341 36.6985 50.6802 36.8107C50.7264 36.9238 50.4696 37.1642 50.5195 37.2749C50.5694 37.3858 50.9178 37.3614 50.9711 37.4708C51.0247 37.5803 51.1347 37.6555 51.192 37.7632C51.249 37.8705 50.937 38.1765 50.9974 38.2823C51.0578 38.3881 51.5256 38.2579 51.5894 38.3615C51.6532 38.4652 51.5336 38.678 51.6005 38.7798C51.6681 38.8813 51.9041 38.8654 51.9744 38.9648C52.045 39.0642 51.9518 39.2755 52.0252 39.3727C52.0989 39.4699 52.2207 39.528 52.2972 39.6228C52.374 39.7176 52.3988 39.8527 52.4781 39.9451C52.558 40.0374 52.4554 40.2924 52.5385 40.382C52.6209 40.4719 52.9808 40.3065 53.0666 40.3936C53.1521 40.4808 53.2884 40.5095 53.3767 40.5939C53.4649 40.6786 53.4027 40.9156 53.4937 40.9975C53.5848 41.0788 53.832 40.9786 53.9259 41.0574C54.0194 41.136 53.8292 41.5531 53.9252 41.6286C54.0216 41.7044 54.3199 41.5231 54.4184 41.5959C54.5166 41.6687 54.5221 41.8656 54.6231 41.935C54.7238 42.0047 54.8821 41.9882 54.9852 42.0548C55.0881 42.1212 55.1317 42.279 55.237 42.3423C55.3417 42.4049 55.4179 42.5214 55.5248 42.5811C55.632 42.641 55.8674 42.4655 55.9761 42.5214C56.0852 42.578 56.1152 42.7838 56.2261 42.8361C56.3364 42.889 56.4634 42.9064 56.5758 42.9556C56.6882 43.0045 56.8047 43.0409 56.9187 43.0868C57.0324 43.132 57.0863 43.3348 57.2018 43.377C57.317 43.4189 57.4899 43.3027 57.607 43.3409C57.7234 43.3791 57.8319 43.4406 57.9496 43.4748C58.0673 43.5097 58.1552 43.657 58.2742 43.6879C58.3928 43.7182 58.5564 43.5702 58.6769 43.5971C58.7964 43.624 58.8689 43.8787 58.99 43.902C59.1105 43.9249 59.2539 43.8384 59.376 43.8576C59.4971 43.8769 59.6015 44.0371 59.7238 44.0527C59.8459 44.068 59.9847 43.9711 60.1073 43.9827C60.2297 43.9943 60.3564 43.9766 60.4793 43.9839C60.602 43.9919 60.724 44.0683 60.8476 44.072C60.97 44.0759 61.097 43.9753 61.2206 43.9753Z" fill="#FF7BAC"/>
<path fill-rule="evenodd" clip-rule="evenodd" d="M67.2939 32.724C67.2939 32.5999 67.1266 32.4647 67.1403 32.3442C67.1542 32.2207 67.4791 32.1556 67.5064 32.037C67.534 31.9162 67.3899 31.7599 67.4305 31.645C67.472 31.5285 67.2967 31.3105 67.3506 31.2007C67.4045 31.0894 67.6867 31.0894 67.7523 30.9861C67.8189 30.8821 67.8567 30.757 67.9342 30.6613C68.0119 30.565 68.1922 30.5656 68.2805 30.4791C68.3681 30.3923 68.3588 30.2036 68.4564 30.1269C68.5534 30.0504 68.7556 30.1287 68.8609 30.0633C68.9656 29.9981 68.9505 29.7205 69.0629 29.667C69.1741 29.6138 69.2605 29.4481 69.3782 29.4071C69.4947 29.367 69.696 29.5695 69.8181 29.5422C69.9383 29.515 70.0625 29.5263 70.1873 29.5126C70.3097 29.4991 70.4283 29.3193 70.5541 29.3193C70.6801 29.3193 70.7777 29.685 70.9001 29.6982C71.0246 29.7119 71.1305 29.6856 71.2507 29.7125C71.3731 29.7401 71.5976 29.412 71.7144 29.4523C71.8321 29.493 71.9049 29.674 72.0164 29.7272C72.1285 29.7807 72.1889 29.926 72.294 29.9911C72.3993 30.0565 72.6452 29.9397 72.7422 30.0162C72.8394 30.0929 72.88 30.2547 72.968 30.3415C73.0559 30.4283 73.1442 30.528 73.222 30.6243C73.2994 30.7197 73.1913 30.9435 73.2576 31.0475C73.3239 31.1509 73.3456 31.2606 73.3998 31.3713C73.4537 31.4814 73.8341 31.4603 73.8756 31.5768C73.9164 31.6918 73.5779 31.9153 73.6058 32.036C73.6333 32.155 73.8787 32.2296 73.8926 32.3525C73.9062 32.4733 73.6575 32.5999 73.6575 32.724C73.6575 32.8481 73.7994 32.9628 73.7857 33.0836C73.7718 33.2068 73.59 33.2836 73.5624 33.4022C73.5345 33.5227 73.6779 33.6737 73.6374 33.789C73.5958 33.9055 73.4221 33.952 73.3682 34.0617C73.3143 34.1727 73.3409 34.3082 73.2749 34.4118C73.2087 34.5158 73.3062 34.7341 73.2288 34.8298C73.151 34.9258 73.0005 34.9659 72.9128 35.0524C72.8246 35.1392 72.6471 35.1184 72.5501 35.1949C72.4529 35.2716 72.3398 35.2988 72.2342 35.3643C72.1295 35.4297 72.0164 35.438 71.9043 35.4915C71.7925 35.5447 71.7271 35.659 71.6091 35.6997C71.4926 35.7397 71.3867 35.7682 71.2646 35.7957C71.1445 35.8226 71.0314 35.7978 70.9069 35.8116C70.7848 35.8251 70.6801 36.1152 70.5541 36.1152C70.4283 36.1152 70.3056 35.9856 70.183 35.9721C70.0585 35.9584 69.9386 35.9315 69.8184 35.9046C69.6963 35.8773 69.5978 35.7899 69.4814 35.7498C69.3634 35.7089 69.3277 35.519 69.2165 35.4658C69.1041 35.4123 68.7733 35.7505 68.6683 35.6853C68.5633 35.6199 68.6426 35.2863 68.5456 35.2099C68.4483 35.1334 68.457 34.9671 68.3694 34.8802C68.2814 34.7937 68.0791 34.8292 68.0014 34.7329C67.9239 34.6372 67.6349 34.6797 67.5683 34.576C67.5024 34.4724 67.4776 34.3231 67.4234 34.2122C67.3695 34.1024 67.4228 33.9364 67.3812 33.8199C67.3404 33.7046 67.5705 33.5233 67.5426 33.4028C67.5154 33.2842 67.0105 33.2426 66.9965 33.1194C66.9829 32.9986 67.2939 32.8481 67.2939 32.724Z" fill="#DB44AA"/>
<path fill-rule="evenodd" clip-rule="evenodd" d="M78.085 32.7243C78.085 32.6001 78.2829 32.4827 78.2965 32.3619C78.3105 32.2387 78.3427 32.1259 78.3699 32.0072C78.3978 31.8868 78.2178 31.7018 78.2587 31.5868C78.2999 31.4703 78.5868 31.4508 78.6404 31.3407C78.6949 31.2297 78.5753 31.023 78.6416 30.9193C78.7079 30.8154 78.7243 30.6555 78.8017 30.5598C78.8795 30.4638 79.0926 30.4708 79.1803 30.3843C79.2682 30.2974 79.333 30.176 79.4305 30.0996C79.5275 30.0232 79.6114 29.9085 79.7171 29.8431C79.8214 29.7779 80.0655 29.9632 80.1777 29.9097C80.2892 29.8565 80.2508 29.4309 80.3688 29.3902C80.4852 29.3499 80.7027 29.6134 80.825 29.5859C80.9449 29.559 81.0413 29.3679 81.1658 29.3544C81.2881 29.341 81.4247 29.6388 81.5505 29.6388C81.6766 29.6388 81.7989 29.4654 81.9213 29.4789C82.0461 29.4927 82.2214 29.2749 82.3419 29.3022C82.4643 29.3294 82.5272 29.6006 82.6439 29.6409C82.7619 29.6819 82.8936 29.6902 83.0051 29.7434C83.1175 29.7969 83.1569 29.9706 83.2619 30.036C83.3675 30.1014 83.5515 30.051 83.6488 30.1277C83.746 30.2042 83.7135 30.4161 83.8012 30.5029C83.8891 30.5897 84.1599 30.5136 84.2376 30.6093C84.3151 30.705 84.4978 30.7509 84.5644 30.8551C84.6304 30.9585 84.4755 31.1973 84.5297 31.308C84.5833 31.4183 84.6 31.5403 84.6412 31.6568C84.6821 31.7718 84.8859 31.8458 84.9138 31.9663C84.9411 32.0852 84.6016 32.2595 84.6155 32.383C84.6291 32.5035 84.6787 32.6001 84.6787 32.7243C84.6787 32.8484 85.0532 32.9915 85.0396 33.1123C85.0256 33.2355 84.863 33.3459 84.8358 33.4645C84.8079 33.585 84.6781 33.6755 84.6372 33.7905C84.596 33.907 84.7661 34.1176 84.7125 34.2277C84.6583 34.3384 84.5071 34.4136 84.4411 34.5173C84.3748 34.6215 84.2955 34.7288 84.2181 34.8242C84.1404 34.9206 83.8956 34.8658 83.808 34.9527C83.7197 35.0392 83.6162 35.0851 83.5193 35.1615C83.422 35.2379 83.5277 35.5994 83.4223 35.6648C83.3176 35.7302 83.0212 35.4547 82.9085 35.5079C82.7973 35.5611 82.7784 35.814 82.6603 35.855C82.5439 35.8953 82.3636 35.6844 82.2416 35.7116C82.1214 35.7385 82.0399 35.9005 81.9148 35.9143C81.7927 35.9277 81.6766 35.7697 81.5505 35.7697C81.4247 35.7697 81.3067 35.9412 81.1847 35.9277C81.0598 35.914 80.9753 35.7571 80.8551 35.7302C80.7331 35.7027 80.6054 35.759 80.489 35.7186C80.3709 35.6779 80.177 35.8204 80.0658 35.7672C79.9531 35.7137 79.8803 35.5776 79.7753 35.5125C79.67 35.4468 79.6514 35.2716 79.5541 35.1948C79.4572 35.1184 79.4051 35.0153 79.3172 34.9285C79.2292 34.8417 79.1957 34.7347 79.118 34.6386C79.0406 34.5429 78.9129 34.505 78.8466 34.4008C78.7804 34.2977 78.7289 34.202 78.6744 34.0913C78.6208 33.9809 78.6202 33.8669 78.579 33.7504C78.5381 33.6354 78.2284 33.5994 78.2005 33.4792C78.1732 33.3602 78.2736 33.2135 78.2597 33.0903C78.2463 32.9698 78.085 32.8484 78.085 32.7243Z" fill="#DB44AA"/>
<path fill-rule="evenodd" clip-rule="evenodd" d="M56.4073 32.7237C56.4073 32.5996 56.1226 32.4638 56.1362 32.343C56.1502 32.2201 56.4748 32.1538 56.502 32.0348C56.5299 31.9143 56.5866 31.8263 56.6272 31.7113C56.6687 31.5948 56.4147 31.3652 56.4686 31.2548C56.5228 31.1441 56.6705 31.0772 56.7365 30.9738C56.8028 30.8699 56.6885 30.6216 56.7659 30.5259C56.8437 30.4299 57.1243 30.495 57.2123 30.4085C57.3003 30.3216 57.339 30.1743 57.4359 30.0975C57.5332 30.0211 57.7705 30.1467 57.8758 30.0813C57.9808 30.0165 57.9371 29.6866 58.0496 29.6334C58.1611 29.5802 58.3277 29.6291 58.4457 29.5884C58.5625 29.548 58.6638 29.4153 58.7862 29.3878C58.906 29.3609 59.0656 29.5251 59.1904 29.5114C59.3127 29.4979 59.4317 29.504 59.5575 29.504C59.6832 29.504 59.8254 29.2897 59.9477 29.3028C60.0726 29.3166 60.1562 29.5881 60.2764 29.6153C60.3987 29.6428 60.5759 29.4814 60.6927 29.5218C60.8107 29.5627 60.9718 29.5432 61.0836 29.5961C61.1961 29.6496 61.2363 29.8563 61.3413 29.9217C61.447 29.9871 61.5808 30.0229 61.678 30.0993C61.775 30.1758 61.9066 30.2314 61.9946 30.3183C62.0823 30.4048 61.9534 30.6806 62.0312 30.7766C62.1086 30.8723 62.5206 30.7405 62.5869 30.8445C62.6528 30.9478 62.441 31.216 62.4952 31.3273C62.5491 31.4371 62.7594 31.4869 62.8009 31.6034C62.8412 31.7184 62.5776 31.9159 62.6051 32.0367C62.6327 32.1553 62.8313 32.2345 62.8452 32.358C62.8588 32.4785 63.1125 32.5996 63.1125 32.7237C63.1125 32.8478 62.8588 32.9689 62.8452 33.0894C62.8313 33.2129 62.8523 33.3417 62.8251 33.46C62.7972 33.5808 62.6346 33.6575 62.5937 33.7728C62.5525 33.8893 62.6432 34.055 62.5893 34.1654C62.5351 34.2761 62.3186 34.292 62.2526 34.3956C62.186 34.4996 62.3214 34.743 62.244 34.839C62.1662 34.9347 62.1616 35.1212 62.0736 35.208C61.9859 35.2946 61.7155 35.1985 61.6183 35.275C61.5213 35.3517 61.4045 35.3945 61.2989 35.46C61.1939 35.5254 61.1663 35.7379 61.0542 35.7914C60.9427 35.8446 60.6943 35.5575 60.5762 35.5979C60.4598 35.6382 60.3761 35.7073 60.2538 35.7349C60.1336 35.7618 60.0751 36.1541 59.9502 36.1678C59.8282 36.1813 59.6832 36.0492 59.5575 36.0492C59.4314 36.0492 59.3134 35.944 59.191 35.9305C59.0662 35.9168 58.8964 36.1281 58.7763 36.1012C58.6542 36.0736 58.5458 35.9452 58.4293 35.9049C58.3113 35.8642 58.1877 35.8119 58.0765 35.7587C57.9638 35.7052 57.9635 35.4572 57.8588 35.3924C57.7531 35.3267 57.6853 35.2371 57.5883 35.1606C57.4911 35.0839 57.1575 35.2655 57.0695 35.179C56.9815 35.0921 57.1881 34.7454 57.1104 34.6494C57.033 34.5537 56.7786 34.5919 56.7124 34.488C56.6461 34.3846 56.8146 34.1638 56.7604 34.0532C56.7068 33.9428 56.5284 33.9006 56.4872 33.7841C56.4463 33.6691 56.5767 33.5224 56.5488 33.4019C56.5216 33.2829 56.3258 33.208 56.3118 33.0848C56.2982 32.964 56.4073 32.8478 56.4073 32.7237Z" fill="#DB44AA"/>
<path fill-rule="evenodd" clip-rule="evenodd" d="M64.541 41.2031C64.4472 41.3606 64.4196 41.352 64.5119 41.5101C64.6045 41.6682 64.7083 41.6092 64.8009 41.7675C64.8935 41.9259 64.7665 41.9984 64.8592 42.1568C64.9521 42.3158 64.8663 42.3647 64.9592 42.5231C65.0515 42.6818 65.1203 42.6426 65.2132 42.8013C65.3058 42.9594 65.383 42.9157 65.4756 43.0738C65.5679 43.2321 65.6648 43.1768 65.7574 43.3352C65.8501 43.4933 65.9873 43.415 66.0799 43.5734C66.1725 43.7318 65.8442 43.9186 65.9371 44.077C66.0297 44.2357 66.2388 44.1161 66.3317 44.2751C66.4247 44.4335 66.4634 44.4115 66.5563 44.5705C66.6492 44.7289 66.6331 44.738 66.7261 44.8964C66.8187 45.0551 66.8887 45.015 66.9813 45.1734C67.0739 45.3321 67.0971 45.319 67.1898 45.4774C67.2827 45.6364 66.9051 45.8516 66.998 46.0103C67.0906 46.169 67.2043 46.1042 67.2969 46.2632C67.3899 46.4216 67.6358 46.2812 67.7287 46.4402C67.8217 46.5986 67.7312 46.6503 67.8241 46.8093C67.9167 46.968 67.6693 47.1089 67.7622 47.2679C67.8551 47.4266 67.9465 47.3746 68.0394 47.5333C68.1326 47.6923 68.0781 47.7232 68.1711 47.8822C68.2637 48.0403 68.5171 47.8959 68.6097 48.054C68.7026 48.213 68.4347 48.3656 68.5276 48.5246C68.6205 48.6833 68.5945 48.698 68.6874 48.8563C68.7803 49.015 69.061 48.8548 69.1539 49.0138C69.2465 49.1728 69.1632 49.2205 69.2561 49.3795C69.3487 49.5385 69.5563 49.4205 69.6492 49.5795C69.7421 49.7382 69.5225 49.8632 69.6158 50.0225C69.709 50.1818 69.783 50.1396 69.8763 50.2986C69.9689 50.4579 69.7598 50.5772 69.8527 50.7362C69.9459 50.8955 70.2176 50.7405 70.3108 50.8998C70.4041 51.0594 70.3087 51.1138 70.4022 51.2737C70.4958 51.4333 70.3688 51.4715 70.5559 51.4734C70.7408 51.4752 70.6903 51.4792 70.7826 51.3214C70.8752 51.163 70.8861 51.1694 70.9787 51.0111C71.0713 50.8527 70.8765 50.7414 70.9691 50.5833C71.062 50.4243 71.285 50.5515 71.3779 50.3928C71.4706 50.2341 71.2918 50.1323 71.3848 49.9739C71.4774 49.8155 71.4077 49.7758 71.5003 49.6177C71.5929 49.4593 71.7348 49.5403 71.8271 49.382C71.9197 49.2236 71.8779 49.1997 71.9702 49.0416C72.0628 48.8833 72.0232 48.8606 72.1158 48.7019C72.2087 48.5436 72.4534 48.6833 72.5463 48.5243C72.6393 48.3659 72.2806 48.1617 72.3735 48.0027C72.4664 47.8443 72.7415 48.0008 72.8338 47.8424C72.9267 47.6837 72.7749 47.5975 72.8679 47.4391C72.9605 47.2804 73.2287 47.4333 73.3213 47.2746C73.4143 47.1159 73.256 47.0257 73.3489 46.8667C73.4415 46.7084 73.2278 46.5861 73.3207 46.4277C73.4137 46.269 73.6274 46.391 73.72 46.2323C73.8129 46.0736 73.7758 46.0525 73.8687 45.8938C73.9616 45.7348 74.0787 45.8015 74.1716 45.6428C74.2645 45.4838 74.1357 45.4104 74.2283 45.2517C74.3212 45.0927 74.4789 45.1826 74.5721 45.0236C74.6647 44.8655 74.4448 44.7402 74.5371 44.5821C74.6301 44.4231 74.5241 44.3626 74.617 44.2036C74.71 44.0452 74.9293 44.1699 75.0222 44.0115C75.1148 43.8528 75.1427 43.8687 75.2353 43.7101C75.3286 43.5511 75.1765 43.4645 75.2697 43.3052C75.3626 43.1462 75.6786 43.3263 75.7715 43.1676C75.8644 43.0086 75.8263 42.9869 75.9189 42.8276C76.0122 42.6686 75.6811 42.4797 75.7743 42.3204C75.8672 42.1617 75.9902 42.2314 76.0831 42.0724C76.1764 41.9131 76.2628 41.9623 76.3557 41.803C76.4489 41.6431 76.2414 41.5251 76.3349 41.3655C76.4285 41.2059 76.6958 41.3407 76.6038 41.1805C76.5131 41.0215 76.4969 41.2233 76.312 41.2233C76.1268 41.2233 76.1268 41.0065 75.9419 41.0065C75.7563 41.0065 75.7563 40.9726 75.5708 40.9726C75.3855 40.9726 75.3855 41.3282 75.1997 41.3282C75.0145 41.3282 75.0145 40.9444 74.8289 40.9444C74.6437 40.9444 74.6437 41.1713 74.4585 41.1713C74.2735 41.1713 74.2735 40.9187 74.0883 40.9187C73.9034 40.9187 73.9034 41.0655 73.7181 41.0655C73.5326 41.0655 73.5326 40.901 73.3477 40.901C73.1621 40.901 73.1621 41.079 72.9763 41.079C72.7907 41.079 72.7907 40.9383 72.6049 40.9383C72.4196 40.9383 72.4196 41.0273 72.2341 41.0273C72.0486 41.0273 72.0486 41.2325 71.8633 41.2325C71.6778 41.2325 71.6778 41.1484 71.4922 41.1484C71.3067 41.1484 71.3067 41.016 71.1208 41.016C70.9353 41.016 70.9353 40.9732 70.7495 40.9732C70.5639 40.9732 70.5639 40.9264 70.3787 40.9264C70.1928 40.9264 70.1928 41.0071 70.007 41.0071C69.8211 41.0071 69.8211 41.0056 69.6353 41.0056C69.4497 41.0056 69.4497 40.9625 69.2639 40.9625C69.078 40.9625 69.078 41.2468 68.8922 41.2468C68.7063 41.2468 68.7063 41.1239 68.5208 41.1239C68.3346 41.1239 68.3346 41.1175 68.1484 41.1175C67.9632 41.1175 67.9632 41.0603 67.7777 41.0603C67.5924 41.0603 67.5924 40.8979 67.4069 40.8979C67.2207 40.8979 67.2207 41.3526 67.0349 41.3526C66.849 41.3526 66.849 41.0352 66.6635 41.0352C66.4773 41.0352 66.4773 40.9053 66.2912 40.9053C66.105 40.9053 66.105 41.078 65.9188 41.078C65.733 41.078 65.733 41.3361 65.5468 41.3361C65.3607 41.3361 65.3607 41.285 65.1742 41.285C64.9874 41.285 64.9784 41.2037 64.7944 41.1719C64.6467 41.1465 64.6358 41.0441 64.541 41.2031Z" fill="#FF7BAC"/>
<path fill-rule="evenodd" clip-rule="evenodd" d="M27.1169 62.6359C27.2517 62.6359 27.2517 62.652 27.3865 62.652C27.5213 62.652 27.5213 62.7455 27.6561 62.7455C27.7909 62.7455 27.7909 62.6957 27.926 62.6957C28.0608 62.6957 28.0608 62.6549 28.1958 62.6549C28.3306 62.6549 28.3306 62.8125 28.4656 62.8125C28.6004 62.8125 28.6004 62.6894 28.7352 62.6894C28.87 62.6894 28.87 62.6177 29.0051 62.6177C29.1399 62.6177 29.1399 62.7841 29.2744 62.7841C29.4095 62.7841 29.4095 62.5978 29.5443 62.5978C29.6791 62.5978 29.6791 62.8015 29.8139 62.8015C29.9489 62.8015 29.9489 62.5974 30.0839 62.5974C30.219 62.5974 30.219 62.7045 30.3538 62.7045C30.4888 62.7045 30.4888 62.6795 30.6236 62.6795C30.7584 62.6795 30.7584 62.6734 30.8932 62.6734C31.0282 62.6734 31.0282 62.5606 31.163 62.5606C31.2978 62.5606 31.2978 62.8114 31.4328 62.8114C31.5672 62.8114 31.5672 62.6168 31.7015 62.6168C31.8359 62.6168 31.8359 62.5083 31.9704 62.5083C32.105 62.5083 32.105 62.8382 32.2394 62.8382C32.3739 62.8382 32.3739 62.7059 32.5087 62.7059C32.6435 62.7059 32.6435 62.658 32.7783 62.658C32.9136 62.658 32.9136 62.6188 33.0486 62.6188C33.1837 62.6188 33.1837 62.8385 33.3185 62.8385C33.4533 62.8385 33.4533 62.8579 33.5878 62.8579C33.7226 62.8579 33.7226 62.5572 33.8572 62.5572C33.992 62.5572 33.992 62.5266 34.1266 62.5266C34.2614 62.5266 34.2614 62.6944 34.3962 62.6944C34.5312 62.6944 34.5312 62.6314 34.6662 62.6314C34.8013 62.6314 34.8013 62.7514 34.9365 62.7514C35.0713 62.7514 35.0713 62.822 35.2063 62.822C35.3414 62.822 35.3414 62.6973 35.4759 62.6973C35.611 62.6973 35.611 62.5764 35.746 62.5764C35.881 62.5764 35.881 62.6202 36.0163 62.6202C36.1513 62.6202 36.1513 62.6912 36.2864 62.6912C36.4216 62.6912 36.4216 62.6089 36.5564 62.6089C36.6917 62.6089 36.6917 62.6835 36.8267 62.6835C36.962 62.6835 36.962 62.6709 37.0972 62.6709C37.2322 62.6709 37.2322 62.601 37.3673 62.601C37.5025 62.601 37.5025 62.7395 37.6378 62.7395C37.773 62.7395 37.773 62.6481 37.9081 62.6481C38.0436 62.6481 38.0436 62.7566 38.1788 62.7566C38.3136 62.7566 38.3136 62.8139 38.4486 62.8139C38.5837 62.8139 38.5837 62.5543 38.7185 62.5543C38.854 62.5543 38.854 62.5466 38.9892 62.5466C39.1245 62.5466 39.1245 62.7958 39.2595 62.7958C39.395 62.7958 39.395 62.7528 39.5302 62.7528C39.6657 62.7528 39.6657 62.7949 39.8012 62.7949C39.9365 62.7949 39.9365 62.5182 40.0717 62.5182C40.2074 62.5182 40.2074 62.5802 40.3429 62.5802C40.4789 62.5802 40.4789 62.6932 40.6146 62.6932C40.7505 62.6932 40.7505 62.7708 40.8862 62.7708C40.9774 62.7708 41.0729 62.8301 41.1634 62.8274C41.2543 62.8245 41.3391 62.6508 41.4293 62.6454C41.5203 62.6398 41.6178 62.7137 41.7078 62.7054C41.7985 62.6968 41.865 62.4889 41.9548 62.4774C42.0451 62.4661 42.1337 62.4729 42.2231 62.4589C42.3128 62.4445 42.393 62.4021 42.4819 62.3851C42.5712 62.368 42.72 62.6314 42.8084 62.6118C42.8971 62.592 42.9784 62.5263 43.0659 62.5036C43.1539 62.481 43.2338 62.421 43.3207 62.3958C43.4079 62.37 43.4431 62.1842 43.529 62.156C43.6152 62.1278 43.7415 62.2171 43.8265 62.1862C43.9117 62.1551 43.9787 62.0778 44.0625 62.0441C44.1468 62.0105 44.3129 62.1614 44.3956 62.1251C44.4788 62.0888 44.4527 61.8168 44.5343 61.7778C44.6161 61.7388 44.7998 61.898 44.8802 61.8565C44.9606 61.815 45.0201 61.728 45.0991 61.6837C45.1782 61.6398 45.1402 61.4003 45.2179 61.3536C45.2954 61.3071 45.4827 61.4345 45.5586 61.3856C45.6346 61.3367 45.7078 61.2796 45.782 61.2284C45.8565 61.177 45.8965 61.0766 45.9691 61.0232C46.0418 60.9695 46.072 60.863 46.1428 60.8073C46.2136 60.7514 46.2705 60.6817 46.3395 60.6235C46.4085 60.5656 46.5988 60.6427 46.666 60.5827C46.7329 60.5223 46.6271 60.2807 46.6923 60.2185C46.7574 60.1562 46.8938 60.1682 46.9568 60.1037C47.0199 60.0394 47.0544 59.9512 47.1154 59.8849C47.1764 59.8186 47.2742 59.7861 47.3329 59.718C47.3916 59.6499 47.3544 59.5067 47.4108 59.4366C47.4675 59.3669 47.6096 59.3655 47.664 59.2938C47.7181 59.2221 47.8335 59.1937 47.8854 59.1201C47.9372 59.0468 48.0135 58.9873 48.0631 58.9122C48.1127 58.8373 48.1632 58.7602 48.2105 58.6837C48.2573 58.6073 48.1454 58.4393 48.1899 58.3612C48.2345 58.2832 48.4543 58.2994 48.4963 58.22C48.5381 58.1407 48.4232 57.9832 48.4627 57.9027C48.502 57.822 48.7622 57.8407 48.799 57.7588C48.8358 57.6772 48.8143 57.5662 48.8486 57.4832C48.8827 57.4005 48.7239 57.2442 48.7552 57.16C48.7865 57.0761 49.0691 57.0777 49.0976 56.9929C49.1262 56.9079 49.0154 56.7769 49.0412 56.6907C49.067 56.605 49.0161 56.4988 49.0392 56.412C49.062 56.3258 49.2697 56.2823 49.2898 56.1948C49.3099 56.1079 49.2162 55.9945 49.2334 55.9063C49.2507 55.8186 49.1543 55.7124 49.1687 55.6237C49.1831 55.5355 49.3465 55.4692 49.3579 55.3799C49.3695 55.2915 49.3732 55.2002 49.3819 55.1109C49.3906 55.0218 49.2779 54.9237 49.2836 54.8339C49.2893 54.7451 49.25 54.6564 49.2528 54.5667C49.2555 54.4773 49.41 54.3914 49.41 54.3014H49.4577C49.4577 54.2114 49.2288 54.1266 49.2261 54.0373C49.2231 53.9476 49.4735 53.8465 49.4678 53.7574C49.4621 53.6677 49.1623 53.6025 49.1539 53.5137C49.1452 53.4241 49.2299 53.3289 49.2185 53.2405C49.2071 53.1512 49.2078 53.0633 49.1934 52.9751C49.179 52.8864 49.1456 52.8039 49.1283 52.7164C49.1111 52.6282 49.3302 52.4902 49.3101 52.4029C49.29 52.3154 49.0814 52.2719 49.0586 52.1853C49.0355 52.0984 48.9178 52.0407 48.8923 51.9552C48.8662 51.8693 48.8408 51.7877 48.8123 51.7029C48.7837 51.6178 48.8936 51.487 48.8623 51.4034C48.831 51.319 48.7147 51.2687 48.6807 51.1857C48.6466 51.1025 48.5431 51.0529 48.5066 50.971C48.4698 50.8891 48.5461 50.7588 48.5068 50.678C48.4673 50.5973 48.3256 50.5707 48.2838 50.4913C48.2416 50.4119 48.3926 50.2304 48.348 50.1523C48.3032 50.0745 48.1392 50.0655 48.0921 49.9888C48.0451 49.9124 47.9646 49.8596 47.9151 49.7847C47.8655 49.7096 47.8246 49.6325 47.7727 49.5592C47.7206 49.4857 47.7821 49.3323 47.7279 49.2604C47.6736 49.1886 47.5493 49.1701 47.4928 49.1C47.4362 49.0301 47.4851 48.8729 47.4264 48.8048C47.3674 48.7364 47.3142 48.6591 47.2532 48.5928C47.1922 48.5265 47.0852 48.499 47.0224 48.4347C46.9591 48.3704 46.8485 48.3519 46.7834 48.2897C46.7183 48.2274 46.6706 48.1467 46.6034 48.0862C46.5364 48.0262 46.4471 47.9906 46.3781 47.9327C46.3089 47.8747 46.2698 47.7804 46.199 47.7245C46.1279 47.6688 46.0027 47.6828 45.9301 47.6293C45.8574 47.5756 45.8277 47.4642 45.7535 47.413C45.6792 47.3616 45.6625 47.2218 45.5864 47.1728C45.5106 47.1241 45.2837 47.3127 45.206 47.2662C45.1286 47.2197 45.1299 47.045 45.0509 47.001C44.9721 46.957 44.8818 46.9345 44.8012 46.8927C44.721 46.8515 44.5832 46.9288 44.5014 46.89C44.4198 46.8512 44.432 46.6158 44.349 46.5795C44.2663 46.5432 44.0966 46.7125 44.0125 46.6787C43.9284 46.6453 43.872 46.5522 43.7867 46.5213C43.7017 46.4904 43.6981 46.2263 43.612 46.1981C43.526 46.1699 43.4239 46.1767 43.3369 46.1512C43.2501 46.1257 43.1422 46.1636 43.0542 46.1408C42.9667 46.1183 42.9028 45.9836 42.8141 45.9638C42.7259 45.9439 42.5792 46.1922 42.4899 46.1753C42.401 46.1582 42.3537 45.9047 42.264 45.8905C42.1746 45.8763 42.0499 46.0991 41.9596 46.0876C41.8698 46.0763 41.7784 46.1131 41.6877 46.1047C41.5977 46.0962 41.5317 45.7827 41.4408 45.7772C41.3505 45.7716 41.2438 46.1095 41.1529 46.1065C41.0624 46.1036 40.9774 45.9448 40.8862 45.9448C40.7514 45.9448 40.7514 46.0939 40.6166 46.0939C40.4821 46.0939 40.4821 45.9478 40.3473 45.9478C40.2122 45.9478 40.2122 45.9915 40.0774 45.9915C39.9424 45.9915 39.9424 45.9419 39.8074 45.9419C39.6726 45.9419 39.6726 45.7617 39.5376 45.7617C39.4028 45.7617 39.4028 46.0362 39.268 46.0362C39.1332 46.0362 39.1332 46.0914 38.9984 46.0914C38.8636 46.0914 38.8636 45.9326 38.7288 45.9326C38.594 45.9326 38.594 46.1074 38.4591 46.1074C38.3241 46.1074 38.3241 45.7822 38.1893 45.7822C38.0545 45.7822 38.0545 46.0206 37.9195 46.0206C37.7845 46.0206 37.7845 45.9051 37.6494 45.9051C37.5146 45.9051 37.5146 45.9796 37.3796 45.9796C37.2448 45.9796 37.2448 45.8979 37.11 45.8979C36.975 45.8979 36.975 45.8517 36.8402 45.8517C36.7054 45.8517 36.7054 46.0472 36.5703 46.0472C36.436 46.0472 36.436 45.9216 36.3017 45.9216C36.1673 45.9216 36.1673 45.9487 36.0327 45.9487C35.8984 45.9487 35.8984 45.957 35.7638 45.957C35.6293 45.957 35.6293 45.8316 35.4945 45.8316C35.3597 45.8316 35.3597 45.9541 35.2249 45.9541C35.0898 45.9541 35.0898 45.9344 34.9546 45.9344C34.8198 45.9344 34.8198 45.8469 34.685 45.8469C34.5502 45.8469 34.5502 45.9814 34.4154 45.9814C34.2806 45.9814 34.2806 45.8086 34.146 45.8086C34.0114 45.8086 34.0114 45.8893 33.8766 45.8893C33.7418 45.8893 33.7418 45.7831 33.607 45.7831C33.472 45.7831 33.472 45.8654 33.3372 45.8654C33.2019 45.8654 33.2019 45.8857 33.0669 45.8857C32.9319 45.8857 32.9319 45.8336 32.7968 45.8336C32.662 45.8336 32.662 45.8219 32.5272 45.8219C32.3922 45.8219 32.3922 45.8499 32.2574 45.8499C32.1222 45.8499 32.1222 45.9342 31.9869 45.9342C31.8519 45.9342 31.8519 46.0035 31.7168 46.0035C31.5818 46.0035 31.5818 46.072 31.4468 46.072C31.3118 46.072 31.3118 46.0366 31.1767 46.0366C31.0415 46.0366 31.0415 46.0648 30.906 46.0648C30.771 46.0648 30.771 45.966 30.6359 45.966C30.5007 45.966 30.5007 45.8012 30.3654 45.8012C30.2302 45.8012 30.2302 46.0625 30.0951 46.0625C29.9596 46.0625 29.9596 45.9699 29.8246 45.9699C29.6896 45.9699 29.6896 45.8995 29.5546 45.8995C29.4197 45.8995 29.4197 45.9306 29.2847 45.9306C29.1495 45.9306 29.1495 45.9723 29.014 45.9723C28.8787 45.9723 28.8787 45.853 28.7437 45.853C28.6084 45.853 28.6084 46.0357 28.4732 46.0357C28.3375 46.0357 28.3375 45.8273 28.2022 45.8273C28.0667 45.8273 28.0667 45.7524 27.9315 45.7524C27.796 45.7524 27.796 46.0526 27.6603 46.0526C27.5245 46.0526 27.5245 46.0533 27.3886 46.0533C27.2529 46.0533 27.2529 46.0271 27.1169 46.0271C27.026 46.0271 26.9303 45.7732 26.84 45.7761C26.7489 45.7791 26.6605 45.892 26.5702 45.8977C26.4793 45.9035 26.4002 46.0432 26.3102 46.0515C26.2195 46.0601 26.1222 45.9902 26.0324 46.0014C25.9421 46.0129 25.8791 46.1882 25.7897 46.2024C25.6997 46.2166 25.5485 45.886 25.4596 45.9031C25.3703 45.9202 25.2832 45.9719 25.195 45.9917C25.1064 46.0118 25.0399 46.1327 24.9521 46.1555C24.8644 46.178 24.7547 46.1331 24.6679 46.1584C24.5806 46.1841 24.553 46.3972 24.4671 46.4254C24.3807 46.4536 24.296 46.4778 24.211 46.5086C24.1257 46.5398 24.0346 46.5499 23.9507 46.5833C23.8664 46.6171 23.738 46.5479 23.6553 46.584C23.5721 46.6203 23.4796 46.6413 23.3981 46.6801C23.3163 46.7191 23.3549 46.9908 23.2744 47.0321C23.194 47.0736 23.0016 46.9078 22.9228 46.9518C22.8438 46.9958 22.749 47.0174 22.6715 47.0639C22.5938 47.1106 22.663 47.3839 22.5872 47.4329C22.5111 47.4818 22.2383 47.2425 22.1641 47.2939C22.0896 47.3451 22.2045 47.655 22.1318 47.7085C22.0592 47.7624 21.8995 47.7006 21.8287 47.7565C21.7576 47.8122 21.684 47.8648 21.6148 47.9227C21.546 47.9809 21.5022 48.0662 21.435 48.1266C21.3678 48.1868 21.3914 48.3377 21.3262 48.4C21.2611 48.4622 21.1448 48.4687 21.0815 48.533C21.0187 48.5973 20.9577 48.6598 20.8965 48.7258C20.8357 48.7922 20.6081 48.7148 20.5492 48.7831C20.4905 48.8512 20.4304 48.9241 20.3737 48.994C20.3173 49.0639 20.4701 49.294 20.4158 49.3655C20.3616 49.4374 20.1679 49.4081 20.1158 49.4814C20.0639 49.5547 20.0324 49.6433 19.9828 49.7182C19.9335 49.7931 19.8416 49.8436 19.7945 49.9203C19.7475 49.9967 19.8855 50.1792 19.8409 50.257C19.7964 50.335 19.691 50.3767 19.6488 50.4561C19.607 50.5355 19.431 50.5486 19.3915 50.6296C19.3524 50.7101 19.2478 50.7651 19.211 50.8472C19.1742 50.9288 19.1073 51.0039 19.0732 51.0872C19.0392 51.1699 19.0563 51.278 19.025 51.3621C18.9937 51.446 19.0499 51.563 19.0214 51.6481C18.9928 51.7329 19.0924 51.8569 19.0666 51.9428C19.0408 52.0285 19.0636 52.1239 19.0406 52.2105C19.0177 52.2971 18.9869 52.3774 18.9668 52.4649C18.9467 52.552 18.9524 52.6402 18.935 52.7281C18.9179 52.8159 18.7433 52.874 18.7289 52.9625C18.7145 53.0506 18.7616 53.1472 18.7502 53.236C18.7388 53.3249 18.8416 53.4225 18.8329 53.5121C18.8244 53.6009 18.8212 53.6853 18.8155 53.7748C18.8098 53.8639 18.6478 53.9433 18.6451 54.033C18.6421 54.1224 18.7815 54.2114 18.7815 54.3014H18.4893C18.4893 54.3914 18.7552 54.4771 18.7582 54.5664C18.7609 54.6562 18.7148 54.7448 18.7205 54.8339C18.7262 54.9237 18.8242 55.0019 18.8329 55.091C18.8416 55.1803 18.7561 55.2762 18.7675 55.3648C18.779 55.4539 18.7228 55.5513 18.7372 55.6395C18.7515 55.7281 18.7351 55.8224 18.7525 55.9101C18.7696 55.9981 18.7543 56.0946 18.7744 56.1817C18.7945 56.2694 18.919 56.3319 18.9419 56.4185C18.9647 56.5051 18.9846 56.5915 19.0104 56.6772C19.0362 56.7633 18.8797 56.9079 18.9083 56.9927C18.9368 57.0777 19.1013 57.1188 19.1326 57.2027C19.1642 57.2868 19.2978 57.3308 19.3319 57.4135C19.3659 57.4965 19.4219 57.5669 19.4587 57.6488C19.4955 57.7306 19.5101 57.819 19.5494 57.8996C19.5889 57.9803 19.3922 58.1797 19.4342 58.2588C19.4763 58.3382 19.6373 58.3578 19.6819 58.4356C19.7265 58.5139 19.9641 58.4778 20.0111 58.554C20.0582 58.6305 20.0621 58.7284 20.1114 58.8035C20.161 58.8784 19.9485 59.1294 20.0004 59.2027C20.0525 59.2762 20.1309 59.3373 20.1852 59.409C20.2396 59.4808 20.4329 59.4494 20.4893 59.5195C20.546 59.5895 20.5019 59.744 20.5606 59.8121C20.6196 59.8799 20.9036 59.7514 20.9646 59.8177C21.0256 59.884 20.8709 60.149 20.9339 60.2133C20.997 60.2776 21.1878 60.2171 21.2529 60.2796C21.318 60.3418 21.3804 60.4045 21.4473 60.465C21.5145 60.5252 21.5958 60.5662 21.6648 60.6244C21.7338 60.6824 21.6596 60.914 21.7304 60.9697C21.8012 61.0256 22.0724 60.8251 22.1453 60.8786C22.2177 60.9321 22.0971 61.2494 22.1714 61.3006C22.2459 61.352 22.4446 61.2237 22.5207 61.2728C22.5966 61.3218 22.6249 61.4442 22.7026 61.4907C22.78 61.5372 22.9507 61.4224 23.0297 61.4663C23.1088 61.5103 23.1518 61.6114 23.2324 61.6531C23.3126 61.6943 23.2936 61.9327 23.3754 61.9718C23.4568 62.0105 23.5424 62.0511 23.6256 62.0874C23.7085 62.1238 23.8925 61.9251 23.9768 61.9587C24.0606 61.9923 24.102 62.1296 24.1872 62.1607C24.272 62.1914 24.2976 62.3991 24.3837 62.4275C24.4698 62.4555 24.5653 62.4731 24.6524 62.4986C24.7392 62.5241 24.8836 62.3542 24.9716 62.377C25.0591 62.3996 25.1639 62.3439 25.2526 62.3637C25.3408 62.3836 25.4159 62.4519 25.5053 62.469C25.5942 62.486 25.6728 62.5557 25.7625 62.5699C25.8516 62.5841 25.9259 62.7158 26.0162 62.7273C26.1059 62.7386 26.222 62.52 26.3125 62.5286C26.4025 62.5372 26.472 62.8128 26.5629 62.8186C26.6531 62.824 26.7578 62.5446 26.8489 62.5473C26.9392 62.55 27.026 62.6359 27.1169 62.6359Z" fill="#FFCA00"/>
<path fill-rule="evenodd" clip-rule="evenodd" d="M31.4758 54.3945C31.4758 54.3029 31.6239 54.2201 31.6339 54.1311C31.6442 54.0402 31.6255 53.9511 31.6456 53.8636C31.6662 53.7745 31.6479 53.6766 31.678 53.5916C31.7084 53.5059 31.854 53.4736 31.8937 53.3924C31.9337 53.3106 31.7502 53.1044 31.7991 53.028C31.848 52.9513 31.9755 52.9148 32.0326 52.8444C32.09 52.7736 32.2182 52.7619 32.283 52.698C32.3477 52.6338 32.4576 52.6283 32.5293 52.572C32.6008 52.5156 32.6226 52.3983 32.7002 52.3503C32.7777 52.302 32.827 52.1967 32.91 52.1572C32.9922 52.118 33.0576 52.0077 33.1446 51.9775C33.2308 51.9477 33.3557 52.0115 33.4457 51.9912C33.5344 51.9714 33.6317 51.9714 33.7236 51.9612C33.8138 51.9513 33.9084 52.0397 34.0014 52.0397C34.0942 52.0397 34.1842 51.9944 34.2744 52.0043C34.3663 52.0145 34.4643 51.9899 34.5529 52.0097C34.6432 52.03 34.6813 52.2046 34.7673 52.2343C34.8543 52.2646 34.9793 52.1825 35.0615 52.2217C35.1445 52.2612 35.2626 52.244 35.34 52.2921C35.4177 52.3406 35.3933 52.5271 35.4646 52.5835C35.5363 52.6401 35.7296 52.5609 35.7942 52.625C35.8591 52.689 35.7652 52.8904 35.8224 52.9615C35.8795 53.032 36.0999 52.9858 36.1491 53.0627C36.1977 53.1392 36.1491 53.2727 36.1888 53.3548C36.2286 53.4357 36.2866 53.5088 36.317 53.5947C36.3469 53.6795 36.3785 53.7653 36.399 53.8541C36.4194 53.9416 36.5482 54.0194 36.5585 54.1101C36.5686 54.1992 36.3202 54.3029 36.3202 54.3945C36.3202 54.486 36.5121 54.5837 36.5021 54.6726C36.4918 54.7637 36.5825 54.8839 36.5622 54.9716C36.5418 55.0605 36.1952 55.0571 36.1651 55.1419C36.1347 55.2278 36.2272 55.3528 36.1877 55.4337C36.1477 55.5158 36.1454 55.618 36.0967 55.6944C36.0479 55.7711 36.0241 55.8715 35.967 55.9421C35.9096 56.0129 35.6864 55.9301 35.6217 55.9942C35.5569 56.058 35.4895 56.0914 35.4177 56.148C35.3462 56.2044 35.4502 56.4998 35.3723 56.5483C35.295 56.5963 35.216 56.6746 35.133 56.7141C35.0508 56.7533 34.8938 56.6363 34.8068 56.6663C34.7209 56.696 34.6482 56.782 34.5582 56.8023C34.4695 56.8221 34.3601 56.719 34.268 56.7292C34.178 56.7391 34.0942 56.673 34.0014 56.673C33.9084 56.673 33.8189 56.7926 33.7286 56.7826C33.6368 56.7725 33.5209 56.8756 33.4323 56.8557C33.342 56.8354 33.257 56.7662 33.1711 56.7364C33.0841 56.7062 33.0242 56.6049 32.942 56.5657C32.859 56.5262 32.7354 56.5526 32.658 56.5043C32.5803 56.4563 32.5462 56.3406 32.4747 56.2842C32.403 56.2276 32.3258 56.1762 32.2609 56.1124C32.196 56.0483 32.0788 56.0237 32.0214 55.9529C31.9643 55.8823 32.0246 55.7274 31.9757 55.6505C31.9271 55.5742 31.8023 55.5406 31.7623 55.4588C31.7228 55.3776 31.79 55.2547 31.7596 55.169C31.7294 55.0839 31.763 54.9924 31.7425 54.9037C31.7226 54.816 31.4482 54.7704 31.4379 54.6796C31.4279 54.5905 31.4758 54.486 31.4758 54.3945Z" fill="#FF9200"/>
<path fill-rule="evenodd" clip-rule="evenodd" d="M39.5547 54.3946C39.5547 54.303 39.7233 54.2189 39.7334 54.1296C39.7436 54.0389 39.8709 53.9812 39.891 53.8935C39.9116 53.8048 39.9324 53.7365 39.9625 53.6515C39.9929 53.5655 39.9742 53.4778 40.0139 53.3966C40.0539 53.3147 39.9246 53.1433 39.9733 53.0669C40.0221 52.9902 40.2451 53.0396 40.3023 52.969C40.3596 52.8982 40.2639 52.6968 40.3285 52.6327C40.3934 52.5687 40.483 52.5218 40.5545 52.4652C40.6262 52.4088 40.823 52.5378 40.9006 52.4895C40.9781 52.4413 40.9845 52.2906 41.0674 52.2511C41.1497 52.2119 41.1801 52.0385 41.2671 52.0082C41.3532 51.9785 41.4609 51.9839 41.5509 51.9636C41.6395 51.9437 41.754 52.0678 41.8461 52.0576C41.9363 52.0477 42.0204 52.0098 42.1132 52.0098C42.2059 52.0098 42.2987 51.9706 42.3887 51.9805C42.4808 51.9906 42.5452 52.1235 42.6341 52.1433C42.7241 52.1634 42.8865 51.941 42.9725 51.9706C43.0595 52.0008 43.1239 52.1154 43.2062 52.1544C43.2891 52.1938 43.3291 52.3147 43.4066 52.363C43.4842 52.4113 43.5139 52.5159 43.5857 52.5723C43.6572 52.6287 43.7776 52.6237 43.8425 52.6878C43.9074 52.7518 44.0223 52.7759 44.0796 52.8468C44.1368 52.9174 44.2604 52.9557 44.3093 53.0324C44.3579 53.1088 44.3232 53.2432 44.363 53.3251C44.4027 53.4061 44.4244 53.4997 44.455 53.5856C44.4852 53.6706 44.4189 53.7814 44.4393 53.8704C44.4594 53.9577 44.524 54.0342 44.5343 54.1253C44.5444 54.2142 44.5907 54.303 44.5907 54.3946C44.5907 54.4861 44.4267 54.5619 44.4166 54.651C44.4064 54.7419 44.5149 54.8438 44.4948 54.9313C44.4744 55.0202 44.5179 55.1303 44.4877 55.2151C44.4573 55.301 44.2674 55.3188 44.2279 55.4C44.1879 55.4816 44.3088 55.6501 44.2599 55.7263C44.211 55.8033 43.991 55.7575 43.9339 55.8281C43.8768 55.8989 43.9709 56.1007 43.906 56.1648C43.8413 56.2288 43.6981 56.2117 43.6263 56.2683C43.5548 56.3247 43.4957 56.3964 43.418 56.4449C43.3405 56.4929 43.2628 56.5423 43.1801 56.5818C43.0979 56.621 43.0501 56.7627 42.9631 56.7927C42.8772 56.8224 42.7195 56.6066 42.6295 56.6264C42.5406 56.6465 42.4867 56.8526 42.3949 56.8628C42.3046 56.8727 42.2059 56.9868 42.1132 56.9868C42.0204 56.9868 41.9464 56.6528 41.8561 56.6429C41.764 56.6328 41.6617 56.7496 41.5728 56.7297C41.4828 56.7097 41.3816 56.7302 41.2954 56.7006C41.2084 56.6706 41.104 56.6702 41.0217 56.631C40.939 56.5915 40.9712 56.3583 40.8938 56.31C40.8161 56.2618 40.7681 56.2042 40.6966 56.1479C40.6249 56.0913 40.356 56.2568 40.2911 56.193C40.2262 56.1287 40.1314 56.0703 40.074 55.9995C40.0169 55.9289 40.0975 55.7516 40.0487 55.6749C40 55.5985 39.899 55.5479 39.859 55.4661C39.8193 55.3851 39.8967 55.2566 39.8661 55.1706C39.8359 55.0856 39.8828 54.9909 39.8622 54.902C39.8421 54.8143 39.7041 54.7548 39.6938 54.6636C39.6838 54.5748 39.5547 54.4861 39.5547 54.3946Z" fill="#FF9200"/>
<path fill-rule="evenodd" clip-rule="evenodd" d="M23.5503 54.3944C23.5503 54.3028 23.37 54.204 23.3801 54.1152C23.3903 54.0241 23.3709 53.9187 23.3913 53.831C23.4118 53.7421 23.6481 53.7146 23.6782 53.6298C23.7086 53.5439 23.6949 53.4503 23.7347 53.3691C23.7746 53.2875 23.6074 53.0843 23.6563 53.008C23.7052 52.9311 23.978 53.004 24.0351 52.9332C24.0925 52.8626 24.1496 52.8033 24.2145 52.7392C24.2791 52.6754 24.2611 52.5218 24.3326 52.4654C24.4043 52.409 24.6051 52.5443 24.6831 52.4961C24.7603 52.448 24.7342 52.2327 24.8169 52.1932C24.8992 52.1539 25.0271 52.2333 25.1142 52.2031C25.2001 52.1733 25.2314 51.9519 25.3214 51.9316C25.4101 51.9117 25.5305 52.0554 25.6226 52.0452C25.7128 52.0353 25.798 52.1449 25.8908 52.1449C25.9838 52.1449 26.056 52.1501 26.1462 52.16C26.2383 52.1702 26.3208 52.1323 26.4096 52.1524C26.4997 52.1724 26.64 52.0096 26.7259 52.0394C26.8129 52.0694 26.8138 52.2949 26.8961 52.3339C26.979 52.3736 27.1568 52.2367 27.2342 52.2848C27.3119 52.333 27.3779 52.4088 27.4497 52.4652C27.5214 52.5218 27.4378 52.7399 27.5024 52.8037C27.5673 52.8678 27.7177 52.8407 27.775 52.9115C27.8321 52.9821 28.0103 52.9726 28.0592 53.0495C28.1079 53.126 28.1269 53.2306 28.1669 53.3125C28.2064 53.3937 28.1097 53.5317 28.1399 53.6176C28.1701 53.7024 28.2263 53.7746 28.2468 53.8635C28.2669 53.951 28.3263 54.0315 28.3366 54.1224C28.3467 54.2112 28.2297 54.3028 28.2297 54.3944C28.2297 54.4859 28.4858 54.5928 28.4758 54.6817C28.4655 54.7728 28.3668 54.8601 28.3467 54.9478C28.3261 55.0369 28.2155 55.1023 28.1856 55.1873C28.155 55.273 28.0586 55.3249 28.0188 55.4059C27.9788 55.488 28.0103 55.6025 27.9617 55.679C27.9128 55.7557 27.9144 55.8721 27.8573 55.9424C27.7999 56.0135 27.7894 56.1407 27.7245 56.2047C27.6596 56.2688 27.5191 56.2649 27.4476 56.3215C27.3759 56.3779 27.2884 56.4194 27.2107 56.4679C27.1332 56.5159 27.0089 56.4769 26.926 56.5164C26.844 56.5556 26.7827 56.635 26.6957 56.6648C26.6098 56.6946 26.5323 56.7588 26.4423 56.7791C26.3537 56.799 26.2426 56.658 26.1506 56.6682C26.0605 56.6781 25.9838 56.8053 25.8908 56.8053C25.798 56.8053 25.6993 56.8716 25.6093 56.8617C25.517 56.8518 25.4569 56.6731 25.3683 56.6533C25.2782 56.633 25.1391 56.7868 25.0532 56.7573C24.9661 56.7273 24.9623 56.5051 24.88 56.4661C24.7973 56.4266 24.6186 56.562 24.5412 56.5139C24.4635 56.4659 24.4489 56.3242 24.3771 56.2679C24.3056 56.2113 24.2213 56.17 24.1564 56.1062C24.0918 56.0421 24.0255 55.9783 23.9684 55.9077C23.9113 55.8369 23.7607 55.8227 23.7118 55.7458C23.6631 55.6693 23.8409 55.4695 23.8011 55.3876C23.7614 55.3064 23.5457 55.301 23.5153 55.2151C23.4852 55.1301 23.3504 55.0601 23.33 54.9713C23.3099 54.8838 23.6236 54.7388 23.6133 54.6479C23.6033 54.5588 23.5503 54.4859 23.5503 54.3944Z" fill="#FF9200"/>
<path fill-rule="evenodd" clip-rule="evenodd" d="M29.5539 60.642C29.4847 60.758 29.4756 60.7595 29.5439 60.8761C29.612 60.993 29.7529 60.9127 29.821 61.0293C29.8896 61.1461 29.8244 61.1833 29.8928 61.3001C29.9613 61.4174 30.0262 61.3802 30.0947 61.4975C30.163 61.6145 30.0004 61.707 30.0687 61.8238C30.137 61.9406 30.2352 61.8847 30.3036 62.0013C30.3719 62.1181 30.4182 62.0917 30.4866 62.2083C30.5549 62.3252 30.5503 62.3279 30.6186 62.4445C30.6867 62.5613 30.6609 62.576 30.7294 62.6928C30.7977 62.8098 30.9421 62.7275 31.0105 62.8446C31.079 62.9616 30.8752 63.0778 30.9437 63.1948C31.0121 63.3119 31.1615 63.2268 31.2298 63.3437C31.2981 63.4607 31.0482 63.603 31.1165 63.7199C31.1848 63.8369 31.3278 63.7555 31.3961 63.8723C31.4647 63.9896 31.5517 63.94 31.6203 64.057C31.6888 64.1741 31.7452 64.1421 31.8138 64.2589C31.8823 64.3759 31.7247 64.4657 31.793 64.583C31.8615 64.6998 31.8846 64.6867 31.9531 64.8038C32.0217 64.921 32.0612 64.8985 32.1298 65.0158C32.1983 65.1328 32.276 65.0884 32.3445 65.2054C32.4131 65.3227 32.1901 65.4497 32.2586 65.567C32.3269 65.6836 32.4878 65.592 32.5559 65.7088C32.6244 65.8259 32.6566 65.8076 32.7252 65.9249C32.7937 66.0419 32.6034 66.1504 32.6717 66.2672C32.7402 66.3843 32.7825 66.3602 32.8511 66.477C32.9196 66.5945 33.133 66.4729 33.2015 66.5902C33.2703 66.7075 33.0405 66.8385 33.109 66.9556C33.1775 67.0731 33.1753 67.0744 33.2438 67.1915C33.3126 67.3092 33.4236 67.2456 33.4922 67.3633C33.5609 67.4804 33.3628 67.5934 33.4316 67.7106C33.5002 67.8279 33.6768 67.7275 33.7455 67.8448C33.8143 67.9628 33.7076 68.0237 33.7764 68.1414C33.8454 68.2591 33.8648 68.2208 34.0026 68.2221C34.139 68.2235 34.1195 68.2391 34.1876 68.1225C34.2559 68.0056 34.3565 68.0629 34.4246 67.9463C34.4931 67.8293 34.4938 67.8299 34.5621 67.7131C34.6306 67.5958 34.5861 67.5706 34.6546 67.4533C34.723 67.3365 34.5518 67.2388 34.6201 67.1218C34.6885 67.0052 34.871 67.1094 34.9393 66.9925C35.0076 66.8759 34.8276 66.7733 34.8959 66.6565C34.9642 66.5397 34.985 66.5519 35.0533 66.4353C35.1219 66.3182 35.3129 66.4271 35.3812 66.3105C35.4497 66.1933 35.3366 66.129 35.405 66.0122C35.4735 65.8949 35.3426 65.8202 35.4111 65.7032C35.4797 65.5864 35.5098 65.6035 35.5784 65.4864C35.6467 65.3696 35.7707 65.4404 35.8391 65.3236C35.9076 65.2066 35.8784 65.1899 35.9467 65.073C36.0152 64.956 35.9761 64.9337 36.0447 64.8166C36.1132 64.6993 36.219 64.7598 36.2873 64.6425C36.3559 64.5257 36.129 64.3962 36.1973 64.2794C36.2658 64.1621 36.3374 64.2029 36.4059 64.0861C36.4744 63.9686 36.5505 64.0119 36.6191 63.8949C36.6876 63.7778 36.7475 63.8119 36.816 63.6948C36.8843 63.5778 36.8114 63.536 36.88 63.419C36.9483 63.3022 36.8882 63.2679 36.9563 63.1511C37.0248 63.0338 36.9572 62.9952 37.0258 62.8779C37.0941 62.7611 37.1779 62.8087 37.2462 62.6917C37.3145 62.5746 37.3287 62.5827 37.3973 62.4659C37.4658 62.3484 37.5481 62.3951 37.6168 62.278C37.6851 62.1608 37.6413 62.1357 37.7098 62.0187C37.7784 61.9012 37.7427 61.8809 37.8115 61.7636C37.88 61.6461 38.0183 61.7248 38.087 61.6073C38.1556 61.4903 38.0477 61.4285 38.1163 61.3114C38.185 61.1937 38.122 61.1578 38.1908 61.0405C38.2598 60.9226 38.4055 61.0058 38.4745 60.8881C38.5435 60.7701 38.5163 60.7593 38.4485 60.6409C38.3815 60.5239 38.3847 60.4787 38.2483 60.4787C38.1119 60.4787 38.1119 60.6833 37.9753 60.6833C37.8387 60.6833 37.8387 60.576 37.7018 60.576C37.565 60.576 37.565 60.6008 37.4279 60.6008C37.2912 60.6008 37.2912 60.6071 37.1544 60.6071C37.0178 60.6071 37.0178 60.7198 36.8811 60.7198C36.7447 60.7198 36.7447 60.4688 36.6081 60.4688C36.4717 60.4688 36.4717 60.6637 36.3351 60.6637C36.1984 60.6637 36.1984 60.7722 36.0618 60.7722C35.925 60.7722 35.925 60.442 35.7881 60.442C35.651 60.442 35.651 60.5746 35.5139 60.5746C35.3773 60.5746 35.3773 60.6224 35.2404 60.6224C35.1038 60.6224 35.1038 60.6617 34.967 60.6617C34.8303 60.6617 34.8303 60.4418 34.6935 60.4418C34.5566 60.4418 34.5566 60.4224 34.4195 60.4224C34.2825 60.4224 34.2825 60.723 34.1456 60.723C34.0087 60.723 34.0087 60.7539 33.8717 60.7539C33.7348 60.7539 33.7348 60.5861 33.5979 60.5861C33.4609 60.5861 33.4609 60.649 33.3238 60.649C33.1867 60.649 33.1867 60.529 33.0498 60.529C32.9127 60.529 32.9127 60.4584 32.7757 60.4584C32.6383 60.4584 32.6383 60.5829 32.5015 60.5829C32.3642 60.5829 32.3642 60.7038 32.2271 60.7038C32.0905 60.7038 32.0905 60.6603 31.9536 60.6603C31.8167 60.6603 31.8167 60.5893 31.6799 60.5893C31.5428 60.5893 31.5428 60.6718 31.4055 60.6718C31.2684 60.6718 31.2684 60.5969 31.1315 60.5969C30.9942 60.5969 30.9942 60.6093 30.8571 60.6093C30.7198 60.6093 30.7198 60.6795 30.5823 60.6795C30.4452 60.6795 30.4452 60.541 30.3081 60.541C30.1706 60.541 30.1706 60.6323 30.033 60.6323C29.8955 60.6323 29.9074 60.55 29.7721 60.525C29.6574 60.504 29.6238 60.5248 29.5539 60.642Z" fill="#FFCA00"/>
<g clip-path="url(#clip0)">
<path d="M86.7599 92.9814C86.6085 92.823 87.1094 93.3208 78.3897 84.7015C77.9366 84.2534 77.2548 84.1196 76.6628 84.3619C76.0707 84.6044 75.6846 85.1756 75.6846 85.809V119.434C75.6846 120.299 76.3941 121 77.2692 121H85.7205C86.4761 121 87.1268 120.473 87.2745 119.74L90.2272 105.105C91.1225 100.699 89.8247 96.1647 86.7599 92.9814Z" fill="#F5DCCC"/>
<path d="M81.0473 97.7109L76.1487 92.8688C75.5299 92.257 75.5299 91.2653 76.1487 90.6536C76.7674 90.0419 77.7708 90.0419 78.3897 90.6536L83.2883 95.4958C83.9071 96.1075 83.9071 97.0992 83.2883 97.7109C82.6696 98.3225 81.6662 98.3226 81.0473 97.7109Z" fill="#F0CABB"/>
<path d="M78.854 72.2338V116.301C78.854 118.892 76.7211 121 74.1002 121H53.3945C50.7735 121 48.6406 118.892 48.6406 116.301V72.2338C48.6406 69.643 50.7735 67.5347 53.3945 67.5347H74.1002C76.7211 67.5347 78.854 69.643 78.854 72.2338Z" fill="#BCEAF9"/>
<path d="M78.8538 72.2338V116.301C78.8538 118.892 76.7209 121 74.0999 121H63.7471V67.5347H74.0999C76.7209 67.5347 78.8538 69.643 78.8538 72.2338Z" fill="#78B7EA"/>
<path d="M74.1002 67.5347H53.3945C50.7735 67.5347 48.6406 69.643 48.6406 72.2338V116.301C48.6406 118.892 50.7735 121 53.3945 121H74.1002C76.7211 121 78.854 118.892 78.854 116.301V72.2338C78.854 69.643 76.7211 67.5347 74.1002 67.5347ZM75.6848 111.08H51.8099V72.2338C51.8099 71.3702 52.5208 70.6674 53.3945 70.6674H74.1002C74.9738 70.6674 75.6848 71.3702 75.6848 72.2338V111.08Z" fill="#425796"/>
<path d="M78.8538 72.2338V116.301C78.8538 118.892 76.7209 121 74.0999 121H63.7471V111.08H75.6845V72.2338C75.6845 71.3702 74.9736 70.6674 74.0999 70.6674H63.7471V67.5347H74.0999C76.7209 67.5347 78.8538 69.643 78.8538 72.2338Z" fill="#283758"/>
<path d="M75.7306 92.3786C74.8268 91.472 73.5793 90.9199 72.1985 90.9199C69.457 90.9199 67.2334 93.1118 67.2334 95.8273C67.2334 97.1325 67.7449 98.3596 68.6742 99.2849L74.7446 105.549C74.0562 106.067 73.2579 106.789 72.4779 107.766C70.1195 110.72 68.9238 114.646 68.9238 119.434V121H80.5443V97.3186L75.7306 92.3786Z" fill="#F5DCCC"/>
</g>
<defs>
<clipPath id="clip0">
<rect width="54.0884" height="53.4653" fill="white" transform="translate(42.5293 67.5347)"/>
</clipPath>
</defs>
</svg>
