<svg width="95" height="121" viewBox="0 0 95 121" fill="none" xmlns="http://www.w3.org/2000/svg">
<path fill-rule="evenodd" clip-rule="evenodd" d="M63.4331 116.226C63.7118 115.949 63.1848 115.718 63.1848 115.325C63.1848 114.933 63.4776 114.933 63.4776 114.539C63.4776 114.148 63.4103 114.148 63.4103 113.757C63.4103 113.364 63.3724 113.364 63.3724 112.973C63.3724 112.581 63.5329 112.581 63.5329 112.19C63.5329 111.798 63.1446 111.798 63.1446 111.406C63.1446 111.012 63.4179 111.012 63.4179 110.621C63.4179 110.228 63.3257 110.228 63.3257 109.834C63.3257 109.441 63.547 109.441 63.547 109.05C63.547 108.657 63.2531 108.657 63.2531 108.264C63.2531 107.873 63.265 107.873 63.265 107.48C63.265 107.09 63.3041 107.09 63.3041 106.701C63.3041 106.31 63.2509 106.31 63.2509 105.921C63.2509 105.53 63.1023 105.53 63.1023 105.139C63.1023 104.747 63.3442 104.747 63.3442 104.354C63.3442 103.961 63.3041 103.961 63.3041 103.567C63.3041 103.175 63.1967 103.175 63.1967 102.781C63.1967 102.391 63.2542 102.391 63.2542 101.999C63.2542 101.605 63.4797 101.605 63.4797 101.214C63.4797 100.82 63.2281 100.82 63.2281 100.425C63.2281 100.031 63.3604 100.031 63.3604 99.6382C63.3604 99.2444 63.1088 99.2444 63.1088 98.8506C63.1088 98.4568 63.4168 98.4568 63.4168 98.0619C63.4168 97.6681 63.0861 97.6681 63.0861 97.2732C63.0861 96.8793 63.0481 96.8793 63.0481 96.4866C63.0481 96.0928 63.0525 96.0928 63.0525 95.7C63.0525 95.3051 63.1956 95.3051 63.1956 94.9102C63.1956 94.5132 63.252 94.5132 63.252 94.1172C63.252 93.7212 63.5361 93.7212 63.5361 93.3241C63.5361 92.927 63.483 92.9238 63.2054 92.6395C62.9353 92.3618 62.9299 92.5332 62.5427 92.5332C62.1523 92.5332 62.1523 92.722 61.7641 92.722C61.3736 92.722 61.3736 92.4117 60.9821 92.4117C60.5939 92.4117 60.5939 92.6797 60.2035 92.6797C59.8152 92.6797 59.8152 92.607 59.4269 92.607C59.0376 92.607 59.0376 92.5104 58.6483 92.5104C58.2578 92.5104 58.2578 92.7317 57.8663 92.7317C57.4759 92.7317 57.4759 92.5462 57.0855 92.5462C56.6951 92.5462 56.6951 92.7697 56.3057 92.7697C55.9131 92.7697 55.9131 92.5169 55.5227 92.5169C55.1312 92.5169 55.1312 92.544 54.7397 92.544C54.3504 92.544 54.3504 92.7437 53.9599 92.7437C53.5695 92.7437 53.5695 92.7198 53.1791 92.7198C52.7876 92.7198 52.7876 92.5625 52.395 92.5625C52.0035 92.5625 52.0035 92.48 51.6109 92.48C51.2161 92.48 51.2161 92.607 50.8235 92.607C50.4299 92.607 50.213 92.1502 49.9343 92.4269C49.6555 92.7046 50.0839 92.9238 50.0839 93.3165C50.0839 93.7082 49.9885 93.7082 49.9885 94.0998C49.9885 94.4925 50.2488 94.4925 50.2488 94.8842C50.2488 95.2758 50.2303 95.2758 50.2303 95.6675C50.2303 96.0591 50.1707 96.0591 50.1707 96.4508C50.1707 96.8435 49.918 96.8435 49.918 97.2352C49.918 97.6268 49.815 97.6268 49.815 98.0207C49.815 98.4134 50.1316 98.4134 50.1316 98.8061C50.1316 99.1989 49.9429 99.1989 49.9429 99.5916C49.9429 99.9832 49.8269 99.9832 49.8269 100.376C49.8269 100.769 50.213 100.769 50.213 101.16C50.213 101.551 50.085 101.551 50.085 101.939C50.085 102.329 50.0969 102.329 50.0969 102.72C50.0969 103.11 49.7954 103.11 49.7954 103.502C49.7954 103.894 49.8833 103.894 49.8833 104.286C49.8833 104.68 50.2325 104.68 50.2325 105.075C50.2325 105.466 49.7727 105.466 49.7727 105.858C49.7727 106.251 50.1414 106.251 50.1414 106.642C50.1414 107.034 49.9061 107.034 49.9061 107.428C49.9061 107.822 50.1978 107.822 50.1978 108.216C50.1978 108.609 50.2488 108.609 50.2488 109.003C50.2488 109.396 50.2986 109.396 50.2986 109.79C50.2986 110.185 50.1913 110.185 50.1913 110.58C50.1913 110.973 50.2564 110.973 50.2564 111.367C50.2564 111.761 49.8366 111.761 49.8366 112.155C49.8366 112.548 49.8334 112.548 49.8334 112.941C49.8334 113.336 49.9874 113.336 49.9874 113.731C49.9874 114.127 49.8291 114.127 49.8291 114.523C49.8291 114.92 49.7759 114.92 49.7759 115.316C49.7759 115.713 49.6989 115.885 49.9765 116.168C50.2477 116.446 50.4234 116.273 50.8105 116.273C51.201 116.273 51.201 116.207 51.5892 116.207C51.9796 116.207 51.9796 116.155 52.3711 116.155C52.7594 116.155 52.7594 115.879 53.1498 115.879C53.5381 115.879 53.5381 116.178 53.9263 116.178C54.3157 116.178 54.3157 115.974 54.705 115.974C55.0965 115.974 55.0965 115.954 55.4869 115.954C55.8774 115.954 55.8774 116.157 56.2678 116.157C56.6582 116.157 56.6582 115.947 57.0475 115.947C57.4401 115.947 57.4401 116.107 57.8316 116.107C58.2221 116.107 58.2221 116.331 58.6136 116.331C59.004 116.331 59.004 116.142 59.3933 116.142C59.7848 116.142 59.7848 116.087 60.1742 116.087C60.5657 116.087 60.5657 115.97 60.9583 115.97C61.3509 115.97 61.3509 116.317 61.7424 116.317C62.1371 116.317 62.0807 116.256 62.4603 116.362C62.9288 116.492 63.1544 116.505 63.4331 116.226Z" fill="#FF9200"/>
<path fill-rule="evenodd" clip-rule="evenodd" d="M28.8265 62.9771C28.5565 62.9771 28.2702 63.001 28.0099 63.0357C27.7431 63.0704 27.5641 63.5033 27.3093 63.5728C27.0501 63.6422 26.7735 63.589 26.5306 63.691C26.2833 63.7941 26.0231 63.8494 25.7942 63.9818C25.5632 64.1163 25.163 64.0241 24.9527 64.1857C24.7412 64.3485 24.6457 64.6761 24.4581 64.8649C24.2705 65.0526 24.1393 65.301 23.9755 65.5126C23.815 65.722 23.5786 65.8945 23.4452 66.1255C23.3118 66.3555 23.4246 66.707 23.3216 66.9533C23.2196 67.1974 22.8834 67.3623 22.8129 67.6205C22.7457 67.8766 22.6557 68.15 22.6199 68.4158C22.5863 68.6761 22.8563 68.9636 22.8563 69.2338C22.8563 69.5039 22.8227 69.76 22.8563 70.0203C22.891 70.2872 22.7272 70.5964 22.7956 70.8514C22.865 71.1107 22.9431 71.3873 23.045 71.6314C23.148 71.8777 23.584 71.9558 23.7163 72.1858C23.8508 72.4158 23.9159 72.6708 24.0775 72.8802C24.2401 73.0917 24.226 73.4617 24.4137 73.6504C24.6013 73.8381 24.7846 74.067 24.996 74.2298C25.2064 74.3914 25.6294 74.2439 25.8604 74.3773C26.0892 74.5097 26.151 74.9979 26.3983 75.101C26.6412 75.2029 26.9709 75.1259 27.229 75.1953C27.4839 75.2637 27.742 75.4123 28.0088 75.447C28.2691 75.4807 28.5565 75.5111 28.8265 75.5111C29.2148 75.5111 29.2148 75.1867 29.603 75.1867C29.9902 75.1867 29.9902 75.3657 30.3795 75.3657C30.7667 75.3657 30.7667 75.4199 31.1539 75.4199C31.5421 75.4199 31.5421 75.5718 31.9293 75.5718C32.3175 75.5718 32.3175 75.3809 32.7047 75.3809C33.0897 75.3809 33.0897 75.357 33.4736 75.357C33.8597 75.357 33.8597 75.2811 34.2436 75.2811C34.6297 75.2811 34.6297 75.1053 35.0136 75.1053C35.4008 75.1053 35.4008 75.5664 35.7858 75.5664C36.1708 75.5664 36.1708 75.1303 36.558 75.1303C36.944 75.1303 36.944 75.114 37.3312 75.114C37.7173 75.114 37.7173 75.3331 38.1056 75.3331C38.4927 75.3331 38.4927 75.5176 38.881 75.5176C39.2681 75.5176 39.2681 75.2637 39.6564 75.2637C40.0457 75.2637 40.0457 75.2431 40.4329 75.2431C40.8212 75.2431 40.8212 75.574 41.2083 75.574C41.5955 75.574 41.5955 75.0814 41.9838 75.0814C42.3698 75.0814 42.3698 75.2474 42.7581 75.2474C43.1442 75.2474 43.1442 75.3885 43.5313 75.3885C43.9174 75.3885 43.9174 75.1563 44.3035 75.1563C44.6896 75.1563 44.6896 75.1726 45.0757 75.1726C45.4618 75.1726 45.4618 75.574 45.8479 75.574C46.2339 75.574 46.2339 75.2832 46.62 75.2832C47.0061 75.2832 47.0061 75.5165 47.3922 75.5165C47.7794 75.5165 47.7794 75.5664 48.1644 75.5664C48.5504 75.5664 48.5504 75.3288 48.9376 75.3288C49.3237 75.3288 49.3237 75.4395 49.7109 75.4395C50.098 75.4395 50.098 75.5002 50.4852 75.5002C50.8724 75.5002 50.8724 75.5946 51.2606 75.5946C51.6489 75.5946 51.6489 75.4991 52.036 75.4991C52.4254 75.4991 52.4254 75.3472 52.8147 75.3472C53.2041 75.3472 53.2041 75.3429 53.5923 75.3429C53.9806 75.3429 53.9806 75.3863 54.3699 75.3863C54.7571 75.3863 54.7571 75.1856 55.1453 75.1856C55.5325 75.1856 55.5325 75.306 55.9197 75.306C56.3079 75.306 56.3079 75.3169 56.6951 75.3169C57.0833 75.3169 57.0833 75.1107 57.4705 75.1107C57.8588 75.1107 57.8588 75.255 58.2459 75.255C58.6331 75.255 58.6331 75.3787 59.0214 75.3787C59.4096 75.3787 59.4096 75.2984 59.7979 75.2984C60.1872 75.2984 60.1872 75.2648 60.5755 75.2648C60.9659 75.2648 60.9659 75.5436 61.3552 75.5436C61.7446 75.5436 61.7446 75.5143 62.1328 75.5143C62.5211 75.5143 62.5211 75.332 62.9104 75.332C63.2987 75.332 63.2987 75.472 63.6869 75.472C64.0752 75.472 64.0752 75.2583 64.4634 75.2583C64.8528 75.2583 64.8528 75.1932 65.241 75.1932C65.6303 75.1932 65.6303 75.3223 66.0197 75.3223C66.409 75.3223 66.409 75.3754 66.7994 75.3754C67.1877 75.3754 67.1877 75.1704 67.577 75.1704C67.9664 75.1704 67.9664 75.5653 68.3546 75.5653C68.744 75.5653 68.744 75.5545 69.1333 75.5545C69.5194 75.5545 69.5194 75.0999 69.9055 75.0999C70.2916 75.0999 70.2916 75.5197 70.6787 75.5197C71.0659 75.5197 71.0659 75.3798 71.4541 75.3798C71.8435 75.3798 71.8435 75.0934 72.2317 75.0934C72.6232 75.0934 72.6232 75.6011 73.0126 75.6011C73.403 75.6011 73.403 75.2539 73.7913 75.2539C74.1795 75.2539 74.1795 75.0695 74.5689 75.0695C74.9571 75.0695 74.9571 75.1682 75.3475 75.1682C75.7379 75.1682 75.7379 75.2897 76.1284 75.2897C76.5188 75.2897 76.5188 75.2431 76.9092 75.2431C77.2986 75.2431 77.2986 75.4123 77.689 75.4123C78.0805 75.4123 78.0805 75.3895 78.4709 75.3895C78.8624 75.3895 78.8624 75.1986 79.2528 75.1986C79.6433 75.1986 79.6433 75.3071 80.0348 75.3071C80.4241 75.3071 80.4241 75.3548 80.8145 75.3548C81.206 75.3548 81.206 75.3353 81.5975 75.3353C81.9901 75.3353 81.9901 75.4959 82.3827 75.4959C82.7753 75.4959 82.7753 75.3429 83.169 75.3429C83.5627 75.3429 83.5627 75.5013 83.9563 75.5013C84.2264 75.5013 84.4867 75.2724 84.7469 75.2377C85.0148 75.2029 85.2209 74.9686 85.4747 74.8992C85.7349 74.8308 86.0115 74.8851 86.2555 74.7842C86.5028 74.6811 86.9019 74.8623 87.1307 74.7288C87.3617 74.5954 87.3433 74.0833 87.5536 73.9217C87.7651 73.7589 88.2705 73.9228 88.457 73.734C88.6447 73.5463 88.5221 73.0722 88.6848 72.8606C88.8464 72.6502 88.9093 72.4006 89.0427 72.1695C89.175 71.9406 89.6869 71.8972 89.7899 71.6499C89.8919 71.4069 89.7118 71.0532 89.7812 70.795C89.8496 70.54 90.1077 70.3154 90.1424 70.0486C90.176 69.7871 90.0242 69.5039 90.0242 69.2338C90.0242 68.9636 90.0849 68.6913 90.0502 68.4299C90.0155 68.163 89.9884 67.8874 89.9211 67.6336C89.8517 67.3743 89.9038 67.0531 89.8029 66.809C89.6999 66.5628 89.2639 66.4727 89.1305 66.2438C88.996 66.0127 88.803 65.8467 88.6403 65.6362C88.4787 65.4258 88.3757 65.186 88.1881 64.9972C88.0005 64.8095 87.7196 64.7629 87.5081 64.6002C87.2977 64.4385 87.2294 64.0935 86.9984 63.9601C86.7696 63.8266 86.5646 63.6313 86.3184 63.5283C86.0744 63.4263 85.7436 63.5934 85.4855 63.525C85.2306 63.4556 85.0018 63.3503 84.7361 63.3156C84.4758 63.2798 84.2264 62.873 83.9563 62.873C83.5681 62.873 83.5681 62.8817 83.1798 62.8817C82.7927 62.8817 82.7927 63.372 82.4033 63.372C82.0162 63.372 82.0162 62.9392 81.629 62.9392C81.2407 62.9392 81.2407 63.2256 80.8536 63.2256C80.4653 63.2256 80.4653 63.295 80.0781 63.295C79.6931 63.295 79.6931 63.1203 79.3092 63.1203C78.9231 63.1203 78.9231 63.1811 78.5392 63.1811C78.1531 63.1811 78.1531 63.1279 77.7692 63.1279C77.3821 63.1279 77.3821 63.3135 76.9971 63.3135C76.6121 63.3135 76.6121 63.0346 76.2249 63.0346C75.8388 63.0346 75.8388 62.9771 75.4516 62.9771C75.0656 62.9771 75.0656 63.2071 74.6773 63.2071C74.2901 63.2071 74.2901 63.2484 73.9019 63.2484C73.5147 63.2484 73.5147 63.3786 73.1265 63.3786C72.7371 63.3786 72.7371 63.1334 72.3499 63.1334C71.9617 63.1334 71.9617 63.0422 71.5745 63.0422C71.1874 63.0422 71.1874 63.2017 70.7991 63.2017C70.413 63.2017 70.413 63.0509 70.0248 63.0509C69.6387 63.0509 69.6387 62.9609 69.2515 62.9609C68.8654 62.9609 68.8654 63.2473 68.4793 63.2473C68.0933 63.2473 68.0933 63.1692 67.7072 63.1692C67.3211 63.1692 67.3211 62.9533 66.935 62.9533C66.5489 62.9533 66.5489 63.1345 66.1628 63.1345C65.7768 63.1345 65.7768 63.1876 65.3907 63.1876C65.0035 63.1876 65.0035 63.3731 64.6185 63.3731C64.2313 63.3731 64.2313 63.1974 63.8452 63.1974C63.4592 63.1974 63.4592 63.1323 63.072 63.1323C62.6848 63.1323 62.6848 63.2787 62.2977 63.2787C61.9105 63.2787 61.9105 63.1334 61.5222 63.1334C61.134 63.1334 61.134 63.2646 60.7468 63.2646C60.3575 63.2646 60.3575 63.1453 59.9681 63.1453C59.5788 63.1453 59.5788 63.2343 59.1905 63.2343C58.8023 63.2343 58.8023 63.372 58.4129 63.372C58.0258 63.372 58.0258 63.0759 57.6375 63.0759C57.2504 63.0759 57.2504 63.1811 56.8632 63.1811C56.4749 63.1811 56.4749 63.027 56.0878 63.027C55.6995 63.027 55.6995 62.9544 55.3123 62.9544C54.9241 62.9544 54.9241 63.2538 54.5369 63.2538C54.1497 63.2538 54.1498 63.2614 53.7615 63.2614C53.3732 63.2614 53.3732 63.3569 52.985 63.3569C52.5957 63.3569 52.5957 63.1713 52.2074 63.1713C51.817 63.1713 51.817 63.0748 51.4276 63.0748C51.0383 63.0748 51.0383 62.8958 50.65 62.8958C50.2618 62.8958 50.2618 63.1778 49.8725 63.1778C49.4842 63.1778 49.4842 62.9685 49.0959 62.9685C48.7077 62.9685 48.7077 63.0759 48.3194 63.0759C47.9301 63.0759 47.9301 63.1703 47.5419 63.1703C47.1525 63.1703 47.1525 62.9956 46.7632 62.9956C46.3738 62.9956 46.3738 63.0422 45.9834 63.0422C45.5952 63.0422 45.5952 63.2115 45.2058 63.2115C44.8165 63.2115 44.8165 63.1301 44.4282 63.1301C44.0389 63.1301 44.0389 63.3645 43.6496 63.3645C43.2635 63.3645 43.2635 62.9988 42.8774 62.9988C42.4913 62.9988 42.4913 62.9858 42.1041 62.9858C41.717 62.9858 41.717 63.0195 41.3287 63.0195C40.9394 63.0195 40.9394 62.95 40.5511 62.95C40.1596 62.95 40.1596 63.231 39.7703 63.231C39.3799 63.231 39.3799 63.1388 38.9916 63.1388C38.6033 63.1388 38.6033 63.3276 38.214 63.3276C37.8258 63.3276 37.8258 62.9381 37.4353 62.9381C37.0449 62.9381 37.0449 63.2777 36.6545 63.2777C36.2641 63.2777 36.2641 63.3731 35.8736 63.3731C35.4843 63.3731 35.4843 63.0108 35.0939 63.0108C34.7024 63.0108 34.7024 63.1898 34.3119 63.1898C33.9204 63.1898 33.9204 62.886 33.53 62.886C33.1396 62.886 33.1396 63.2983 32.7481 63.2983C32.3588 63.2983 32.3588 63.1768 31.9683 63.1768C31.5768 63.1768 31.5768 62.8741 31.1853 62.8741C30.7927 62.8741 30.7927 63.0021 30.4001 63.0021C30.0075 63.0021 29.9891 63.2918 29.5998 63.2397C29.1985 63.1854 29.2202 62.9771 28.8265 62.9771ZM83.9563 79.5154C83.5681 79.5154 83.5681 79.5209 83.1798 79.5209C82.7927 79.5209 82.7927 79.9114 82.4033 79.9114C82.0162 79.9114 82.0162 79.7715 81.629 79.7715C81.2407 79.7715 81.2407 79.7053 80.8536 79.7053C80.4653 79.7053 80.4653 79.4059 80.0781 79.4059C79.6931 79.4059 79.6931 79.5903 79.3092 79.5903C78.9231 79.5903 78.9231 79.6543 78.5392 79.6543C78.1531 79.6543 78.1531 79.5545 77.7692 79.5545C77.3821 79.5545 77.3821 79.8116 76.9971 79.8116C76.6121 79.8116 76.6121 79.5447 76.2249 79.5447C75.8388 79.5447 75.8388 79.51 75.4516 79.51C75.0656 79.51 75.0656 79.7997 74.6773 79.7997C74.2901 79.7997 74.2901 79.7487 73.9019 79.7487C73.5147 79.7487 73.5147 79.5263 73.1265 79.5263C72.7371 79.5263 72.7371 79.51 72.3499 79.51C71.9617 79.51 71.9617 79.867 71.5745 79.867C71.1874 79.867 71.1874 79.7791 70.7991 79.7791C70.413 79.7791 70.413 79.5241 70.0248 79.5241C69.6387 79.5241 69.6387 79.4731 69.2515 79.4731C68.8654 79.4731 68.8654 79.8322 68.4793 79.8322C68.0933 79.8322 68.0933 79.4211 67.7072 79.4211C67.3211 79.4211 67.3211 79.6001 66.935 79.6001C66.5489 79.6001 66.5489 79.5046 66.1628 79.5046C65.7768 79.5046 65.7768 79.4948 65.3907 79.4948C65.0035 79.4948 65.0035 79.8181 64.6185 79.8181C64.2313 79.8181 64.2313 79.6391 63.8452 79.6391C63.4592 79.6391 63.4592 79.586 63.072 79.586C62.6848 79.586 62.6848 79.433 62.2977 79.433C61.9105 79.433 61.9105 79.625 61.5222 79.625C61.134 79.625 61.134 79.6478 60.7468 79.6478C60.3575 79.6478 60.3575 79.7248 59.9681 79.7248C59.5788 79.7248 59.5788 79.9006 59.1905 79.9006C58.8023 79.9006 58.8023 79.4395 58.4129 79.4395C58.0258 79.4395 58.0258 79.8745 57.6375 79.8745C57.2504 79.8745 57.2504 79.8919 56.8632 79.8919C56.4749 79.8919 56.4749 79.6728 56.0878 79.6728C55.6995 79.6728 55.6995 79.4883 55.3123 79.4883C54.9241 79.4883 54.9241 79.7411 54.5369 79.7411C54.1498 79.7411 54.1497 79.7628 53.7615 79.7628C53.3732 79.7628 53.3732 79.4308 52.985 79.4308C52.5957 79.4308 52.5957 79.9234 52.2074 79.9234C51.817 79.9234 51.817 79.7585 51.4276 79.7585C51.0383 79.7585 51.0383 79.6163 50.65 79.6163C50.2618 79.6163 50.2618 79.8496 49.8725 79.8496C49.4842 79.8496 49.4842 79.8322 49.0959 79.8322C48.7077 79.8322 48.7077 79.4308 48.3194 79.4308C47.9301 79.4308 47.9301 79.7227 47.5419 79.7227C47.1525 79.7227 47.1525 79.4894 46.7632 79.4894C46.3738 79.4894 46.3738 79.4384 45.9834 79.4384C45.5952 79.4384 45.5952 79.6771 45.2058 79.6771C44.8165 79.6771 44.8165 79.5653 44.4282 79.5653C44.0389 79.5653 44.0389 79.5046 43.6496 79.5046C43.2635 79.5046 43.2635 79.4102 42.8774 79.4102C42.4913 79.4102 42.4913 79.5057 42.1041 79.5057C41.717 79.5057 41.717 79.6576 41.3287 79.6576C40.9394 79.6576 40.9394 79.6619 40.5511 79.6619C40.1596 79.6619 40.1596 79.6185 39.7703 79.6185C39.3799 79.6185 39.3799 79.8192 38.9916 79.8192C38.6033 79.8192 38.6033 79.6988 38.214 79.6988C37.8258 79.6988 37.8258 79.6879 37.4353 79.6879C37.0449 79.6879 37.0449 79.8952 36.6545 79.8952C36.2641 79.8952 36.2641 79.7498 35.8736 79.7498C35.4843 79.7498 35.4843 79.6272 35.0939 79.6272C34.7024 79.6272 34.7024 79.7064 34.3119 79.7064C33.9204 79.7064 33.9204 79.74 33.53 79.74C33.1396 79.74 33.1396 79.4612 32.7481 79.4612C32.3588 79.4612 32.3588 79.4916 31.9683 79.4916C31.5768 79.4916 31.5768 79.6738 31.1853 79.6738C30.7927 79.6738 30.7927 79.5339 30.4001 79.5339C30.0075 79.5339 30.0075 79.7465 29.6139 79.7465C29.2202 79.7465 29.2202 79.8127 28.8265 79.8127C28.5641 79.8127 28.3038 79.6738 28.0446 79.6543C27.7843 79.6348 27.5327 79.5523 27.2768 79.5144C27.0176 79.4753 26.7193 79.6283 26.4666 79.5697C26.2129 79.5111 26.0654 79.0641 25.8181 78.9871C25.5687 78.9101 25.3355 78.8395 25.0947 78.7441C24.8518 78.6486 24.4299 78.96 24.1968 78.8482C23.9625 78.7343 23.9267 78.2407 23.7022 78.1105C23.4766 77.9792 23.1903 77.9629 22.9745 77.8176C22.7598 77.67 22.3759 77.7395 22.172 77.5778C21.9703 77.4161 22.1047 76.8618 21.9139 76.6849C21.723 76.5081 21.3 76.5732 21.1222 76.3822C20.9454 76.1924 20.6266 76.1067 20.465 75.9027C20.3034 75.6998 20.2177 75.4188 20.0713 75.204C19.9238 74.9892 19.8837 74.6985 19.7535 74.4728C19.6234 74.2482 19.4564 74.0356 19.3436 73.8012C19.2297 73.568 19.2818 73.261 19.1852 73.0179C19.0909 72.776 18.9857 72.5428 18.9076 72.2932C18.8317 72.0459 18.579 71.8408 18.5204 71.587C18.463 71.3342 18.5204 71.0521 18.4825 70.7939C18.4445 70.5378 18.4608 70.2742 18.4424 70.0117C18.4228 69.7545 18.3936 69.4963 18.3936 69.2338C18.3936 68.9702 18.5638 68.7228 18.5833 68.4657C18.6029 68.2031 18.4792 67.933 18.5172 67.678C18.5562 67.4198 18.7579 67.1996 18.8165 66.9468C18.874 66.6919 18.7352 66.3903 18.8133 66.1418C18.8903 65.8934 18.8013 65.5744 18.8957 65.3336C18.9922 65.0895 19.2297 64.8985 19.3436 64.6642C19.4564 64.4287 19.8761 64.3636 20.0062 64.1391C20.1374 63.9134 19.9064 63.4632 20.0539 63.2484C20.2014 63.0336 20.7198 63.0976 20.8836 62.8958C21.0452 62.6918 20.9042 62.2329 21.081 62.043C21.2588 61.8521 21.3911 61.5971 21.5809 61.4192C21.7718 61.2424 22.2555 61.4062 22.4594 61.2435C22.6622 61.0818 22.698 60.701 22.9127 60.5545C23.1274 60.4081 23.4571 60.4471 23.6827 60.317C23.9072 60.1868 24.0525 59.9155 24.2868 59.8016C24.5199 59.6888 24.79 59.6562 25.0329 59.5619C25.2748 59.4664 25.5242 59.4078 25.7736 59.3308C26.0209 59.2537 26.3007 59.3384 26.5556 59.2809C26.8082 59.2223 26.9948 58.8306 27.2529 58.7916C27.5078 58.7525 27.7702 58.6538 28.0327 58.6343C28.2897 58.6147 28.5641 58.6863 28.8265 58.6863C29.2148 58.6863 29.2148 58.5366 29.603 58.5366C29.9902 58.5366 29.9902 58.7851 30.3795 58.7851C30.7667 58.7851 30.7667 58.8708 31.1539 58.8708C31.5421 58.8708 31.5421 58.605 31.9293 58.605C32.3175 58.605 32.3175 58.6636 32.7047 58.6636C33.0897 58.6636 33.0897 59.0552 33.4736 59.0552C33.8597 59.0552 33.8597 59.0465 34.2436 59.0465C34.6297 59.0465 34.6297 58.5561 35.0136 58.5561C35.4008 58.5561 35.4008 58.989 35.7858 58.989C36.1708 58.989 36.1708 58.7026 36.558 58.7026C36.944 58.7026 36.944 58.6332 37.3312 58.6332C37.7173 58.6332 37.7173 58.8078 38.1056 58.8078C38.4927 58.8078 38.4927 58.7471 38.881 58.7471C39.2681 58.7471 39.2681 58.8003 39.6564 58.8003C40.0457 58.8003 40.0457 58.6147 40.4329 58.6147C40.8212 58.6147 40.8212 58.8936 41.2083 58.8936C41.5955 58.8936 41.5955 58.9511 41.9838 58.9511C42.3698 58.9511 42.3698 58.7211 42.7581 58.7211C43.1442 58.7211 43.1442 58.6798 43.5313 58.6798C43.9174 58.6798 43.9174 58.5496 44.3035 58.5496C44.6896 58.5496 44.6896 58.7959 45.0757 58.7959C45.4618 58.7959 45.4618 58.886 45.8479 58.886C46.2339 58.886 46.2339 58.7265 46.62 58.7265C47.0061 58.7265 47.0061 58.8773 47.3922 58.8773C47.7794 58.8773 47.7794 58.9673 48.1644 58.9673C48.5504 58.9673 48.5504 58.6809 48.9376 58.6809C49.3237 58.6809 49.3237 58.759 49.7109 58.759C50.098 58.759 50.098 58.976 50.4852 58.976C50.8724 58.976 50.8724 58.7948 51.2606 58.7948C51.6489 58.7948 51.6489 58.7406 52.036 58.7406C52.4254 58.7406 52.4254 58.5551 52.8147 58.5551C53.2041 58.5551 53.2041 58.7308 53.5923 58.7308C53.9806 58.7308 53.9806 58.7959 54.3699 58.7959C54.7571 58.7959 54.7571 58.6495 55.1453 58.6495C55.5325 58.6495 55.5325 58.7959 55.9197 58.7959C56.3079 58.7959 56.3079 58.6636 56.6951 58.6636C57.0833 58.6636 57.0833 58.7829 57.4705 58.7829C57.8588 58.7829 57.8588 58.6939 58.2459 58.6939C58.6331 58.6939 58.6331 58.5561 59.0214 58.5561C59.4096 58.5561 59.4096 58.8523 59.7979 58.8523C60.1872 58.8523 60.1872 58.7471 60.5755 58.7471C60.9659 58.7471 60.9659 58.9011 61.3552 58.9011C61.7446 58.9011 61.7446 58.9749 62.1328 58.9749C62.5211 58.9749 62.5211 58.6744 62.9104 58.6744C63.2987 58.6744 63.2987 58.6668 63.6869 58.6668C64.0752 58.6668 64.0752 58.5713 64.4634 58.5713C64.8528 58.5713 64.8528 58.7569 65.241 58.7569C65.6303 58.7569 65.6303 58.8534 66.0197 58.8534C66.409 58.8534 66.409 59.0324 66.7994 59.0324C67.1877 59.0324 67.1877 58.7503 67.577 58.7503C67.9664 58.7503 67.9664 58.9597 68.3546 58.9597C68.744 58.9597 68.744 58.8523 69.1333 58.8523C69.5194 58.8523 69.5194 58.7579 69.9055 58.7579C70.2916 58.7579 70.2916 58.9326 70.6787 58.9326C71.0659 58.9326 71.0659 58.886 71.4541 58.886C71.8435 58.886 71.8435 58.7167 72.2317 58.7167C72.6232 58.7167 72.6232 58.7981 73.0126 58.7981C73.403 58.7981 73.403 58.5637 73.7913 58.5637C74.1795 58.5637 74.1795 58.9304 74.5689 58.9304C74.9571 58.9304 74.9571 58.9424 75.3475 58.9424C75.7379 58.9424 75.7379 58.9087 76.1284 58.9087C76.5188 58.9087 76.5188 58.9782 76.9092 58.9782C77.2986 58.9782 77.2986 58.6972 77.689 58.6972C78.0805 58.6972 78.0805 58.7894 78.4709 58.7894C78.8624 58.7894 78.8624 58.6006 79.2528 58.6006C79.6433 58.6006 79.6433 58.9901 80.0348 58.9901C80.4241 58.9901 80.4241 58.6505 80.8145 58.6505C81.206 58.6505 81.206 58.5551 81.5975 58.5551C81.9901 58.5551 81.9901 58.9174 82.3827 58.9174C82.7753 58.9174 82.7753 58.7384 83.169 58.7384C83.5627 58.7384 83.5627 59.0422 83.9563 59.0422C84.2188 59.0422 84.491 58.6397 84.748 58.6592C85.0105 58.6787 85.2632 58.8295 85.518 58.8686C85.7783 58.9066 85.9692 59.2494 86.2219 59.308C86.4767 59.3666 86.7468 59.3069 86.9951 59.3828C87.2435 59.461 87.5677 59.3221 87.8096 59.4176C88.0514 59.513 88.3345 59.5445 88.5677 59.6562C88.803 59.7702 88.8366 60.2584 89.0611 60.3886C89.2867 60.5198 89.6066 60.4819 89.8214 60.6294C90.0361 60.777 90.1044 61.1046 90.3072 61.2684C90.5111 61.4301 90.7508 61.5277 90.9406 61.7045C91.1314 61.8814 91.2464 62.1146 91.4232 62.3056C91.5999 62.4954 91.8624 62.5942 92.024 62.7981C92.1878 63.001 92.3884 63.1692 92.5348 63.384C92.6823 63.5977 93.0022 63.7095 93.1324 63.9351C93.2625 64.1597 93.4501 64.3712 93.5629 64.6056C93.6768 64.8399 93.7549 65.1068 93.8503 65.3498C93.9447 65.5907 94.0325 65.8511 94.1095 66.1006C94.1865 66.3479 94.1735 66.6322 94.232 66.8871C94.2884 67.1399 94.039 67.448 94.078 67.7062C94.116 67.9623 94.1084 68.2086 94.129 68.47C94.1475 68.7282 94.2245 68.9702 94.2245 69.2338C94.2245 69.4963 94.3513 69.7535 94.3318 70.0117C94.3134 70.2742 94.3427 70.5389 94.3047 70.795C94.2657 71.0532 94.4164 71.358 94.36 71.6097C94.3015 71.8647 93.9577 72.0491 93.8807 72.2976C93.8037 72.546 93.6996 72.7803 93.6041 73.0223C93.5098 73.2642 93.5 73.543 93.3861 73.7774C93.2733 74.0128 93.1725 74.2569 93.0423 74.4815C92.9122 74.7082 92.9122 75.0283 92.7658 75.2442C92.6183 75.4579 92.2409 75.5111 92.0771 75.7139C91.9155 75.9179 91.5999 75.9743 91.4232 76.1642C91.2453 76.3551 91.3115 76.7826 91.1206 76.9594C90.9308 77.1362 90.5426 77.0798 90.3398 77.2426C90.1359 77.4053 90.0339 77.6917 89.8192 77.8393C89.6055 77.9857 89.265 77.9141 89.0394 78.0454C88.8149 78.1756 88.7444 78.5813 88.5091 78.6942C88.2759 78.8081 88.0992 79.0815 87.8573 79.177C87.6155 79.2724 87.2055 78.8862 86.9561 78.9632C86.7088 79.0403 86.5548 79.4493 86.3 79.5068C86.0484 79.5643 85.7772 79.5599 85.518 79.599C85.2632 79.637 84.9964 79.599 84.735 79.6196C84.4769 79.638 84.2188 79.5154 83.9563 79.5154Z" fill="#FF9200"/>
<path fill-rule="evenodd" clip-rule="evenodd" d="M81.5375 51.5804C81.2652 51.3005 81.159 51.792 80.7696 51.792C80.3792 51.792 80.3792 51.6477 79.9877 51.6477C79.5973 51.6477 79.5973 51.5229 79.2068 51.5229C78.8153 51.5229 78.8153 51.6032 78.4238 51.6032C78.0323 51.6032 78.0323 51.6368 77.6397 51.6368C77.2482 51.6368 77.2482 51.3591 76.8556 51.3591C76.462 51.3591 76.462 51.3873 76.0694 51.3873C75.6768 51.3873 75.6768 51.5696 75.282 51.5696C74.8905 51.5696 74.8905 51.4307 74.4979 51.4307C74.1053 51.4307 74.1053 51.6444 73.7138 51.6444C73.3223 51.6444 73.3223 51.7084 72.9297 51.7084C72.5382 51.7084 72.5382 51.5804 72.1478 51.5804C71.7552 51.5804 71.7552 51.5262 71.3648 51.5262C70.9744 51.5262 70.9744 51.7323 70.5828 51.7323C70.1924 51.7323 70.1924 51.3363 69.802 51.3363C69.4105 51.3363 69.4105 51.3472 69.019 51.3472C68.6286 51.3472 68.6286 51.8028 68.2371 51.8028C67.8466 51.8028 67.8466 51.383 67.4562 51.383C67.0647 51.383 67.0647 51.5229 66.6732 51.5229C66.2828 51.5229 66.2828 51.8082 65.8902 51.8082C65.4987 51.8082 65.4987 51.3005 65.1072 51.3005C64.7135 51.3005 64.7135 51.6477 64.322 51.6477C63.9294 51.6477 63.9294 51.8321 63.5357 51.8321C63.142 51.8321 63.142 51.7345 62.7484 51.7345C62.3547 51.7345 62.3547 51.6119 61.961 51.6119C61.5673 51.6119 61.5673 51.6596 61.1747 51.6596C60.7811 51.6596 60.7811 51.4904 60.3885 51.4904C59.997 51.4904 59.997 51.5121 59.6033 51.5121C59.2118 51.5121 59.2118 51.703 58.8192 51.703C58.4266 51.703 58.4266 51.5945 58.0351 51.5945C57.6425 51.5945 57.6425 51.5479 57.2499 51.5479C56.8573 51.5479 56.8573 51.5674 56.4647 51.5674C56.0721 51.5674 56.0721 51.4057 55.6785 51.4057C55.2848 51.4057 55.2848 51.5587 54.8911 51.5587C54.4964 51.5587 54.4964 51.4014 54.1016 51.4014C53.7079 51.4014 53.7079 51.613 53.3153 51.613C52.9206 51.613 52.9206 51.8028 52.528 51.8028C52.1354 51.8028 52.1354 51.6607 51.7406 51.6607C51.348 51.6607 51.348 51.3211 50.9554 51.3211C50.5618 51.3211 50.5618 51.7551 50.1681 51.7551C49.7744 51.7551 49.7744 51.2983 49.3797 51.2983C48.9849 51.2983 48.9849 51.7052 48.5901 51.7052C48.1965 51.7052 48.1965 51.792 47.8039 51.792C47.4091 51.792 47.4091 51.3526 47.0154 51.3526C46.6217 51.3526 46.6217 51.6368 46.227 51.6368C45.8366 51.6368 45.8366 51.4274 45.4461 51.4274C45.0536 51.4274 45.0536 51.5999 44.6631 51.5999C44.2705 51.5999 44.2705 51.5197 43.8779 51.5197C43.4843 51.5197 43.4843 51.4925 43.0906 51.4925C42.6947 51.4925 42.6947 51.3374 42.2989 51.3374C41.9052 51.3374 41.9052 51.69 41.5126 51.69C41.1179 51.69 41.1179 51.7583 40.7253 51.7583C40.3316 51.7583 40.3316 51.677 39.9379 51.677C39.541 51.677 39.541 51.8278 39.1452 51.8278C38.7504 51.8278 38.7504 51.5793 38.3556 51.5793C37.9609 51.5793 37.9609 51.4936 37.5661 51.4936C37.1703 51.4936 37.1703 51.7594 36.7733 51.7594C36.3775 51.7594 36.3775 51.6987 35.9816 51.6987C35.5869 51.6987 35.5869 51.3081 35.1921 51.3081C34.7963 51.3081 34.7963 51.3179 34.4026 51.3179C34.0057 51.3179 34.0057 51.8082 33.6098 51.8082C33.2118 51.8082 33.2118 51.3743 32.8138 51.3743C32.4158 51.3743 32.4158 51.6607 32.0178 51.6607C31.6198 51.6607 31.6176 51.4036 31.3345 51.6846C31.0536 51.9623 31.2076 51.9645 31.2076 52.3594C31.2076 52.7532 31.2684 52.7532 31.2684 53.147C31.2684 53.543 31.2152 53.543 31.2152 53.9368C31.2152 54.3317 31.3996 54.3317 31.3996 54.7266C31.3996 55.1226 31.1209 55.1226 31.1209 55.5175C31.1209 55.9135 31.0634 55.9135 31.0634 56.3084C31.0634 56.7044 31.2944 56.7044 31.2944 57.1004C31.2944 57.4942 31.3356 57.4942 31.3356 57.8891C31.3356 58.2851 31.4647 58.2851 31.4647 58.68C31.4647 59.0728 31.2196 59.0728 31.2196 59.4655C31.2196 59.8582 31.1285 59.8582 31.1285 60.251C31.1285 60.6437 31.289 60.6437 31.289 61.0386C31.289 61.4335 31.1372 61.4335 31.1372 61.8284C31.1372 62.2255 31.0482 62.2255 31.0482 62.6226C31.0482 63.0175 31.3345 63.0175 31.3345 63.4124C31.3345 63.8073 31.2565 63.8073 31.2565 64.2022C31.2565 64.5971 31.0396 64.5971 31.0396 64.992C31.0396 65.3902 31.2207 65.3902 31.2207 65.7873C31.2207 66.1832 31.2738 66.1832 31.2738 66.5792C31.2738 66.9752 31.4603 66.9752 31.4603 67.3723C31.4603 67.7694 31.2836 67.7694 31.2836 68.1665C31.2836 68.5635 31.2196 68.5635 31.2196 68.9617C31.2196 69.3577 31.366 69.3577 31.366 69.7548C31.366 70.1497 31.2207 70.1497 31.2207 70.5457C31.2207 70.9449 31.3519 70.9449 31.3519 71.342C31.3519 71.7412 31.2315 71.7412 31.2315 72.1394C31.2315 72.5386 31.3215 72.5386 31.3215 72.939C31.3215 73.3393 31.4593 73.3393 31.4593 73.7385C31.4593 73.9978 31.1675 74.2582 31.1751 74.5164C31.1827 74.7757 31.2998 75.0296 31.315 75.2878C31.3313 75.5471 31.1968 75.8172 31.2207 76.0743C31.2445 76.3325 31.2001 76.6027 31.2315 76.8587C31.263 77.1158 31.5948 77.3328 31.6339 77.5878C31.6729 77.8438 31.7239 78.0933 31.7716 78.3483C31.8182 78.6022 31.9625 78.8322 32.0178 79.0849C32.0731 79.3377 31.9495 79.6285 32.0124 79.878C32.0763 80.1297 32.0492 80.4042 32.1208 80.6526C32.1913 80.9022 32.0959 81.2059 32.1729 81.4511C32.2531 81.6985 32.6034 81.8569 32.6891 82.0999C32.7748 82.344 32.6685 82.6608 32.7617 82.9016C32.8561 83.1436 33.0535 83.3454 33.1543 83.583C33.2552 83.8216 33.4461 84.0202 33.5545 84.2545C33.6619 84.4899 33.6174 84.7991 33.7335 85.0302C33.8484 85.2613 34.0111 85.4729 34.1326 85.7007C34.2551 85.9285 34.5295 86.0706 34.6586 86.2941C34.7898 86.5187 34.8516 86.7802 34.9872 86.9993C35.1238 87.2206 35.46 87.3074 35.6032 87.5223C35.7452 87.7382 35.5891 88.1569 35.7387 88.3674C35.8873 88.579 36.0315 88.7992 36.1888 89.0042C36.3439 89.2115 36.5315 89.3959 36.6942 89.5977C36.8568 89.7995 36.9707 90.0457 37.1399 90.2421C37.308 90.4374 37.6897 90.4461 37.8644 90.637C38.039 90.828 38.1474 91.0775 38.3274 91.263C38.5064 91.4485 38.8209 91.4952 39.0063 91.6753C39.1929 91.8554 39.1137 92.3165 39.3046 92.4911C39.4944 92.6647 39.9141 92.5823 40.1104 92.7504C40.3056 92.9186 40.5615 93.0065 40.7622 93.1681C40.9639 93.3298 40.9433 93.7735 41.1504 93.9286C41.3554 94.0849 41.6699 94.0946 41.8814 94.2432C42.0918 94.393 42.1351 94.7911 42.3499 94.9343C42.5646 95.0775 43.0071 94.8703 43.2262 95.007C43.4452 95.1426 43.6025 95.3781 43.8259 95.5082C44.0493 95.6374 44.1306 96.029 44.3584 96.1516C44.5861 96.2731 44.8789 96.2818 45.1099 96.3979C45.3409 96.5118 45.6782 96.4087 45.9114 96.5183C46.1456 96.6257 46.4124 96.6507 46.6499 96.7515C46.8875 96.8524 46.971 97.3341 47.2128 97.4285C47.4525 97.5218 47.7681 97.422 48.0132 97.5077C48.2561 97.5934 48.434 97.8907 48.6801 97.9688C48.9263 98.0458 49.2029 98.0437 49.4512 98.1142C49.7007 98.1847 49.9338 98.3333 50.1854 98.3963C50.4349 98.4592 50.7234 98.3887 50.975 98.4429C51.2276 98.4982 51.4955 98.4885 51.7504 98.5362C52.0042 98.5829 52.2916 98.418 52.5475 98.4581C52.8024 98.4972 53.0605 98.4657 53.3175 98.4972C53.5745 98.5275 53.8207 98.5905 54.0799 98.6143C54.3358 98.6371 54.5864 98.661 54.8456 98.6762C55.1026 98.6924 55.352 98.7901 55.6123 98.7966C55.8693 98.8053 56.1253 99.1123 56.3856 99.1123V99.147C56.6448 99.147 56.9083 99.0743 57.1653 99.0678C57.4256 99.0602 57.6805 98.9116 57.9375 98.8953C58.1978 98.8801 58.4505 98.7998 58.7075 98.7771C58.9667 98.7521 59.1977 98.5221 59.4536 98.4907C59.7107 98.4592 60.0046 98.7055 60.2583 98.6653C60.5143 98.6263 60.7746 98.6035 61.0294 98.5557C61.2832 98.5091 61.5175 98.355 61.7691 98.2997C62.0228 98.2455 62.2668 98.1619 62.5174 98.099C62.7679 98.035 62.9696 97.8028 63.2169 97.7323C63.4663 97.6629 63.7906 97.8495 64.0357 97.7714C64.2829 97.6932 64.5964 97.8017 64.8404 97.7149C65.0833 97.6292 65.2069 97.2126 65.4477 97.1193C65.6885 97.0249 66.0409 97.2018 66.2784 97.1009C66.5159 96.9989 66.6873 96.7374 66.9205 96.629C67.1558 96.5205 67.4974 96.6257 67.7284 96.5107C67.9594 96.3946 68.0418 95.9856 68.2696 95.8619C68.4973 95.7393 68.6307 95.4583 68.8541 95.3292C69.0775 95.2001 69.5558 95.4963 69.776 95.3607C69.995 95.224 70.0232 94.7835 70.238 94.6403C70.4527 94.4982 70.6956 94.3973 70.9049 94.2476C71.1164 94.0979 71.3648 94.0002 71.5708 93.844C71.7769 93.6889 72.0469 93.6097 72.2476 93.448C72.4482 93.2853 72.4862 92.9262 72.6825 92.758C72.8787 92.5899 73.0024 92.3479 73.1933 92.1743C73.383 91.9997 73.5848 91.8445 73.7702 91.6644C73.9557 91.4854 74.3949 91.5603 74.5738 91.3748C74.7539 91.1892 74.7506 90.829 74.9241 90.6381C75.0987 90.4461 75.4328 90.3962 75.6009 90.2009C75.769 90.0045 75.7972 89.691 75.9587 89.4892C76.1214 89.2885 76.1214 88.9663 76.2765 88.7601C76.4327 88.5529 76.6561 88.4032 76.8057 88.1927C76.9543 87.9823 77.2157 87.851 77.3578 87.6351C77.5009 87.4203 77.6506 87.2098 77.7872 86.9907C77.9228 86.7704 78.2275 86.6478 78.3566 86.4243C78.4867 86.2008 78.2199 85.7571 78.3425 85.5293C78.465 85.3025 78.5724 85.0758 78.6874 84.8436C78.8034 84.6125 79.081 84.4661 79.1906 84.2317C79.2979 83.9963 79.2177 83.6849 79.3186 83.4463C79.4194 83.2087 79.7643 83.0752 79.8576 82.8344C79.9508 82.5935 80.0972 82.3711 80.1829 82.127C80.2686 81.884 80.0614 81.5444 80.1395 81.2992C80.2165 81.053 80.5028 80.8729 80.5722 80.6244C80.6438 80.376 80.8184 80.1536 80.8813 79.9019C80.9431 79.6523 80.8434 79.3627 80.8987 79.1099C80.954 78.8582 80.9811 78.6022 81.0288 78.3483C81.0755 78.0944 81.3553 77.8796 81.3943 77.6236C81.4333 77.3697 81.5982 77.1245 81.6296 76.8674C81.66 76.6114 81.3108 76.3119 81.3346 76.0537C81.3585 75.7966 81.326 75.5395 81.3412 75.2813C81.3574 75.0231 81.5331 74.7746 81.5407 74.5153C81.5494 74.2571 81.6123 73.9978 81.6123 73.7385C81.6123 73.3447 81.6025 73.3447 81.6025 72.9487C81.6025 72.5549 81.7826 72.5549 81.7826 72.16C81.7826 71.7651 81.5266 71.7651 81.5266 71.3713C81.5266 70.9764 81.3574 70.9764 81.3574 70.5815C81.3574 70.1855 81.3585 70.1855 81.3585 69.7906C81.3585 69.3946 81.6036 69.3946 81.6036 68.9986C81.6036 68.6026 81.3292 68.6026 81.3292 68.2077C81.3292 67.8128 81.4041 67.8128 81.4041 67.4179C81.4041 67.0219 81.2924 67.0219 81.2924 66.627C81.2924 66.2353 81.4192 66.2353 81.4192 65.8426C81.4192 65.4499 81.7685 65.4498 81.7685 65.0571C81.7685 64.6644 81.3563 64.6644 81.3563 64.2695C81.3563 63.8746 81.8118 63.8746 81.8118 63.4797C81.8118 63.0826 81.6275 63.0826 81.6275 62.6855C81.6275 62.2906 81.4583 62.2906 81.4583 61.8957C81.4583 61.5019 81.506 61.5019 81.506 61.1059C81.506 60.711 81.557 60.711 81.557 60.3161C81.557 59.919 81.4095 59.919 81.4095 59.5208C81.4095 59.1248 81.6286 59.1248 81.6286 58.7289C81.6286 58.3329 81.3097 58.3329 81.3097 57.9358C81.3097 57.5387 81.6242 57.5387 81.6242 57.1406C81.6242 56.7446 81.7945 56.7446 81.7945 56.3475C81.7945 55.9504 81.622 55.9504 81.622 55.5533C81.622 55.1584 81.3835 55.1584 81.3835 54.7624C81.3835 54.3632 81.801 54.3632 81.801 53.965C81.801 53.5669 81.3075 53.5669 81.3075 53.1687C81.3075 52.7695 81.4312 52.7532 81.5125 52.3615C81.5971 51.9482 81.8173 51.8668 81.5375 51.5804Z" fill="#FFCA00"/>
<mask id="mask0" mask-type="alpha" maskUnits="userSpaceOnUse" x="35" y="106" width="44" height="15">
<path fill-rule="evenodd" clip-rule="evenodd" d="M35.2715 106.792H78.0846V120.595H35.2715V106.792Z" fill="white"/>
</mask>
<g mask="url(#mask0)">
<path fill-rule="evenodd" clip-rule="evenodd" d="M77.8698 106.995C77.5955 106.718 77.4339 107.076 77.0434 107.076C76.6541 107.076 76.6541 107 76.2648 107C75.8754 107 75.8754 106.953 75.4861 106.953C75.0968 106.953 75.0968 107.294 74.7074 107.294C74.3192 107.294 74.3192 106.919 73.9298 106.919C73.5405 106.919 73.5405 106.854 73.1511 106.854C72.7629 106.854 72.7629 107.312 72.3736 107.312C71.9842 107.312 71.9842 107.09 71.596 107.09C71.2055 107.09 71.2055 107.067 70.8162 107.067C70.4269 107.067 70.4269 107.144 70.0364 107.144C69.6471 107.144 69.6471 106.792 69.2578 106.792C68.8663 106.792 68.8663 106.85 68.4758 106.85C68.0854 106.85 68.0854 107.28 67.6939 107.28C67.3024 107.28 67.3024 107.26 66.9109 107.26C66.5183 107.26 66.5183 106.973 66.1268 106.973C65.7353 106.973 65.7353 107.303 65.3427 107.303C64.9523 107.303 64.9523 107.12 64.5619 107.12C64.1703 107.12 64.1703 107.219 63.7799 107.219C63.3895 107.219 63.3895 107.233 62.9991 107.233C62.6087 107.233 62.6087 106.898 62.2182 106.898C61.8278 106.898 61.8278 107.169 61.4374 107.169C61.0459 107.169 61.0459 106.926 60.6555 106.926C60.265 106.926 60.265 107.018 59.8724 107.018C59.4809 107.018 59.4809 106.911 59.0894 106.911C58.6968 106.911 58.6968 106.891 58.3042 106.891C57.9127 106.891 57.9127 106.852 57.5201 106.852C57.1286 106.852 57.1286 107.062 56.7371 107.062C56.3456 107.062 56.3456 107.206 55.9541 107.206C55.5637 107.206 55.5637 107.084 55.1711 107.084C54.7807 107.084 54.7807 106.81 54.3892 106.81C53.9955 106.81 53.9955 107.286 53.604 107.286C53.2114 107.286 53.2114 106.792 52.8177 106.792C52.4262 106.792 52.4262 107.13 52.0347 107.13C51.6421 107.13 51.6421 106.837 51.2506 106.837C50.8591 106.837 50.8591 106.942 50.4665 106.942C50.0772 106.942 50.0772 106.853 49.6889 106.853C49.2985 106.853 49.2985 107.11 48.9092 107.11C48.5187 107.11 48.5187 106.901 48.1272 106.901C47.7357 106.901 47.7357 106.881 47.3442 106.881C46.9505 106.881 46.9505 107.109 46.5569 107.109C46.1654 107.109 46.1654 107.224 45.7728 107.224C45.3813 107.224 45.3813 107.25 44.9908 107.25C44.5972 107.25 44.5972 107.052 44.2057 107.052C43.812 107.052 43.812 107.239 43.4172 107.239C43.0246 107.239 43.0246 106.935 42.632 106.935C42.2394 106.935 42.2394 107.212 41.8458 107.212C41.451 107.212 41.451 107.252 41.0573 107.252C40.6626 107.252 40.6626 106.962 40.2689 106.962C39.8763 106.962 39.8763 107.15 39.4826 107.15C39.09 107.15 39.09 106.982 38.6974 106.982C38.3027 106.982 38.3027 106.938 37.9068 106.938C37.5121 106.938 37.5121 107.29 37.1162 107.29C36.7204 107.29 36.7204 107.021 36.3235 107.021C35.9265 107.021 35.7422 106.692 35.4602 106.969C35.1826 107.241 35.7096 107.428 35.7096 107.818C35.7096 108.206 35.573 108.206 35.573 108.597C35.573 108.986 35.2715 108.986 35.2715 109.377C35.2715 109.767 35.3593 109.767 35.3593 110.156C35.3593 110.544 35.5795 110.544 35.5795 110.934C35.5795 111.323 35.6521 111.323 35.6521 111.713C35.6521 112.103 35.6305 112.103 35.6305 112.495C35.6305 112.885 35.714 112.885 35.714 113.276C35.714 113.665 35.7704 113.665 35.7704 114.057C35.7704 114.448 35.4222 114.448 35.4222 114.839C35.4222 115.231 35.3799 115.231 35.3799 115.621C35.3799 116.013 35.689 116.013 35.689 116.404C35.689 116.793 35.7953 116.793 35.7953 117.184C35.7953 117.575 35.3235 117.575 35.3235 117.967C35.3235 118.361 35.6196 118.361 35.6196 118.752C35.6196 119.146 35.6847 119.146 35.6847 119.54C35.6847 119.935 35.1717 120.129 35.4483 120.409C35.7237 120.686 35.92 120.387 36.3104 120.387C36.6998 120.387 36.6998 120.408 37.0891 120.408C37.4785 120.408 37.4785 120.195 37.8678 120.195C38.2571 120.195 38.2571 120.058 38.6465 120.058C39.0347 120.058 39.0347 120.152 39.4241 120.152C39.8134 120.152 39.8134 120.181 40.2027 120.181C40.591 120.181 40.591 120.512 40.9803 120.512C41.3697 120.512 41.3697 120.445 41.759 120.445C42.1483 120.445 42.1483 120.349 42.5377 120.349C42.927 120.349 42.927 120.495 43.3174 120.495C43.7068 120.495 43.7068 120.485 44.0961 120.485C44.4876 120.485 44.4876 120.48 44.878 120.48C45.2685 120.48 45.2685 120.089 45.6611 120.089C46.0515 120.089 46.0515 120.228 46.443 120.228C46.8367 120.228 46.8367 120.295 47.2282 120.295C47.6186 120.295 47.6186 120.596 48.0112 120.596C48.4016 120.596 48.4016 120.41 48.792 120.41C49.1835 120.41 49.1835 120.346 49.574 120.346C49.9644 120.346 49.9644 120.446 50.3548 120.446C50.7452 120.446 50.7452 120.189 51.1357 120.189C51.5261 120.189 51.5261 120.456 51.9165 120.456C52.308 120.456 52.308 120.489 52.6984 120.489C53.0889 120.489 53.0889 120.202 53.4814 120.202C53.8729 120.202 53.8729 120.252 54.2645 120.252C54.657 120.252 54.657 120.474 55.0496 120.474C55.4411 120.474 55.4411 120.489 55.8337 120.489C56.2252 120.489 56.2252 120.132 56.6168 120.132C57.0083 120.132 57.0083 120.22 57.3998 120.22C57.7902 120.22 57.7902 120.476 58.1828 120.476C58.5732 120.476 58.5732 120.528 58.9647 120.528C59.3584 120.528 59.3584 120.169 59.7499 120.169C60.1425 120.169 60.1425 120.579 60.5362 120.579C60.9277 120.579 60.9277 120.4 61.3192 120.4C61.7118 120.4 61.7118 120.496 62.1033 120.496C62.4948 120.496 62.4948 120.507 62.8874 120.507C63.2767 120.507 63.2767 120.182 63.665 120.182C64.0554 120.182 64.0554 120.361 64.4447 120.361C64.8351 120.361 64.8351 120.415 65.2267 120.415C65.6182 120.415 65.6182 120.568 66.0097 120.568C66.4044 120.568 66.4044 120.375 66.797 120.375C67.1885 120.375 67.1885 120.353 67.5811 120.353C67.9726 120.353 67.9726 120.277 68.3641 120.277C68.7567 120.277 68.7567 120.1 69.1482 120.1C69.5419 120.1 69.5419 120.561 69.9367 120.561C70.3293 120.561 70.3293 120.126 70.7219 120.126C71.1144 120.126 71.1144 120.109 71.5092 120.109C71.9029 120.109 71.9029 120.328 72.2966 120.328C72.6913 120.328 72.6913 120.513 73.085 120.513C73.4776 120.513 73.4776 120.259 73.8713 120.259C74.2649 120.259 74.2649 120.238 74.6564 120.238C75.0512 120.238 75.0512 120.57 75.447 120.57C75.8418 120.57 75.8418 120.078 76.2377 120.078C76.6335 120.078 76.6335 120.242 77.0315 120.242C77.4274 120.242 77.5792 120.646 77.8622 120.368C78.1399 120.097 77.6464 119.94 77.6464 119.552C77.6464 119.164 77.6649 119.164 77.6649 118.773C77.6649 118.383 78.065 118.383 78.065 117.993C78.065 117.602 77.7733 117.602 77.7733 117.214C77.7733 116.826 78.0076 116.826 78.0076 116.436C78.0076 116.047 78.0585 116.047 78.0585 115.656C78.0585 115.266 77.8189 115.266 77.8189 114.875C77.8189 114.483 77.9306 114.483 77.9306 114.094C77.9306 113.704 77.9902 113.704 77.9902 113.313C77.9902 112.921 78.0846 112.921 78.0846 112.531C78.0846 112.139 77.9891 112.139 77.9891 111.748C77.9891 111.358 77.8384 111.358 77.8384 110.966C77.8384 110.577 77.834 110.577 77.834 110.186C77.834 109.794 77.8774 109.794 77.8774 109.403C77.8774 109.009 77.6757 109.009 77.6757 108.616C77.6757 108.222 77.7061 108.205 77.7983 107.823C77.9024 107.389 78.1475 107.275 77.8698 106.995Z" fill="#FFCA00"/>
</g>
<path fill-rule="evenodd" clip-rule="evenodd" d="M40.2604 18.3888C39.9622 18.1686 40.1292 18.1784 40.0695 17.8117C40.011 17.445 40.165 17.4189 40.1053 17.0533C40.0467 16.6877 40.0999 16.679 40.0402 16.3134C39.9806 15.9456 39.806 15.9738 39.7463 15.6071C39.6867 15.2383 39.7659 15.2253 39.7062 14.8564C39.6466 14.4875 39.5815 14.4984 39.5208 14.1284C39.4622 13.7596 39.6021 13.6391 39.3364 13.3744C39.0718 13.1097 38.8983 13.5751 38.5284 13.5144C38.1575 13.4536 38.2042 13.1607 37.8344 13.0999C37.4624 13.0392 37.4309 13.241 37.06 13.1802C36.6891 13.1205 36.6859 13.139 36.315 13.0782C35.9451 13.0196 35.9777 12.8189 35.6079 12.7604C35.2359 12.6996 35.2023 12.9057 34.8303 12.8461C34.4572 12.7853 34.4843 12.628 34.1112 12.5683C33.7371 12.5076 33.774 12.2862 33.3998 12.2244C33.0267 12.1647 32.9074 12.5672 32.6406 12.2993C32.3728 12.0324 32.5344 11.951 32.4736 11.5778C32.414 11.2046 32.2979 11.2241 32.2383 10.8509C32.1786 10.4777 32.5203 10.4224 32.4606 10.0492C32.3999 9.67597 32.4541 9.66729 32.3934 9.29299C32.3326 8.9187 32.1711 8.94582 32.1114 8.57153C32.0518 8.19832 31.7622 8.24498 31.7025 7.87285C31.6429 7.49964 31.991 7.44323 31.9303 7.07002C31.8706 6.69681 31.5887 6.74238 31.5279 6.367C31.4683 5.99163 31.8251 5.93521 31.7633 5.55983C31.7025 5.18337 31.2091 5.26257 31.1494 4.88719C31.0887 4.51073 30.8545 4.25686 31.0681 3.94224C31.272 3.64389 31.6223 3.89233 31.978 3.83483C32.3326 3.77733 32.3608 3.952 32.7166 3.8945C33.0723 3.837 33.0669 3.80229 33.4237 3.74479C33.7815 3.68729 33.8163 3.89884 34.1731 3.84134C34.532 3.78276 34.5331 3.78927 34.891 3.73177C35.2489 3.67427 35.2858 3.17738 35.5786 3.39436C35.8768 3.6146 35.7033 3.75672 35.7619 4.12233C35.8204 4.48795 35.7326 4.50205 35.7922 4.86766C35.8508 5.23328 36.0644 5.19856 36.123 5.56417C36.1816 5.93087 35.9798 5.96342 36.0373 6.33012C36.097 6.6979 36.1978 6.68163 36.2575 7.04941C36.316 7.41828 35.9831 7.47144 36.0417 7.84031C36.1013 8.20917 36.0276 8.38493 36.2922 8.64856C36.5568 8.91436 36.7813 8.53681 37.1511 8.59648C37.5231 8.65615 37.5025 8.77983 37.8745 8.8395C38.2454 8.89917 38.2855 8.6529 38.6564 8.71257C39.0251 8.77332 39.0045 8.91002 39.3743 8.96861C39.7431 9.02936 39.7138 9.21597 40.0836 9.27564C40.4556 9.33531 40.4936 9.10422 40.8655 9.16498C41.2364 9.22573 41.256 9.10856 41.628 9.16931C42.001 9.23115 42.0021 9.22573 42.3752 9.2854C42.7493 9.34615 42.6799 9.49587 42.9478 9.76384C43.2157 10.0318 43.0281 10.0166 43.0877 10.3909C43.1484 10.7641 43.5204 10.7034 43.5812 11.0766C43.6408 11.4498 43.3176 11.5019 43.3784 11.8751C43.4402 12.2494 43.7286 12.2027 43.7894 12.577C43.8501 12.9502 43.6516 12.9828 43.7124 13.356C43.772 13.7303 44.0128 13.6912 44.0735 14.0644C44.1343 14.4365 43.8989 14.4756 43.9596 14.8477C44.0204 15.222 44.2026 15.1938 44.2622 15.567C44.324 15.9424 43.8772 16.0151 43.938 16.3904C43.9987 16.7669 44.2948 16.7192 44.3555 17.0956C44.4173 17.471 44.6147 17.5263 44.4 17.8421C44.1982 18.1404 44.0334 17.7119 43.6777 17.7694C43.323 17.8269 43.3295 17.8659 42.9749 17.9234C42.6181 17.9809 42.6094 17.9299 42.2526 17.9885C41.8958 18.046 41.8937 18.0319 41.5358 18.0905C41.1779 18.148 41.2571 18.5212 40.9078 18.6188C40.6031 18.7035 40.5532 18.6037 40.2604 18.3888Z" fill="#FC4C27"/>
<path fill-rule="evenodd" clip-rule="evenodd" d="M79.5747 41.6363C79.2776 41.4334 79.4685 41.3618 79.4121 41.006C79.3546 40.6512 79.5726 40.6165 79.5151 40.2595C79.4576 39.9037 79.1659 39.9503 79.1073 39.5934C79.0509 39.2365 79.0618 39.2343 79.0043 38.8774C78.9457 38.5183 78.9848 38.5118 78.9262 38.1537C78.8687 37.7946 78.5542 37.6861 78.77 37.3943C78.9902 37.0949 79.155 37.1632 79.5216 37.1025C79.8882 37.0439 79.9272 37.2826 80.2927 37.224C80.6582 37.1643 80.6517 37.1242 81.0182 37.0656C81.3848 37.0048 81.3674 36.8996 81.7351 36.8399C82.1038 36.7803 82.1125 36.8367 82.4812 36.777C82.85 36.7184 82.8857 36.9408 83.2556 36.8801C83.6232 36.8215 83.6395 36.802 83.903 36.5372C84.1676 36.2725 84.0689 36.2367 84.1286 35.8668C84.1893 35.4957 83.9399 35.4556 84.0006 35.0835C84.0614 34.7124 84.3661 34.7623 84.4257 34.3913C84.4854 34.0203 84.159 33.9682 84.2186 33.5971C84.2783 33.2272 84.2414 33.2207 84.301 32.8507C84.3618 32.4797 84.3672 32.4797 84.4279 32.1076C84.4876 31.7354 84.6285 31.7582 84.6893 31.3861C84.7489 31.0118 84.8042 31.0216 84.865 30.6473C84.9257 30.2741 84.9376 30.3327 85.2055 30.0658C85.4723 29.7978 85.3996 29.6958 85.7738 29.6351C86.1469 29.5754 86.1707 29.7262 86.5427 29.6665C86.9158 29.6058 86.8854 29.4203 87.2585 29.3606C87.6326 29.2998 87.6825 29.6058 88.0556 29.545C88.4287 29.4853 88.3864 29.2206 88.7594 29.161C89.1325 29.1002 89.1434 29.1729 89.5175 29.1121C89.8895 29.0514 89.9047 29.1458 90.2767 29.0872C90.6519 29.0253 90.6161 28.8073 90.9903 28.7465C91.3655 28.6858 91.3948 28.8691 91.77 28.8095C92.1464 28.7487 92.1106 28.5274 92.4858 28.4666C92.8621 28.407 92.9543 28.3777 93.2688 28.5936C93.566 28.7953 93.3469 28.9353 93.4044 29.2901C93.4619 29.6459 93.6592 29.6134 93.7167 29.9692C93.7753 30.3251 93.7503 30.3294 93.8078 30.6863C93.8664 31.0444 93.7124 31.0693 93.7699 31.4262C93.8284 31.7853 93.746 31.7984 93.8035 32.1575C93.862 32.5155 94.246 32.6186 94.0312 32.9115C93.8111 33.2098 93.5801 32.7824 93.2135 32.842C92.848 32.9006 92.8795 33.0905 92.514 33.1502C92.1485 33.2087 92.1333 33.1144 91.7679 33.1729C91.4002 33.2326 91.4425 33.4897 91.0749 33.5494C90.7083 33.6091 90.705 33.5906 90.3374 33.6503C89.9687 33.7089 89.9589 33.6514 89.5902 33.71C89.2225 33.7707 89.0132 33.3476 88.7497 33.6123C88.4851 33.8781 88.5545 34.03 88.4948 34.4C88.4341 34.7721 88.7475 34.8231 88.6868 35.1941C88.6271 35.5641 88.4406 35.5348 88.3799 35.9058C88.3191 36.2758 88.2053 36.2573 88.1445 36.6284C88.086 36.9983 88.4655 37.0591 88.4059 37.429C88.3452 37.8011 88.2204 37.7805 88.1608 38.1527C88.099 38.5248 88.1109 38.527 88.0502 38.9002C87.9905 39.2723 87.6912 39.2235 87.6315 39.5978C87.5708 39.971 87.907 40.0068 87.6402 40.2747C87.3713 40.5416 87.406 40.6382 87.0318 40.6989C86.6587 40.7586 86.5861 40.3051 86.213 40.3659C85.8399 40.4266 85.8985 40.7911 85.5254 40.8508C85.1524 40.9116 85.1133 40.6783 84.7403 40.7402C84.3661 40.7998 84.4138 41.0884 84.0397 41.1503C83.6666 41.2099 83.6742 41.2598 83.3022 41.3206C82.9291 41.3813 82.9378 41.4302 82.5647 41.4898C82.1895 41.5517 82.1732 41.4453 81.798 41.5061C81.4227 41.5679 81.4336 41.6309 81.0584 41.6916C80.682 41.7524 80.5703 41.288 80.2081 41.4074C79.8578 41.5235 79.8903 41.85 79.5747 41.6363Z" fill="#09B8DB"/>
<path fill-rule="evenodd" clip-rule="evenodd" d="M74.3695 3.57418C74.3695 3.31272 74.3467 3.11093 74.2903 2.86791C74.2328 2.61513 74.2025 2.40682 74.0919 2.17899C73.9812 1.94791 74.1407 1.55083 73.9823 1.35121C73.8229 1.15267 73.4271 1.18522 73.2275 1.02574C73.0301 0.868428 72.9379 0.549465 72.7069 0.43772C72.4803 0.32923 72.2558 0.0959748 72.0031 0.0384748C71.7602 -0.0168554 71.4576 0.00375779 71.1973 0.00375779C70.937 0.00375779 70.718 0.347673 70.4729 0.403003C70.2212 0.460503 69.987 0.477862 69.7603 0.588522C69.5282 0.700267 69.1053 0.544041 68.9079 0.703522C68.7084 0.861918 68.5153 1.10819 68.3559 1.30673C68.1976 1.50635 68.3516 1.9197 68.2409 2.15079C68.1314 2.37645 67.677 2.50555 67.6195 2.75725C67.5653 3.00135 67.6032 3.3138 67.6032 3.57418C67.6032 3.83456 67.7399 4.10687 67.7952 4.35097C67.8527 4.60267 67.8429 4.9097 67.9535 5.13753C68.0652 5.36862 68.3147 5.54871 68.473 5.74833C68.6324 5.94796 68.7637 6.2181 68.9643 6.37649C69.1617 6.53489 69.4675 6.57612 69.6985 6.68678C69.9263 6.79635 70.2082 6.7497 70.4598 6.80612C70.7039 6.86145 70.937 6.92546 71.1973 6.92546C71.4576 6.92546 71.72 6.9873 71.9641 6.93197C72.2157 6.87447 72.566 6.99597 72.7926 6.8864C73.0247 6.77465 73.003 6.2463 73.2015 6.08682C73.401 5.92843 73.8652 6.02824 74.0246 5.82862C74.183 5.63116 74.2404 5.32414 74.3511 5.09305C74.4606 4.86522 74.2632 4.53975 74.3207 4.28697C74.3771 4.04395 74.3695 3.83456 74.3695 3.57418Z" fill="#6950C3"/>
<path fill-rule="evenodd" clip-rule="evenodd" d="M31.3356 39.6528C31.3356 39.3913 31.2109 39.1331 31.1545 38.889C31.097 38.6362 30.8356 38.4756 30.7261 38.2478C30.6155 38.0167 30.4799 37.8496 30.3205 37.65C30.1611 37.4515 29.993 37.3245 29.7934 37.1662C29.596 37.0078 29.5342 36.6682 29.3021 36.5564C29.0755 36.4469 28.7978 36.4968 28.5462 36.4393C28.3022 36.3828 28.0734 36.27 27.8131 36.27C27.5517 36.27 27.3424 36.4718 27.0995 36.5271C26.8468 36.5857 26.5063 36.359 26.2796 36.4686C26.0486 36.5803 25.8003 36.7213 25.6018 36.8797C25.4023 37.0392 25.2255 37.2627 25.0661 37.4612C24.9077 37.6598 24.6756 37.8572 24.565 38.0883C24.4544 38.3151 24.3687 38.6004 24.3112 38.8532C24.2559 39.0962 24.1865 39.3913 24.1865 39.6528C24.1865 39.9131 24.5759 40.1345 24.6301 40.3796C24.6876 40.6313 24.6572 40.8939 24.7657 41.1206C24.8774 41.3506 24.8567 41.6859 25.0151 41.8855C25.1745 42.084 25.5107 42.1307 25.7103 42.2912C25.9087 42.4486 26.0606 42.7013 26.2916 42.812C26.5193 42.9227 26.8175 42.8521 27.0691 42.9096C27.3132 42.965 27.5517 42.8901 27.8131 42.8901C28.0734 42.8901 28.2892 42.8641 28.5332 42.8087C28.7848 42.7512 29.1058 42.9194 29.3325 42.8087C29.5635 42.6981 29.6796 42.3997 29.8769 42.2413C30.0765 42.0819 30.2435 41.917 30.4029 41.7173C30.5602 41.5199 30.5472 41.2541 30.6589 41.023C30.7684 40.7962 31.0081 40.6465 31.0656 40.3959C31.1209 40.1507 31.3356 39.9131 31.3356 39.6528Z" fill="#196CF2"/>
<path fill-rule="evenodd" clip-rule="evenodd" d="M62.1538 66.82C62.1538 66.5488 62.079 66.2667 62.041 66.0053C62.002 65.7384 62.0194 65.44 61.9456 65.1851C61.8686 64.9269 61.835 64.6209 61.7244 64.379C61.6127 64.1338 61.3491 63.9439 61.2049 63.7205C61.0596 63.4948 60.9001 63.2583 60.7255 63.0554C60.5499 62.8547 60.3818 62.6128 60.18 62.437C59.9783 62.2623 59.7755 62.0389 59.5499 61.8935C59.3265 61.7492 59.0359 61.6591 58.7908 61.5485C58.55 61.4378 58.2615 61.3847 58.0034 61.3098C57.7486 61.2349 57.4449 61.351 57.177 61.313C56.9157 61.2762 56.6565 61.428 56.3853 61.428C56.1131 61.428 55.8236 61.0679 55.5622 61.1058C55.2943 61.1449 55.0438 61.3185 54.79 61.3933C54.5319 61.4693 54.3226 61.6678 54.0819 61.7785C53.8368 61.8902 53.6296 62.0421 53.4062 62.1864C53.1806 62.3307 53.006 62.514 52.8043 62.6887C52.6026 62.8645 52.4996 63.0999 52.3239 63.3017C52.1482 63.5035 51.6309 63.4471 51.4855 63.6716C51.3413 63.8962 51.6309 64.354 51.5192 64.5981C51.4085 64.8401 51.2361 65.0267 51.1602 65.2849C51.0854 65.5388 50.8175 65.746 50.7795 66.0139C50.7427 66.2754 50.7036 66.5488 50.7036 66.82C50.7036 67.0923 51.0517 67.3223 51.0897 67.5838C51.1277 67.8518 50.9574 68.1404 51.0311 68.3942C51.107 68.6524 51.0951 68.9464 51.2057 69.1884C51.3174 69.4325 51.7274 69.4997 51.8716 69.7243C52.0159 69.9489 51.9031 70.3547 52.0777 70.5554C52.2534 70.7582 52.5006 70.8982 52.7024 71.0729C52.9052 71.2475 53.0104 71.5784 53.2359 71.7238C53.4593 71.867 53.8248 71.7802 54.0699 71.893C54.3118 72.0026 54.4766 72.3639 54.7347 72.4409C54.9896 72.5147 55.2867 72.5624 55.5535 72.6004C55.8149 72.6373 56.1131 72.416 56.3853 72.416C56.6576 72.416 56.9406 72.5364 57.2031 72.4984C57.4699 72.4605 57.7648 72.455 58.0186 72.3813C58.2778 72.3053 58.3808 71.8312 58.6238 71.7205C58.8678 71.6088 59.1682 71.6435 59.3927 71.4992C59.6183 71.3549 59.9718 71.3669 60.1735 71.1911C60.3752 71.0164 60.4544 70.6997 60.629 70.4979C60.8036 70.2961 61.1073 70.1746 61.2526 69.9489C61.3969 69.7254 61.4478 69.4281 61.5584 69.184C61.6691 68.9421 61.5736 68.6253 61.6485 68.3671C61.7233 68.1122 62.0313 67.906 62.0692 67.638C62.1061 67.3777 62.1538 67.0923 62.1538 66.82Z" fill="#FF9200"/>
<path fill-rule="evenodd" clip-rule="evenodd" d="M67.7669 83.1592C67.6964 82.9119 67.627 82.7372 67.5403 82.4985C67.4546 82.2577 67.2561 82.0656 67.1553 81.8313C67.0533 81.5981 66.9514 81.3713 66.8353 81.1446C66.7182 80.9178 66.818 80.5685 66.6878 80.3493C66.5566 80.1302 66.2779 80.0022 66.1336 79.7917C65.9883 79.5812 65.7443 79.451 65.586 79.2503C65.4287 79.0507 65.3756 78.7675 65.2053 78.5766C65.034 78.3878 65.0155 78.0428 64.8333 77.8638C64.65 77.6848 64.3019 77.6783 64.1078 77.5123C63.9137 77.3463 63.6783 77.2356 63.4744 77.0816C63.2706 76.9286 63.0894 76.7496 62.8758 76.6086C62.6632 76.4686 62.5819 76.1008 62.3596 75.975C62.1383 75.8491 61.8433 75.835 61.6134 75.7233C61.3835 75.6126 61.1688 75.4456 60.9313 75.349C60.6959 75.2524 60.453 75.1396 60.2101 75.0582C59.9704 74.978 59.7253 74.8532 59.4769 74.787C59.2318 74.723 58.8859 75.0832 58.6332 75.0344C58.3848 74.9856 58.1799 74.6655 57.9261 74.633C57.6734 74.6004 57.3936 74.8857 57.1366 74.8684C56.8839 74.8532 56.642 74.8554 56.385 74.8554C56.128 74.8554 55.8699 74.6156 55.6172 74.633C55.3612 74.6481 55.1292 74.8608 54.8765 74.8923C54.6227 74.9248 54.3559 74.8391 54.1065 74.8879C53.8549 74.9378 53.613 75.0148 53.3679 75.0799C53.1196 75.145 52.9374 75.3913 52.6966 75.4716C52.4537 75.553 52.0708 75.2514 51.8366 75.3479C51.5991 75.4456 51.3583 75.5595 51.1295 75.6723C50.8985 75.783 50.828 76.1952 50.6068 76.3211C50.3844 76.448 50.0569 76.3959 49.8444 76.537C49.6296 76.6758 49.4756 76.9004 49.2717 77.0556C49.0689 77.2096 48.8813 77.3789 48.6883 77.5448C48.4941 77.7119 48.338 77.9126 48.1558 78.0906C47.9736 78.2696 47.8228 78.4692 47.6526 78.659C47.4823 78.8489 47.1342 78.888 46.9758 79.0898C46.8186 79.2905 46.8815 79.6528 46.7362 79.8633C46.5919 80.0727 46.2405 80.1486 46.1093 80.3678C45.9781 80.5869 45.9998 80.8907 45.8816 81.1185C45.7655 81.3453 45.7015 81.5915 45.6007 81.8259C45.4987 82.0591 45.4716 82.3141 45.3849 82.5549C45.2992 82.7947 45.014 83.0876 44.9424 83.3328C45.3133 83.4608 45.374 83.4825 45.7655 83.4825C46.157 83.4825 46.157 83.1614 46.5507 83.1614C46.9422 83.1614 46.9422 83.4467 47.3337 83.4467C47.7263 83.4467 47.7263 82.9813 48.1178 82.9813C48.5093 82.9813 48.5093 82.9694 48.9019 82.9694C49.2956 82.9694 49.2956 83.2601 49.6871 83.2601C50.0808 83.2601 50.0808 83.3947 50.4745 83.3947C50.867 83.3947 50.867 82.9629 51.2596 82.9629C51.6522 82.9629 51.6522 83.1397 52.0448 83.1397C52.4374 83.1397 52.4374 83.3046 52.83 83.3046C53.2193 83.3046 53.2193 83.2026 53.6087 83.2026C54.0002 83.2026 54.0002 83.1462 54.3895 83.1462H55.1725C55.5651 83.1462 55.5651 82.9726 55.9577 82.9726C56.3525 82.9726 56.3525 83.4185 56.7451 83.4185C57.1377 83.4185 57.1377 83.2656 57.5313 83.2656C57.9228 83.2656 57.9228 83.3686 58.3144 83.3686C58.7069 83.3686 58.7069 83.2797 59.1006 83.2797C59.4954 83.2797 59.4954 83.4608 59.8891 83.4608C60.2838 83.4608 60.2838 83.2775 60.6764 83.2775C61.0701 83.2775 61.0701 83.1191 61.4638 83.1191C61.8596 83.1191 61.8596 83.2352 62.2544 83.2352C62.648 83.2352 62.648 83.1874 63.0428 83.1874C63.4365 83.1874 63.4365 83.45 63.8302 83.45C64.2238 83.45 64.2238 83.2265 64.6175 83.2265C65.0134 83.2265 65.0134 82.9759 65.4081 82.9759C65.804 82.9759 65.804 83.3523 66.2009 83.3523C66.5978 83.3523 66.5848 83.4532 66.9806 83.4749C67.3743 83.4966 67.3906 83.2873 67.7669 83.1592Z" fill="#FF9200"/>
<path fill-rule="evenodd" clip-rule="evenodd" d="M73.0453 23.4063L72.8132 23.6482L73.0117 23.8034C72.7633 23.9021 72.489 23.9162 72.2515 24.029C72.0107 24.144 71.629 23.9965 71.398 24.1256C71.167 24.2558 71.1355 24.7212 70.9143 24.8666C70.6919 25.0109 70.3568 24.9914 70.1453 25.1508C69.9339 25.3125 69.6964 25.4492 69.4968 25.6239C69.2973 25.7974 69.1758 26.0622 68.9882 26.2498C68.8006 26.4375 68.5001 26.5254 68.3245 26.7261C68.1509 26.9257 68.3049 27.3879 68.1433 27.5995C67.9839 27.811 67.638 27.8805 67.4926 28.1018C67.3473 28.3231 67.2888 28.5943 67.1586 28.8254C67.0296 29.0565 67.048 29.3505 66.933 29.5914C66.8202 29.83 66.6803 30.0416 66.5827 30.289C66.5827 30.29 66.3875 30.1349 66.3875 30.1349L66.5188 30.1609C66.4222 29.9125 66.2563 29.6879 66.1424 29.4482C66.0286 29.2084 65.9863 28.9209 65.8572 28.6909C65.7271 28.4587 65.4668 28.2982 65.3215 28.0768C65.1761 27.8555 65.1772 27.5181 65.0178 27.3065C64.8573 27.095 64.5157 27.0201 64.3421 26.8205C64.1665 26.6209 63.9365 26.4755 63.7489 26.2878C63.5613 26.1001 63.4811 25.7964 63.2804 25.6217C63.0809 25.4481 62.9041 25.23 62.6926 25.0684C62.4822 24.9089 62.2089 24.8221 61.9866 24.6757C61.7654 24.5303 61.376 24.6702 61.1439 24.54C60.914 24.4109 60.8934 23.875 60.6537 23.76C60.4151 23.6472 60.0757 23.7426 59.8273 23.645L59.5801 23.6482L59.8978 23.8294C60.1451 23.7318 60.3479 23.5094 60.5876 23.3955C60.8262 23.2815 61.0539 23.134 61.2838 23.0049C61.5159 22.8747 61.7632 22.7608 61.9844 22.6154C62.2068 22.4711 62.4291 22.316 62.6395 22.1565C62.852 21.9959 62.9724 21.7225 63.172 21.549C63.3715 21.3743 63.5602 21.1931 63.7478 21.0054C63.9355 20.8177 64.1383 20.6496 64.3129 20.4489C64.4864 20.2503 64.7326 20.106 64.8931 19.8945C65.0536 19.6829 65.3638 19.5647 65.5102 19.3423C65.6555 19.1209 65.5752 18.7521 65.7054 18.5199C65.8355 18.2888 66.1186 18.1315 66.2335 17.8907C66.3463 17.652 66.3084 17.3384 66.406 17.0911L66.3875 17.0932L66.637 16.9858C66.7357 17.2343 66.7422 17.5044 66.856 17.742C66.9688 17.9829 66.8528 18.3398 66.9829 18.5709C67.1131 18.802 67.1564 19.0982 67.3018 19.3195C67.4482 19.5419 67.6076 19.7719 67.7681 19.9834C67.9286 20.1939 68.4492 20.1125 68.6227 20.3111C68.7973 20.5118 68.8992 20.7613 69.0869 20.949C69.2734 21.1367 69.217 21.5913 69.4166 21.7659C69.6161 21.9395 70.0542 21.8278 70.2657 21.9873C70.4761 22.1478 70.5401 22.5178 70.7635 22.6621C70.9837 22.8074 71.2147 22.9572 71.4457 23.0873C71.6756 23.2165 72.0215 23.1318 72.2612 23.2468C72.4998 23.3597 72.797 23.3087 73.0453 23.4063Z" fill="#FFCA00"/>
<path fill-rule="evenodd" clip-rule="evenodd" d="M54.2275 38.9144L54.4498 38.7441L54.2774 38.6975C54.0356 38.7929 53.7048 38.7257 53.477 38.845C53.2471 38.9644 53.246 39.4797 53.0302 39.6207C52.8133 39.7628 52.3784 39.6044 52.1778 39.7672C51.9782 39.931 52.0596 40.404 51.8774 40.5863C51.6941 40.7686 51.4902 40.9063 51.3265 41.107C51.1649 41.3067 50.795 41.3533 50.653 41.5692C50.5109 41.7851 50.2691 41.963 50.1487 42.1919C50.0316 42.4209 49.9209 42.6812 49.8266 42.9221L50.0359 42.9915L50.1953 42.9427C50.0999 42.7008 49.7593 42.5673 49.6411 42.3384C49.5208 42.1084 49.6259 41.7417 49.485 41.5258C49.3429 41.3099 49.0978 41.1526 48.934 40.9519C48.7714 40.7512 48.3419 40.8033 48.1597 40.6199C47.9775 40.4377 47.92 40.1436 47.7183 39.9798C47.5188 39.8182 47.5101 39.3777 47.2932 39.2356C47.0784 39.0945 46.688 39.228 46.4581 39.1086C46.2304 38.9904 46.1078 38.6118 45.866 38.5163L45.5938 38.7441L45.79 38.7799C46.0308 38.6844 46.162 38.3677 46.3909 38.2505C46.6208 38.1301 47.0351 38.3286 47.2509 38.1876C47.4678 38.0454 47.5741 37.7384 47.7747 37.5768C47.9742 37.4129 48.1651 37.2372 48.3473 37.0549C48.5306 36.8727 48.7464 36.7164 48.9102 36.5157C49.0718 36.315 48.9991 35.9527 49.1412 35.7357C49.2811 35.5209 49.3874 35.3104 49.5067 35.0804C49.6249 34.8515 50.0326 34.7614 50.1281 34.5195L50.0359 34.2754L49.9979 34.4989C50.0923 34.7386 50.4014 34.8743 50.5196 35.1032C50.6389 35.3332 50.6497 35.6131 50.7907 35.8279C50.9328 36.0438 50.9382 36.3649 51.1009 36.5656C51.2646 36.7663 51.719 36.6958 51.9002 36.8781C52.0834 37.0614 52.0672 37.4498 52.2667 37.6136C52.4663 37.7753 52.8426 37.682 53.0584 37.8241C53.2742 37.9652 53.3534 38.3177 53.5833 38.4371C53.8121 38.5553 53.9867 38.8201 54.2275 38.9144Z" fill="#FF9200"/>
<path fill-rule="evenodd" clip-rule="evenodd" d="M21.01 120.447C20.7951 120.679 20.5716 120.406 20.266 120.406C19.9604 120.406 19.9604 120.321 19.6548 120.321C19.3492 120.321 19.3492 120.234 19.0436 120.234C18.7388 120.234 18.7388 120.236 18.4332 120.236C18.1276 120.236 18.1276 120.524 17.822 120.524C17.5189 120.524 17.5189 120.49 17.2159 120.49C16.9128 120.49 16.9128 120.192 16.6089 120.192C16.305 120.192 16.305 120.148 16.0003 120.148C15.6955 120.148 15.6955 120.484 15.3899 120.484C15.0834 120.484 15.0834 120.148 14.7769 120.148C14.4713 120.148 14.4713 120.223 14.1666 120.223C13.8609 120.223 13.8609 120.47 13.5562 120.47C13.2506 120.47 13.2506 120.196 12.9458 120.196C12.6385 120.196 12.6385 120.215 12.332 120.215C12.0255 120.215 12.0255 120.265 11.7191 120.265C11.4134 120.265 11.4134 120.121 11.107 120.121C10.7996 120.121 10.7996 120.231 10.4923 120.231C10.1858 120.231 10.1858 120.254 9.87937 120.254C9.5729 120.254 9.5729 120.179 9.26643 120.179C8.95996 120.179 8.95996 120.088 8.65434 120.088C8.34701 120.088 8.34701 120.107 8.03968 120.107C7.7315 120.107 7.7315 120.161 7.42332 120.161C7.11428 120.161 7.11428 120.236 6.80524 120.236C6.4962 120.236 6.38919 120.559 6.17003 120.325C5.95259 120.094 6.19828 119.978 6.19828 119.65C6.19828 119.321 6.23595 119.321 6.23595 118.993C6.23595 118.665 6.27019 118.665 6.27019 118.337C6.27019 118.008 6.20171 118.008 6.20171 117.678C6.20171 117.35 5.97656 117.35 5.97656 117.02C5.97656 116.688 6.17603 116.688 6.17603 116.358C6.17603 116.027 5.94318 115.903 6.16062 115.667C6.37549 115.434 6.49277 115.634 6.79839 115.634C7.10486 115.634 7.10486 115.49 7.41047 115.49C7.71609 115.49 7.71609 115.823 8.02171 115.823C8.32647 115.823 8.32647 115.826 8.63208 115.826C8.93684 115.826 8.93684 115.706 9.24246 115.706C9.54551 115.706 9.54551 115.882 9.84855 115.882C10.1525 115.882 10.1525 115.483 10.4555 115.483C10.7603 115.483 10.7603 115.521 11.0642 115.521C11.3698 115.521 11.3698 115.528 11.6754 115.528C11.9819 115.528 11.9819 115.756 12.2883 115.756C12.5931 115.756 12.5931 115.907 12.8987 115.907C13.2035 115.907 13.2035 115.851 13.5091 115.851C13.8139 115.851 13.8139 115.706 14.1195 115.706C14.4268 115.706 14.4268 115.602 14.7333 115.602C15.0397 115.602 15.0397 115.564 15.3454 115.564C15.6518 115.564 15.6518 115.515 15.9583 115.515C16.2656 115.515 16.2656 115.923 16.5721 115.923C16.8794 115.923 16.8794 115.835 17.1859 115.835C17.4924 115.835 17.4924 115.536 17.7988 115.536C18.1045 115.536 18.1045 115.841 18.4109 115.841C18.7183 115.841 18.7183 115.886 19.0256 115.886C19.3338 115.886 19.3338 115.762 19.642 115.762C19.951 115.762 19.951 115.68 20.26 115.68C20.5682 115.68 20.5348 115.596 20.754 115.828C20.9723 116.06 20.837 116.024 20.837 116.353C20.837 116.681 20.9877 116.681 20.9877 117.01C20.9877 117.337 21.0827 117.337 21.0827 117.665C21.0827 117.994 20.9124 117.994 20.9124 118.324C20.9124 118.653 21.0211 118.653 21.0211 118.983C21.0211 119.314 20.9398 119.278 21.0305 119.595C21.1486 120.01 21.2274 120.211 21.01 120.447Z" fill="#FFCA00"/>
<path fill-rule="evenodd" clip-rule="evenodd" d="M17.7085 120.343C17.4877 120.571 17.3603 120.381 17.0415 120.381C16.7209 120.381 16.7209 120.54 16.4012 120.54C16.0805 120.54 16.0805 120.339 15.7599 120.339C15.4374 120.339 15.4374 120.279 15.1158 120.279C14.7942 120.279 14.7026 120.539 14.4773 120.31C14.2482 120.075 14.4617 119.987 14.4617 119.658C14.4617 119.331 14.4296 119.331 14.4296 119.003C14.4296 118.675 14.4818 118.675 14.4818 118.349C14.4818 118.019 14.251 118.019 14.251 117.691C14.251 117.361 14.5735 117.361 14.5735 117.032C14.5735 116.701 14.6715 116.701 14.6715 116.371C14.6715 116.041 14.1557 115.864 14.3847 115.626C14.6055 115.396 14.7915 115.552 15.1103 115.552C15.43 115.552 15.43 115.752 15.7507 115.752C16.0713 115.752 16.0713 115.609 16.392 115.609C16.7145 115.609 16.7145 115.746 17.036 115.746C17.3576 115.746 17.6169 115.321 17.8422 115.551C18.0713 115.785 17.7726 116.038 17.7726 116.366C17.7726 116.694 17.6352 116.694 17.6352 117.022C17.6352 117.349 17.7717 117.349 17.7717 117.676C17.7717 118.005 17.626 118.005 17.626 118.334C17.626 118.663 17.5921 118.663 17.5921 118.993C17.5921 119.323 17.8028 119.286 17.878 119.608C17.9613 119.967 17.9375 120.105 17.7085 120.343Z" fill="white"/>
<path fill-rule="evenodd" clip-rule="evenodd" d="M20.8713 115.114C20.6548 115.347 20.6876 115.157 20.3797 115.157C20.0719 115.157 20.0719 115.431 19.7631 115.431C19.4561 115.431 19.4561 115.247 19.1483 115.247C18.8413 115.247 18.8413 115.157 18.5334 115.157C18.2255 115.157 18.2255 115.102 17.9176 115.102C17.6124 115.102 17.6124 115.134 17.3071 115.134C17.0018 115.134 17.0018 115.091 16.6957 115.091C16.3895 115.091 16.3895 115.172 16.0825 115.172C15.7746 115.172 15.7746 115.11 15.4668 115.11C15.158 115.11 15.158 115.365 14.8502 115.365C14.5423 115.365 14.5423 115.08 14.2353 115.08C13.9274 115.08 13.9274 115.212 13.6204 115.212C13.3126 115.212 13.3126 115.336 13.0047 115.336C12.696 115.336 12.696 115.385 12.3872 115.385C12.0785 115.385 12.0785 115.342 11.7698 115.342C11.461 115.342 11.461 115.036 11.1532 115.036C10.8436 115.036 10.8436 115.106 10.534 115.106C10.2253 115.106 10.2253 115.397 9.91567 115.397C9.60694 115.397 9.60694 115.376 9.29907 115.376C8.99034 115.376 8.99034 115.127 8.68247 115.127C8.37202 115.127 8.37202 115.157 8.06243 115.157C7.75283 115.157 7.75283 115.077 7.44238 115.077C7.13106 115.077 7.13106 115.454 6.81974 115.454C6.50843 115.454 6.27645 115.629 6.05568 115.395C5.83664 115.165 6.14192 114.917 6.14192 114.588C6.14192 114.26 6.40839 114.26 6.40839 113.933C6.40839 113.606 5.9979 113.606 5.9979 113.278C5.9979 112.948 6.30836 112.948 6.30836 112.62C6.30836 112.29 6.40667 112.29 6.40667 111.961C6.40667 111.63 6.17296 111.63 6.17296 111.3C6.17296 110.969 6.07983 110.98 6.29887 110.746C6.51533 110.513 6.50498 110.462 6.81284 110.462C7.12157 110.462 7.12157 110.773 7.42944 110.773C7.73731 110.773 7.73731 110.467 8.04432 110.467C8.35218 110.467 8.35218 110.745 8.65919 110.745C8.96706 110.745 8.96706 110.553 9.27493 110.553C9.58021 110.553 9.58021 110.805 9.88549 110.805C10.1916 110.805 10.1916 110.862 10.4969 110.862C10.8039 110.862 10.8039 110.499 11.1101 110.499C11.4179 110.499 11.4179 110.576 11.7258 110.576C12.0337 110.576 12.0337 110.48 12.3424 110.48C12.6503 110.48 12.6503 110.705 12.9581 110.705C13.2651 110.705 13.2651 110.525 13.573 110.525C13.88 110.525 13.88 110.77 14.1879 110.77C14.4966 110.77 14.4966 110.652 14.8062 110.652C15.1149 110.652 15.1149 110.492 15.4228 110.492C15.7315 110.492 15.7315 110.555 16.0394 110.555C16.349 110.555 16.349 110.745 16.6586 110.745C16.9682 110.745 16.9682 110.817 17.2769 110.817C17.5856 110.817 17.5856 110.607 17.8944 110.607C18.2022 110.607 18.2022 110.467 18.511 110.467C18.8206 110.467 18.8206 110.621 19.1301 110.621C19.4406 110.621 19.4406 110.838 19.7511 110.838C20.0624 110.838 20.0624 110.61 20.3728 110.61C20.6841 110.61 20.8583 110.317 21.0791 110.549C21.2982 110.781 20.917 110.968 20.917 111.295C20.917 111.623 20.9101 111.623 20.9101 111.951C20.9101 112.278 21.1015 112.278 21.1015 112.605C21.1015 112.935 20.8532 112.935 20.8532 113.263C20.8532 113.593 20.917 113.593 20.917 113.922C20.917 114.253 21.0015 114.251 21.0334 114.58C21.0627 114.865 21.0903 114.879 20.8713 115.114Z" fill="#FFCA00"/>
<path fill-rule="evenodd" clip-rule="evenodd" d="M9.31098 111.839C9.0549 111.839 8.8933 111.806 8.76085 111.775C8.34847 111.768 8.07562 111.644 7.90784 111.534C7.74448 111.575 7.52549 111.56 7.29502 111.602C7.16963 111.624 7.02746 111.647 6.79611 111.647C6.72988 111.685 6.51442 111.768 6.16474 111.768C5.83361 111.768 5.62786 111.697 5.5166 111.659L5.53426 110.169C5.83891 110.169 6.03847 110.23 6.15503 110.269C6.29455 110.218 6.49588 110.156 6.79611 110.156C6.86057 110.156 6.87117 110.154 6.92592 110.145C7.05219 110.122 7.19436 110.1 7.42571 110.1C7.57936 110.051 7.76214 110 8.05531 110C8.47651 110 8.75467 110.166 8.90831 110.285C8.98955 110.292 9.05931 110.303 9.12112 110.314C9.29332 110.185 9.55646 110.048 9.93704 110.048C10.1781 110.048 10.2991 110.068 10.4201 110.087C10.4563 110.093 10.4925 110.1 10.5649 110.1C10.9004 110.1 11.1397 110.197 11.2943 110.285C11.4073 110.25 11.5839 110.212 11.8267 110.212C11.9327 110.212 11.9857 110.206 12.0387 110.201C12.1437 110.191 12.2479 110.18 12.4572 110.18C12.5588 110.144 12.7619 110.076 13.0859 110.076C13.4224 110.076 13.6387 110.156 13.7659 110.209C13.7818 110.208 13.7968 110.205 13.8268 110.199C13.9478 110.174 14.0837 110.151 14.2957 110.147C14.4396 110.086 14.6542 110.011 14.9809 110.011C15.3244 110.011 15.5522 110.1 15.6776 110.154C15.9302 110.161 16.0953 110.206 16.2304 110.247C16.3001 110.251 16.301 110.25 16.3522 110.24C16.4847 110.212 16.6339 110.186 16.8785 110.186C17.1284 110.186 17.2803 110.214 17.4154 110.243C17.4649 110.254 17.4649 110.254 17.5117 110.254C17.698 110.213 17.8587 110.178 18.0989 110.174C18.2419 110.118 18.4539 110.045 18.777 110.045C18.8689 110.045 18.9148 110.039 18.9607 110.034C19.0737 110.019 19.1868 110.004 19.4119 110.004C19.8014 110.004 20.0689 110.146 20.2305 110.263C20.3471 110.241 20.4848 110.224 20.687 110.224V111.714C20.6332 111.714 20.6296 111.715 20.5758 111.726C20.4433 111.753 20.2941 111.779 20.0495 111.779C19.6477 111.779 19.3757 111.627 19.215 111.508C19.1144 111.521 19.0093 111.534 18.8203 111.535C18.6764 111.592 18.4653 111.665 18.1421 111.665C17.9443 111.707 17.7766 111.744 17.5117 111.744C17.2618 111.744 17.1099 111.715 16.9748 111.686C16.8697 111.663 16.8732 111.666 16.7735 111.687C16.641 111.715 16.4909 111.741 16.2463 111.741C15.9566 111.741 15.7747 111.693 15.6282 111.648C15.32 111.645 15.1072 111.579 14.9747 111.525C14.8317 111.58 14.633 111.637 14.3495 111.637C14.2957 111.637 14.2921 111.637 14.2392 111.648C14.1076 111.675 13.9584 111.7 13.7164 111.7C13.3976 111.7 13.1875 111.629 13.0577 111.577C12.9482 111.615 12.753 111.671 12.4572 111.671C12.3512 111.671 12.2983 111.676 12.2453 111.681C12.1411 111.692 12.036 111.702 11.8267 111.702C11.734 111.739 11.5265 111.811 11.1945 111.811C10.8086 111.811 10.5499 111.681 10.4015 111.586C10.2929 111.581 10.2143 111.572 10.1437 111.56C9.97148 111.693 9.70304 111.839 9.31098 111.839Z" fill="#FF9200"/>
<path fill-rule="evenodd" clip-rule="evenodd" d="M9.31098 116.839C9.0549 116.839 8.8933 116.806 8.76085 116.775C8.34847 116.768 8.07562 116.644 7.90784 116.534C7.74448 116.575 7.52549 116.56 7.29502 116.602C7.16963 116.624 7.02746 116.647 6.79611 116.647C6.72988 116.685 6.51442 116.768 6.16474 116.768C5.83361 116.768 5.62786 116.697 5.5166 116.659L5.53426 115.169C5.83891 115.169 6.03847 115.23 6.15503 115.269C6.29455 115.218 6.49588 115.156 6.79611 115.156C6.86057 115.156 6.87117 115.154 6.92592 115.145C7.05219 115.122 7.19436 115.1 7.42571 115.1C7.57936 115.051 7.76214 115 8.05531 115C8.47651 115 8.75467 115.166 8.90831 115.285C8.98955 115.292 9.05931 115.303 9.12112 115.314C9.29332 115.185 9.55646 115.048 9.93704 115.048C10.1781 115.048 10.2991 115.068 10.4201 115.087C10.4563 115.093 10.4925 115.1 10.5649 115.1C10.9004 115.1 11.1397 115.197 11.2943 115.285C11.4073 115.25 11.5839 115.212 11.8267 115.212C11.9327 115.212 11.9857 115.206 12.0387 115.201C12.1437 115.191 12.2479 115.18 12.4572 115.18C12.5588 115.144 12.7619 115.076 13.0859 115.076C13.4224 115.076 13.6387 115.156 13.7659 115.209C13.7818 115.208 13.7968 115.205 13.8268 115.199C13.9478 115.174 14.0837 115.151 14.2957 115.147C14.4396 115.086 14.6542 115.011 14.9809 115.011C15.3244 115.011 15.5522 115.1 15.6776 115.154C15.9302 115.161 16.0953 115.206 16.2304 115.247C16.3001 115.251 16.301 115.25 16.3522 115.24C16.4847 115.212 16.6339 115.186 16.8785 115.186C17.1284 115.186 17.2803 115.214 17.4154 115.243C17.4649 115.254 17.4649 115.254 17.5117 115.254C17.698 115.213 17.8587 115.178 18.0989 115.174C18.2419 115.118 18.4539 115.045 18.777 115.045C18.8689 115.045 18.9148 115.039 18.9607 115.034C19.0737 115.019 19.1868 115.004 19.4119 115.004C19.8014 115.004 20.0689 115.146 20.2305 115.263C20.3471 115.241 20.4848 115.224 20.687 115.224V116.714C20.6332 116.714 20.6296 116.715 20.5758 116.726C20.4433 116.753 20.2941 116.779 20.0495 116.779C19.6477 116.779 19.3757 116.627 19.215 116.508C19.1144 116.521 19.0093 116.534 18.8203 116.535C18.6764 116.592 18.4653 116.665 18.1421 116.665C17.9443 116.707 17.7766 116.744 17.5117 116.744C17.2618 116.744 17.1099 116.715 16.9748 116.686C16.8697 116.663 16.8732 116.666 16.7735 116.687C16.641 116.715 16.4909 116.741 16.2463 116.741C15.9566 116.741 15.7747 116.693 15.6282 116.648C15.32 116.645 15.1072 116.579 14.9747 116.525C14.8317 116.58 14.633 116.637 14.3495 116.637C14.2957 116.637 14.2921 116.637 14.2392 116.648C14.1076 116.675 13.9584 116.7 13.7164 116.7C13.3976 116.7 13.1875 116.629 13.0577 116.577C12.9482 116.615 12.753 116.671 12.4572 116.671C12.3512 116.671 12.2983 116.676 12.2453 116.681C12.1411 116.692 12.036 116.702 11.8267 116.702C11.734 116.739 11.5265 116.811 11.1945 116.811C10.8086 116.811 10.5499 116.681 10.4015 116.586C10.2929 116.581 10.2143 116.572 10.1437 116.56C9.97148 116.693 9.70304 116.839 9.31098 116.839Z" fill="#FF9200"/>
<path fill-rule="evenodd" clip-rule="evenodd" d="M17.7887 114.836C17.5639 115.066 17.4183 114.795 17.0936 114.795C16.7671 114.795 16.7671 114.708 16.4405 114.708C16.114 114.708 16.114 114.653 15.7875 114.653C15.46 114.653 15.46 114.885 15.1325 114.885C14.805 114.885 14.5615 115.162 14.332 114.931C14.0978 114.696 14.4458 114.462 14.4458 114.132C14.4458 113.803 14.401 113.803 14.401 113.474C14.401 113.145 14.3572 113.145 14.3572 112.817C14.3572 112.486 14.2592 112.486 14.2592 112.156C14.2592 111.825 14.7052 111.825 14.7052 111.494C14.7052 111.162 14.4505 111.162 14.4505 110.83C14.4505 110.498 14.1491 110.315 14.3824 110.076C14.6072 109.847 14.8013 110.046 15.126 110.046C15.4525 110.046 15.4525 110.09 15.7781 110.09C16.1047 110.09 16.1047 109.98 16.4321 109.98C16.7596 109.98 16.7596 110.002 17.0871 110.002C17.4146 110.002 17.4426 110.004 17.6721 110.235C17.9053 110.47 17.6441 110.496 17.6441 110.826C17.6441 111.155 17.6366 111.155 17.6366 111.484C17.6366 111.812 17.5723 111.812 17.5723 112.141C17.5723 112.472 17.9287 112.472 17.9287 112.802C17.9287 113.133 17.52 113.133 17.52 113.464C17.52 113.796 17.6469 113.809 17.7262 114.132C17.8176 114.499 18.022 114.597 17.7887 114.836Z" fill="white"/>
<path fill-rule="evenodd" clip-rule="evenodd" d="M20.8713 109.563C20.6548 109.796 20.6876 109.606 20.3797 109.606C20.0719 109.606 20.0719 109.88 19.7631 109.88C19.4561 109.88 19.4561 109.696 19.1483 109.696C18.8413 109.696 18.8413 109.606 18.5334 109.606C18.2255 109.606 18.2255 109.551 17.9176 109.551C17.6124 109.551 17.6124 109.583 17.3071 109.583C17.0018 109.583 17.0018 109.54 16.6957 109.54C16.3895 109.54 16.3895 109.621 16.0825 109.621C15.7746 109.621 15.7746 109.559 15.4668 109.559C15.158 109.559 15.158 109.814 14.8502 109.814C14.5423 109.814 14.5423 109.529 14.2353 109.529C13.9274 109.529 13.9274 109.661 13.6204 109.661C13.3126 109.661 13.3126 109.785 13.0047 109.785C12.696 109.785 12.696 109.834 12.3872 109.834C12.0785 109.834 12.0785 109.791 11.7698 109.791C11.461 109.791 11.461 109.484 11.1532 109.484C10.8436 109.484 10.8436 109.555 10.534 109.555C10.2253 109.555 10.2253 109.846 9.91567 109.846C9.60694 109.846 9.60694 109.825 9.29907 109.825C8.99034 109.825 8.99034 109.576 8.68247 109.576C8.37202 109.576 8.37202 109.606 8.06243 109.606C7.75283 109.606 7.75283 109.526 7.44238 109.526C7.13106 109.526 7.13106 109.903 6.81974 109.903C6.50843 109.903 6.27645 110.078 6.05568 109.844C5.83664 109.613 6.14192 109.365 6.14192 109.037C6.14192 108.709 6.40839 108.709 6.40839 108.381C6.40839 108.054 5.9979 108.054 5.9979 107.727C5.9979 107.397 6.30836 107.397 6.30836 107.069C6.30836 106.739 6.40667 106.739 6.40667 106.409C6.40667 106.079 6.17296 106.079 6.17296 105.749C6.17296 105.418 6.07983 105.429 6.29887 105.195C6.51533 104.962 6.50498 104.911 6.81284 104.911C7.12157 104.911 7.12157 105.221 7.42944 105.221C7.73731 105.221 7.73731 104.916 8.04432 104.916C8.35218 104.916 8.35218 105.194 8.65919 105.194C8.96706 105.194 8.96706 105.002 9.27493 105.002C9.58021 105.002 9.58021 105.254 9.88549 105.254C10.1916 105.254 10.1916 105.311 10.4969 105.311C10.8039 105.311 10.8039 104.948 11.1101 104.948C11.4179 104.948 11.4179 105.024 11.7258 105.024C12.0337 105.024 12.0337 104.928 12.3424 104.928C12.6503 104.928 12.6503 105.154 12.9581 105.154C13.2651 105.154 13.2651 104.974 13.573 104.974C13.88 104.974 13.88 105.219 14.1879 105.219C14.4966 105.219 14.4966 105.1 14.8062 105.1C15.1149 105.1 15.1149 104.94 15.4228 104.94C15.7315 104.94 15.7315 105.003 16.0394 105.003C16.349 105.003 16.349 105.194 16.6586 105.194C16.9682 105.194 16.9682 105.266 17.2769 105.266C17.5856 105.266 17.5856 105.056 17.8944 105.056C18.2022 105.056 18.2022 104.916 18.511 104.916C18.8206 104.916 18.8206 105.07 19.1301 105.07C19.4406 105.07 19.4406 105.287 19.7511 105.287C20.0624 105.287 20.0624 105.058 20.3728 105.058C20.6841 105.058 20.8583 104.765 21.0791 104.998C21.2982 105.23 20.917 105.416 20.917 105.744C20.917 106.072 20.9101 106.072 20.9101 106.399C20.9101 106.727 21.1015 106.727 21.1015 107.054C21.1015 107.383 20.8532 107.383 20.8532 107.712C20.8532 108.042 20.917 108.042 20.917 108.371C20.917 108.702 21.0015 108.7 21.0334 109.028C21.0627 109.314 21.0903 109.328 20.8713 109.563Z" fill="#FFCA00"/>
<path fill-rule="evenodd" clip-rule="evenodd" d="M17.7707 109.34C17.539 109.555 17.4333 109.246 17.0996 109.246C16.7631 109.246 16.7631 109.398 16.4266 109.398C16.0901 109.398 16.0901 109.325 15.7536 109.325C15.4161 109.325 15.4161 109.41 15.0787 109.41C14.7412 109.41 14.5576 109.626 14.321 109.41C14.0797 109.189 14.5393 109.029 14.5393 108.721C14.5393 108.412 14.4066 108.412 14.4066 108.104C14.4066 107.797 14.3162 107.797 14.3162 107.489C14.3162 107.18 14.3335 107.18 14.3335 106.87C14.3335 106.561 14.496 106.561 14.496 106.251C14.496 105.939 14.2807 105.939 14.2807 105.629C14.2807 105.319 14.2268 105.288 14.4681 105.064C14.6998 104.848 14.7373 104.942 15.0719 104.942C15.4075 104.942 15.4075 104.908 15.744 104.908C16.0805 104.908 16.0805 105.098 16.418 105.098C16.7554 105.098 16.7554 104.942 17.0929 104.942C17.4304 104.942 17.4707 104.845 17.7082 105.061C17.9486 105.281 17.7515 105.316 17.7515 105.625C17.7515 105.933 17.8621 105.933 17.8621 106.241C17.8621 106.549 17.8573 106.549 17.8573 106.857C17.8573 107.166 17.814 107.166 17.814 107.475C17.814 107.785 17.6121 107.785 17.6121 108.095C17.6121 108.406 17.7755 108.397 17.8486 108.701C17.9255 109.027 18.0111 109.116 17.7707 109.34Z" fill="white"/>
<path fill-rule="evenodd" clip-rule="evenodd" d="M20.7962 104.073C20.5782 104.305 20.6312 104.056 20.3211 104.056C20.0111 104.056 20.0111 104.074 19.7002 104.074C19.3911 104.074 19.391 104.351 19.081 104.351C18.771 104.351 18.771 104.082 18.4618 104.082C18.1518 104.082 18.1518 104.352 17.8418 104.352C17.5344 104.352 17.5344 104.041 17.2269 104.041C16.9195 104.041 16.9195 104.419 16.6112 104.419C16.3029 104.419 16.3029 104.219 15.9938 104.219C15.6838 104.219 15.6838 104.181 15.3737 104.181C15.0628 104.181 15.0628 104.026 14.7528 104.026C14.4428 104.026 14.4428 104.174 14.1336 104.174C13.8236 104.174 13.8236 104.427 13.5145 104.427C13.2044 104.427 13.2044 104.022 12.8944 104.022C12.5835 104.022 12.5835 103.997 12.2726 103.997C11.9617 103.997 11.9617 103.997 11.6508 103.997C11.3399 103.997 11.3399 104.136 11.0299 104.136C10.7181 104.136 10.7181 104.016 10.4064 104.016C10.0955 104.016 10.0955 104.448 9.78372 104.448C9.47282 104.448 9.47282 104.188 9.1628 104.188C8.8519 104.188 8.8519 104.027 8.54188 104.027C8.22924 104.027 8.22924 104.353 7.91748 104.353C7.60572 104.353 7.60572 104.437 7.29309 104.437C6.97959 104.437 6.97959 104.341 6.66609 104.341C6.35259 104.341 6.39514 104.316 6.17283 104.082C5.95225 103.851 6.18846 103.896 6.18846 103.566C6.18846 103.237 6.04169 103.237 6.04169 102.908C6.04169 102.579 6.1103 102.579 6.1103 102.251C6.1103 101.921 6.20148 101.921 6.20148 101.591C6.20148 101.26 5.97656 101.26 5.97656 100.93C5.97656 100.598 6.18759 100.598 6.18759 100.266C6.18759 99.9349 5.96701 99.9937 6.18672 99.7576C6.40469 99.5243 6.34911 99.5261 6.65914 99.5261C6.97004 99.5261 6.97004 99.3911 7.28006 99.3911C7.58922 99.3911 7.58922 99.4775 7.89924 99.4775C8.20927 99.4775 8.20927 99.7686 8.51843 99.7686C8.82845 99.7686 8.82845 99.5592 9.13848 99.5592C9.4459 99.5592 9.4459 99.5757 9.75332 99.5757C10.0616 99.5757 10.0616 99.7806 10.369 99.7806C10.6782 99.7806 10.6782 99.5564 10.9865 99.5564C11.2965 99.5564 11.2965 99.6207 11.6057 99.6207C11.9166 99.6207 11.9166 99.494 12.2275 99.494C12.5375 99.494 12.5375 99.7227 12.8475 99.7227C13.1567 99.7227 13.1567 99.7392 13.4667 99.7392C13.7758 99.7392 13.7758 99.7007 14.0859 99.7007C14.3968 99.7007 14.3968 99.5427 14.7085 99.5427C15.0194 99.5427 15.0194 99.7732 15.3294 99.7732C15.6403 99.7732 15.6403 99.5418 15.9504 99.5418C16.2621 99.5418 16.2621 99.4104 16.5739 99.4104C16.8857 99.4104 16.8857 99.4251 17.1957 99.4251C17.5074 99.4251 17.5074 99.4793 17.8183 99.4793C18.1284 99.4793 18.1284 99.7172 18.4393 99.7172C18.751 99.7172 18.751 99.6676 19.0628 99.6676C19.3754 99.6676 19.3754 99.6988 19.688 99.6988C20.0007 99.6988 20.0007 99.6832 20.3142 99.6832C20.6277 99.6832 20.6068 99.4885 20.83 99.7218C21.0497 99.9542 21.147 99.9321 21.147 100.262C21.147 100.591 20.7805 100.591 20.7805 100.92C20.7805 101.248 20.9777 101.248 20.9777 101.576C20.9777 101.907 20.9195 101.907 20.9195 102.237C20.9195 102.567 21.14 102.567 21.14 102.898C21.14 103.23 20.942 103.229 20.9681 103.558C20.9907 103.837 21.0159 103.837 20.7962 104.073Z" fill="#FFCA00"/>
<path fill-rule="evenodd" clip-rule="evenodd" d="M17.5856 104.106C17.3609 104.321 17.4122 104.441 17.0887 104.441C16.7624 104.441 16.7624 104.4 16.4361 104.4C16.1099 104.4 16.1099 104.163 15.7836 104.163C15.4564 104.163 15.4564 104.388 15.1291 104.388C14.8019 104.388 14.595 104.553 14.3666 104.338C14.1326 104.117 14.3908 103.932 14.3908 103.622C14.3908 103.314 14.6947 103.314 14.6947 103.006C14.6947 102.698 14.4654 102.698 14.4654 102.39C14.4654 102.08 14.6658 102.08 14.6658 101.771C14.6658 101.461 14.251 101.461 14.251 101.151C14.251 100.84 14.5512 100.84 14.5512 100.529C14.5512 100.218 14.319 100.201 14.553 99.9772C14.7777 99.7619 14.7982 99.8988 15.1226 99.8988C15.4489 99.8988 15.4489 99.997 15.7743 99.997C16.1005 99.997 16.1005 99.941 16.4278 99.941C16.755 99.941 16.755 100.015 17.0822 100.015C17.4094 100.015 17.484 99.7128 17.7133 99.929C17.9464 100.149 17.6742 100.216 17.6742 100.525C17.6742 100.833 17.9287 100.833 17.9287 101.141C17.9287 101.45 17.7012 101.45 17.7012 101.757C17.7012 102.067 17.7553 102.067 17.7553 102.376C17.7553 102.686 17.7916 102.686 17.7916 102.996C17.7916 103.307 17.6154 103.316 17.6443 103.626C17.6686 103.889 17.8187 103.882 17.5856 104.106Z" fill="white"/>
<path fill-rule="evenodd" clip-rule="evenodd" d="M9.31098 106.288C9.0549 106.288 8.8933 106.255 8.76085 106.224C8.34847 106.217 8.07562 106.093 7.90784 105.982C7.74448 106.024 7.52549 106.009 7.29502 106.051C7.16963 106.073 7.02746 106.096 6.79611 106.096C6.72988 106.134 6.51442 106.217 6.16474 106.217C5.83361 106.217 5.62786 106.145 5.5166 106.107L5.53426 104.618C5.83891 104.618 6.03847 104.678 6.15503 104.718C6.29455 104.666 6.49588 104.605 6.79611 104.605C6.86057 104.605 6.87117 104.603 6.92592 104.593C7.05219 104.571 7.19436 104.549 7.42571 104.549C7.57936 104.499 7.76214 104.449 8.05531 104.449C8.47651 104.449 8.75467 104.615 8.90831 104.733C8.98955 104.741 9.05931 104.751 9.12112 104.763C9.29332 104.634 9.55646 104.496 9.93704 104.496C10.1781 104.496 10.2991 104.517 10.4201 104.536C10.4563 104.542 10.4925 104.549 10.5649 104.549C10.9004 104.549 11.1397 104.646 11.2943 104.734C11.4073 104.699 11.5839 104.66 11.8267 104.66C11.9327 104.66 11.9857 104.655 12.0387 104.65C12.1437 104.639 12.2479 104.629 12.4572 104.629C12.5588 104.593 12.7619 104.525 13.0859 104.525C13.4224 104.525 13.6387 104.605 13.7659 104.658C13.7818 104.657 13.7968 104.654 13.8268 104.648C13.9478 104.623 14.0837 104.599 14.2957 104.596C14.4396 104.535 14.6542 104.46 14.9809 104.46C15.3244 104.46 15.5522 104.549 15.6776 104.603C15.9302 104.61 16.0953 104.654 16.2304 104.696C16.3001 104.7 16.301 104.699 16.3522 104.689C16.4847 104.661 16.6339 104.634 16.8785 104.634C17.1284 104.634 17.2803 104.663 17.4154 104.692C17.4649 104.703 17.4649 104.703 17.5117 104.703C17.698 104.662 17.8587 104.627 18.0989 104.623C18.2419 104.566 18.4539 104.494 18.777 104.494C18.8689 104.494 18.9148 104.488 18.9607 104.482C19.0737 104.467 19.1868 104.453 19.4119 104.453C19.8014 104.453 20.0689 104.595 20.2305 104.712C20.3471 104.69 20.4848 104.672 20.687 104.672V106.163C20.6332 106.163 20.6296 106.163 20.5758 106.175C20.4433 106.201 20.2941 106.227 20.0495 106.227C19.6477 106.227 19.3757 106.076 19.215 105.957C19.1144 105.97 19.0093 105.982 18.8203 105.984C18.6764 106.04 18.4653 106.113 18.1421 106.113C17.9443 106.156 17.7766 106.193 17.5117 106.193C17.2618 106.193 17.1099 106.164 16.9748 106.135C16.8697 106.112 16.8732 106.115 16.7735 106.136C16.641 106.163 16.4909 106.19 16.2463 106.19C15.9566 106.19 15.7747 106.142 15.6282 106.096C15.32 106.093 15.1072 106.028 14.9747 105.974C14.8317 106.028 14.633 106.086 14.3495 106.086C14.2957 106.086 14.2921 106.086 14.2392 106.097C14.1076 106.124 13.9584 106.149 13.7164 106.149C13.3976 106.149 13.1875 106.078 13.0577 106.025C12.9482 106.063 12.753 106.119 12.4572 106.119C12.3512 106.119 12.2983 106.125 12.2453 106.13C12.1411 106.14 12.036 106.151 11.8267 106.151C11.734 106.188 11.5265 106.259 11.1945 106.259C10.8086 106.259 10.5499 106.13 10.4015 106.035C10.2929 106.03 10.2143 106.02 10.1437 106.008C9.97148 106.142 9.70304 106.288 9.31098 106.288Z" fill="#FF9200"/>
<path fill-rule="evenodd" clip-rule="evenodd" d="M10.9374 69.2195L10.7679 69.144L11.033 69.3112C10.8274 69.3921 10.4684 69.1233 10.27 69.2177C10.0707 69.3121 9.89303 69.4757 9.70183 69.5836C9.50882 69.6915 9.28605 69.7715 9.10206 69.892C8.91717 70.0124 8.77106 70.2057 8.59609 70.3388C8.42021 70.4718 8.32732 70.7128 8.16137 70.8566C7.99542 71.0013 7.90432 71.2198 7.74829 71.3753C7.59226 71.5309 7.29914 71.5578 7.15393 71.7232C7.00963 71.8887 6.87434 72.0694 6.74086 72.2447C6.60828 72.42 6.43511 72.5755 6.31426 72.7598C6.1934 72.9432 6.1465 73.1787 6.03828 73.3711C5.93005 73.5617 6.01663 73.8494 5.92193 74.0489C5.82723 74.2467 5.40243 74.3043 5.32126 74.5092L5.50976 74.5641L5.6703 74.52C5.58912 74.315 5.40874 74.1442 5.31404 73.9465C5.21934 73.7478 5.19229 73.5042 5.08496 73.3136C4.97673 73.1212 4.89917 72.8955 4.77741 72.7121C4.65655 72.5287 4.3481 72.4676 4.21462 72.2923C4.08113 72.1179 3.78892 72.081 3.64461 71.9156C3.4994 71.7493 3.49309 71.4652 3.33706 71.3097C3.18103 71.1542 2.98532 71.0463 2.81846 70.9016C2.65251 70.7568 2.57495 70.5042 2.39908 70.3711C2.2232 70.239 1.92197 70.2857 1.73798 70.1653C1.55399 70.0448 1.3718 69.9387 1.17879 69.8309C0.987589 69.7239 0.828854 69.5647 0.629532 69.4695C0.431112 69.376 0.205635 69.3607 0 69.2798L0.00992099 69.144L0.110935 69.2897C0.31657 69.2087 0.482521 69.0182 0.680039 68.9247C0.880262 68.8294 1.04441 68.6658 1.23652 68.5579C1.42862 68.45 1.64959 68.388 1.83358 68.2675C2.01847 68.147 2.30528 68.156 2.48115 68.023C2.65612 67.8899 2.79772 67.6957 2.96367 67.551C3.12962 67.4063 3.33255 67.284 3.48858 67.1285C3.64461 66.9729 3.55262 66.5846 3.69782 66.4183C3.84303 66.2528 3.91338 66.0425 4.04686 65.8672C4.17944 65.6928 4.55193 65.6901 4.67279 65.5067C4.79364 65.3233 4.94877 65.1507 5.057 64.9592C5.16523 64.7677 5.12915 64.498 5.22385 64.2984C5.31855 64.1006 5.40333 63.9002 5.4845 63.6943L5.50976 63.5298L5.43219 63.7348C5.51336 63.9406 5.80468 64.0521 5.89848 64.2508C5.99408 64.4495 5.82092 64.7875 5.92824 64.979C6.03647 65.1714 6.1465 65.3754 6.26826 65.5588C6.38912 65.7431 6.50456 65.9472 6.63804 66.1216C6.77062 66.2969 7.08088 66.3383 7.22609 66.5037C7.37039 66.6691 7.41729 66.9334 7.57332 67.088C7.72845 67.2435 7.96565 67.3218 8.1316 67.4665C8.29755 67.6103 8.40849 67.8324 8.58436 67.9654C8.75933 68.0976 8.92709 68.263 9.11108 68.3835C9.29506 68.5039 9.52866 68.5624 9.72077 68.6702C9.91287 68.7781 10.2312 68.6388 10.4306 68.7332C10.6299 68.8276 10.7309 69.1386 10.9374 69.2195Z" fill="#FFCA00"/>
</svg>
