<svg width="144" height="156" viewBox="0 0 144 156" fill="none" xmlns="http://www.w3.org/2000/svg">
<path fill-rule="evenodd" clip-rule="evenodd" d="M52.5872 30.29C35.6165 36.2315 19.5071 50.9987 17.3372 69.6173C15.5379 85.0526 23.9009 101.894 35.8763 111.522C42.5381 116.878 53.7455 119.505 62.1652 118.848C72.1116 118.072 79.8701 113.077 89.7282 111.543C91.6657 111.241 93.6249 110.921 95.5813 111.1C98.1675 111.336 100.593 112.426 103.009 113.393C109.343 115.925 117.125 117.502 122.47 113.33C124.776 111.531 126.266 108.893 127.501 106.237C130.191 100.449 131.962 94.0837 131.516 87.6917C131.071 81.2996 128.191 74.8827 123.015 71.0863C120.997 69.6061 118.699 68.5557 116.637 67.1389C106.112 59.9081 103.734 44.9013 94.0845 36.5285C82.728 26.6749 66.5627 25.3972 52.5872 30.29Z" fill="#E6F0F9"/>
<path fill-rule="evenodd" clip-rule="evenodd" d="M20.5131 25.4731C20.4525 25.4731 20.3892 25.369 20.3288 25.3711C20.2685 25.3732 20.214 25.5031 20.1538 25.5072C20.0932 25.5114 20.0252 25.4265 19.9653 25.4325C19.9048 25.4388 19.8468 25.4714 19.787 25.4796C19.727 25.4879 19.6632 25.4773 19.6036 25.4875C19.5441 25.4978 19.4845 25.5158 19.4256 25.5281C19.3662 25.5402 19.3132 25.5821 19.2546 25.5963C19.1957 25.6109 19.1271 25.591 19.069 25.6073C19.0109 25.6236 18.9652 25.6843 18.9081 25.7025C18.8504 25.7211 18.8035 25.7685 18.7468 25.789C18.6898 25.8092 18.6235 25.8037 18.5675 25.8261C18.5113 25.8483 18.4307 25.8151 18.3754 25.8394C18.32 25.8636 18.2613 25.8854 18.2071 25.9116C18.1524 25.9376 18.1289 26.0265 18.0756 26.0545C18.0221 26.0824 18.027 26.2115 17.9747 26.2411C17.9221 26.2709 17.8701 26.2936 17.8187 26.3251C17.7675 26.3567 17.7061 26.3666 17.6561 26.4C17.6058 26.4333 17.5095 26.3981 17.4605 26.4329C17.4114 26.468 17.3407 26.475 17.2929 26.5116C17.245 26.5482 17.1872 26.5746 17.1406 26.6128C17.0942 26.6511 17.0189 26.6595 16.9736 26.6993C16.9285 26.7391 16.9707 26.8745 16.9269 26.9158C16.8832 26.9571 16.8526 27.0094 16.8102 27.0521C16.7679 27.0949 16.6974 27.1095 16.6565 27.1537C16.6156 27.1979 16.5212 27.1958 16.4818 27.2415C16.4427 27.287 16.4769 27.3931 16.4392 27.44C16.4014 27.4868 16.3301 27.5073 16.2942 27.5554C16.258 27.6036 16.2009 27.6375 16.1665 27.6868C16.1321 27.7361 16.2292 27.8703 16.1965 27.9207C16.164 27.9712 16.0312 27.9577 16.0002 28.0093C15.9694 28.0608 15.9907 28.1406 15.9616 28.1933C15.9326 28.2457 15.8639 28.2762 15.8366 28.3298C15.8097 28.3833 15.7879 28.4388 15.7628 28.4934C15.7376 28.5477 15.7047 28.5985 15.6812 28.6538C15.6579 28.709 15.7078 28.7915 15.6864 28.8476C15.6652 28.9035 15.5824 28.9359 15.5631 28.9926C15.5436 29.0493 15.5192 29.1213 15.5018 29.1788C15.4473 29.1645 15.403 29.0269 15.3479 29.0146C15.2931 29.0023 15.2216 29.0548 15.1662 29.0445C15.1108 29.0343 15.0513 29.0409 14.9955 29.0328C14.9397 29.0246 14.8923 28.9325 14.8361 28.9263C14.7801 28.9202 14.7042 29.1283 14.6481 29.1242C14.5919 29.1202 14.5447 28.9704 14.4883 28.9683C14.4319 28.9663 14.374 29.1236 14.3174 29.1236C14.2568 29.1236 14.1999 29.0974 14.1399 29.0997C14.0793 29.102 14.0233 29.1149 13.9633 29.1196C13.9031 29.1244 13.8331 29.0131 13.7733 29.0201C13.7133 29.0271 13.6707 29.149 13.6114 29.1583C13.5516 29.1676 13.4641 29.0184 13.4052 29.0299C13.3458 29.0417 13.2896 29.077 13.2311 29.0908C13.1724 29.105 13.1568 29.2766 13.0989 29.2929C13.0406 29.3092 12.9515 29.2154 12.8944 29.2339C12.8368 29.2525 12.742 29.1704 12.6855 29.1911C12.6289 29.2119 12.6541 29.4389 12.5985 29.4618C12.5427 29.4849 12.3944 29.2984 12.3395 29.3234C12.2849 29.3486 12.2285 29.3809 12.175 29.408C12.1213 29.4353 12.1503 29.6176 12.0978 29.6468C12.045 29.6762 11.929 29.5983 11.8776 29.6296C11.8264 29.661 11.8294 29.7776 11.7796 29.8108C11.7293 29.8442 11.7165 29.9255 11.6678 29.9608C11.619 29.996 11.5057 29.9443 11.4583 29.9812C11.4111 30.0184 11.3251 30.0114 11.2792 30.0502C11.2334 30.0893 11.3136 30.2675 11.2695 30.3081C11.2251 30.3488 11.1475 30.3502 11.1049 30.3924C11.0623 30.4347 10.9708 30.429 10.9299 30.4728C10.889 30.5166 10.7668 30.4923 10.7277 30.5376C10.6885 30.5831 10.7766 30.7339 10.7389 30.7809C10.7017 30.8279 10.6994 30.8978 10.664 30.9462C10.6285 30.9945 10.5599 31.0167 10.5262 31.0664C10.4928 31.116 10.4578 31.1629 10.4263 31.2139C10.3947 31.2647 10.3273 31.2939 10.2978 31.346C10.2682 31.3981 10.3101 31.4865 10.2825 31.5398C10.2552 31.593 10.1692 31.616 10.1438 31.6704C10.1184 31.7246 10.0391 31.7562 10.0159 31.8114C9.99281 31.8666 10.0769 31.9631 10.0557 32.0194C10.0349 32.0753 9.88846 32.0882 9.86992 32.1453C9.85119 32.2019 9.94579 32.2935 9.92935 32.3511C9.91292 32.4086 9.79079 32.4391 9.77684 32.4973C9.7627 32.5553 9.76595 32.6194 9.7541 32.6782C9.74263 32.7365 9.8659 32.8183 9.85635 32.8776C9.84698 32.9365 9.81908 32.9898 9.81201 33.0493C9.80494 33.1087 9.61229 33.151 9.60751 33.2107C9.60292 33.2702 9.77531 33.3413 9.77302 33.4012C9.77054 33.4609 9.69906 33.5184 9.69906 33.5785C9.69906 33.6385 9.69791 33.699 9.7004 33.7586C9.70269 33.8185 9.62509 33.885 9.62987 33.9445C9.63446 34.0042 9.73269 34.0568 9.73977 34.1161C9.74684 34.1756 9.81296 34.2259 9.82233 34.2848C9.83169 34.3442 9.66695 34.4353 9.67861 34.4937C9.69027 34.5527 9.76538 34.6012 9.77933 34.6594C9.79328 34.7176 9.94598 34.7394 9.96223 34.7969C9.97866 34.8547 10.0199 34.9008 10.0385 34.9574C10.0574 35.0145 10.0794 35.0657 10.1004 35.1216C10.1214 35.1777 10.0899 35.2507 10.113 35.3059C10.1361 35.3612 10.1295 35.4278 10.1549 35.482C10.1803 35.5362 10.1826 35.6012 10.2101 35.6545C10.2374 35.7078 10.2971 35.7432 10.3265 35.7954C10.3561 35.8475 10.3479 35.9212 10.3794 35.9722C10.4112 36.0232 10.5063 36.0325 10.5396 36.0822C10.5732 36.132 10.6195 36.1696 10.655 36.2179C10.6904 36.2663 10.6346 36.3825 10.672 36.4293C10.7093 36.4763 10.7666 36.5084 10.8058 36.5539C10.845 36.5992 10.9826 36.5552 11.0235 36.599C11.0646 36.643 10.9608 36.8238 11.0034 36.8661C11.0461 36.9084 11.1082 36.9345 11.1523 36.9751C11.1967 37.0159 11.2655 37.0314 11.3115 37.0703C11.3572 37.1091 11.3453 37.2217 11.3927 37.2589C11.44 37.2959 11.5625 37.2386 11.6112 37.2741C11.6599 37.3091 11.6599 37.4166 11.7098 37.45C11.7599 37.4833 11.9067 37.3673 11.9581 37.3988C12.0093 37.4301 11.9713 37.6123 12.0238 37.6415C12.0762 37.6708 12.1205 37.7241 12.1742 37.7514C12.2277 37.7785 12.3413 37.6885 12.3959 37.7137C12.4506 37.7387 12.5349 37.6919 12.5907 37.7148C12.6463 37.7378 12.6608 37.8602 12.7176 37.8811C12.774 37.9017 12.858 37.8403 12.9156 37.8589C12.9729 37.8773 13.0111 37.9526 13.0694 37.9689C13.1271 37.985 13.1906 37.9783 13.2493 37.9924C13.3077 38.0062 13.3473 38.1091 13.4066 38.1209C13.4656 38.1325 13.5375 38.0792 13.5971 38.0885C13.6565 38.0978 13.7037 38.2102 13.7639 38.2172C13.8236 38.2242 13.9006 38.0646 13.961 38.0691C14.0208 38.0739 14.077 38.1158 14.1376 38.1181C14.1976 38.1203 14.2568 38.138 14.3174 38.138C14.4065 38.138 14.4065 38.05 14.4955 38.05C14.5844 38.05 14.5844 38.2654 14.6735 38.2654C14.7625 38.2654 14.7625 38.0896 14.8518 38.0896C14.9408 38.0896 14.9408 38.0894 15.0299 38.0894C15.1188 38.0894 15.1188 38.1806 15.2078 38.1806C15.2969 38.1806 15.2969 38.0375 15.386 38.0375C15.475 38.0375 15.475 38.1057 15.5641 38.1057C15.6531 38.1057 15.6531 38.2354 15.7424 38.2354C15.8315 38.2354 15.8315 38.178 15.9207 38.178C16.01 38.178 16.01 38.2485 16.099 38.2485C16.1885 38.2485 16.1885 38.2545 16.2777 38.2545C16.3668 38.2545 16.3668 38.0913 16.4558 38.0913C16.5451 38.0913 16.5451 38.2614 16.6342 38.2614C16.7234 38.2614 16.7234 38.0879 16.8125 38.0879C16.9017 38.0879 16.9017 38.2477 16.9906 38.2477C17.0797 38.2477 17.0796 38.1666 17.1689 38.1666C17.258 38.1666 17.258 38.1154 17.3472 38.1154C17.4363 38.1154 17.4363 38.1764 17.5253 38.1764C17.6146 38.1764 17.6146 38.1133 17.7038 38.1133C17.7933 38.1133 17.7933 38.2199 17.8823 38.2199C17.9716 38.2199 17.9716 38.2322 18.0609 38.2322C18.1501 38.2322 18.1501 38.028 18.2394 38.028C18.3284 38.028 18.3284 38.1156 18.4175 38.1156C18.5067 38.1156 18.5067 38.2034 18.596 38.2034C18.685 38.2034 18.685 38.1126 18.7741 38.1126C18.8634 38.1126 18.8634 38.1781 18.9526 38.1781C19.0419 38.1781 19.0419 38.0843 19.1311 38.0843C19.2204 38.0843 19.2204 38.2693 19.3096 38.2693C19.3989 38.2693 19.3989 38.1266 19.4881 38.1266C19.5774 38.1266 19.5774 38.0896 19.6664 38.0896C19.7557 38.0896 19.7557 38.1823 19.8449 38.1823C19.9342 38.1823 19.9342 38.0456 20.0232 38.0456C20.1121 38.0456 20.1121 38.093 20.201 38.093C20.2899 38.093 20.2899 38.1508 20.3789 38.1508C20.4678 38.1508 20.4678 38.0798 20.5568 38.0798C20.6457 38.0798 20.6457 38.2398 20.7348 38.2398C20.824 38.2398 20.824 38.1397 20.9133 38.1397C21.0027 38.1397 21.0027 38.1194 21.092 38.1194C21.1812 38.1194 21.1812 38.046 21.2705 38.046C21.3595 38.046 21.3595 38.0915 21.4488 38.0915C21.5377 38.0915 21.5377 38.126 21.6267 38.126C21.7158 38.126 21.7158 38.0944 21.805 38.0944C21.8941 38.0944 21.8941 38.1842 21.9832 38.1842C22.0724 38.1842 22.0724 38.1706 22.1619 38.1706C22.2513 38.1706 22.2513 38.2161 22.3407 38.2161C22.4298 38.2161 22.4298 38.0839 22.5191 38.0839C22.6083 38.0839 22.6083 38.0843 22.6976 38.0843C22.7866 38.0843 22.7866 38.0801 22.8759 38.0801C22.9653 38.0801 22.9653 38.1226 23.0548 38.1226C23.1442 38.1226 23.1442 38.0453 23.2333 38.0453C23.3227 38.0453 23.3227 38.0667 23.412 38.0667C23.5014 38.0667 23.5014 38.0657 23.5908 38.0657C23.6801 38.0657 23.6801 38.104 23.7695 38.104C23.859 38.104 23.859 38.1736 23.9484 38.1736C24.0377 38.1736 24.0377 38.1078 24.1271 38.1078C24.2166 38.1078 24.2166 38.0526 24.306 38.0526C24.3955 38.0526 24.3955 38.2456 24.4849 38.2456C24.5741 38.2456 24.5741 38.1023 24.6634 38.1023C24.7528 38.1023 24.7528 38.0926 24.8419 38.0926C24.9313 38.0926 24.9313 38.1592 25.021 38.1592C25.1104 38.1592 25.1104 38.1194 25.1997 38.1194C25.2893 38.1194 25.2893 38.2549 25.3788 38.2549C25.4684 38.2549 25.4684 38.2092 25.5578 38.2092C25.6475 38.2092 25.6475 38.1702 25.7369 38.1702C25.8267 38.1702 25.8267 38.05 25.9162 38.05C26.0062 38.05 26.0062 38.0504 26.096 38.0504C26.1858 38.0504 26.1858 38.1787 26.2757 38.1787C26.3353 38.1787 26.3898 38.036 26.4488 38.0333C26.5085 38.0307 26.5725 38.1372 26.6315 38.1319C26.6908 38.1268 26.7517 38.1344 26.8104 38.1264C26.8695 38.1186 26.9173 38.0464 26.9754 38.036C27.034 38.0253 27.0967 38.0439 27.1546 38.0308C27.2127 38.0178 27.2527 37.9433 27.3096 37.9275C27.367 37.9118 27.421 37.898 27.4772 37.8798C27.5338 37.8616 27.5982 37.8743 27.6536 37.8534C27.7092 37.8325 27.7534 37.7905 27.8079 37.7671C27.8625 37.744 27.9225 37.7389 27.9759 37.7133C28.0294 37.6877 28.0693 37.6418 28.1217 37.614C28.1739 37.5859 28.2532 37.6092 28.3042 37.5789C28.355 37.5486 28.4141 37.5313 28.4636 37.4989C28.5131 37.4663 28.5536 37.4214 28.6016 37.3867C28.6495 37.352 28.6358 37.2413 28.682 37.2045C28.7285 37.1675 28.9211 37.3038 28.9658 37.2651C29.0106 37.2263 29.0572 37.1819 29.1002 37.1412C29.143 37.1004 29.0551 36.9283 29.0962 36.8858C29.1373 36.8432 29.3083 36.9173 29.3475 36.8729C29.3865 36.8286 29.311 36.6871 29.3483 36.6411C29.3852 36.595 29.4087 36.5413 29.4436 36.4936C29.4784 36.446 29.5992 36.4576 29.6321 36.4085C29.6648 36.3594 29.7038 36.311 29.7341 36.2606C29.7647 36.2102 29.8186 36.169 29.8471 36.1173C29.8752 36.0655 29.7693 35.9449 29.7951 35.8919C29.8209 35.839 29.8265 35.7804 29.85 35.7262C29.8735 35.6721 29.9587 35.645 29.9797 35.5899C30.0008 35.5349 30.098 35.5049 30.1166 35.449C30.1349 35.3931 30.0751 35.3123 30.091 35.2554C30.1066 35.199 30.0311 35.122 30.0443 35.0644C30.0575 35.0071 30.1873 34.9754 30.198 34.9172C30.2085 34.8594 30.2058 34.7989 30.2138 34.7404C30.2217 34.6822 30.3146 34.6312 30.3197 34.5724C30.3253 34.5138 30.3176 34.4505 30.3201 34.3914C30.323 34.3328 30.2878 34.2704 30.2878 34.2113C30.2878 34.1519 30.3545 34.0882 30.3518 34.0296C30.3493 33.9705 30.1405 33.9248 30.1353 33.8664C30.1298 33.8077 30.0967 33.7568 30.0889 33.6986C30.0808 33.6401 30.2341 33.5584 30.2236 33.5005C30.2129 33.4423 30.2278 33.3766 30.2146 33.3195C30.2012 33.2619 30.2194 33.1925 30.2037 33.1358C30.1879 33.0789 29.9778 33.0799 29.9597 33.0239C29.9411 32.9678 30.1085 32.8471 30.0877 32.7919C30.0667 32.7367 29.8763 32.7487 29.8528 32.6947C29.8295 32.6404 29.8431 32.5724 29.8175 32.5195C29.7915 32.4664 29.6971 32.452 29.6688 32.4002C29.6407 32.3483 29.7498 32.2207 29.7192 32.1703C29.6887 32.1197 29.5612 32.1307 29.5283 32.0816C29.4954 32.0325 29.5123 31.9513 29.4773 31.9037C29.4425 31.856 29.3982 31.8162 29.3613 31.7703C29.3242 31.7242 29.2455 31.7155 29.2065 31.6711C29.1673 31.6268 29.1837 31.5344 29.1426 31.4918C29.1015 31.4491 29.1455 31.3187 29.1025 31.2779C29.0597 31.2372 28.9173 31.3011 28.8726 31.2624C28.8279 31.2235 28.8401 31.1155 28.7936 31.0787C28.7474 31.0419 28.6817 31.026 28.6337 30.9911C28.5857 30.9566 28.5169 30.9496 28.4672 30.917C28.4177 30.8846 28.3734 30.8429 28.3224 30.8125C28.2715 30.7822 28.162 30.8573 28.1098 30.8292C28.0577 30.8014 27.9971 30.8 27.9437 30.7744C27.8904 30.7488 27.8417 30.7261 27.787 30.7028C27.7324 30.6796 27.7423 30.502 27.6867 30.4812C27.6313 30.4605 27.5435 30.531 27.4868 30.5126C27.4306 30.4944 27.401 30.3879 27.3436 30.3721C27.2865 30.3564 27.2292 30.3331 27.1711 30.3198C27.1133 30.3069 27.0648 30.2283 27.0063 30.2178C26.948 30.2074 26.8819 30.2114 26.823 30.2034C26.7644 30.1957 26.6852 30.3591 26.6258 30.354C26.5669 30.3486 26.5083 30.3941 26.4488 30.3917C26.3896 30.389 26.3355 30.3892 26.2757 30.3892C26.2166 30.3892 26.1583 30.2885 26.0997 30.2912C26.0408 30.2939 25.9783 30.2495 25.9196 30.2548C25.8609 30.2599 25.8556 30.241 25.7973 30.2487C25.7935 30.1894 25.6815 30.1955 25.6756 30.1367C25.6694 30.0775 25.6429 30.0231 25.6349 29.9646C25.6268 29.9056 25.6538 29.8436 25.644 29.7854C25.6339 29.7266 25.6568 29.6629 25.6448 29.6049C25.6326 29.5467 25.6469 29.4825 25.6329 29.425C25.6188 29.3674 25.606 29.3084 25.5899 29.2516C25.5739 29.1943 25.6509 29.1071 25.6328 29.0508C25.6146 28.9941 25.4025 29.0015 25.3826 28.9456C25.3625 28.8897 25.335 28.8396 25.3132 28.7846C25.2912 28.7293 25.373 28.6328 25.3491 28.5784C25.3252 28.524 25.1884 28.5221 25.1626 28.4686C25.137 28.4152 25.2694 28.284 25.2419 28.2315C25.2144 28.1788 25.1339 28.1526 25.1045 28.101C25.0753 28.0493 25.1171 27.9539 25.0862 27.9033C25.055 27.8527 24.8711 27.8972 24.8383 27.8478C24.8054 27.7983 24.776 27.7494 24.7414 27.701C24.707 27.6525 24.8157 27.4993 24.7796 27.4521C24.7435 27.4049 24.5845 27.4521 24.5466 27.4062C24.509 27.3603 24.5868 27.2163 24.5476 27.1717C24.5082 27.127 24.374 27.1653 24.3331 27.1221C24.2924 27.0786 24.2399 27.0481 24.1975 27.006C24.1554 26.9641 24.1053 26.9323 24.0616 26.8917C24.018 26.8513 24.0232 26.7579 23.9782 26.7188C23.9331 26.6798 23.8469 26.6896 23.8007 26.6521C23.7544 26.6146 23.6612 26.6403 23.6136 26.6045C23.566 26.5687 23.6059 26.417 23.5572 26.3829C23.5083 26.3486 23.4553 26.319 23.4053 26.2864C23.3554 26.2538 23.3145 26.2049 23.2635 26.174C23.2124 26.1431 23.111 26.1977 23.0588 26.1685C23.007 26.1395 23.012 26.0054 22.959 25.978C22.9061 25.9507 22.787 26.0547 22.7331 26.0291C22.6794 26.0036 22.6452 25.9397 22.5903 25.916C22.5357 25.8923 22.4761 25.8839 22.4204 25.8621C22.3648 25.8403 22.3694 25.6566 22.313 25.6367C22.2568 25.6168 22.1219 25.828 22.065 25.81C22.008 25.792 21.987 25.6623 21.9295 25.6462C21.8719 25.6303 21.8167 25.6051 21.7586 25.591C21.7007 25.5768 21.6221 25.6587 21.5635 25.6466C21.5052 25.6346 21.4507 25.617 21.3917 25.607C21.333 25.5969 21.2728 25.6164 21.2133 25.6083C21.1543 25.6003 21.1021 25.5598 21.0427 25.5537C20.9832 25.5478 20.9312 25.4703 20.8714 25.4663C20.812 25.4623 20.7543 25.4081 20.6941 25.406C20.6346 25.4041 20.5731 25.4731 20.5131 25.4731Z" fill="#A7CFFE"/>
<path fill-rule="evenodd" clip-rule="evenodd" d="M110.735 0.063798C110.697 0.063798 110.657 -0.00179545 110.619 -0.000468414C110.581 0.000669044 110.546 0.0827556 110.508 0.0852201C110.47 0.0878742 110.427 0.0344136 110.389 0.0382052C110.351 0.0421863 110.315 0.0626605 110.277 0.0677791C110.239 0.0730872 110.198 0.066452 110.161 0.0728976C110.124 0.0793432 110.086 0.0907178 110.049 0.0984905C110.011 0.106263 109.978 0.132614 109.941 0.141524C109.904 0.150624 109.86 0.138112 109.824 0.148349C109.787 0.158776 109.758 0.19707 109.722 0.208634C109.686 0.220198 109.656 0.250152 109.62 0.263043C109.584 0.275934 109.543 0.272522 109.507 0.28655C109.472 0.300579 109.421 0.279725 109.386 0.294892C109.351 0.310247 109.314 0.323897 109.28 0.34039C109.245 0.356883 109.231 0.412998 109.197 0.430628C109.163 0.448259 109.166 0.529777 109.133 0.548355C109.1 0.567313 109.067 0.581342 109.035 0.601247C109.002 0.621342 108.964 0.627598 108.932 0.648641C108.9 0.669684 108.84 0.647504 108.809 0.669495C108.778 0.691675 108.733 0.695846 108.703 0.719163C108.673 0.742292 108.636 0.758785 108.607 0.782861C108.578 0.807127 108.53 0.812435 108.501 0.837459C108.473 0.862483 108.5 0.947982 108.472 0.974144C108.445 1.00012 108.425 1.0331 108.398 1.06002C108.372 1.08713 108.327 1.09642 108.302 1.12429C108.276 1.15216 108.216 1.15083 108.191 1.17964C108.167 1.20846 108.188 1.27538 108.164 1.30495C108.141 1.33453 108.095 1.34742 108.073 1.37775C108.05 1.40808 108.014 1.42951 107.992 1.4606C107.97 1.49169 108.032 1.57643 108.011 1.60828C107.991 1.64013 107.907 1.63159 107.887 1.6642C107.868 1.69662 107.881 1.74705 107.863 1.78022C107.845 1.8134 107.801 1.83255 107.784 1.86629C107.767 1.90022 107.753 1.9353 107.737 1.96961C107.721 2.00392 107.701 2.03577 107.686 2.07084C107.671 2.10573 107.703 2.15767 107.689 2.19312C107.676 2.22838 107.624 2.24886 107.611 2.28469C107.599 2.32052 107.584 2.36582 107.573 2.40203C107.538 2.39312 107.51 2.3063 107.476 2.29852C107.441 2.29075 107.396 2.32374 107.361 2.31729C107.326 2.31104 107.289 2.31502 107.253 2.3099C107.218 2.30478 107.188 2.24658 107.153 2.24279C107.117 2.239 107.07 2.37018 107.034 2.36753C106.999 2.36507 106.969 2.27066 106.933 2.26933C106.898 2.268 106.861 2.36734 106.825 2.36734C106.787 2.36734 106.751 2.35066 106.713 2.35217C106.675 2.35369 106.64 2.36184 106.602 2.36469C106.564 2.36772 106.52 2.29758 106.482 2.30194C106.444 2.3063 106.417 2.38326 106.38 2.38914C106.342 2.39502 106.287 2.3008 106.25 2.30819C106.212 2.31559 106.177 2.33796 106.14 2.34668C106.103 2.3554 106.093 2.46384 106.057 2.47407C106.02 2.48431 105.964 2.42516 105.928 2.43692C105.891 2.44867 105.831 2.39691 105.796 2.40981C105.76 2.42308 105.776 2.56621 105.741 2.58061C105.706 2.59521 105.612 2.47748 105.578 2.49341C105.543 2.50914 105.507 2.52962 105.474 2.54668C105.44 2.56393 105.458 2.679 105.425 2.69739C105.392 2.71597 105.318 2.66687 105.286 2.68659C105.254 2.7063 105.256 2.78005 105.224 2.8009C105.192 2.82194 105.184 2.87332 105.154 2.89569C105.123 2.91787 105.051 2.88507 105.021 2.90839C104.991 2.9319 104.937 2.92754 104.908 2.95199C104.879 2.97664 104.93 3.08906 104.902 3.11465C104.874 3.14043 104.825 3.14119 104.798 3.16792C104.772 3.19465 104.714 3.19105 104.688 3.21873C104.662 3.24641 104.585 3.23086 104.56 3.25949C104.535 3.2883 104.591 3.38347 104.567 3.41304C104.544 3.44262 104.543 3.48679 104.52 3.51731C104.498 3.54783 104.454 3.56186 104.433 3.59314C104.412 3.62461 104.39 3.654 104.37 3.68622C104.35 3.71826 104.308 3.73684 104.289 3.76964C104.27 3.80262 104.297 3.85836 104.28 3.89191C104.262 3.92547 104.208 3.94007 104.192 3.97438C104.176 4.0085 104.126 4.02841 104.111 4.06329C104.097 4.09817 104.15 4.15903 104.136 4.19448C104.123 4.22993 104.031 4.23808 104.019 4.27391C104.007 4.30974 104.067 4.36756 104.057 4.40396C104.046 4.43998 103.969 4.45932 103.96 4.49609C103.951 4.53268 103.954 4.57306 103.946 4.61022C103.939 4.64719 104.017 4.69856 104.01 4.7361C104.005 4.77325 103.987 4.807 103.982 4.84454C103.978 4.88188 103.856 4.90861 103.854 4.94634C103.851 4.98387 103.959 5.02861 103.958 5.06653C103.956 5.10407 103.911 5.14046 103.911 5.17838C103.911 5.21629 103.911 5.2544 103.912 5.29194C103.914 5.32985 103.865 5.37175 103.868 5.40928C103.871 5.44701 103.933 5.48019 103.937 5.51753C103.941 5.55526 103.983 5.58692 103.989 5.62407C103.995 5.66142 103.891 5.71905 103.898 5.75602C103.906 5.79318 103.953 5.8237 103.962 5.86029C103.971 5.89725 104.067 5.9109 104.077 5.94711C104.088 5.9837 104.114 6.0127 104.126 6.04853C104.137 6.08455 104.151 6.11678 104.165 6.15204C104.178 6.18749 104.158 6.23356 104.172 6.26844C104.187 6.30333 104.183 6.34522 104.199 6.37935C104.215 6.41385 104.217 6.45461 104.234 6.48835C104.251 6.52191 104.289 6.54428 104.307 6.57707C104.326 6.61006 104.32 6.6567 104.341 6.68873C104.36 6.72096 104.421 6.72684 104.442 6.75831C104.463 6.78959 104.492 6.81348 104.514 6.84381C104.537 6.87433 104.502 6.9477 104.525 6.97727C104.549 7.00703 104.585 7.02713 104.61 7.05575C104.634 7.08438 104.721 7.0567 104.747 7.08438C104.773 7.11206 104.707 7.22618 104.734 7.25291C104.761 7.27964 104.8 7.29595 104.828 7.32173C104.856 7.34732 104.9 7.35718 104.929 7.38164C104.958 7.40609 104.95 7.47718 104.98 7.50069C105.01 7.5242 105.087 7.48799 105.118 7.51017C105.149 7.53235 105.149 7.60022 105.18 7.62126C105.212 7.6423 105.304 7.56913 105.337 7.58884C105.369 7.60875 105.345 7.72363 105.378 7.74221C105.411 7.7606 105.439 7.79434 105.473 7.81141C105.507 7.82866 105.579 7.77178 105.613 7.78771C105.648 7.80344 105.701 7.77387 105.736 7.78847C105.771 7.80287 105.78 7.88003 105.816 7.8933C105.852 7.90638 105.905 7.86771 105.941 7.87927C105.977 7.89103 106.001 7.93842 106.038 7.94866C106.074 7.9589 106.114 7.95472 106.152 7.96345C106.188 7.97236 106.213 8.03719 106.251 8.04458C106.288 8.05198 106.333 8.01823 106.371 8.02411C106.408 8.02999 106.438 8.10108 106.476 8.10544C106.514 8.1098 106.562 8.00913 106.601 8.01198C106.638 8.01501 106.674 8.04136 106.712 8.04288C106.75 8.0444 106.787 8.05539 106.825 8.05539C106.882 8.05539 106.882 8.00003 106.938 8.00003C106.994 8.00003 106.994 8.13577 107.05 8.13577C107.106 8.13577 107.106 8.02487 107.163 8.02487C107.219 8.02487 107.219 8.02487 107.275 8.02487C107.331 8.02487 107.331 8.08231 107.387 8.08231C107.444 8.08231 107.444 7.99188 107.5 7.99188C107.556 7.99188 107.556 8.03511 107.612 8.03511C107.668 8.03511 107.668 8.11681 107.725 8.11681C107.781 8.11681 107.781 8.0806 107.837 8.0806C107.893 8.0806 107.893 8.12515 107.95 8.12515C108.006 8.12515 108.006 8.12895 108.062 8.12895C108.119 8.12895 108.119 8.02601 108.175 8.02601C108.231 8.02601 108.231 8.13331 108.287 8.13331C108.344 8.13331 108.344 8.02392 108.4 8.02392C108.456 8.02392 108.456 8.12477 108.512 8.12477C108.568 8.12477 108.568 8.0734 108.625 8.0734C108.681 8.0734 108.681 8.04117 108.737 8.04117C108.794 8.04117 108.794 8.07966 108.85 8.07966C108.906 8.07966 108.906 8.03984 108.962 8.03984C109.019 8.03984 109.019 8.10715 109.075 8.10715C109.131 8.10715 109.131 8.11473 109.187 8.11473C109.244 8.11473 109.244 7.98601 109.3 7.98601C109.356 7.98601 109.356 8.04136 109.413 8.04136C109.469 8.04136 109.469 8.09672 109.525 8.09672C109.582 8.09672 109.582 8.03928 109.638 8.03928C109.694 8.03928 109.694 8.08079 109.75 8.08079C109.807 8.08079 109.807 8.02165 109.863 8.02165C109.919 8.02165 109.919 8.13824 109.975 8.13824C110.032 8.13824 110.032 8.04819 110.088 8.04819C110.144 8.04819 110.144 8.02487 110.201 8.02487C110.257 8.02487 110.257 8.08345 110.313 8.08345C110.37 8.08345 110.37 7.99719 110.426 7.99719C110.482 7.99719 110.482 8.02695 110.538 8.02695C110.594 8.02695 110.594 8.06354 110.65 8.06354C110.706 8.06354 110.706 8.01861 110.763 8.01861C110.819 8.01861 110.819 8.11966 110.875 8.11966C110.931 8.11966 110.931 8.05653 110.987 8.05653C111.044 8.05653 111.044 8.04364 111.1 8.04364C111.157 8.04364 111.157 7.99738 111.213 7.99738C111.269 7.99738 111.269 8.0262 111.325 8.0262C111.382 8.0262 111.382 8.04781 111.438 8.04781C111.494 8.04781 111.494 8.0279 111.55 8.0279C111.606 8.0279 111.606 8.08459 111.663 8.08459C111.719 8.08459 111.719 8.07605 111.775 8.07605C111.832 8.07605 111.832 8.10468 111.888 8.10468C111.944 8.10468 111.944 8.02146 112.001 8.02146C112.057 8.02146 112.057 8.02165 112.113 8.02165C112.17 8.02165 112.17 8.0188 112.226 8.0188C112.282 8.0188 112.282 8.04572 112.339 8.04572C112.395 8.04572 112.395 7.997 112.451 7.997C112.508 7.997 112.508 8.01046 112.564 8.01046C112.621 8.01046 112.621 8.00989 112.677 8.00989C112.733 8.00989 112.733 8.03397 112.79 8.03397C112.846 8.03397 112.846 8.07776 112.903 8.07776C112.959 8.07776 112.959 8.03643 113.016 8.03643C113.072 8.03643 113.072 8.00155 113.128 8.00155C113.185 8.00155 113.185 8.12345 113.241 8.12345C113.298 8.12345 113.298 8.03283 113.354 8.03283C113.41 8.03283 113.41 8.02676 113.467 8.02676C113.523 8.02676 113.523 8.06885 113.58 8.06885C113.636 8.06885 113.636 8.04364 113.692 8.04364C113.749 8.04364 113.749 8.12914 113.805 8.12914C113.862 8.12914 113.862 8.10051 113.918 8.10051C113.975 8.10051 113.975 8.07568 114.031 8.07568C114.088 8.07568 114.088 7.99984 114.145 7.99984C114.201 7.99984 114.201 8.00022 114.258 8.00022C114.314 8.00022 114.314 8.08117 114.371 8.08117C114.409 8.08117 114.443 7.99093 114.48 7.98942C114.518 7.98771 114.559 8.05482 114.596 8.0516C114.633 8.04838 114.672 8.05311 114.709 8.04819C114.746 8.04307 114.776 7.99757 114.813 7.99093C114.85 7.9843 114.889 7.99605 114.926 7.9879C114.962 7.97956 114.988 7.93254 115.024 7.92269C115.06 7.91283 115.094 7.90392 115.129 7.89235C115.165 7.88098 115.206 7.88894 115.241 7.87586C115.276 7.86278 115.304 7.83605 115.338 7.82145C115.373 7.80686 115.41 7.80363 115.444 7.78752C115.478 7.77122 115.503 7.7424 115.536 7.72477C115.569 7.70714 115.619 7.72174 115.651 7.70259C115.683 7.68344 115.721 7.67264 115.752 7.65216C115.783 7.6315 115.809 7.60325 115.839 7.58126C115.869 7.55946 115.86 7.4895 115.89 7.46638C115.919 7.44306 116.041 7.52913 116.069 7.50467C116.097 7.48022 116.126 7.45216 116.154 7.42638C116.18 7.40078 116.125 7.29216 116.151 7.26524C116.177 7.23832 116.285 7.28514 116.309 7.25708C116.334 7.22922 116.287 7.13993 116.31 7.11092C116.333 7.08192 116.348 7.04779 116.37 7.01784C116.392 6.9877 116.469 6.99509 116.489 6.964C116.51 6.9331 116.534 6.90258 116.554 6.87073C116.573 6.83888 116.607 6.8131 116.625 6.7803C116.643 6.74769 116.576 6.67167 116.592 6.63812C116.608 6.60475 116.612 6.56778 116.627 6.53347C116.641 6.49935 116.695 6.48229 116.709 6.44759C116.722 6.4129 116.783 6.39413 116.795 6.35868C116.807 6.32342 116.769 6.27242 116.779 6.23659C116.789 6.20095 116.741 6.15223 116.749 6.11602C116.758 6.07981 116.839 6.05972 116.846 6.02313C116.853 5.98673 116.851 5.94844 116.856 5.91147C116.861 5.87488 116.92 5.84265 116.923 5.8055C116.926 5.76853 116.922 5.72853 116.923 5.69137C116.925 5.65441 116.903 5.61497 116.903 5.57763C116.903 5.54028 116.945 5.4999 116.943 5.46293C116.942 5.42578 116.81 5.39696 116.807 5.35999C116.803 5.32284 116.783 5.2908 116.777 5.25421C116.773 5.21724 116.869 5.16568 116.862 5.12909C116.856 5.0925 116.865 5.05098 116.857 5.01496C116.848 4.97857 116.86 4.93477 116.85 4.89894C116.84 4.86311 116.707 4.86368 116.696 4.82842C116.684 4.79297 116.79 4.71676 116.777 4.68207C116.763 4.64719 116.643 4.65477 116.628 4.62065C116.614 4.58633 116.623 4.54349 116.606 4.51012C116.59 4.47657 116.53 4.46747 116.512 4.43486C116.494 4.40206 116.563 4.32149 116.544 4.28983C116.525 4.2578 116.444 4.26481 116.424 4.23372C116.403 4.20282 116.414 4.15144 116.392 4.12149C116.369 4.09154 116.342 4.06632 116.318 4.03732C116.295 4.00831 116.245 4.00263 116.221 3.97476C116.196 3.9467 116.206 3.8885 116.18 3.86158C116.154 3.83485 116.182 3.75239 116.155 3.7266C116.128 3.70101 116.038 3.7412 116.01 3.71675C115.982 3.69229 115.989 3.62423 115.96 3.60091C115.931 3.57779 115.89 3.56755 115.859 3.54575C115.829 3.52376 115.785 3.51959 115.754 3.49892C115.723 3.47845 115.695 3.4521 115.663 3.43295C115.631 3.4138 115.562 3.4612 115.529 3.44357C115.496 3.42594 115.457 3.42499 115.424 3.40887C115.39 3.39276 115.359 3.37854 115.325 3.36375C115.29 3.34916 115.297 3.23693 115.262 3.22385C115.227 3.21077 115.171 3.25532 115.135 3.24375C115.1 3.23219 115.081 3.16508 115.045 3.15522C115.009 3.14517 114.973 3.13039 114.936 3.12223C114.9 3.11389 114.869 3.06441 114.832 3.05759C114.795 3.05114 114.754 3.05361 114.717 3.04868C114.68 3.04375 114.63 3.14688 114.592 3.14366C114.555 3.14043 114.518 3.16906 114.48 3.16735C114.443 3.16565 114.409 3.16584 114.371 3.16584C114.334 3.16584 114.297 3.10233 114.26 3.10403C114.223 3.10574 114.184 3.07768 114.147 3.0811C114.11 3.08432 114.106 3.07238 114.069 3.0773C114.067 3.03977 113.996 3.04356 113.993 3.0064C113.989 2.96925 113.972 2.93493 113.967 2.89796C113.962 2.86081 113.979 2.82157 113.973 2.78479C113.966 2.74782 113.981 2.70763 113.973 2.67104C113.965 2.63426 113.974 2.59369 113.966 2.55749C113.957 2.52109 113.949 2.48393 113.939 2.44791C113.929 2.41189 113.977 2.35691 113.965 2.32127C113.954 2.28544 113.82 2.29018 113.808 2.25511C113.795 2.21966 113.778 2.18819 113.764 2.15331C113.75 2.11843 113.802 2.05757 113.787 2.02326C113.772 1.98895 113.685 1.98762 113.669 1.95406C113.653 1.92013 113.736 1.83747 113.719 1.8043C113.701 1.77112 113.651 1.75463 113.632 1.72202C113.614 1.68942 113.64 1.62913 113.621 1.59728C113.601 1.56524 113.485 1.59349 113.464 1.56221C113.443 1.53093 113.425 1.50022 113.403 1.4697C113.381 1.43898 113.45 1.3423 113.427 1.31254C113.405 1.28277 113.304 1.31254 113.28 1.28353C113.256 1.25453 113.306 1.16372 113.281 1.13566C113.256 1.10742 113.171 1.13168 113.146 1.10419C113.12 1.07689 113.087 1.05756 113.06 1.03121C113.033 1.00467 113.002 0.98457 112.974 0.958978C112.947 0.933385 112.95 0.874427 112.921 0.849782C112.893 0.825326 112.839 0.831393 112.809 0.807696C112.78 0.783999 112.721 0.800302 112.691 0.777743C112.661 0.754993 112.687 0.659447 112.656 0.637835C112.625 0.616224 112.591 0.597456 112.56 0.576981C112.529 0.556317 112.503 0.525606 112.471 0.50608C112.438 0.486553 112.374 0.521056 112.341 0.502667C112.309 0.484278 112.312 0.399538 112.278 0.382286C112.245 0.365035 112.17 0.430818 112.136 0.414704C112.102 0.39859 112.08 0.35821 112.046 0.343234C112.011 0.328447 111.974 0.323138 111.939 0.309299C111.903 0.29546 111.906 0.179629 111.871 0.166928C111.835 0.154605 111.75 0.287688 111.714 0.276313C111.679 0.265128 111.665 0.183042 111.629 0.172994C111.593 0.162946 111.558 0.147022 111.521 0.138112C111.484 0.129202 111.435 0.180956 111.398 0.173373C111.361 0.16579 111.327 0.154605 111.289 0.148159C111.252 0.141903 111.214 0.154226 111.177 0.149107C111.14 0.143989 111.107 0.118396 111.069 0.114604C111.032 0.110813 110.999 0.0620918 110.961 0.0594377C110.924 0.0569732 110.887 0.0226599 110.849 0.0215224C110.812 0.0201954 110.773 0.063798 110.735 0.063798Z" fill="#A7CFFE"/>
<path fill-rule="evenodd" clip-rule="evenodd" d="M100.144 46.6748C99.6773 46.2019 99.5523 46.6397 98.8873 46.6397C98.2239 46.6397 98.2239 46.7316 97.5589 46.7316C96.8956 46.7316 96.8956 46.77 96.2306 46.77C95.5673 46.77 95.5673 46.4976 94.9006 46.4976C94.2373 46.4976 94.2373 46.6831 93.5723 46.6831C92.9056 46.6831 92.9056 46.7132 92.2406 46.7132C91.5739 46.7132 91.5739 46.4776 90.9073 46.4776C90.2406 46.4776 90.2406 46.5494 89.5723 46.5494C88.9039 46.5494 88.9039 46.4843 88.2339 46.4843C87.5656 46.4843 87.5656 46.7399 86.8973 46.7399C86.2289 46.7399 86.2289 46.511 85.5623 46.511C84.8956 46.511 84.8956 46.7483 84.2273 46.7483C83.5606 46.7483 83.5606 46.5879 82.8939 46.5879C82.2273 46.5879 82.2273 46.648 81.5623 46.648C80.8939 46.648 80.8939 46.4592 80.2289 46.4592C79.5623 46.4592 79.5623 46.6714 78.8956 46.6714C78.2289 46.6714 78.2289 46.7199 77.5623 46.7199C76.8939 46.7199 76.8939 46.6965 76.2256 46.6965C75.5573 46.6965 75.5573 46.6998 74.8889 46.6998C74.2189 46.6998 74.2189 46.7416 73.5489 46.7416C72.8806 46.7416 72.8806 46.7332 72.2106 46.7332C71.5423 46.7332 71.5423 46.4375 70.8739 46.4375C70.2073 46.4375 70.2073 46.6163 69.5389 46.6163C68.8706 46.6163 68.8706 46.4759 68.2039 46.4759C67.5356 46.4759 67.5356 46.6564 66.8656 46.6564C66.1973 46.6564 66.1973 46.6931 65.5273 46.6931C64.8573 46.6931 64.8573 46.6731 64.1873 46.6731C63.5173 46.6731 63.5173 46.5611 62.8489 46.5611C62.1806 46.5611 62.1806 46.4308 61.5106 46.4308C60.8423 46.4308 60.8423 46.6848 60.1739 46.6848C59.5023 46.6848 59.5023 46.5712 58.8339 46.5712C58.1639 46.5712 58.1639 46.6397 57.4923 46.6397C56.8273 46.6397 56.8273 46.4392 56.1606 46.4392C55.4923 46.4392 55.4923 46.5645 54.8256 46.5645C54.1539 46.5645 54.1539 46.6714 53.4839 46.6714C52.8156 46.6714 52.8156 46.6046 52.1456 46.6046C51.4789 46.6046 51.4789 46.5979 50.8106 46.5979C50.1423 46.5979 50.1423 46.7115 49.4756 46.7115C48.8023 46.7115 48.8023 46.6547 48.1306 46.6547C47.4623 46.6547 47.4623 46.7683 46.7906 46.7683C46.1206 46.7683 46.1206 46.5294 45.4506 46.5294C44.7773 46.5294 44.7773 46.6597 44.1056 46.6597C43.4356 46.6597 43.4356 46.5194 42.7623 46.5194C42.0923 46.5194 42.0923 46.6647 41.4223 46.6647C40.7523 46.6647 40.7523 46.6948 40.0823 46.6948C39.4106 46.6948 39.4106 46.5929 38.7356 46.5929C38.0623 46.5929 38.0623 46.6831 37.3889 46.6831C36.7106 46.6831 36.7106 46.6029 36.0356 46.6029C35.3589 46.6029 35.2173 46.1818 34.7339 46.6564C34.2606 47.1226 34.6489 47.2696 34.6489 47.9363C34.6489 48.5996 34.7239 48.5996 34.7239 49.2646C34.7239 49.928 34.5406 49.928 34.5406 50.593C34.5406 51.2563 34.5389 51.2563 34.5389 51.9197C34.5389 52.5813 34.8473 52.5813 34.8473 53.2464C34.8473 53.908 34.8289 53.908 34.8289 54.5697C34.8289 55.2314 34.6473 55.2314 34.6473 55.8947C34.6473 56.5547 34.6256 56.5547 34.6256 57.2181C34.6256 57.8797 34.7689 57.8797 34.7689 58.5414C34.7689 59.2031 34.5839 59.2031 34.5839 59.8647C34.5839 60.5264 34.6289 60.5264 34.6289 61.1897C34.6289 61.8514 34.5323 61.8514 34.5323 62.5131C34.5323 63.1764 34.7356 63.1764 34.7356 63.8381C34.7356 64.5031 34.5356 64.5031 34.5356 65.1665C34.5356 65.8315 34.6939 65.8315 34.6939 66.4948C34.6939 67.1615 34.6156 67.1615 34.6156 67.8265C34.6156 68.4932 34.7623 68.4932 34.7623 69.1599C34.7623 69.8249 34.8206 69.8249 34.8206 70.4932C34.8206 71.1583 34.5773 71.1583 34.5773 71.8249C34.5773 72.49 34.7923 72.49 34.7923 73.155C34.7923 73.82 34.5423 73.82 34.5423 74.485C34.5423 75.1483 34.5606 75.1483 34.5606 75.8117C34.5606 76.4767 34.5856 76.4767 34.5856 77.14C34.5856 77.8067 34.7989 77.8067 34.7989 78.4701C34.7989 79.1351 34.8523 79.1351 34.8523 79.8001C34.8523 80.4668 34.7256 80.4668 34.7256 81.1318C34.7256 81.7985 34.6656 81.7985 34.6656 82.4651C34.6656 83.1318 34.7639 83.1318 34.7639 83.8002C34.7639 84.4669 34.6556 84.4669 34.6556 85.1352C34.6556 85.8002 34.5773 85.8002 34.5773 86.4652C34.5773 87.1319 34.5689 87.1319 34.5689 87.7969C34.5689 88.4636 34.8023 88.4636 34.8023 89.1286C34.8023 89.7953 34.7323 89.7953 34.7323 90.462C34.7323 91.1287 34.8373 91.1287 34.8373 91.797C34.8373 92.4637 34.8356 92.4637 34.8356 93.1337C34.8356 93.7988 34.5106 93.7988 34.5106 94.4671C34.5106 95.1338 34.7489 95.1338 34.7489 95.7988C34.7489 96.4672 34.5606 96.4672 34.5606 97.1339C34.5606 97.8022 34.7106 97.8022 34.7106 98.4706C34.7106 99.1372 34.5739 99.1372 34.5739 99.8056C34.5739 100.469 34.6006 100.469 34.6006 101.134C34.6006 101.799 34.8356 101.799 34.8356 102.467C34.8356 103.134 34.7473 103.134 34.7473 103.802C34.7473 104.469 34.7106 104.469 34.7106 105.136C34.7106 105.801 34.6523 105.801 34.6523 106.466C34.6523 107.134 34.5506 107.134 34.5506 107.799C34.5506 108.469 34.6106 108.469 34.6106 109.139C34.6106 109.806 34.6939 109.806 34.6939 110.476C34.6939 111.143 34.8389 111.143 34.8389 111.809C34.8389 112.481 34.8289 112.481 34.8289 113.151C34.8289 113.821 34.5523 113.821 34.5523 114.489C34.5523 115.158 34.8156 115.158 34.8156 115.828C34.8156 116.494 34.6039 116.494 34.6039 117.163C34.6039 117.833 34.6273 117.833 34.6273 118.503C34.6273 119.176 34.5523 119.176 34.5523 119.848C34.5523 120.521 34.7973 120.521 34.7973 121.196C34.7973 121.87 34.2256 122.05 34.6973 122.53C35.1639 123.004 35.3473 122.491 36.0123 122.491C36.6756 122.491 36.6756 122.538 37.3389 122.538C38.0039 122.538 38.0039 122.685 38.6673 122.685C39.3323 122.685 39.3323 122.423 39.9956 122.423C40.6623 122.423 40.6623 122.441 41.3273 122.441C41.9923 122.441 41.9923 122.61 42.6589 122.61C43.3239 122.61 43.3239 122.571 43.9923 122.571C44.6589 122.571 44.6589 122.697 45.3256 122.697C45.9956 122.697 45.9956 122.615 46.6623 122.615C47.3323 122.615 47.3323 122.578 48.0006 122.578C48.6689 122.578 48.6689 122.678 49.3373 122.678C50.0039 122.678 50.0039 122.528 50.6706 122.528C51.3389 122.528 51.3389 122.586 52.0039 122.586C52.6723 122.586 52.6723 122.688 53.3373 122.688C54.0023 122.688 54.0023 122.434 54.6706 122.434C55.3356 122.434 55.3356 122.713 56.0039 122.713C56.6689 122.713 56.6689 122.406 57.3356 122.406C58.0039 122.406 58.0039 122.613 58.6723 122.613C59.3423 122.613 59.3423 122.695 60.0106 122.695C60.6789 122.695 60.6789 122.49 61.3506 122.49C62.0189 122.49 62.0189 122.453 62.6873 122.453C63.3556 122.453 63.3556 122.598 64.0239 122.598C64.6923 122.598 64.6923 122.371 65.3589 122.371C66.0273 122.371 66.0273 122.665 66.6956 122.665C67.3639 122.665 67.3639 122.535 68.0306 122.535C68.7023 122.535 68.7023 122.585 69.3706 122.585C70.0406 122.585 70.0406 122.541 70.7106 122.541C71.3806 122.541 71.3806 122.551 72.0506 122.551C72.7189 122.551 72.7189 122.436 73.3856 122.436C74.0573 122.436 74.0573 122.555 74.7256 122.555C75.3939 122.555 75.3939 122.558 76.0656 122.558C76.7356 122.558 76.7356 122.677 77.4039 122.677C78.0723 122.677 78.0723 122.69 78.7373 122.69C79.4056 122.69 79.4056 122.571 80.0739 122.571C80.7439 122.571 80.7439 122.648 81.4156 122.648C82.0839 122.648 82.0839 122.498 82.7506 122.498C83.4206 122.498 83.4206 122.469 84.0873 122.469C84.7556 122.469 84.7556 122.618 85.4239 122.618C86.0956 122.618 86.0956 122.436 86.7673 122.436C87.4373 122.436 87.4373 122.62 88.1073 122.62C88.7789 122.62 88.7789 122.493 89.4473 122.493C90.1206 122.493 90.1206 122.458 90.7939 122.458C91.4639 122.458 91.4639 122.52 92.1356 122.52C92.8073 122.52 92.8073 122.561 93.4773 122.561C94.1456 122.561 94.1456 122.491 94.8173 122.491C95.4889 122.491 95.4889 122.678 96.1623 122.678C96.8373 122.678 96.8373 122.378 97.5106 122.378C98.1873 122.378 98.1873 122.453 98.8623 122.453C99.5389 122.453 99.7273 123.014 100.209 122.538C100.682 122.072 100.252 121.878 100.252 121.213C100.252 120.548 100.132 120.548 100.132 119.883C100.132 119.22 100.204 119.22 100.204 118.556C100.204 117.893 100.336 117.893 100.336 117.23C100.336 116.566 100.052 116.566 100.052 115.905C100.052 115.241 100.349 115.241 100.349 114.58C100.349 113.916 100.219 113.916 100.219 113.255C100.219 112.593 100.077 112.593 100.077 111.931C100.077 111.27 100.261 111.27 100.261 110.608C100.261 109.945 100.326 109.945 100.326 109.285C100.326 108.621 100.256 108.621 100.256 107.96C100.256 107.296 100.372 107.296 100.372 106.635C100.372 105.971 100.091 105.971 100.091 105.309C100.091 104.644 100.364 104.644 100.364 103.981C100.364 103.316 100.241 103.316 100.241 102.653C100.241 101.988 100.371 101.988 100.371 101.323C100.371 100.656 100.387 100.656 100.387 99.9877C100.387 99.3227 100.364 99.3227 100.364 98.6544C100.364 97.9893 100.317 97.9893 100.317 97.3227C100.317 96.6576 100.377 96.6576 100.377 95.9943C100.377 95.3293 100.302 95.3293 100.302 94.6643C100.302 93.9993 100.214 93.9993 100.214 93.3359C100.214 92.6709 100.057 92.6709 100.057 92.0076C100.057 91.3426 100.266 91.3426 100.266 90.6792C100.266 90.0125 100.222 90.0125 100.222 89.3492C100.222 88.6842 100.326 88.6842 100.326 88.0175C100.326 87.3508 100.097 87.3508 100.097 86.6841C100.097 86.0158 100.072 86.0158 100.072 85.3491C100.072 84.6807 100.169 84.6807 100.169 84.0157C100.169 83.3474 100.179 83.3474 100.179 82.6824C100.179 82.0157 100.294 82.0157 100.294 81.3507C100.294 80.684 100.156 80.684 100.156 80.019C100.156 79.354 100.237 79.354 100.237 78.6873C100.237 78.0206 100.244 78.0206 100.244 77.3522C100.244 76.6839 100.134 76.6839 100.134 76.0172C100.134 75.3488 100.264 75.3488 100.264 74.6822C100.264 74.0155 100.322 74.0155 100.322 73.3488C100.322 72.6804 100.219 72.6804 100.219 72.0154C100.219 71.3471 100.356 71.3471 100.356 70.6787C100.356 70.0104 100.186 70.0104 100.186 69.342C100.186 68.6787 100.127 68.6787 100.127 68.0136C100.127 67.3486 100.379 67.3486 100.379 66.6836C100.379 66.0136 100.329 66.0136 100.329 65.3452C100.329 64.6786 100.226 64.6786 100.226 64.0135C100.226 63.3485 100.169 63.3485 100.169 62.6819C100.169 62.0168 100.331 62.0168 100.331 61.3485C100.331 60.6801 100.291 60.6801 100.291 60.0084C100.291 59.3417 100.346 59.3417 100.346 58.6751C100.346 58.005 100.252 58.005 100.252 57.3384C100.252 56.6667 100.254 56.6667 100.254 55.9966C100.254 55.3283 100.206 55.3283 100.206 54.6583C100.206 53.9899 100.114 53.9899 100.114 53.3232C100.114 52.6532 100.344 52.6532 100.344 51.9865C100.344 51.3148 100.331 51.3148 100.331 50.6448C100.331 49.9731 100.131 49.9731 100.131 49.2997C100.131 48.6264 100.192 48.6347 100.317 47.9714C100.442 47.2997 100.616 47.1543 100.144 46.6748Z" fill="#D0D8DD"/>
<path fill-rule="evenodd" clip-rule="evenodd" d="M89.3187 77.9745C88.8637 78.4574 88.7287 77.9077 88.0671 77.9077C87.4021 77.9077 87.4021 78.1266 86.7371 78.1266C86.0721 78.1266 86.0721 77.8726 85.4071 77.8726C84.7404 77.8726 84.7404 78.14 84.0754 78.14C83.4087 78.14 83.4087 78.1483 82.7437 78.1483C82.0771 78.1483 82.0771 78.0898 81.4137 78.0898C80.7487 78.0898 80.7487 78.0781 80.0837 78.0781C79.4204 78.0781 79.4204 77.9261 78.7554 77.9261C78.0904 77.9261 78.0904 78.0698 77.4254 78.0698C76.7604 78.0698 76.7604 78.1717 76.0921 78.1717C75.4271 78.1717 75.4271 78.0581 74.7604 78.0581C74.0937 78.0581 74.0937 78.1968 73.4287 78.1968C72.7621 78.1968 72.7621 78.1934 72.0971 78.1934C71.4321 78.1934 71.4321 78.1517 70.7654 78.1517C70.1004 78.1517 70.1004 78.1583 69.4321 78.1583C68.7671 78.1583 68.7671 77.9896 68.1004 77.9896C67.4371 77.9896 67.4371 78.1901 66.7754 78.1901C66.1087 78.1901 66.1087 78.1299 65.4454 78.1299C64.7771 78.1299 64.7771 77.9879 64.1104 77.9879C63.4454 77.9879 63.4454 78.0364 62.7804 78.0364C62.1171 78.0364 62.1171 78.1182 61.4521 78.1182C60.7871 78.1182 60.7871 77.9562 60.1204 77.9562C59.4537 77.9562 59.4537 78.1684 58.7854 78.1684C58.1187 78.1684 58.1187 77.901 57.4521 77.901C56.7837 77.901 56.7837 77.9779 56.1187 77.9779C55.4504 77.9779 55.4504 78.2118 54.7804 78.2118C54.1121 78.2118 54.1121 78.1583 53.4454 78.1583C52.7771 78.1583 52.7771 78.0965 52.1104 78.0965C51.4437 78.0965 51.4437 77.9779 50.7771 77.9779C50.1087 77.9779 50.1087 78.0831 49.4371 78.0831C48.7671 78.0831 48.7671 77.9127 48.0971 77.9127C47.4237 77.9127 47.4237 78.0865 46.7521 78.0865C46.0787 78.0865 45.9571 78.4474 45.4921 77.9612C45.0071 77.4532 45.4821 77.3413 45.4821 76.6378C45.4821 75.9344 44.9571 75.774 45.4387 75.2627C45.8937 74.7798 46.0704 75.1992 46.7321 75.1992C47.3987 75.1992 47.3987 75.1474 48.0621 75.1474C48.7287 75.1474 48.7287 75.3462 49.3921 75.3462C50.0587 75.3462 50.0587 75.3863 50.7254 75.3863C51.3904 75.3863 51.3904 75.3646 52.0571 75.3646C52.7221 75.3646 52.7221 75.1357 53.3854 75.1357C54.0504 75.1357 54.0504 75.1491 54.7154 75.1491C55.3804 75.1491 55.3804 75.398 56.0437 75.398C56.7104 75.398 56.7104 75.3947 57.3737 75.3947C58.0387 75.3947 58.0387 75.1073 58.7071 75.1073C59.3721 75.1073 59.3721 75.368 60.0404 75.368C60.7054 75.368 60.7054 75.2042 61.3704 75.2042C62.0371 75.2042 62.0371 75.0588 62.7021 75.0588C63.3687 75.0588 63.3687 75.1875 64.0337 75.1875C64.7004 75.1875 64.7004 75.3479 65.3671 75.3479C66.0321 75.3479 66.0321 75.134 66.7004 75.134C67.3621 75.134 67.3621 75.3847 68.0254 75.3847C68.6904 75.3847 68.6904 75.0889 69.3537 75.0889C70.0221 75.0889 70.0221 75.0739 70.6887 75.0739C71.3554 75.0739 71.3554 75.3462 72.0187 75.3462C72.6837 75.3462 72.6837 75.3496 73.3471 75.3496C74.0121 75.3496 74.0121 75.3212 74.6787 75.3212C75.3454 75.3212 75.3454 75.1758 76.0154 75.1758C76.6804 75.1758 76.6804 75.2276 77.3471 75.2276C78.0154 75.2276 78.0154 75.3997 78.6804 75.3997C79.3504 75.3997 79.3504 75.1374 80.0187 75.1374C80.6871 75.1374 80.6871 75.3529 81.3554 75.3529C82.0221 75.3529 82.0221 75.1691 82.6887 75.1691C83.3554 75.1691 83.3554 75.1975 84.0221 75.1975C84.6921 75.1975 84.6921 75.1457 85.3621 75.1457C86.0321 75.1457 86.0321 75.3596 86.7037 75.3596C87.3754 75.3596 87.3754 75.2243 88.0471 75.2243C88.7221 75.2243 88.9437 74.7297 89.4104 75.2159C89.8971 75.7222 89.3604 75.9294 89.4871 76.6195C89.6154 77.3212 89.8004 77.4633 89.3187 77.9745Z" fill="#8C9CA6"/>
<path fill-rule="evenodd" clip-rule="evenodd" d="M72.2224 101.684C71.7641 102.166 71.4591 101.443 70.7924 101.443C70.1241 101.443 70.1241 101.42 69.4574 101.42C68.7891 101.42 68.7891 101.62 68.1224 101.62C67.4607 101.62 67.4607 101.69 66.7957 101.69C66.1307 101.69 66.1307 101.503 65.4641 101.503C64.7974 101.503 64.7974 101.74 64.1291 101.74C63.4624 101.74 63.4624 101.727 62.7991 101.727C62.1324 101.727 62.1324 101.637 61.4691 101.637C60.8024 101.637 60.8024 101.485 60.1357 101.485C59.4674 101.485 59.4674 101.699 58.7974 101.699C58.1307 101.699 58.1307 101.562 57.4641 101.562C56.7957 101.562 56.7957 101.76 56.1291 101.76C55.4591 101.76 55.4591 101.515 54.7891 101.515C54.1224 101.515 54.1224 101.608 53.4524 101.608C52.7841 101.608 52.7841 101.475 52.1174 101.475C51.4491 101.475 51.4491 101.436 50.7841 101.436C50.1124 101.436 50.1124 101.692 49.4424 101.692C48.7707 101.692 48.7707 101.762 48.0991 101.762C47.4257 101.762 47.4257 101.528 46.7524 101.528C46.0791 101.528 45.9991 101.956 45.5307 101.47C45.0457 100.962 45.4541 100.887 45.4541 100.185C45.4541 99.4813 44.9191 99.2825 45.4024 98.7745C45.8624 98.29 46.0724 98.6826 46.7391 98.6826C47.4057 98.6826 47.4057 98.8213 48.0741 98.8213C48.7407 98.8213 48.7407 98.9232 49.4091 98.9232C50.0707 98.9232 50.0707 98.7161 50.7341 98.7161C51.4007 98.7161 51.4007 98.7712 52.0657 98.7712C52.7341 98.7712 52.7341 98.7745 53.4024 98.7745C54.0674 98.7745 54.0674 98.8915 54.7324 98.8915C55.3974 98.8915 55.3974 98.6826 56.0624 98.6826C56.7274 98.6826 56.7274 98.8547 57.3957 98.8547C58.0641 98.8547 58.0641 98.9216 58.7324 98.9216C59.4007 98.9216 59.4007 98.9349 60.0674 98.9349C60.7341 98.9349 60.7341 98.6141 61.4024 98.6141C62.0707 98.6141 62.0707 98.8865 62.7424 98.8865C63.4091 98.8865 63.4091 98.7027 64.0774 98.7027C64.7474 98.7027 64.7474 98.6342 65.4141 98.6342C66.0807 98.6342 66.0807 98.945 66.7474 98.945C67.4174 98.945 67.4174 98.9383 68.0891 98.9383C68.7607 98.9383 68.7607 98.696 69.4307 98.696C70.1041 98.696 70.1041 98.7745 70.7791 98.7745C71.4507 98.7745 71.5474 98.3986 72.0124 98.8848C72.4974 99.3928 72.1191 99.4629 72.2824 100.145C72.4707 100.923 72.7041 101.172 72.2224 101.684Z" fill="#8C9CA6"/>
<path fill-rule="evenodd" clip-rule="evenodd" d="M132.298 122.429C131.859 122.912 131.774 122.391 131.123 122.391C130.473 122.391 130.473 122.394 129.824 122.394C129.174 122.394 129.174 122.6 128.526 122.6C127.878 122.6 127.878 122.697 127.228 122.697C126.574 122.697 126.574 122.536 125.923 122.536C125.271 122.536 125.271 122.533 124.621 122.533C123.969 122.533 123.969 122.561 123.318 122.561C122.664 122.561 122.664 122.418 122.011 122.418C121.359 122.418 121.359 122.712 120.708 122.712C120.054 122.712 120.054 122.433 119.404 122.433C118.753 122.433 118.753 122.461 118.101 122.461C117.449 122.461 117.449 122.383 116.794 122.383C116.139 122.383 116.139 122.675 115.484 122.675C114.828 122.675 114.828 122.695 114.171 122.695C113.513 122.695 113.376 122.959 112.933 122.473C112.449 121.946 112.829 121.828 112.829 121.109C112.829 120.391 112.856 120.391 112.856 119.674C112.856 118.954 112.941 118.954 112.941 118.232C112.941 117.514 112.471 117.413 112.954 116.88C113.391 116.397 113.509 116.927 114.159 116.927C114.809 116.927 114.809 116.802 115.458 116.802C116.108 116.802 116.108 116.683 116.756 116.683C117.404 116.683 117.404 116.919 118.054 116.919C118.708 116.919 118.708 116.665 119.359 116.665C120.011 116.665 120.011 116.648 120.663 116.648C121.313 116.648 121.313 116.927 121.964 116.927C122.618 116.927 122.618 116.763 123.271 116.763C123.924 116.763 123.924 116.64 124.574 116.64C125.228 116.64 125.228 116.636 125.878 116.636C126.529 116.636 126.529 116.904 127.181 116.904C127.833 116.904 127.833 116.85 128.488 116.85C129.143 116.85 129.143 116.753 129.798 116.753C130.456 116.753 130.456 116.782 131.111 116.782C131.769 116.782 132.046 116.249 132.489 116.733C132.974 117.26 132.534 117.51 132.534 118.225C132.534 118.946 132.511 118.946 132.511 119.664C132.511 120.382 132.444 120.372 132.558 121.083C132.669 121.778 132.781 121.896 132.298 122.429Z" fill="#FFCA00"/>
<path fill-rule="evenodd" clip-rule="evenodd" d="M128.519 122.625C128.069 123.113 127.769 122.423 127.104 122.423C126.439 122.423 126.439 122.443 125.774 122.443C125.108 122.443 124.853 123.075 124.398 122.585C123.911 122.06 124.529 121.826 124.529 121.11C124.529 120.391 124.551 120.391 124.551 119.673C124.551 118.954 124.473 118.954 124.473 118.232C124.473 117.512 123.971 117.335 124.456 116.807C124.908 116.317 125.106 116.85 125.771 116.85C126.436 116.85 126.436 116.886 127.101 116.886C127.768 116.886 128.036 116.252 128.488 116.742C128.976 117.265 128.323 117.509 128.323 118.226C128.323 118.946 128.493 118.946 128.493 119.664C128.493 120.383 128.151 120.431 128.316 121.131C128.503 121.92 129.008 122.095 128.519 122.625Z" fill="white"/>
<path fill-rule="evenodd" clip-rule="evenodd" d="M132.459 115.565C132.021 116.049 131.774 115.402 131.122 115.402C130.474 115.402 130.474 115.583 129.824 115.583C129.174 115.583 129.174 115.565 128.527 115.565C127.877 115.565 127.877 115.708 127.227 115.708C126.576 115.708 126.576 115.595 125.922 115.595C125.272 115.595 125.272 115.631 124.621 115.631C123.969 115.631 123.969 115.641 123.319 115.641C122.664 115.641 122.664 115.514 122.011 115.514C121.359 115.514 121.359 115.381 120.707 115.381C120.056 115.381 120.056 115.362 119.404 115.362C118.752 115.362 118.752 115.491 118.102 115.491C117.449 115.491 117.449 115.563 116.796 115.563C116.139 115.563 116.139 115.549 115.484 115.549C114.827 115.549 114.827 115.69 114.171 115.69C113.514 115.69 113.357 115.967 112.912 115.483C112.429 114.955 112.852 114.818 112.852 114.101C112.852 113.382 112.751 113.382 112.751 112.664C112.751 111.944 112.726 111.944 112.726 111.224C112.726 110.503 112.331 110.276 112.812 109.743C113.251 109.259 113.509 109.875 114.161 109.875C114.809 109.875 114.809 109.757 115.459 109.757C116.107 109.757 116.107 109.949 116.756 109.949C117.406 109.949 117.406 109.803 118.054 109.803C118.707 109.803 118.707 109.668 119.361 109.668C120.011 109.668 120.011 109.812 120.662 109.812C121.314 109.812 121.314 109.915 121.964 109.915C122.619 109.915 122.619 109.751 123.271 109.751C123.924 109.751 123.924 109.688 124.576 109.688C125.227 109.688 125.227 109.753 125.879 109.753C126.529 109.753 126.529 109.905 127.181 109.905C127.834 109.905 127.834 109.787 128.487 109.787C129.144 109.787 129.144 109.757 129.797 109.757C130.456 109.757 130.456 109.865 131.111 109.865C131.769 109.865 132.004 109.277 132.447 109.763C132.931 110.291 132.531 110.5 132.531 111.217C132.531 111.935 132.317 111.935 132.317 112.654C132.317 113.374 132.212 113.404 132.364 114.107C132.531 114.871 132.941 115.031 132.459 115.565Z" fill="#FFCA00"/>
<path fill-rule="evenodd" clip-rule="evenodd" d="M128.494 115.591C128.044 116.08 127.769 115.367 127.105 115.367C126.44 115.367 126.44 115.676 125.774 115.676C125.109 115.676 124.927 115.995 124.474 115.506C123.987 114.983 124.352 114.817 124.352 114.1C124.352 113.384 124.504 113.384 124.504 112.663C124.504 111.943 124.509 111.943 124.509 111.225C124.509 110.503 124.019 110.371 124.507 109.843C124.957 109.355 125.107 109.731 125.77 109.731C126.437 109.731 126.437 109.729 127.102 109.729C127.767 109.729 127.95 109.323 128.402 109.813C128.89 110.336 128.512 110.5 128.512 111.218C128.512 111.935 128.479 111.935 128.479 112.653C128.479 113.375 128.274 113.394 128.435 114.094C128.61 114.871 128.982 115.063 128.494 115.591Z" fill="white"/>
<mask id="mask0" mask-type="alpha" maskUnits="userSpaceOnUse" x="112" y="114" width="21" height="4">
<path fill-rule="evenodd" clip-rule="evenodd" d="M112.373 114.994H132.941V117.416H112.373V114.994Z" fill="white"/>
</mask>
<g mask="url(#mask0)">
<path fill-rule="evenodd" clip-rule="evenodd" d="M132.421 117.066C132.039 117.596 131.772 117.243 131.122 117.243C130.472 117.243 130.472 116.944 129.822 116.944C129.174 116.944 129.174 117.136 128.526 117.136C127.876 117.136 127.876 116.956 127.227 116.956C126.574 116.956 126.574 117.101 125.922 117.101C125.271 117.101 125.271 116.994 124.619 116.994C123.969 116.994 123.969 117.215 123.317 117.215C122.664 117.215 122.664 117.096 122.011 117.096C121.357 117.096 121.357 117.153 120.707 117.153C120.054 117.153 120.054 116.932 119.402 116.932C118.752 116.932 118.752 117.161 118.101 117.161C117.449 117.161 117.449 117.143 116.794 117.143C116.137 117.143 116.137 116.962 115.484 116.962C114.826 116.962 114.826 117.24 114.171 117.24C113.512 117.24 113.126 117.687 112.737 117.156C112.207 116.423 112.277 115.956 112.806 115.221C113.187 114.692 113.507 115.255 114.159 115.255C114.809 115.255 114.809 115.129 115.457 115.129C116.107 115.129 116.107 115.153 116.756 115.153C117.404 115.153 117.404 115.402 118.054 115.402C118.706 115.402 118.706 115.33 119.359 115.33C120.011 115.33 120.011 115.36 120.661 115.36C121.312 115.36 121.312 115.3 121.964 115.3C122.617 115.3 122.617 115.26 123.271 115.26C123.922 115.26 123.922 115.3 124.574 115.3C125.227 115.3 125.227 115.176 125.877 115.176C126.529 115.176 126.529 115.388 127.179 115.388C127.832 115.388 127.832 115.215 128.487 115.215C129.142 115.215 129.142 115.418 129.797 115.418C130.454 115.418 130.454 115.403 131.111 115.403C131.767 115.403 131.871 114.904 132.439 115.235C133.256 115.711 132.947 116.332 132.421 117.066Z" fill="#FF9200"/>
</g>
<path fill-rule="evenodd" clip-rule="evenodd" d="M89.4463 89.8667C88.9896 90.3496 88.7296 89.7915 88.068 89.7915C87.4013 89.7915 87.4013 89.9536 86.738 89.9536C86.073 89.9536 86.073 89.6712 85.408 89.6712C84.7413 89.6712 84.7413 89.8617 84.0746 89.8617C83.4096 89.8617 83.4096 89.8233 82.7446 89.8233C82.078 89.8233 82.078 89.9737 81.4146 89.9737C80.7496 89.9737 80.7496 89.7397 80.0846 89.7397C79.4196 89.7397 79.4196 89.835 78.7563 89.835C78.0913 89.835 78.0913 89.7163 77.4263 89.7163C76.7613 89.7163 76.7613 89.8483 76.093 89.8483C75.428 89.8483 75.428 89.7531 74.7596 89.7531C74.0946 89.7531 74.0946 89.8417 73.4296 89.8417C72.763 89.8417 72.763 89.83 72.098 89.83C71.4313 89.83 71.4313 89.6896 70.7663 89.6896C70.1013 89.6896 70.1013 89.7381 69.433 89.7381C68.768 89.7381 68.768 89.6712 68.0996 89.6712C67.438 89.6712 67.438 89.8216 66.7746 89.8216C66.1096 89.8216 66.1096 89.967 65.4463 89.967C64.778 89.967 64.778 89.9753 64.1113 89.9753C63.4446 89.9753 63.4446 89.9519 62.7813 89.9519C62.118 89.9519 62.118 89.7097 61.453 89.7097C60.788 89.7097 60.788 89.8066 60.1213 89.8066C59.4546 89.8066 59.4546 89.9753 58.7863 89.9753C58.1196 89.9753 58.1196 89.972 57.453 89.972C56.7846 89.972 56.7846 89.9887 56.1196 89.9887C55.4513 89.9887 55.4513 89.9369 54.7813 89.9369C54.113 89.9369 54.113 89.8233 53.4446 89.8233C52.778 89.8233 52.778 89.6846 52.1113 89.6846C51.4446 89.6846 51.4446 89.9285 50.778 89.9285C50.108 89.9285 50.108 89.8483 49.438 89.8483C48.768 89.8483 48.768 89.9252 48.0963 89.9252C47.4246 89.9252 47.4246 89.6779 46.753 89.6779C46.078 89.6779 45.773 90.3997 45.308 89.9118C44.823 89.4056 45.2496 89.1148 45.2496 88.4114C45.2496 87.7079 44.863 87.459 45.3463 86.9477C45.8013 86.4631 46.0713 86.9009 46.733 86.9009C47.398 86.9009 47.398 86.9527 48.063 86.9527C48.728 86.9527 48.728 86.961 49.393 86.961C50.0596 86.961 50.0596 87.1649 50.7263 87.1649C51.3913 87.1649 51.3913 86.9627 52.0563 86.9627C52.723 86.9627 52.723 86.961 53.3863 86.961C54.0513 86.961 54.0513 86.8441 54.7163 86.8441C55.3813 86.8441 55.3813 86.9276 56.0446 86.9276C56.7096 86.9276 56.7096 86.9293 57.3746 86.9293C58.0396 86.9293 58.0396 86.9143 58.708 86.9143C59.373 86.9143 59.373 86.9343 60.0396 86.9343C60.7063 86.9343 60.7063 87.0028 61.3713 87.0028C62.038 87.0028 62.038 86.9661 62.703 86.9661C63.3696 86.9661 63.3696 86.8407 64.0346 86.8407C64.6996 86.8407 64.6996 87.0914 65.368 87.0914C66.033 87.0914 66.033 86.9677 66.7013 86.9677C67.363 86.9677 67.363 87.0229 68.0246 87.0229C68.6913 87.0229 68.6913 87.0011 69.3546 87.0011C70.023 87.0011 70.023 86.9778 70.6896 86.9778C71.3563 86.9778 71.3563 87.1081 72.0196 87.1081C72.683 87.1081 72.683 87.1098 73.348 87.1098C74.013 87.1098 74.013 86.8708 74.6796 86.8708C75.3463 86.8708 75.3463 86.9761 76.0146 86.9761C76.6813 86.9761 76.6813 87.1732 77.348 87.1732C78.0163 87.1732 78.0163 86.8474 78.6813 86.8474C79.3496 86.8474 79.3496 86.9076 80.0196 86.9076C80.688 86.9076 80.688 87.0496 81.3563 87.0496C82.023 87.0496 82.023 86.9961 82.6896 86.9961C83.3563 86.9961 83.3563 86.9126 84.023 86.9126C84.6913 86.9126 84.6913 87.1799 85.363 87.1799C86.033 87.1799 86.033 86.8725 86.703 86.8725C87.3763 86.8725 87.3763 86.8341 88.048 86.8341C88.7213 86.8341 88.8613 86.5818 89.328 87.068C89.813 87.5759 89.2946 87.7129 89.4513 88.398C89.6213 89.1549 89.928 89.3554 89.4463 89.8667Z" fill="#8C9CA6"/>
<path fill-rule="evenodd" clip-rule="evenodd" d="M108.426 122.632C107.979 123.123 107.666 122.632 107.004 122.632C106.344 122.632 106.344 122.638 105.684 122.638C105.026 122.638 105.026 122.381 104.366 122.381C103.706 122.381 103.706 122.468 103.046 122.468C102.382 122.468 102.382 122.373 101.721 122.373C101.057 122.373 101.057 122.389 100.397 122.389C99.7341 122.389 99.7341 122.416 99.0741 122.416C98.4091 122.416 98.4091 122.55 97.7458 122.55C97.0825 122.55 97.0825 122.702 96.4208 122.702C95.7575 122.702 95.7575 122.585 95.0958 122.585C94.4341 122.585 94.4341 122.595 93.7725 122.595C93.1091 122.595 93.1091 122.551 92.4441 122.551C91.7791 122.551 91.7791 122.528 91.1125 122.528C90.4458 122.528 90.4458 122.598 89.7791 122.598C89.1091 122.598 88.9241 123.009 88.4725 122.516C87.9808 121.978 88.5058 121.816 88.5058 121.086C88.5058 120.358 88.5608 120.358 88.5608 119.626C88.5608 118.896 88.3191 118.896 88.3191 118.162C88.3191 117.432 87.9741 117.261 88.4641 116.718C88.9091 116.227 89.1041 116.789 89.7675 116.789C90.4258 116.789 90.4258 116.869 91.0875 116.869C91.7458 116.869 91.7458 116.787 92.4058 116.787C93.0641 116.787 93.0641 116.707 93.7258 116.707C94.3875 116.707 94.3875 116.82 95.0525 116.82C95.7125 116.82 95.7125 116.668 96.3758 116.668C97.0358 116.668 97.0358 116.824 97.6975 116.824C98.3625 116.824 98.3625 116.648 99.0258 116.648C99.6891 116.648 99.6891 116.595 100.351 116.595C101.014 116.595 101.014 116.636 101.676 116.636C102.337 116.636 102.337 116.68 102.997 116.68C103.664 116.68 103.664 116.839 104.327 116.839C104.992 116.839 104.992 116.797 105.659 116.797C106.326 116.797 106.326 116.708 106.994 116.708C107.661 116.708 107.804 116.272 108.256 116.765C108.747 117.303 108.309 117.428 108.309 118.155C108.309 118.887 108.291 118.887 108.291 119.616C108.291 120.349 108.284 120.339 108.454 121.051C108.644 121.855 108.916 122.09 108.426 122.632Z" fill="#FFCA00"/>
<path fill-rule="evenodd" clip-rule="evenodd" d="M104.304 122.573C103.846 123.071 103.597 122.708 102.922 122.708C102.247 122.708 102.247 122.608 101.569 122.608C100.892 122.608 100.712 123.009 100.251 122.511C99.7556 121.978 100.261 121.816 100.261 121.086C100.261 120.357 100.092 120.357 100.092 119.625C100.092 118.895 100.339 118.895 100.339 118.162C100.339 117.432 99.8423 117.35 100.337 116.812C100.796 116.315 100.891 116.822 101.564 116.822C102.242 116.822 102.242 116.538 102.919 116.538C103.596 116.538 103.752 116.259 104.212 116.755C104.707 117.288 104.437 117.428 104.437 118.155C104.437 118.887 104.109 118.887 104.109 119.615C104.109 120.349 103.981 120.394 104.136 121.111C104.304 121.886 104.799 122.037 104.304 122.573Z" fill="white"/>
<path fill-rule="evenodd" clip-rule="evenodd" d="M108.229 115.33C107.784 115.823 107.666 115.589 107.006 115.589C106.344 115.589 106.344 115.59 105.686 115.59C105.026 115.59 105.026 115.503 104.367 115.503C103.706 115.503 103.706 115.594 103.047 115.594C102.382 115.594 102.382 115.412 101.721 115.412C101.057 115.412 101.057 115.574 100.397 115.574C99.7339 115.574 99.7339 115.303 99.0739 115.303C98.4089 115.303 98.4089 115.385 97.7455 115.385C97.0839 115.385 97.0839 115.455 96.4205 115.455C95.7589 115.455 95.7589 115.325 95.0955 115.325C94.4355 115.325 94.4355 115.433 93.7722 115.433C93.1089 115.433 93.1089 115.565 92.4439 115.565C91.7789 115.565 91.7789 115.577 91.1122 115.577C90.4455 115.577 90.4455 115.544 89.7789 115.544C89.1089 115.544 88.8572 115.948 88.4039 115.455C87.9139 114.919 88.3122 114.691 88.3122 113.965C88.3122 113.233 88.5872 113.233 88.5872 112.504C88.5872 111.772 88.3005 111.772 88.3005 111.041C88.3005 110.307 87.8789 110.051 88.3689 109.51C88.8139 109.019 89.1039 109.5 89.7672 109.5C90.4255 109.5 90.4255 109.629 91.0872 109.629C91.7455 109.629 91.7455 109.637 92.4055 109.637C93.0639 109.637 93.0639 109.627 93.7255 109.627C94.3872 109.627 94.3872 109.726 95.0522 109.726C95.7122 109.726 95.7122 109.684 96.3755 109.684C97.0355 109.684 97.0355 109.682 97.6989 109.682C98.3622 109.682 98.3622 109.589 99.0272 109.589C99.6889 109.589 99.6889 109.595 100.351 109.595C101.014 109.595 101.014 109.597 101.676 109.597C102.337 109.597 102.337 109.51 102.997 109.51C103.664 109.51 103.664 109.457 104.327 109.457C104.994 109.457 104.994 109.507 105.659 109.507C106.326 109.507 106.326 109.401 106.994 109.401C107.661 109.401 107.801 109.154 108.252 109.647C108.744 110.183 108.496 110.304 108.496 111.034C108.496 111.762 108.217 111.762 108.217 112.494C108.217 113.224 108.097 113.254 108.219 113.975C108.341 114.695 108.719 114.788 108.229 115.33Z" fill="#FFCA00"/>
<path fill-rule="evenodd" clip-rule="evenodd" d="M104.205 115.359C103.748 115.855 103.598 115.541 102.921 115.541C102.246 115.541 102.246 115.407 101.57 115.407C100.893 115.407 100.691 115.905 100.23 115.407C99.7331 114.874 100.221 114.692 100.221 113.964C100.221 113.234 100.186 113.234 100.186 112.503C100.186 111.773 100.101 111.773 100.101 111.04C100.101 110.308 99.8414 110.226 100.338 109.688C100.795 109.192 100.891 109.519 101.565 109.519C102.241 109.519 102.241 109.486 102.92 109.486C103.596 109.486 103.695 109.187 104.158 109.685C104.653 110.218 104.378 110.305 104.378 111.033C104.378 111.763 104.38 111.763 104.38 112.493C104.38 113.225 104.07 113.25 104.201 113.97C104.336 114.702 104.7 114.821 104.205 115.359Z" fill="white"/>
<path fill-rule="evenodd" clip-rule="evenodd" d="M108.361 108.351C107.916 108.842 107.666 108.386 107.006 108.386C106.344 108.386 106.344 108.215 105.686 108.215C105.026 108.215 105.026 108.189 104.367 108.189C103.706 108.189 103.706 108.448 103.047 108.448C102.382 108.448 102.382 108.162 101.721 108.162C101.057 108.162 101.057 108.362 100.397 108.362C99.734 108.362 99.734 108.456 99.074 108.456C98.409 108.456 98.409 108.354 97.7457 108.354C97.0823 108.354 97.0823 108.269 96.4207 108.269C95.7573 108.269 95.7573 108.446 95.0957 108.446C94.4357 108.446 94.4357 108.254 93.7723 108.254C93.109 108.254 93.109 108.463 92.444 108.463C91.779 108.463 91.779 108.421 91.1123 108.421C90.4457 108.421 90.4457 108.334 89.779 108.334C89.109 108.334 88.954 108.757 88.504 108.264C88.0123 107.728 88.4407 107.592 88.4407 106.862C88.4407 106.134 88.4623 106.134 88.4623 105.402C88.4623 104.671 88.284 104.671 88.284 103.938C88.284 103.208 87.919 102.987 88.409 102.446C88.854 101.953 89.104 102.412 89.7673 102.412C90.4257 102.412 90.4257 102.606 91.0873 102.606C91.7457 102.606 91.7457 102.538 92.4057 102.538C93.064 102.538 93.064 102.539 93.7257 102.539C94.3873 102.539 94.3873 102.526 95.0523 102.526C95.7123 102.526 95.7123 102.558 96.3757 102.558C97.0357 102.558 97.0357 102.334 97.699 102.334C98.3623 102.334 98.3623 102.514 99.0257 102.514C99.689 102.514 99.689 102.441 100.351 102.441C101.014 102.441 101.014 102.417 101.676 102.417C102.337 102.417 102.337 102.605 102.997 102.605C103.664 102.605 103.664 102.539 104.327 102.539C104.992 102.539 104.992 102.575 105.659 102.575C106.326 102.575 106.326 102.591 106.994 102.591C107.661 102.591 107.799 102.053 108.251 102.546C108.742 103.084 108.362 103.204 108.362 103.931C108.362 104.663 108.464 104.663 108.464 105.392C108.464 106.125 108.321 106.108 108.474 106.825C108.642 107.601 108.852 107.808 108.361 108.351Z" fill="#FFCA00"/>
<path fill-rule="evenodd" clip-rule="evenodd" d="M104.179 108.233C103.721 108.731 103.598 108.442 102.923 108.442C102.248 108.442 102.248 108.35 101.571 108.35C100.893 108.35 100.593 108.895 100.131 108.4C99.6358 107.866 100.361 107.592 100.361 106.863C100.361 106.133 100.299 106.133 100.299 105.403C100.299 104.671 100.168 104.671 100.168 103.939C100.168 103.207 99.6008 102.903 100.098 102.363C100.554 101.867 100.891 102.42 101.566 102.42C102.243 102.42 102.243 102.5 102.919 102.5C103.596 102.5 103.884 101.911 104.346 102.407C104.841 102.94 104.154 103.204 104.154 103.932C104.154 104.663 104.429 104.663 104.429 105.393C104.429 106.125 104.284 106.11 104.411 106.831C104.538 107.553 104.674 107.697 104.179 108.233Z" fill="white"/>
<path fill-rule="evenodd" clip-rule="evenodd" d="M50.3643 122.439C49.8759 122.895 49.6276 122.297 48.9593 122.297C48.2909 122.297 48.2909 122.197 47.6226 122.197C46.9593 122.197 46.9593 122.225 46.2959 122.225C45.6293 122.225 45.6293 122.26 44.9626 122.26C44.2926 122.26 44.2926 122.32 43.6259 122.32C42.9593 122.32 42.9593 122.195 42.2926 122.195C41.6276 122.195 41.6276 122.402 40.9609 122.402C40.2959 122.402 40.2959 122.519 39.6293 122.519C38.9593 122.519 38.9593 122.491 38.2909 122.491C37.6209 122.491 37.6209 122.21 36.9543 122.21C36.2859 122.21 36.2859 122.409 35.6176 122.409C34.9476 122.409 34.9476 122.349 34.2776 122.349C33.6076 122.349 33.6076 122.23 32.9393 122.23C32.2709 122.23 32.2709 122.33 31.6009 122.33C30.9343 122.33 30.9343 122.489 30.2659 122.489C29.5959 122.489 29.5959 122.511 28.9243 122.511C28.2509 122.511 28.2509 122.364 27.5809 122.364C26.9059 122.364 26.9059 122.232 26.2326 122.232C25.5576 122.232 25.4543 122.742 24.9576 122.284C24.5009 121.864 25.0409 121.744 25.0409 121.124C25.0409 120.506 24.8109 120.506 24.8109 119.888C24.8109 119.264 24.8826 119.264 24.8826 118.643C24.8826 118.018 24.8076 118.018 24.8076 117.395C24.8076 116.77 24.7209 116.77 24.7209 116.145C24.7209 115.52 24.3943 115.286 24.8493 114.858C25.3376 114.4 25.5526 115.069 26.2209 115.069C26.8893 115.069 26.8893 114.999 27.5559 114.999C28.2209 114.999 28.2209 115 28.8843 115C29.5509 115 29.5509 114.942 30.2159 114.942C30.8843 114.942 30.8843 114.977 31.5543 114.977C32.2193 114.977 32.2193 115.065 32.8876 115.065C33.5509 115.065 33.5509 114.753 34.2176 114.753C34.8843 114.753 34.8843 114.912 35.5493 114.912C36.2209 114.912 36.2209 114.969 36.8893 114.969C37.5559 114.969 37.5559 114.766 38.2259 114.766C38.8926 114.766 38.8926 114.979 39.5626 114.979H40.9009C41.5726 114.979 41.5726 114.974 42.2409 114.974C42.9093 114.974 42.9093 114.952 43.5776 114.952C44.2459 114.952 44.2459 115.042 44.9126 115.042C45.5843 115.042 45.5843 114.933 46.2543 114.933C46.9259 114.933 46.9259 115.027 47.5993 115.027C48.2726 115.027 48.2726 114.885 48.9459 114.885C49.6209 114.885 49.8609 114.37 50.3576 114.827C50.8143 115.246 50.4393 115.515 50.4393 116.137C50.4393 116.755 50.1843 116.755 50.1843 117.375C50.1843 117.996 50.3876 117.996 50.3876 118.619C50.3876 119.241 50.2743 119.241 50.2743 119.864C50.2743 120.489 50.1459 120.508 50.2959 121.114C50.4659 121.806 50.8193 122.013 50.3643 122.439Z" fill="#FFCA00"/>
<path fill-rule="evenodd" clip-rule="evenodd" d="M45.0888 122.34C44.6238 122.791 44.4654 122.42 43.8188 122.42C43.1738 122.42 43.1738 122.395 42.5254 122.395C41.8754 122.395 41.8754 122.35 41.2271 122.35C40.5788 122.35 40.4704 122.739 40.0004 122.289C39.5538 121.862 39.7721 121.745 39.7721 121.123C39.7721 120.505 40.0138 120.505 40.0138 119.887C40.0138 119.263 39.9688 119.263 39.9688 118.642C39.9688 118.019 39.8938 118.019 39.8938 117.395C39.8938 116.77 40.0854 116.77 40.0854 116.146C40.0854 115.521 39.5088 115.36 39.9588 114.926C40.4238 114.476 40.5754 114.856 41.2221 114.856C41.8688 114.856 41.8688 115.066 42.5154 115.066C43.1654 115.066 43.1654 115.029 43.8138 115.029C44.4621 115.029 44.5704 114.52 45.0421 114.969C45.4888 115.399 45.0088 115.516 45.0088 116.136C45.0088 116.754 45.0671 116.754 45.0671 117.374C45.0671 117.995 45.0738 117.995 45.0738 118.618C45.0738 119.242 45.2154 119.242 45.2154 119.865C45.2154 120.49 45.0954 120.48 45.2221 121.091C45.3571 121.736 45.5371 121.905 45.0888 122.34Z" fill="white"/>
<path fill-rule="evenodd" clip-rule="evenodd" d="M50.3846 113.359C49.8963 113.815 49.6263 113.19 48.9596 113.19C48.2896 113.19 48.2896 113.287 47.623 113.287C46.958 113.287 46.958 113.232 46.2946 113.232C45.628 113.232 45.628 113.297 44.9613 113.297C44.293 113.297 44.293 113.258 43.6246 113.258C42.958 113.258 42.958 113.18 42.293 113.18C41.6263 113.18 41.6263 113.14 40.9613 113.14C40.2946 113.14 40.2946 113.088 39.628 113.088C38.9596 113.088 38.9596 113.161 38.2896 113.161C37.6213 113.161 37.6213 113.268 36.953 113.268C36.2846 113.268 36.2846 113.364 35.618 113.364C34.9463 113.364 34.9463 113.312 34.2763 113.312C33.608 113.312 33.608 113.096 32.938 113.096C32.2696 113.096 32.2696 113.332 31.5996 113.332C30.933 113.332 30.933 113.338 30.2663 113.338C29.5946 113.338 29.5946 113.23 28.923 113.23C28.2513 113.23 28.2513 113.29 27.5796 113.29C26.9046 113.29 26.9046 113.323 26.2313 113.323C25.558 113.323 25.3946 113.704 24.898 113.248C24.443 112.829 24.8313 112.642 24.8313 112.022C24.8313 111.404 25.0313 111.404 25.0313 110.785C25.0313 110.162 24.9113 110.162 24.9113 109.541C24.9113 108.917 25.003 108.917 25.003 108.294C25.003 107.669 24.8113 107.669 24.8113 107.044C24.8113 106.419 24.4363 106.227 24.8913 105.803C25.3796 105.345 25.553 105.863 26.2196 105.863C26.888 105.863 26.888 105.911 27.5563 105.911C28.2196 105.911 28.2196 105.791 28.8846 105.791C29.5496 105.791 29.5496 105.881 30.2146 105.881C30.8846 105.881 30.8846 105.661 31.553 105.661C32.2196 105.661 32.2196 105.868 32.8863 105.868C33.5496 105.868 33.5496 105.876 34.2163 105.876C34.883 105.876 34.883 105.865 35.5496 105.865C36.2196 105.865 36.2196 105.818 36.888 105.818C37.5563 105.818 37.5563 105.622 38.2246 105.622C38.8913 105.622 38.8913 105.731 39.5613 105.731C40.2313 105.731 40.2313 105.738 40.9013 105.738C41.5713 105.738 41.5713 105.943 42.2396 105.943C42.9096 105.943 42.9096 105.881 43.5763 105.881C44.2446 105.881 44.2446 105.654 44.913 105.654C45.583 105.654 45.583 105.756 46.253 105.756C46.9263 105.756 46.9263 105.726 47.598 105.726C48.2713 105.726 48.2713 105.626 48.9463 105.626C49.6196 105.626 49.7963 105.337 50.293 105.794C50.7496 106.214 50.1346 106.414 50.1346 107.034C50.1346 107.652 50.2913 107.652 50.2913 108.272C50.2913 108.894 50.1413 108.894 50.1413 109.515C50.1413 110.139 50.3846 110.139 50.3846 110.762C50.3846 111.387 50.123 111.412 50.2763 112.017C50.4513 112.719 50.8396 112.932 50.3846 113.359Z" fill="#FFCA00"/>
<path fill-rule="evenodd" clip-rule="evenodd" d="M45.2047 113.358C44.7397 113.81 44.4663 113.379 43.8197 113.379C43.173 113.379 43.173 113.181 42.5263 113.181C41.8763 113.181 41.8763 113.325 41.2263 113.325C40.5797 113.325 40.463 113.644 39.993 113.195C39.5447 112.767 40.0913 112.642 40.0913 112.022C40.0913 111.404 39.8913 111.404 39.8913 110.785C39.8913 110.162 40.093 110.162 40.093 109.54C40.093 108.917 40.0947 108.917 40.0947 108.294C40.0947 107.669 40.0513 107.669 40.0513 107.044C40.0513 106.419 39.488 106.235 39.938 105.803C40.403 105.352 40.5763 105.768 41.2213 105.768C41.8697 105.768 41.8697 105.774 42.5163 105.774C43.1647 105.774 43.1647 105.632 43.8147 105.632C44.463 105.632 44.658 105.328 45.128 105.778C45.5763 106.205 45.1363 106.414 45.1363 107.034C45.1363 107.652 44.9647 107.652 44.9647 108.272C44.9647 108.894 45.273 108.894 45.273 109.515C45.273 110.139 45.0797 110.139 45.0797 110.762C45.0797 111.387 45.113 111.368 45.2647 111.975C45.4413 112.675 45.6547 112.924 45.2047 113.358Z" fill="white"/>
<path fill-rule="evenodd" clip-rule="evenodd" d="M50.3523 104.252C49.864 104.708 49.6256 104.247 48.959 104.247C48.2906 104.247 48.2906 104.342 47.6223 104.342C46.959 104.342 46.959 104.155 46.294 104.155C45.629 104.155 45.629 104.247 44.9623 104.247H43.6256C42.9573 104.247 42.9573 104.295 42.2923 104.295C41.6273 104.295 41.6273 104.088 40.9606 104.088C40.2956 104.088 40.2956 104.125 39.6273 104.125C38.959 104.125 38.959 104.349 38.2906 104.349C37.6206 104.349 37.6206 104.325 36.954 104.325C36.2856 104.325 36.2856 104.212 35.6173 104.212C34.9473 104.212 34.9473 104.125 34.2756 104.125C33.6073 104.125 33.6073 104.056 32.939 104.056C32.269 104.056 32.269 104.142 31.6006 104.142C30.934 104.142 30.934 104.028 30.2656 104.028C29.5956 104.028 29.5956 104.208 28.924 104.208C28.2506 104.208 28.2506 104.043 27.5806 104.043C26.9056 104.043 26.9056 104.088 26.2306 104.088C25.5573 104.088 25.349 104.681 24.8523 104.223C24.3973 103.804 24.814 103.57 24.814 102.95C24.814 102.33 24.714 102.33 24.714 101.71C24.714 101.089 24.8806 101.089 24.8806 100.466C24.8806 99.8423 24.9723 99.8423 24.9723 99.2191C24.9723 98.5942 24.7623 98.5942 24.7623 97.9693C24.7623 97.3444 24.389 97.1054 24.844 96.6793C25.3323 96.2198 25.5523 96.6476 26.2206 96.6476C26.889 96.6476 26.889 96.8949 27.5556 96.8949C28.2206 96.8949 28.2206 96.8849 28.884 96.8849C29.5506 96.8849 29.5506 96.6125 30.2156 96.6125C30.884 96.6125 30.884 96.5674 31.554 96.5674C32.219 96.5674 32.219 96.6142 32.8873 96.6142C33.5506 96.6142 33.5506 96.8765 34.2156 96.8765C34.884 96.8765 34.884 96.7362 35.549 96.7362C36.2206 96.7362 36.2206 96.6142 36.889 96.6142C37.5556 96.6142 37.5556 96.5574 38.2256 96.5574C38.8923 96.5574 38.8923 96.8247 39.5606 96.8247C40.2323 96.8247 40.2323 96.8815 40.9006 96.8815C41.5706 96.8815 41.5706 96.6158 42.2406 96.6158C42.909 96.6158 42.909 96.7595 43.5773 96.7595C44.2456 96.7595 44.2456 96.7996 44.9123 96.7996C45.584 96.7996 45.584 96.7027 46.254 96.7027C46.9256 96.7027 46.9256 96.6309 47.599 96.6309C48.2723 96.6309 48.2723 96.828 48.9456 96.828C49.6206 96.828 49.8323 96.2232 50.329 96.681C50.7856 97.1004 50.134 97.3393 50.134 97.9592C50.134 98.5791 50.274 98.5791 50.274 99.199C50.274 99.8206 50.169 99.8206 50.169 100.444C50.169 101.067 50.3623 101.067 50.3623 101.69C50.3623 102.315 50.0306 102.36 50.1773 102.967C50.3406 103.654 50.8073 103.824 50.3523 104.252Z" fill="#FFCA00"/>
<path fill-rule="evenodd" clip-rule="evenodd" d="M45.0171 104.09C44.5521 104.541 44.4654 104.266 43.8187 104.266C43.1737 104.266 43.1737 104.342 42.5254 104.342C41.8754 104.342 41.8754 104.347 41.2271 104.347C40.5787 104.347 40.3521 104.687 39.8821 104.239C39.4337 103.809 40.0171 103.569 40.0171 102.949C40.0171 102.329 40.0521 102.329 40.0521 101.711C40.0521 101.089 39.9171 101.089 39.9171 100.466C39.9171 99.8427 40.0004 99.8427 40.0004 99.2195C40.0004 98.5946 39.8221 98.5946 39.8221 97.9697C39.8221 97.3448 39.4771 97.1509 39.9254 96.7165C40.3921 96.267 40.5754 96.8936 41.2221 96.8936C41.8687 96.8936 41.8687 96.8001 42.5154 96.8001C43.1654 96.8001 43.1654 96.8218 43.8137 96.8218C44.4621 96.8218 44.5654 96.3523 45.0354 96.8017C45.4821 97.2295 45.2404 97.3398 45.2404 97.9597C45.2404 98.5796 45.1371 98.5796 45.1371 99.1978C45.1371 99.8194 45.1554 99.8194 45.1554 100.443C45.1554 101.066 44.9371 101.066 44.9371 101.689C44.9371 102.316 44.9454 102.334 45.0537 102.949C45.1654 103.559 45.4654 103.656 45.0171 104.09Z" fill="white"/>
<path fill-rule="evenodd" clip-rule="evenodd" d="M50.1927 115.139C49.691 115.582 49.626 115.313 48.9593 115.313C48.2893 115.313 48.2893 115.104 47.6227 115.104C46.9593 115.104 46.9593 115.329 46.2943 115.329C45.6293 115.329 45.6293 115.194 44.961 115.194C44.2943 115.194 44.2943 115.264 43.626 115.264C42.9577 115.264 42.9577 115.388 42.2927 115.388C41.626 115.388 41.626 115.099 40.961 115.099C40.296 115.099 40.296 115.331 39.6277 115.331C38.9593 115.331 38.9593 115.41 38.2893 115.41C37.621 115.41 37.621 115.314 36.9543 115.314C36.2843 115.314 36.2843 115.204 35.6177 115.204C34.9477 115.204 34.9477 115.211 34.276 115.211C33.6077 115.211 33.6077 115.197 32.9377 115.197C32.2693 115.197 32.2693 115.43 31.601 115.43C30.9327 115.43 30.9327 115.425 30.266 115.425C29.596 115.425 29.596 115.338 28.9227 115.338C28.251 115.338 28.251 115.263 27.581 115.263C26.9043 115.263 26.9043 115.119 26.231 115.119C25.5577 115.119 25.3943 115.697 24.886 115.253C24.4443 114.867 24.8593 114.668 24.8593 114.08C24.8593 113.491 24.431 113.279 24.8727 112.89C25.3743 112.449 25.5527 113.049 26.2193 113.049C26.8877 113.049 26.8877 113.009 27.556 113.009C28.2193 113.009 28.2193 112.905 28.8843 112.905C29.5493 112.905 29.5493 112.765 30.216 112.765C30.8843 112.765 30.8843 112.958 31.5527 112.958C32.2193 112.958 32.2193 112.745 32.886 112.745C33.551 112.745 33.551 112.746 34.216 112.746C34.8827 112.746 34.8827 112.97 35.5493 112.97C36.2193 112.97 36.2193 112.775 36.8893 112.775C37.556 112.775 37.556 112.838 38.2243 112.838C38.8927 112.838 38.8927 112.992 39.561 112.992C40.231 112.992 40.231 112.965 40.9027 112.965C41.571 112.965 41.571 112.738 42.241 112.738C42.9093 112.738 42.9093 113.049 43.576 113.049C44.246 113.049 44.246 112.833 44.9127 112.833C45.5827 112.833 45.5827 112.805 46.2543 112.805C46.926 112.805 46.926 112.818 47.5977 112.818C48.2727 112.818 48.2727 112.788 48.946 112.788C49.6193 112.788 49.7343 112.521 50.2427 112.963C50.6843 113.349 50.111 113.515 50.2193 114.093C50.321 114.658 50.6343 114.753 50.1927 115.139Z" fill="#FF9200"/>
<path fill-rule="evenodd" clip-rule="evenodd" d="M50.1849 106.029C49.6833 106.472 49.6266 106.316 48.9599 106.316C48.2899 106.316 48.2899 106.131 47.6233 106.131C46.9583 106.131 46.9583 106.164 46.2949 106.164C45.6299 106.164 45.6299 106.133 44.9616 106.133C44.2949 106.133 44.2949 106.188 43.6249 106.188C42.9583 106.188 42.9583 106.112 42.2933 106.112C41.6266 106.112 41.6266 106.188 40.9616 106.188C40.2949 106.188 40.2949 106.259 39.6283 106.259C38.9599 106.259 38.9599 106.136 38.2899 106.136C37.6216 106.136 37.6216 106.051 36.9549 106.051C36.2849 106.051 36.2849 106.077 35.6183 106.077C34.9466 106.077 34.9466 106.226 34.2766 106.226C33.6083 106.226 33.6083 106.019 32.9383 106.019C32.2699 106.019 32.2699 106.169 31.6016 106.169C30.9333 106.169 30.9333 106.074 30.2666 106.074C29.5949 106.074 29.5949 106.094 28.9233 106.094C28.2516 106.094 28.2516 106.022 27.5799 106.022C26.9049 106.022 26.9049 106.169 26.2316 106.169C25.5583 106.169 25.4966 106.48 24.9883 106.036C24.5449 105.648 24.9149 105.566 24.9149 104.978C24.9149 104.39 24.4049 104.144 24.8449 103.758C25.3483 103.315 25.5533 103.661 26.2199 103.661C26.8866 103.661 26.8866 103.964 27.5566 103.964C28.2199 103.964 28.2199 103.758 28.8849 103.758C29.5499 103.758 29.5499 103.889 30.2166 103.889C30.8849 103.889 30.8849 103.787 31.5533 103.787C32.2199 103.787 32.2199 103.803 32.8866 103.803C33.5516 103.803 33.5516 103.628 34.2166 103.628C34.8833 103.628 34.8833 103.795 35.5499 103.795C36.2199 103.795 36.2199 103.964 36.8883 103.964C37.5566 103.964 37.5566 103.797 38.2249 103.797C38.8933 103.797 38.8933 103.711 39.5616 103.711C40.2316 103.711 40.2316 103.685 40.9033 103.685C41.5716 103.685 41.5716 103.904 42.2399 103.904C42.9099 103.904 42.9099 103.93 43.5766 103.93C44.2466 103.93 44.2466 103.85 44.9133 103.85C45.5833 103.85 45.5833 103.675 46.2549 103.675C46.9266 103.675 46.9266 103.628 47.5983 103.628C48.2733 103.628 48.2733 103.67 48.9466 103.67C49.6199 103.67 49.8899 103.239 50.3983 103.681C50.8416 104.067 50.2516 104.388 50.3566 104.966C50.4583 105.526 50.6266 105.641 50.1849 106.029Z" fill="#FF9200"/>
<path fill-rule="evenodd" clip-rule="evenodd" d="M87.833 46.6096C87.833 47.0741 87.8463 47.5453 87.8147 48.0031C87.7847 48.4676 87.5947 48.9154 87.533 49.3699C87.4697 49.8311 87.4847 50.3023 87.3913 50.7534C87.298 51.2095 87.2497 51.6774 87.1263 52.1219C87.0013 52.568 86.8463 53.0124 86.6913 53.4469C86.538 53.8846 86.2347 54.2623 86.0513 54.685C85.8663 55.1111 85.7997 55.5923 85.588 56.0016C85.3747 56.4127 85.1413 56.8187 84.9013 57.2147C84.6613 57.609 84.4147 58.0084 84.1497 58.386C83.8847 58.7636 83.408 58.9792 83.1163 59.3384C82.8247 59.6977 82.5563 60.0652 82.243 60.4028C81.928 60.7403 81.583 61.036 81.2463 61.3518C80.9097 61.6693 80.7247 62.1572 80.368 62.4479C80.0097 62.7437 79.5663 62.9358 79.188 63.2065C78.8097 63.4755 78.438 63.7562 78.043 64.0002C77.648 64.2441 77.3163 64.6151 76.9047 64.8306C76.493 65.0462 75.933 64.9526 75.5063 65.1397C75.0847 65.3252 74.7097 65.6243 74.2697 65.783C73.8347 65.9367 73.3947 66.0838 72.9463 66.2108C72.5013 66.3377 72.0763 66.5717 71.6197 66.6669C71.168 66.7622 70.7063 66.8658 70.243 66.9292C69.7863 66.9927 69.3047 66.8908 68.838 66.9209C68.3763 66.9526 67.913 67.0763 67.4447 67.0763C66.9763 67.0763 66.5047 67.0646 66.0447 67.0345C65.578 67.0011 65.138 66.7471 64.6797 66.6853C64.218 66.6218 63.7647 66.5566 63.3113 66.4614C62.8563 66.3662 62.3813 66.3645 61.9347 66.2392C61.4847 66.1139 61.0863 65.8465 60.6497 65.6911C60.213 65.5324 59.7747 65.3954 59.3497 65.2099C58.923 65.0228 58.518 64.8089 58.108 64.5933C57.6947 64.3778 57.2913 64.1606 56.8963 63.9166C56.4997 63.6744 56.0313 63.5424 55.653 63.2717C55.2763 63.0027 54.983 62.6184 54.6247 62.3226C54.268 62.0302 53.9963 61.6492 53.6613 61.3351C53.3247 61.0177 52.773 60.9174 52.458 60.5765C52.1447 60.239 52.0463 59.711 51.7563 59.3518C51.4647 58.9942 51.0247 58.7503 50.758 58.371C50.493 57.9933 50.3363 57.5422 50.0947 57.1479C49.8563 56.7519 49.6663 56.3325 49.4547 55.9214C49.243 55.5121 49.1263 55.0643 48.943 54.6399C48.7613 54.2171 48.4597 53.8445 48.3047 53.4068C48.1513 52.974 47.9113 52.563 47.7863 52.1152C47.663 51.6707 47.7713 51.1694 47.678 50.715C47.5863 50.2655 47.458 49.8261 47.3947 49.3649C47.333 48.9104 47.0863 48.4676 47.0547 48.0048C47.0247 47.547 47.143 47.0741 47.143 46.6096C47.143 46.1601 47.1463 45.7173 47.173 45.2746C47.203 44.8301 47.2463 44.3857 47.3047 43.9479C47.3613 43.5051 47.553 43.0907 47.638 42.6563C47.7247 42.2168 47.5597 41.7206 47.673 41.2928C47.7897 40.8634 48.0813 40.4825 48.223 40.0631C48.3663 39.6403 48.448 39.1959 48.618 38.7848C48.788 38.3738 48.8647 37.911 49.0597 37.515C49.2563 37.114 49.4747 36.7146 49.698 36.3303C49.9197 35.9443 50.298 35.6503 50.5447 35.2827C50.7897 34.9117 50.9647 34.484 51.2347 34.1331C51.5047 33.7789 51.963 33.58 52.253 33.2475C52.5463 32.9133 52.8297 32.5792 53.1447 32.265C53.4563 31.9509 53.6347 31.4898 53.9697 31.1957C54.3013 30.9033 54.6347 30.5958 54.9863 30.3251C55.338 30.0545 55.728 29.8239 56.0963 29.5766C56.4663 29.3276 56.828 29.0586 57.213 28.8347C57.5947 28.6125 58.1213 28.6559 58.5197 28.4588C58.9163 28.2616 59.2297 27.884 59.6397 27.7119C60.048 27.5431 60.4963 27.4679 60.9163 27.3242C61.3347 27.1822 61.788 27.1655 62.218 27.0519C62.6447 26.9383 63.0063 26.5356 63.4447 26.4487C63.878 26.3635 64.348 26.4654 64.7913 26.4069C65.228 26.3501 65.6713 26.3518 66.118 26.3217C66.5563 26.295 66.998 26.3852 67.4447 26.3852C67.8913 26.3852 68.348 26.0711 68.7863 26.0995C69.233 26.1279 69.6763 26.2348 70.1147 26.2933C70.558 26.3501 71.008 26.3885 71.4413 26.4754C71.8797 26.5623 72.298 26.7545 72.7247 26.8698C73.1547 26.9834 73.5463 27.2206 73.9647 27.3643C74.3863 27.508 74.8513 27.5314 75.2597 27.7019C75.6713 27.8723 76.1097 27.9993 76.5063 28.1948C76.9047 28.3936 77.2513 28.6977 77.6347 28.9216C78.0197 29.1438 78.343 29.4646 78.7097 29.7136C79.078 29.9592 79.538 30.0829 79.8897 30.3535C80.2413 30.6259 80.563 30.9434 80.8963 31.2374C81.2297 31.5315 81.4547 31.9409 81.7663 32.2533C82.0813 32.5691 82.3947 32.8766 82.688 33.2108C82.9813 33.5449 83.3397 33.8257 83.6097 34.1782C83.8797 34.5308 84.0997 34.9201 84.3463 35.291C84.593 35.6586 84.6947 36.1131 84.918 36.4974C85.1397 36.8817 85.5747 37.1507 85.7713 37.5501C85.9663 37.9477 86.138 38.3638 86.308 38.7782C86.478 39.1875 86.4897 39.657 86.633 40.0798C86.7747 40.4992 86.8147 40.942 86.9297 41.3747C87.043 41.8025 87.4547 42.1634 87.5413 42.6011C87.628 43.0339 87.3713 43.5268 87.4297 43.9696C87.4863 44.409 87.7347 44.8268 87.7647 45.2729C87.793 45.714 87.833 46.1601 87.833 46.6096Z" fill="#196CF2"/>
<path fill-rule="evenodd" clip-rule="evenodd" d="M80.3427 62.3834C79.9844 62.6791 79.6744 63.0868 79.2961 63.3575C78.9194 63.6265 78.3861 63.6716 77.9911 63.9139C77.5961 64.1579 77.2544 64.4971 76.8411 64.7126C76.4311 64.9265 75.9877 65.0735 75.5611 65.2623C75.1361 65.4478 74.7644 65.782 74.3277 65.939C73.8911 66.0961 73.4227 66.1796 72.9727 66.3083C72.5294 66.4336 72.0627 66.5105 71.6077 66.6041C71.1544 66.6993 70.6911 66.7578 70.2294 66.8213C69.7711 66.8831 69.2961 66.7745 68.8294 66.8062C68.3677 66.838 67.9127 67.0736 67.4444 67.0736C66.9761 67.0736 66.5111 66.9633 66.0527 66.9315C65.5861 66.8998 65.1277 66.8129 64.6711 66.7511C64.2077 66.6876 63.7127 66.8029 63.2611 66.7093C62.8044 66.6124 62.3644 66.4186 61.9194 66.2933C61.4711 66.1679 61.0927 65.8288 60.6561 65.6717C60.2194 65.5146 59.7644 65.4161 59.3394 65.2306C58.9144 65.0434 58.5011 64.8429 58.0894 64.6291C57.6761 64.4118 57.2644 64.203 56.8694 63.959C56.4744 63.7168 56.0611 63.4995 55.6827 63.2305C55.3061 62.9598 55.0344 62.6424 54.6777 62.3483C54.8427 61.9155 54.7894 61.4427 54.9961 61.0316C55.2044 60.6189 55.5161 60.2513 55.7627 59.862C56.0111 59.4744 56.3077 59.1085 56.5927 58.7475C56.8794 58.385 57.3311 58.1761 57.6527 57.8453C57.9727 57.5144 58.2211 57.1184 58.5711 56.8193C58.9227 56.5219 59.3644 56.3582 59.7444 56.0958C60.1227 55.8352 60.4177 55.4509 60.8227 55.2287C61.2244 55.0081 61.5777 54.6639 62.0044 54.4818C62.4261 54.303 62.9594 54.4199 63.4027 54.2829C63.8394 54.1476 64.2611 53.9788 64.7144 53.8869C65.1627 53.7967 65.6061 53.6981 66.0694 53.6513C66.5227 53.6062 66.9777 53.4575 67.4444 53.4575C67.9111 53.4575 68.3644 53.6229 68.8194 53.6681C69.2811 53.7148 69.7477 53.7031 70.1944 53.7934C70.6494 53.8853 71.0711 54.0874 71.5077 54.2228C71.9511 54.3598 72.3861 54.4951 72.8077 54.6756C73.2311 54.8544 73.6511 55.0382 74.0544 55.2587C74.4577 55.481 74.8561 55.7099 75.2344 55.9705C75.6144 56.2312 76.0027 56.4835 76.3544 56.7792C76.7061 57.0783 77.1111 57.3306 77.4311 57.6615C77.7511 57.9923 77.9477 58.4401 78.2327 58.801C78.5177 59.1619 78.6777 59.6047 78.9261 59.9924C79.1744 60.3817 79.6111 60.6574 79.8211 61.0701C80.0277 61.4811 80.1761 61.9506 80.3427 62.3834Z" fill="#FC4C27"/>
<path fill-rule="evenodd" clip-rule="evenodd" d="M75.0935 51.8247C74.6518 52.2926 74.5035 52.0469 73.8601 52.0469C73.2151 52.0469 73.2151 51.7378 72.5685 51.7378C71.9268 51.7378 71.9268 51.8464 71.2835 51.8464C70.6385 51.8464 70.6385 51.9183 69.9951 51.9183C69.3501 51.9183 69.3501 51.9099 68.7035 51.9099C68.0585 51.9099 68.0585 51.8732 67.4151 51.8732C66.7701 51.8732 66.7701 52.0202 66.1251 52.0202C65.4818 52.0202 65.4818 51.8197 64.8401 51.8197C64.1935 51.8197 64.1935 51.7111 63.5468 51.7111C62.9001 51.7111 62.9001 51.8297 62.2518 51.8297C61.6018 51.8297 61.6018 52.0352 60.9535 52.0352C60.3035 52.0352 60.2268 52.2224 59.7785 51.7529C59.3085 51.2633 59.5418 51.1931 59.5418 50.5147C59.5418 49.838 59.7151 49.838 59.7151 49.1596C59.7151 48.4829 59.5401 48.4829 59.5401 47.8062C59.5401 47.1295 59.5501 47.1295 59.5501 46.4545C59.5501 45.7761 59.5135 45.7761 59.5135 45.096C59.5135 44.4143 59.6068 44.4143 59.6068 43.7343C59.6068 43.0526 59.7485 43.0526 59.7485 42.3708C59.7485 41.6891 59.1401 41.4585 59.6068 40.9623C60.0485 40.4944 60.2968 41.1377 60.9385 41.1377C61.5851 41.1377 61.5851 41.1427 62.2285 41.1427C62.8718 41.1427 62.8718 40.9105 63.5168 40.9105C64.1585 40.9105 64.1585 41.0659 64.8035 41.0659C65.4485 41.0659 65.4485 40.8637 66.0951 40.8637C66.7385 40.8637 66.7385 40.8386 67.3835 40.8386C68.0285 40.8386 68.0285 41.0057 68.6718 41.0057C69.3151 41.0057 69.3151 40.852 69.9585 40.852C70.6068 40.852 70.6068 41.1344 71.2518 41.1344C71.9001 41.1344 71.9001 41.0876 72.5468 41.0876C73.1951 41.0876 73.1951 40.8603 73.8451 40.8603C74.4951 40.8603 74.7568 40.4777 75.2051 40.9472C75.6751 41.4368 75.2885 41.6858 75.2885 42.3641C75.2885 43.0409 75.1435 43.0409 75.1435 43.7176C75.1435 44.3959 75.0651 44.3959 75.0651 45.0727C75.0651 45.7477 75.0351 45.7477 75.0351 46.4244C75.0351 47.1028 74.9885 47.1028 74.9885 47.7828C74.9885 48.4629 75.0535 48.4629 75.0535 49.1429C75.0535 49.8263 74.9718 49.8447 75.0985 50.5164C75.2301 51.2048 75.5601 51.3284 75.0935 51.8247Z" fill="black"/>
<path fill-rule="evenodd" clip-rule="evenodd" d="M67.4457 51.9079V51.7091C66.974 51.7091 66.494 51.9229 66.0473 51.8344C65.589 51.7425 65.189 51.4568 64.7657 51.2813C64.3357 51.1042 63.9323 50.897 63.5507 50.6397C63.1657 50.3824 62.7123 50.1953 62.3873 49.8661C62.0607 49.5403 61.8323 49.1142 61.5757 48.7299C61.319 48.3456 61.039 47.9629 60.8623 47.5319C60.6857 47.1075 60.7607 46.6079 60.6707 46.15C60.5823 45.7022 60.4023 45.2695 60.4023 44.7966C60.4023 44.2686 60.4907 44.2686 60.4907 43.739C60.4907 43.211 60.4757 43.211 60.4757 42.683C60.4757 42.2084 60.369 41.7339 60.4573 41.2894C60.5473 40.8266 60.6907 40.3738 60.8673 39.9494C61.044 39.5183 61.214 39.0621 61.469 38.6778C61.7273 38.2935 62.239 38.1147 62.564 37.7889C62.8923 37.4614 63.1807 37.1172 63.5657 36.8599C63.9473 36.6043 64.2573 36.1849 64.6873 36.0061C65.109 35.8306 65.6373 35.976 66.0957 35.8858C66.5423 35.7972 66.974 35.438 67.4457 35.438V35.56C67.9157 35.56 68.3707 35.6886 68.8157 35.7772C69.2757 35.8674 69.7007 36.0261 70.1223 36.2033C70.5523 36.382 70.899 36.6711 71.2807 36.9267C71.6657 37.1857 72.0573 37.4046 72.3823 37.7321C72.709 38.0596 72.9107 38.4623 73.1707 38.8483C73.4257 39.2309 73.7823 39.5467 73.9607 39.9761C74.1357 40.3988 74.2607 40.845 74.3523 41.3045C74.439 41.7506 74.434 42.2084 74.434 42.683C74.434 43.211 74.509 43.211 74.509 43.739C74.509 44.2686 74.3557 44.2686 74.3557 44.7966C74.3557 45.2695 74.409 45.7223 74.3207 46.1684C74.229 46.6296 74.064 47.0506 73.8873 47.4734C73.7107 47.9045 73.5657 48.3439 73.3107 48.7265C73.0507 49.1125 72.8807 49.5937 72.554 49.9212C72.2273 50.2471 71.759 50.4359 71.374 50.6932C70.9923 50.9505 70.599 51.2112 70.169 51.3883C69.7457 51.5654 69.3057 51.7692 68.8473 51.8611C68.4007 51.948 67.9157 51.9079 67.4457 51.9079Z" fill="#F7B997"/>
<path fill-rule="evenodd" clip-rule="evenodd" d="M62.1539 44.4737C62.1539 43.9791 61.8773 43.6299 61.5539 43.3057C61.2289 42.9799 60.8806 42.6975 60.3873 42.6975C59.8956 42.6975 59.3956 42.8295 59.0706 43.1537C58.7473 43.4778 58.4756 43.9791 58.4756 44.4737C58.4756 44.9682 58.7623 45.4561 59.0856 45.7786C59.4089 46.1044 59.8956 46.1947 60.3873 46.1947C60.8806 46.1947 61.3573 46.0961 61.6823 45.7703C62.0056 45.4478 62.1539 44.9682 62.1539 44.4737Z" fill="#F7B997"/>
<path fill-rule="evenodd" clip-rule="evenodd" d="M76.27 44.4738C76.27 43.9792 76.0117 43.6083 75.6867 43.2841C75.3633 42.9616 74.995 42.8346 74.5 42.8346C74.0083 42.8346 73.4683 42.7895 73.145 43.1154C72.8217 43.4378 72.7217 43.9792 72.7217 44.4738C72.7217 44.9684 72.9017 45.4279 73.2267 45.7537C73.5483 46.0778 74.0083 46.3602 74.5 46.3602C74.995 46.3602 75.4183 46.0411 75.7433 45.7186C76.0667 45.3944 76.27 44.9684 76.27 44.4738Z" fill="#F7B997"/>
<path fill-rule="evenodd" clip-rule="evenodd" d="M75.157 40.9C75.157 40.4405 75.217 40.0846 75.1403 39.6452C75.0603 39.194 74.8436 38.7813 74.6903 38.3619C74.5353 37.9359 74.3336 37.5382 74.1086 37.1505C73.882 36.7579 73.6903 36.3418 73.4003 35.9976C73.1103 35.6518 72.8403 35.2658 72.4953 34.975C72.152 34.6843 71.752 34.4387 71.362 34.2114C70.9736 33.9859 70.4703 34.0109 70.0453 33.8539C69.627 33.7002 69.2186 33.5849 68.7686 33.5063C68.332 33.4295 67.907 33.3493 67.4486 33.3493C66.9903 33.3493 66.547 33.3175 66.1086 33.3944C65.6603 33.4729 65.202 33.5147 64.7836 33.6684C64.3586 33.8255 63.952 34.0393 63.5653 34.2632C63.1753 34.4905 62.867 34.833 62.5236 35.1221C62.1786 35.4128 61.7336 35.61 61.4436 35.9559C61.1553 36.3001 61.017 36.7595 60.7903 37.1539C60.567 37.5415 60.4486 37.9676 60.2936 38.3953C60.1403 38.8147 59.9836 39.2208 59.9053 39.6719C59.8286 40.1097 59.7236 40.4906 59.7236 40.9501C60.3303 41.1673 60.3453 41.0621 60.9886 41.0621C61.6336 41.0621 61.6336 40.8449 62.2786 40.8449C62.922 40.8449 62.922 40.9167 63.5653 40.9167C64.2103 40.9167 64.2103 40.8549 64.852 40.8549C65.4986 40.8549 65.4986 40.8599 66.1453 40.8599C66.7886 40.8599 66.7886 40.9468 67.4336 40.9468C68.0786 40.9468 68.0786 41.164 68.7236 41.164C69.3653 41.164 69.3653 40.8348 70.0086 40.8348C70.6553 40.8348 70.6553 40.885 71.302 40.885C71.9486 40.885 71.9486 41.0353 72.597 41.0353C73.247 41.0353 73.2386 41.1406 73.8853 41.1774C74.5286 41.2125 74.5453 41.1172 75.157 40.9Z" fill="#FC4C27"/>
<path fill-rule="evenodd" clip-rule="evenodd" d="M65.0811 46.0645C65.0811 46.4872 65.2511 46.8531 65.4477 47.194C65.6527 47.5482 65.8244 47.9843 66.1761 48.1881C66.5177 48.387 66.9777 48.2283 67.4011 48.2283C67.8227 48.2283 68.1711 48.1932 68.5127 47.9943C68.8644 47.7905 69.2344 47.5967 69.4377 47.2441C69.6344 46.9016 69.6327 46.4872 69.6327 46.0645" fill="black"/>
<path fill-rule="evenodd" clip-rule="evenodd" d="M57.113 11.3171L57.213 11.277L57.1414 11.3037C56.7547 11.4574 56.4214 11.6914 56.0697 11.9019C55.7164 12.1158 55.4197 12.3781 55.108 12.6454C54.793 12.9111 54.3464 13.0414 54.0797 13.3572C53.8147 13.6697 53.623 14.054 53.4114 14.4082C53.1997 14.7608 53.1497 15.1852 52.9964 15.5728L52.8864 15.5695L53.003 15.4826C52.8497 15.0966 52.4997 14.8025 52.2897 14.45C52.078 14.0958 51.9614 13.668 51.6947 13.3539C51.4297 13.0398 51.0747 12.7975 50.7614 12.5318C50.448 12.2645 50.0497 12.1258 49.6947 11.9136C49.3447 11.7031 49.068 11.3321 48.6814 11.1801L48.768 11.277L48.623 11.2235C49.0097 11.0731 49.333 10.8292 49.6847 10.6187C50.038 10.4048 50.3764 10.2009 50.6897 9.93526C51.003 9.66959 51.3797 9.46908 51.6447 9.15328C51.9097 8.84083 52.2464 8.55678 52.4597 8.20255C52.6697 7.84999 52.6764 7.38549 52.828 6.99951L52.8864 7.04295L52.7897 7.05966C52.943 7.44731 53.2114 7.7865 53.4214 8.13739C53.6347 8.49328 53.933 8.78068 54.198 9.0948C54.4647 9.40893 54.8164 9.61278 55.1314 9.88179C55.443 10.1475 55.6947 10.4716 56.0497 10.6838C56.4014 10.8943 56.728 11.165 57.113 11.3171Z" fill="#FFCA00"/>
</svg>
