<svg width="124" height="124" viewBox="0 0 124 124" fill="none" xmlns="http://www.w3.org/2000/svg">
<g id="Group 58">
<path id="Fill 1" fill-rule="evenodd" clip-rule="evenodd" d="M9.50429 46.1035C3.9915 63.2183 6.0334 84.9764 19.5632 97.9497C30.7795 108.705 49.2534 112.21 64.1598 108.479C72.4519 106.404 81.3134 99.0568 85.8746 91.9492C91.2628 83.5527 91.9667 74.3521 96.6971 65.5681C97.6267 63.8416 98.5549 62.0869 99.8788 60.6353C101.629 58.7166 103.962 57.4421 106.192 56.0992C112.035 52.5802 117.992 47.3293 117.895 40.5497C117.853 37.6259 116.651 34.845 115.279 32.2569C112.29 26.6176 108.286 21.3619 102.922 17.8569C97.5581 14.3518 90.7042 12.772 84.5527 14.6047C82.1543 15.3192 79.9292 16.5167 77.5545 17.3048C65.435 21.3274 52.0378 14.1599 39.5368 16.795C24.8247 19.8963 14.0441 32.0095 9.50429 46.1035Z" fill="#E6F0F9"/>
<g id="calendar">
<path id="Fill 3" fill-rule="evenodd" clip-rule="evenodd" d="M2.42875 81.8781L24.8154 79.2902C26.3059 79.118 27.6559 80.1509 27.831 81.5974L29.6328 96.4844C29.808 97.9309 28.7417 99.2432 27.2512 99.4154L4.86451 102.003C3.3742 102.176 2.02406 101.143 1.84893 99.6961L0.0471192 84.8093C-0.127862 83.3626 0.938293 82.0503 2.42875 81.8781Z" fill="#004CC3"/>
<path id="Fill 5" fill-rule="evenodd" clip-rule="evenodd" d="M20.4958 90.6961L25.8309 90.0794C26.2327 90.0329 26.5203 89.679 26.473 89.289L25.8464 84.111C25.7992 83.721 25.4351 83.4425 25.0332 83.4889L19.6981 84.1057C19.2962 84.152 19.0087 84.5059 19.0558 84.896L19.6825 90.0739C19.7298 90.464 20.0939 90.7426 20.4958 90.6961Z" fill="white"/>
<path id="Fill 7" fill-rule="evenodd" clip-rule="evenodd" d="M21.488 98.5232L26.8232 97.9066C27.225 97.86 27.5126 97.5061 27.4654 97.1159L26.8386 91.9381C26.7916 91.5481 26.4273 91.2695 26.0255 91.3158L20.6903 91.9328C20.2884 91.9791 20.0009 92.3329 20.048 92.7231L20.6748 97.9011C20.7221 98.2911 21.0861 98.5695 21.488 98.5232Z" fill="white"/>
<path id="Fill 9" fill-rule="evenodd" clip-rule="evenodd" d="M12.1667 91.659L17.5019 91.0424C17.9037 90.9958 18.1912 90.6419 18.1441 90.2519L17.5173 85.0739C17.4701 84.6839 17.106 84.4053 16.7042 84.4516L11.369 85.0686C10.9671 85.1149 10.6796 85.4689 10.7267 85.8589L11.3535 91.0369C11.4008 91.4269 11.7648 91.7053 12.1667 91.659Z" fill="white"/>
<path id="Fill 11" fill-rule="evenodd" clip-rule="evenodd" d="M13.1588 99.4861L18.4939 98.8693C18.8958 98.8228 19.1834 98.469 19.1361 98.0788L18.5095 92.901C18.4623 92.511 18.0981 92.2324 17.6963 92.2787L12.3612 92.8955C11.9591 92.942 11.6718 93.2958 11.7189 93.6858L12.3456 98.8639C12.3929 99.254 12.7568 99.5324 13.1588 99.4861Z" fill="white"/>
<path id="Fill 13" fill-rule="evenodd" clip-rule="evenodd" d="M3.83665 92.6219L9.17183 92.0053C9.57364 91.9588 9.86127 91.6049 9.81399 91.2148L9.18734 86.0369C9.14021 85.6468 8.77596 85.3682 8.37416 85.4146L3.03897 86.0314C2.63701 86.0779 2.34953 86.4317 2.39666 86.8219L3.02346 91.9998C3.07074 92.3898 3.43469 92.6683 3.83665 92.6219Z" fill="white"/>
<path id="Fill 15" fill-rule="evenodd" clip-rule="evenodd" d="M4.82883 100.449L10.1639 99.8322C10.5657 99.7857 10.8533 99.4317 10.806 99.0417L10.1794 93.8637C10.1322 93.4737 9.76815 93.1953 9.36619 93.2416L4.03116 93.8584C3.6292 93.9048 3.34172 94.2587 3.38885 94.6487L4.0155 99.8268C4.06278 100.217 4.42688 100.495 4.82883 100.449Z" fill="white"/>
<path id="Fill 17" fill-rule="evenodd" clip-rule="evenodd" d="M21.5866 77.4903L22.3648 77.4004C22.7902 77.3511 23.1754 77.6459 23.2254 78.0588L23.5638 80.8552C23.6138 81.268 23.3095 81.6424 22.8841 81.6915L22.1059 81.7815C21.6805 81.8307 21.2953 81.536 21.2453 81.1231L20.9067 78.3268C20.8569 77.9141 21.1611 77.5395 21.5866 77.4903Z" fill="#A7CFFE"/>
<path id="Fill 19" fill-rule="evenodd" clip-rule="evenodd" d="M4.15674 79.5051L4.93511 79.4152C5.36047 79.3658 5.74571 79.6608 5.79572 80.0736L6.13413 82.87C6.18415 83.2827 5.87979 83.6572 5.45443 83.7064L4.67621 83.7964C4.25084 83.8456 3.86561 83.5508 3.81559 83.1379L3.47703 80.3416C3.42716 79.9288 3.73152 79.5543 4.15674 79.5051Z" fill="#A7CFFE"/>
</g>
<g id="Group 23">
<mask id="mask0" mask-type="alpha" maskUnits="userSpaceOnUse" x="84" y="115" width="40" height="9">
<path id="Clip 22" fill-rule="evenodd" clip-rule="evenodd" d="M84.9639 115.061H123.999V124H84.9639V115.061Z" fill="white"/>
</mask>
<g mask="url(#mask0)">
<path id="Fill 21" fill-rule="evenodd" clip-rule="evenodd" d="M85.5006 119.706C85.8744 120.109 86.3616 120.403 86.8527 120.661C90.226 122.429 94.0195 123.243 97.7877 123.638C101.459 124.023 105.514 124.394 109.046 123.101C112.326 121.9 115.028 119.6 118.422 118.628C119.317 118.372 124.224 117.803 123.991 116.525C123.92 116.134 123.574 115.852 123.217 115.674C121.991 115.064 120.443 115.225 119.11 115.193C112.299 114.969 105.484 115.084 98.6719 115.151C95.0519 115.187 91.1539 115.045 87.6478 116.122C86.1034 116.596 84.162 117.641 85.3114 119.479C85.3637 119.563 85.4335 119.634 85.5006 119.706Z" fill="#E6F0F9"/>
</g>
</g>
<path id="Fill 24" fill-rule="evenodd" clip-rule="evenodd" d="M96.4436 44.7059C103.1 62.7613 93.7411 82.751 75.539 89.3542C57.3371 95.9573 37.185 86.6734 30.5282 68.6179C23.8714 50.5627 33.2308 30.5728 51.4327 23.9697C69.6348 17.3665 89.7868 26.6505 96.4436 44.7059Z" fill="#2270EE"/>
<path id="Fill 26" fill-rule="evenodd" clip-rule="evenodd" d="M92.0496 46.3C97.8188 61.9482 89.7074 79.2727 73.9322 84.9952C58.1573 90.7182 40.692 82.6718 34.9229 67.0238C29.1538 51.3758 37.2652 34.0515 53.0403 28.3288C68.8154 22.606 86.2803 30.652 92.0496 46.3Z" fill="white"/>
<path id="Fill 28" fill-rule="evenodd" clip-rule="evenodd" d="M75.5583 29.1263C81.5971 32.5339 86.4975 37.999 89.0709 44.9781C94.84 60.6261 86.7284 77.9507 70.9533 83.6733C63.3637 86.4267 55.3833 85.9916 48.502 83.0572C56.0026 87.29 65.2594 88.3473 73.9988 85.1768C89.7739 79.4543 97.8851 62.1296 92.1162 46.4816C89.1225 38.3623 82.9796 32.2909 75.5583 29.1263Z" fill="#184663"/>
<path id="Fill 30" fill-rule="evenodd" clip-rule="evenodd" d="M61.4522 57.3671L61.818 58.5047C61.9151 58.806 62.2396 58.9722 62.5433 58.8761L90.3148 50.0891C90.6181 49.9931 90.7857 49.671 90.6892 49.3698L90.3232 48.2322C90.2265 47.9311 89.9016 47.7649 89.5983 47.8608L61.8266 56.6478C61.5231 56.7439 61.3555 57.0658 61.4522 57.3671Z" fill="#2270EE"/>
<path id="Fill 32" fill-rule="evenodd" clip-rule="evenodd" d="M65.8109 54.9306L64.7405 40.1491C64.6945 39.5098 64.1345 39.0286 63.4904 39.0739C62.846 39.1194 62.3613 39.6745 62.4075 40.3138L63.4777 55.0951C62.8101 55.5449 62.3941 56.324 62.4563 57.1804C62.5488 58.4591 63.6682 59.4217 64.957 59.3308C66.2455 59.2399 67.2152 58.1297 67.1228 56.8512C67.0606 55.9948 66.5367 55.2819 65.8109 54.9306Z" fill="#2A1E22"/>
<path id="Fill 34" fill-rule="evenodd" clip-rule="evenodd" d="M106.1 90.3089L106.538 100.391L105.253 117.535L103.331 117.67L100.995 102.1L97.7646 88.9244L106.1 90.3089Z" fill="#2A1E22"/>
<path id="Fill 36" fill-rule="evenodd" clip-rule="evenodd" d="M103.433 118.95H106.319L106.439 118.005L105.404 117.296L103.325 117.442L103.433 118.95Z" fill="#292948"/>
<path id="Fill 38" fill-rule="evenodd" clip-rule="evenodd" d="M92.4921 87.3103L92.0703 94.9313L93.3219 117.592L95.2467 117.687L98.1314 102.825L100.676 86.5264L92.4921 87.3103Z" fill="#2A1E22"/>
<path id="Fill 40" fill-rule="evenodd" clip-rule="evenodd" d="M95.1676 119.024L92.3584 119.14L92.0723 118.337L93.1649 117.356L95.2464 117.459L95.1676 119.024Z" fill="#292948"/>
<path id="Fill 42" fill-rule="evenodd" clip-rule="evenodd" d="M103.683 64.2901L97.6771 63.6518C97.6771 63.6518 94.3359 64.0059 92.0687 71.8771C90.8073 76.2563 90.4234 83.1558 90.3311 88.4158C90.4729 89.1661 91.2968 92.4528 94.7816 91.8953C100.766 90.9377 103.951 89.9805 106.557 90.459C108.777 90.9377 108.589 87.906 108.345 85.5924L107.461 78.4338L103.683 64.2901Z" fill="#FF7BAC"/>
<path id="Fill 44" fill-rule="evenodd" clip-rule="evenodd" d="M102.523 56.8742C101.009 56.5431 99.4514 56.2466 97.9359 56.5442C97.6041 56.6094 97.2478 56.7239 97.0676 57.0081C96.9981 57.1182 96.9612 57.2452 96.927 57.3707C96.5445 58.781 96.0595 60.8713 96.9952 62.1704C97.1737 62.4182 97.4134 62.615 97.6708 62.7746C98.0152 62.9881 98.3965 63.1333 98.7907 63.2105C98.7093 63.561 98.5956 63.9043 98.4517 64.2346C98.7982 64.753 100.415 64.815 100.714 64.3182C100.731 63.888 100.747 63.458 100.764 63.0281C100.961 62.9492 101.151 62.8533 101.33 62.7367C102.02 62.2853 102.476 61.6004 102.74 60.8341C103.028 59.9994 103.433 59.2064 103.696 58.3558C103.792 58.046 103.868 57.6923 103.703 57.4123C103.529 57.1141 103.151 57.0124 102.811 56.9376C102.716 56.9163 102.62 56.8951 102.523 56.8742Z" fill="#C07E72"/>
<path id="Fill 46" fill-rule="evenodd" clip-rule="evenodd" d="M103.187 60.7893C103.914 60.0484 104.765 59.0124 104.831 58.0717C104.885 57.2937 104.777 56.2326 104.338 55.5606C103.926 54.932 102.875 54.5864 102.249 54.222C101.66 53.8787 101.07 53.5352 100.481 53.1916C100.358 53.1202 100.232 53.0476 100.092 53.0235C99.9266 52.9949 99.7578 53.037 99.595 53.0787C98.2017 53.4358 96.8087 53.793 95.4154 54.1501C95.1478 54.2188 94.8428 54.3191 94.7442 54.5752C94.6844 54.731 94.7194 54.905 94.7555 55.0681C94.9135 55.7854 95.2172 56.5187 95.2923 57.2457C95.408 57.8194 95.386 58.333 95.8087 58.7523C96.2066 59.1474 96.7358 59.3629 97.0542 59.8463C97.284 60.1954 97.3725 60.6156 97.5525 60.9923C98.3684 62.6985 101.671 62.2439 102.815 61.1552C102.931 61.0441 103.057 60.9212 103.187 60.7893Z" fill="#2A1E22"/>
<path id="Fill 48" fill-rule="evenodd" clip-rule="evenodd" d="M95.0229 65.7206L90.3501 61.8656L89.7448 49.8512L87.8426 49.301L85.6377 61.7564L87.4612 65.2634L93.9162 71.8686L95.0229 65.7206Z" fill="#FF7BAC"/>
<path id="Fill 50" fill-rule="evenodd" clip-rule="evenodd" d="M88.2504 49.4188C88.2504 49.4188 88.109 48.3477 88.1067 48.3307C88.0544 47.9335 88.9396 46.8751 89.1521 46.5088C89.2733 46.2997 90.0812 47.2484 90.1119 47.4186C90.1645 47.709 89.8226 48.3898 89.7457 48.7083L90.1712 49.1693L89.7454 49.8511L88.2504 49.4188Z" fill="#C07E72"/>
<path id="Fill 52" fill-rule="evenodd" clip-rule="evenodd" d="M103.675 64.2903L112.028 70.0828L112.985 74.7409L107.166 83.3846L105.138 82.668L107.819 73.8537L104.369 66.9044L103.675 64.2903Z" fill="#FF7BAC"/>
<path id="Fill 54" fill-rule="evenodd" clip-rule="evenodd" d="M10.9057 25.4737C10.8451 25.4737 10.7818 25.3696 10.7214 25.3717C10.661 25.3738 10.6066 25.5037 10.5464 25.5079C10.4858 25.512 10.4177 25.4271 10.3579 25.4332C10.2973 25.4394 10.2394 25.472 10.1796 25.4802C10.1196 25.4885 10.0558 25.4779 9.99613 25.4881C9.93669 25.4984 9.87707 25.5164 9.8182 25.5287C9.75876 25.5408 9.70582 25.5827 9.64715 25.597C9.58829 25.6115 9.51967 25.5916 9.46157 25.6079C9.40347 25.6243 9.3578 25.6849 9.30065 25.7031C9.24294 25.7217 9.19611 25.7691 9.13935 25.7896C9.0824 25.8098 9.01608 25.8043 8.96008 25.8267C8.90389 25.8489 8.82324 25.8157 8.76801 25.84C8.71258 25.8643 8.65391 25.8861 8.59963 25.9122C8.54497 25.9382 8.52147 26.0271 8.46814 26.0552C8.41463 26.083 8.4196 26.2121 8.36723 26.2417C8.31468 26.2715 8.26269 26.2942 8.21128 26.3257C8.16006 26.3573 8.09871 26.3672 8.04864 26.4006C7.99838 26.4339 7.90205 26.3987 7.85313 26.4336C7.80401 26.4686 7.7333 26.4756 7.68552 26.5122C7.63755 26.5488 7.57983 26.5752 7.53319 26.6135C7.48675 26.6518 7.41145 26.6601 7.36616 26.6999C7.32105 26.7397 7.36329 26.8751 7.31953 26.9164C7.27576 26.9577 7.24518 27.0101 7.20275 27.0527C7.16051 27.0956 7.08999 27.1102 7.04909 27.1543C7.00819 27.1985 6.91378 27.1964 6.87441 27.2421C6.83523 27.2876 6.86944 27.3938 6.83179 27.4406C6.79395 27.4874 6.72266 27.5079 6.68673 27.556C6.65061 27.6042 6.59347 27.6381 6.55907 27.6874C6.52467 27.7367 6.62175 27.8709 6.58907 27.9213C6.55658 27.9718 6.42376 27.9583 6.39279 28.0099C6.36202 28.0614 6.38324 28.1413 6.35419 28.194C6.32514 28.2463 6.25653 28.2768 6.2292 28.3305C6.20225 28.3839 6.18046 28.4395 6.15543 28.4941C6.1302 28.5483 6.09733 28.5991 6.07382 28.6544C6.0505 28.7096 6.10038 28.7921 6.07898 28.8482C6.05776 28.9041 5.97501 28.9365 5.95571 28.9932C5.93621 29.0499 5.91175 29.1219 5.89436 29.1794C5.83989 29.1652 5.79555 29.0275 5.74051 29.0152C5.68566 29.0029 5.61418 29.0554 5.55876 29.0452C5.50333 29.0349 5.44389 29.0416 5.38809 29.0334C5.33228 29.0253 5.28488 28.9331 5.22869 28.9269C5.1727 28.9208 5.09682 29.1289 5.04063 29.1248C4.98445 29.1208 4.93724 28.971 4.88086 28.9689C4.82448 28.9669 4.76657 29.1242 4.71 29.1242C4.64942 29.1242 4.59246 29.098 4.53245 29.1003C4.47187 29.1026 4.41587 29.1155 4.35586 29.1202C4.29566 29.125 4.22571 29.0137 4.16589 29.0207C4.10588 29.0277 4.06326 29.1496 4.00401 29.1589C3.94419 29.1682 3.85666 29.019 3.79779 29.0306C3.73836 29.0423 3.68217 29.0776 3.62369 29.0914C3.56501 29.1056 3.54934 29.2772 3.49143 29.2935C3.43314 29.3098 3.34408 29.216 3.28694 29.2345C3.22941 29.2531 3.13462 29.171 3.07804 29.1917C3.02147 29.2126 3.0467 29.4395 2.99109 29.4624C2.93528 29.4855 2.78697 29.299 2.73212 29.324C2.67746 29.3492 2.62108 29.3815 2.56757 29.4086C2.51386 29.4359 2.54291 29.6182 2.49036 29.6474C2.43761 29.6768 2.3216 29.5989 2.27019 29.6302C2.21897 29.6617 2.22203 29.7782 2.17215 29.8114C2.12188 29.8448 2.10908 29.9261 2.06034 29.9614C2.01161 29.9966 1.89827 29.9449 1.85088 29.9819C1.80367 30.019 1.71767 30.012 1.6718 30.0509C1.62593 30.0899 1.7062 30.2681 1.66205 30.3087C1.61771 30.3494 1.54012 30.3508 1.4975 30.393C1.45488 30.4353 1.36333 30.4296 1.32244 30.4734C1.28154 30.5172 1.15941 30.493 1.12023 30.5383C1.08105 30.5838 1.16916 30.7345 1.13151 30.7815C1.09424 30.8285 1.09195 30.8985 1.05659 30.9468C1.02104 30.9951 0.952431 31.0173 0.918794 31.067C0.885348 31.1167 0.850374 31.1635 0.818839 31.2145C0.787305 31.2653 0.71984 31.2945 0.690408 31.3466C0.660785 31.3987 0.70264 31.4871 0.675119 31.5404C0.647789 31.5936 0.561786 31.6166 0.536367 31.671C0.510948 31.7252 0.431634 31.7569 0.408509 31.812C0.385384 31.8672 0.469476 31.9637 0.448261 32.02C0.42743 32.0759 0.281033 32.0888 0.262495 32.1459C0.243765 32.2026 0.338369 32.2941 0.321933 32.3517C0.305496 32.4092 0.183372 32.4397 0.16942 32.4979C0.155278 32.5559 0.158527 32.62 0.146677 32.6788C0.13521 32.7372 0.258481 32.8189 0.248926 32.8782C0.239561 32.9372 0.211658 32.9904 0.204586 33.05C0.197515 33.1093 0.00486789 33.1516 8.99413e-05 33.2113C-0.00449689 33.2708 0.167892 33.3419 0.165598 33.4018C0.163114 33.4615 0.0916354 33.519 0.0916354 33.5791C0.0916354 33.6392 0.0904887 33.6996 0.0929733 33.7592C0.0952667 33.8191 0.0176728 33.8856 0.0224507 33.9451C0.0270376 34.0049 0.125272 34.0574 0.132344 34.1167C0.139415 34.1762 0.205542 34.2265 0.214907 34.2854C0.224271 34.3448 0.0595276 34.436 0.0711858 34.4943C0.082844 34.5533 0.157953 34.6018 0.171905 34.66C0.185857 34.7182 0.33856 34.74 0.354805 34.7975C0.371241 34.8553 0.412522 34.9014 0.431061 34.958C0.449982 35.0151 0.47196 35.0663 0.492983 35.1222C0.514006 35.1783 0.482472 35.2513 0.505597 35.3065C0.528722 35.3618 0.522033 35.4284 0.547452 35.4826C0.57287 35.5368 0.575164 35.6018 0.602685 35.6551C0.630015 35.7084 0.689644 35.7438 0.719076 35.796C0.748699 35.8481 0.740481 35.9219 0.772015 35.9728C0.803741 36.0238 0.898918 36.0331 0.932172 36.0828C0.965809 36.1327 1.01206 36.1702 1.04761 36.2185C1.08296 36.2669 1.02716 36.3831 1.06462 36.4299C1.10188 36.4769 1.15922 36.509 1.1984 36.5545C1.23758 36.5998 1.37518 36.5558 1.41608 36.5996C1.45717 36.6436 1.3534 36.8244 1.39602 36.8667C1.43863 36.909 1.50075 36.9351 1.5449 36.9757C1.58924 37.0165 1.65804 37.032 1.7041 37.0709C1.74977 37.1097 1.73793 37.2223 1.78532 37.2595C1.83253 37.2965 1.95504 37.2392 2.00377 37.2747C2.05251 37.3097 2.05251 37.4172 2.10239 37.4506C2.15246 37.484 2.29924 37.3679 2.35065 37.3994C2.40187 37.4307 2.36384 37.6129 2.41639 37.6421C2.46876 37.6715 2.5131 37.7247 2.5668 37.752C2.62032 37.7791 2.73384 37.6891 2.7885 37.7143C2.84316 37.7393 2.92744 37.6925 2.98325 37.7154C3.03887 37.7384 3.05339 37.8608 3.11015 37.8817C3.16653 37.9024 3.25062 37.8409 3.30815 37.8595C3.36549 37.8779 3.40371 37.9532 3.462 37.9695C3.51972 37.9856 3.58317 37.9789 3.64184 37.993C3.70032 38.0068 3.73989 38.1098 3.79913 38.1215C3.85819 38.1331 3.93005 38.0798 3.98968 38.0891C4.04911 38.0984 4.09632 38.2108 4.15652 38.2178C4.21615 38.2248 4.29317 38.0652 4.35357 38.0697C4.41339 38.0745 4.46957 38.1164 4.53016 38.1187C4.59017 38.1209 4.64942 38.1386 4.71 38.1386C4.79906 38.1386 4.79906 38.0506 4.88812 38.0506C4.97699 38.0506 4.97699 38.266 5.06605 38.266C5.15511 38.266 5.15511 38.0902 5.24437 38.0902C5.33343 38.0902 5.33343 38.09 5.42249 38.09C5.51136 38.09 5.51136 38.1812 5.60042 38.1812C5.68948 38.1812 5.68948 38.0381 5.77854 38.0381C5.8676 38.0381 5.8676 38.1063 5.95666 38.1063C6.04572 38.1063 6.04572 38.236 6.13498 38.236C6.22404 38.236 6.22404 38.1786 6.31329 38.1786C6.40254 38.1786 6.40254 38.2491 6.4916 38.2491C6.58105 38.2491 6.58105 38.2552 6.6703 38.2552C6.75936 38.2552 6.75936 38.0919 6.84842 38.0919C6.93767 38.0919 6.93767 38.262 7.02673 38.262C7.11598 38.262 7.11598 38.0885 7.20504 38.0885C7.2943 38.0885 7.2943 38.2483 7.38317 38.2483C7.47223 38.2483 7.47223 38.1672 7.56148 38.1672C7.65054 38.1672 7.65054 38.116 7.73979 38.116C7.82885 38.116 7.82885 38.1771 7.91792 38.1771C8.00717 38.1771 8.00717 38.1139 8.09642 38.1139C8.18586 38.1139 8.18586 38.2205 8.27492 38.2205C8.36418 38.2205 8.36418 38.2328 8.45343 38.2328C8.54268 38.2328 8.54268 38.0286 8.63193 38.0286C8.72099 38.0286 8.72099 38.1162 8.81005 38.1162C8.89931 38.1162 8.89931 38.204 8.98856 38.204C9.07762 38.204 9.07762 38.1132 9.16668 38.1132C9.25593 38.1132 9.25593 38.1788 9.34518 38.1788C9.43444 38.1788 9.43444 38.0849 9.52369 38.0849C9.61294 38.0849 9.61294 38.2699 9.70219 38.2699C9.79144 38.2699 9.79144 38.1272 9.8807 38.1272C9.96995 38.1272 9.96995 38.0902 10.059 38.0902C10.1483 38.0902 10.1483 38.1829 10.2375 38.1829C10.3268 38.1829 10.3268 38.0462 10.4158 38.0462C10.5047 38.0462 10.5047 38.0936 10.5936 38.0936C10.6824 38.0936 10.6824 38.1515 10.7715 38.1515C10.8604 38.1515 10.8604 38.0804 10.9494 38.0804C11.0383 38.0804 11.0383 38.2404 11.1274 38.2404C11.2166 38.2404 11.2166 38.1403 11.3059 38.1403C11.3953 38.1403 11.3953 38.12 11.4846 38.12C11.5738 38.12 11.5738 38.0466 11.6631 38.0466C11.7521 38.0466 11.7521 38.0921 11.8414 38.0921C11.9302 38.0921 11.9302 38.1266 12.0193 38.1266C12.1084 38.1266 12.1084 38.095 12.1976 38.095C12.2867 38.095 12.2867 38.1848 12.3757 38.1848C12.465 38.1848 12.465 38.1712 12.5544 38.1712C12.6439 38.1712 12.6439 38.2167 12.7333 38.2167C12.8224 38.2167 12.8224 38.0845 12.9116 38.0845C13.0009 38.0845 13.0009 38.0849 13.0901 38.0849C13.1792 38.0849 13.1792 38.0807 13.2685 38.0807C13.3579 38.0807 13.3579 38.1232 13.4473 38.1232C13.5368 38.1232 13.5368 38.0459 13.6258 38.0459C13.7153 38.0459 13.7153 38.0673 13.8045 38.0673C13.894 38.0673 13.894 38.0663 13.9834 38.0663C14.0727 38.0663 14.0727 38.1046 14.1621 38.1046C14.2516 38.1046 14.2516 38.1742 14.341 38.1742C14.4303 38.1742 14.4303 38.1084 14.5197 38.1084C14.6091 38.1084 14.6091 38.0533 14.6986 38.0533C14.788 38.0533 14.788 38.2462 14.8775 38.2462C14.9667 38.2462 14.9667 38.1029 15.056 38.1029C15.1454 38.1029 15.1454 38.0933 15.2345 38.0933C15.3239 38.0933 15.3239 38.1598 15.4136 38.1598C15.503 38.1598 15.503 38.12 15.5923 38.12C15.6819 38.12 15.6819 38.2555 15.7713 38.2555C15.861 38.2555 15.861 38.2098 15.9504 38.2098C16.04 38.2098 16.04 38.1708 16.1295 38.1708C16.2193 38.1708 16.2193 38.0506 16.3088 38.0506C16.3988 38.0506 16.3988 38.051 16.4886 38.051C16.5784 38.051 16.5784 38.1793 16.6683 38.1793C16.7279 38.1793 16.7823 38.0366 16.8414 38.0339C16.901 38.0313 16.9651 38.1378 17.0241 38.1325C17.0834 38.1274 17.1443 38.135 17.203 38.127C17.2621 38.1192 17.3098 38.047 17.3679 38.0366C17.4266 38.026 17.4893 38.0445 17.5472 38.0315C17.6053 38.0184 17.6452 37.9439 17.7022 37.9281C17.7595 37.9124 17.8136 37.8986 17.8698 37.8804C17.9264 37.8622 17.9908 37.8749 18.0462 37.854C18.1018 37.8332 18.146 37.7911 18.2004 37.7678C18.2551 37.7446 18.3151 37.7395 18.3684 37.7139C18.4219 37.6883 18.4619 37.6424 18.5143 37.6146C18.5664 37.5865 18.6457 37.6098 18.6968 37.5795C18.7476 37.5492 18.8067 37.5319 18.8562 37.4995C18.9057 37.4669 18.9462 37.422 18.9942 37.3873C19.0421 37.3526 19.0284 37.2419 19.0746 37.2051C19.1211 37.1681 19.3137 37.3044 19.3584 37.2658C19.4031 37.2269 19.4498 37.1825 19.4928 37.1418C19.5356 37.101 19.4477 36.9289 19.4888 36.8864C19.5299 36.8438 19.7009 36.9179 19.7401 36.8735C19.7791 36.8292 19.7036 36.6877 19.7409 36.6417C19.7777 36.5956 19.8012 36.542 19.8362 36.4942C19.871 36.4466 19.9918 36.4582 20.0247 36.4091C20.0573 36.36 20.0963 36.3116 20.1267 36.2612C20.1573 36.2108 20.2112 36.1696 20.2397 36.1179C20.2678 36.0661 20.1619 35.9455 20.1877 35.8925C20.2135 35.8396 20.219 35.781 20.2425 35.7268C20.266 35.6727 20.3513 35.6456 20.3723 35.5905C20.3933 35.5355 20.4906 35.5055 20.5091 35.4496C20.5275 35.3937 20.4677 35.3129 20.4835 35.2561C20.4992 35.1996 20.4237 35.1226 20.4369 35.065C20.4501 35.0077 20.5799 34.9761 20.5906 34.9179C20.6011 34.86 20.5984 34.7996 20.6064 34.741C20.6143 34.6828 20.7071 34.6318 20.7123 34.573C20.7178 34.5144 20.7102 34.4511 20.7127 34.392C20.7156 34.3334 20.6804 34.271 20.6804 34.2119C20.6804 34.1525 20.7471 34.0888 20.7444 34.0303C20.7419 33.9711 20.533 33.9254 20.5279 33.867C20.5223 33.8083 20.4893 33.7575 20.4814 33.6993C20.4734 33.6407 20.6267 33.559 20.6162 33.5011C20.6055 33.4429 20.6204 33.3772 20.6072 33.3201C20.5938 33.2625 20.612 33.1931 20.5963 33.1364C20.5804 33.0795 20.3704 33.0805 20.3522 33.0246C20.3337 32.9684 20.5011 32.8477 20.4803 32.7925C20.4593 32.7373 20.2689 32.7493 20.2454 32.6953C20.2221 32.641 20.2357 32.573 20.21 32.5201C20.1841 32.467 20.0896 32.4526 20.0614 32.4008C20.0333 32.3489 20.1424 32.2213 20.1118 32.1709C20.0812 32.1203 19.9538 32.1313 19.9209 32.0822C19.888 32.0331 19.9048 31.9519 19.8699 31.9043C19.8351 31.8566 19.7907 31.8168 19.7538 31.7709C19.7168 31.7248 19.638 31.7161 19.599 31.6717C19.5599 31.6274 19.5763 31.5351 19.5352 31.4924C19.4941 31.4497 19.5381 31.3193 19.4951 31.2786C19.4523 31.2378 19.3099 31.3017 19.2652 31.263C19.2204 31.2241 19.2327 31.1161 19.1862 31.0793C19.14 31.0425 19.0742 31.0266 19.0263 30.9917C18.9783 30.9572 18.9095 30.9502 18.8598 30.9176C18.8103 30.8852 18.766 30.8435 18.7149 30.8131C18.6641 30.7828 18.5546 30.8579 18.5024 30.8298C18.4502 30.802 18.3896 30.8006 18.3363 30.775C18.283 30.7494 18.2343 30.7267 18.1796 30.7034C18.125 30.6803 18.1349 30.5026 18.0793 30.4818C18.0238 30.4611 17.9361 30.5316 17.8794 30.5132C17.8232 30.495 17.7936 30.3885 17.7362 30.3728C17.6791 30.357 17.6217 30.3337 17.5636 30.3204C17.5059 30.3075 17.4574 30.2289 17.3989 30.2184C17.3406 30.208 17.2745 30.212 17.2156 30.204C17.1569 30.1963 17.0778 30.3597 17.0184 30.3546C16.9595 30.3493 16.9008 30.3948 16.8414 30.3923C16.7822 30.3896 16.7281 30.3898 16.6683 30.3898C16.6092 30.3898 16.5509 30.2892 16.4922 30.2918C16.4334 30.2945 16.3709 30.2501 16.3122 30.2554C16.2535 30.2605 16.2482 30.2416 16.1899 30.2493C16.1861 30.19 16.0741 30.1961 16.0681 30.1373C16.062 30.0782 16.0355 30.0237 16.0274 29.9652C16.0194 29.9062 16.0464 29.8442 16.0366 29.786C16.0265 29.7273 16.0494 29.6636 16.0374 29.6055C16.0251 29.5473 16.0395 29.4831 16.0255 29.4256C16.0114 29.368 15.9986 29.309 15.9825 29.2522C15.9665 29.1949 16.0435 29.1077 16.0253 29.0514C16.0072 28.9947 15.795 29.0021 15.7752 28.9462C15.7551 28.8903 15.7276 28.8402 15.7058 28.7852C15.6838 28.7299 15.7656 28.6334 15.7417 28.579C15.7178 28.5246 15.581 28.5227 15.5552 28.4692C15.5296 28.4158 15.662 28.2846 15.6345 28.2321C15.607 28.1794 15.5265 28.1532 15.4971 28.1016C15.4678 28.0499 15.5097 27.9545 15.4787 27.9039C15.4476 27.8533 15.2637 27.8978 15.2309 27.8484C15.198 27.7989 15.1685 27.75 15.134 27.7016C15.0996 27.6531 15.2083 27.4999 15.1722 27.4527C15.1361 27.4055 14.977 27.4527 14.9392 27.4068C14.9016 27.361 14.9793 27.2169 14.9402 27.1723C14.9008 27.1276 14.7666 27.1659 14.7257 27.1227C14.685 27.0792 14.6325 27.0487 14.59 27.0066C14.548 26.9647 14.4979 26.9329 14.4541 26.8923C14.4106 26.8519 14.4157 26.7585 14.3708 26.7194C14.3257 26.6804 14.2395 26.6902 14.1933 26.6527C14.147 26.6152 14.0538 26.6409 14.0062 26.6051C13.9586 26.5693 13.9985 26.4176 13.9498 26.3835C13.9009 26.3492 13.8479 26.3196 13.7979 26.287C13.748 26.2544 13.7071 26.2055 13.656 26.1746C13.605 26.1437 13.5035 26.1983 13.4514 26.1691C13.3996 26.1401 13.4045 26.0061 13.3516 25.9786C13.2986 25.9513 13.1796 26.0553 13.1257 26.0298C13.072 26.0042 13.0378 25.9403 12.9829 25.9166C12.9283 25.8929 12.8686 25.8845 12.813 25.8627C12.7574 25.8409 12.762 25.6572 12.7056 25.6373C12.6494 25.6174 12.5145 25.8286 12.4575 25.8106C12.4006 25.7926 12.3796 25.6629 12.322 25.6468C12.2645 25.6309 12.2093 25.6057 12.1512 25.5916C12.0933 25.5774 12.0147 25.6593 11.956 25.6472C11.8978 25.6352 11.8433 25.6176 11.7842 25.6076C11.7256 25.5975 11.6654 25.617 11.6059 25.6089C11.5469 25.6009 11.4947 25.5604 11.4352 25.5543C11.3758 25.5484 11.3238 25.4709 11.264 25.4669C11.2046 25.4629 11.1469 25.4087 11.0867 25.4066C11.0272 25.4047 10.9657 25.4737 10.9057 25.4737Z" fill="#A7CFFE"/>
<path id="Fill 56" fill-rule="evenodd" clip-rule="evenodd" d="M101.128 0.0642863C101.089 0.0642863 101.049 -0.00130717 101.012 1.98675e-05C100.973 0.00115733 100.939 0.0832439 100.901 0.0857084C100.863 0.0883625 100.82 0.0349019 100.782 0.0386934C100.744 0.0426746 100.707 0.0631488 100.67 0.0682674C100.632 0.0735755 100.591 0.0669403 100.554 0.0733859C100.516 0.0798315 100.479 0.0912061 100.441 0.0989787C100.404 0.106751 100.37 0.133102 100.333 0.142013C100.296 0.151112 100.253 0.1386 100.216 0.148837C100.18 0.159264 100.151 0.197558 100.115 0.209123C100.078 0.220687 100.049 0.25064 100.013 0.263531C99.977 0.276422 99.9353 0.27301 99.9 0.287039C99.8646 0.301067 99.8136 0.280214 99.7786 0.29538C99.7438 0.310736 99.7066 0.324385 99.6724 0.340878C99.638 0.357371 99.6233 0.413486 99.5894 0.431117C99.5556 0.448747 99.5588 0.530265 99.5258 0.548844C99.4927 0.567801 99.4598 0.58183 99.4274 0.601735C99.3951 0.62183 99.3563 0.628086 99.3247 0.649129C99.293 0.670172 99.2324 0.647992 99.2015 0.669983C99.1705 0.692163 99.1258 0.696334 99.0956 0.719652C99.0656 0.74278 99.0291 0.759273 98.9996 0.783349C98.9702 0.807615 98.9226 0.812923 98.8939 0.837947C98.8657 0.862972 98.8924 0.94847 98.8647 0.974632C98.8372 1.0006 98.8177 1.03359 98.7909 1.06051C98.7644 1.08762 98.7198 1.09691 98.6942 1.12478C98.6684 1.15264 98.6086 1.15132 98.5838 1.18013C98.5593 1.20895 98.5807 1.27587 98.557 1.30544C98.5331 1.33502 98.488 1.34791 98.4653 1.37824C98.4427 1.40857 98.4066 1.42999 98.3846 1.46109C98.363 1.49218 98.4244 1.57692 98.4037 1.60877C98.3833 1.64061 98.2994 1.63208 98.2801 1.66469C98.2604 1.69711 98.2738 1.74753 98.2556 1.78071C98.2373 1.81389 98.1939 1.83303 98.1769 1.86678C98.1597 1.90071 98.1459 1.93578 98.13 1.9701C98.114 2.00441 98.0934 2.03626 98.0786 2.07133C98.0639 2.10621 98.0955 2.15816 98.0819 2.19361C98.0685 2.22887 98.0163 2.24934 98.0039 2.28517C97.9919 2.321 97.9766 2.36631 97.9655 2.40252C97.9309 2.39361 97.903 2.30679 97.8682 2.29901C97.8336 2.29124 97.7887 2.32423 97.7537 2.31778C97.7188 2.31152 97.6811 2.31551 97.6459 2.31039C97.6108 2.30527 97.5808 2.24707 97.5454 2.24328C97.5101 2.23949 97.4621 2.37067 97.4267 2.36802C97.3912 2.36555 97.3614 2.27114 97.3256 2.26982C97.2903 2.26849 97.2536 2.36783 97.218 2.36783C97.1798 2.36783 97.1439 2.35115 97.106 2.35266C97.0678 2.35418 97.0325 2.36233 96.9946 2.36517C96.9566 2.36821 96.9124 2.29806 96.8748 2.30242C96.8369 2.30679 96.81 2.38375 96.7725 2.38963C96.7349 2.39551 96.6797 2.30129 96.6424 2.30868C96.6049 2.31607 96.5694 2.33844 96.5327 2.34717C96.4956 2.35589 96.4857 2.46432 96.4492 2.47456C96.4125 2.4848 96.3561 2.42565 96.3202 2.4374C96.2837 2.44916 96.224 2.3974 96.1883 2.41029C96.1526 2.42356 96.1686 2.56669 96.1334 2.5811C96.0983 2.5957 96.0044 2.47797 95.9702 2.4939C95.9354 2.50963 95.8999 2.53011 95.8663 2.54717C95.8322 2.56442 95.8506 2.67949 95.8175 2.69788C95.7843 2.71646 95.7109 2.66736 95.6786 2.68708C95.6461 2.70679 95.6482 2.78054 95.6167 2.80139C95.5849 2.82243 95.5767 2.87381 95.5461 2.89618C95.5154 2.91836 95.4439 2.88556 95.4139 2.90888C95.3841 2.93239 95.3298 2.92803 95.3009 2.95248C95.2719 2.97713 95.3227 3.08955 95.2946 3.11514C95.2669 3.14092 95.2178 3.14168 95.191 3.16841C95.1641 3.19514 95.1064 3.19154 95.0804 3.21922C95.0548 3.24689 94.9776 3.23135 94.9529 3.25998C94.9281 3.28879 94.9837 3.38396 94.96 3.41353C94.9365 3.44311 94.9351 3.48728 94.9126 3.5178C94.8902 3.54832 94.847 3.56235 94.8258 3.59363C94.8046 3.6251 94.7826 3.65448 94.7626 3.68671C94.7427 3.71875 94.7002 3.73733 94.6815 3.77013C94.663 3.80311 94.6894 3.85885 94.6722 3.8924C94.6548 3.92596 94.6005 3.94055 94.5846 3.97487C94.5686 4.00899 94.5185 4.0289 94.5038 4.06378C94.4893 4.09866 94.5422 4.15952 94.529 4.19497C94.5156 4.23042 94.4233 4.23857 94.4115 4.2744C94.3998 4.31023 94.4594 4.36805 94.4491 4.40445C94.4388 4.44047 94.362 4.4598 94.353 4.49658C94.344 4.53317 94.3461 4.57355 94.3387 4.61071C94.3312 4.64767 94.4092 4.69905 94.4031 4.73659C94.3971 4.77374 94.3794 4.80749 94.375 4.84502C94.3708 4.88237 94.249 4.9091 94.2461 4.94683C94.2433 4.98436 94.352 5.0291 94.3505 5.06702C94.349 5.10455 94.3039 5.14095 94.3039 5.17887C94.3039 5.21678 94.3031 5.25489 94.3046 5.29242C94.3062 5.33034 94.2572 5.37224 94.2601 5.40977C94.2632 5.4475 94.3251 5.48067 94.3295 5.51802C94.3339 5.55575 94.3757 5.5874 94.3817 5.62456C94.3876 5.66191 94.2834 5.71954 94.2911 5.75651C94.2985 5.79366 94.3457 5.82419 94.3545 5.86077C94.3633 5.89774 94.4594 5.91139 94.4699 5.9476C94.4803 5.98419 94.5063 6.01319 94.5181 6.04902C94.53 6.08504 94.5439 6.11727 94.5571 6.15253C94.5703 6.18798 94.5504 6.23405 94.5649 6.26893C94.5797 6.30381 94.5754 6.34571 94.5915 6.37983C94.6074 6.41434 94.6091 6.4551 94.6261 6.48884C94.6435 6.5224 94.6813 6.54476 94.6999 6.57756C94.7186 6.61055 94.7131 6.65718 94.7331 6.68922C94.753 6.72145 94.8132 6.72733 94.8342 6.7588C94.8556 6.79008 94.8847 6.81396 94.907 6.8443C94.9294 6.87482 94.8942 6.94818 94.9177 6.97776C94.9414 7.00752 94.9774 7.02762 95.0022 7.05624C95.0269 7.08487 95.1136 7.05719 95.1396 7.08487C95.1654 7.11255 95.1001 7.22667 95.127 7.2534C95.1538 7.28013 95.1929 7.29644 95.221 7.32222C95.2488 7.34781 95.2923 7.35767 95.3212 7.38212C95.3502 7.40658 95.3426 7.47767 95.3726 7.50118C95.4024 7.52468 95.4796 7.48848 95.5104 7.51066C95.5412 7.53284 95.5412 7.60071 95.5729 7.62175C95.6044 7.64279 95.6969 7.56961 95.7292 7.58933C95.7617 7.60924 95.7376 7.72412 95.7709 7.7427C95.804 7.76109 95.8317 7.79483 95.8657 7.81189C95.8995 7.82914 95.9712 7.77227 96.0056 7.7882C96.0402 7.80393 96.0933 7.77436 96.1285 7.78895C96.1634 7.80336 96.1726 7.88052 96.2085 7.89379C96.2441 7.90687 96.2974 7.8682 96.3335 7.87976C96.3695 7.89152 96.3937 7.93891 96.4306 7.94915C96.4669 7.95938 96.5069 7.95521 96.5442 7.96393C96.5808 7.97284 96.6059 8.03768 96.6433 8.04507C96.6804 8.05247 96.7259 8.01872 96.7636 8.0246C96.801 8.03048 96.831 8.10157 96.8689 8.10593C96.9065 8.11029 96.9551 8.00962 96.9931 8.01247C97.0307 8.0155 97.0663 8.04185 97.1045 8.04337C97.1424 8.04488 97.1798 8.05588 97.218 8.05588C97.2742 8.05588 97.2742 8.00052 97.3304 8.00052C97.3866 8.00052 97.3866 8.13626 97.4428 8.13626C97.499 8.13626 97.499 8.02536 97.5552 8.02536C97.6114 8.02536 97.6114 8.02536 97.6675 8.02536C97.7237 8.02536 97.7237 8.0828 97.7799 8.0828C97.8361 8.0828 97.8361 7.99237 97.8923 7.99237C97.9485 7.99237 97.9485 8.03559 98.0047 8.03559C98.0609 8.03559 98.0609 8.1173 98.1172 8.1173C98.1734 8.1173 98.1734 8.08109 98.2298 8.08109C98.286 8.08109 98.286 8.12564 98.3424 8.12564C98.3988 8.12564 98.3988 8.12943 98.4549 8.12943C98.5113 8.12943 98.5113 8.02649 98.5673 8.02649C98.6237 8.02649 98.6237 8.13379 98.6799 8.13379C98.7361 8.13379 98.7361 8.02441 98.7925 8.02441C98.8487 8.02441 98.8487 8.12526 98.9048 8.12526C98.961 8.12526 98.961 8.07389 99.0174 8.07389C99.0736 8.07389 99.0736 8.04166 99.1298 8.04166C99.1862 8.04166 99.1862 8.08014 99.2424 8.08014C99.2987 8.08014 99.2987 8.04033 99.3549 8.04033C99.4113 8.04033 99.4113 8.10763 99.4675 8.10763C99.5239 8.10763 99.5239 8.11522 99.5801 8.11522C99.6364 8.11522 99.6364 7.98649 99.6926 7.98649C99.749 7.98649 99.749 8.04185 99.8052 8.04185C99.8616 8.04185 99.8616 8.09721 99.9178 8.09721C99.9741 8.09721 99.9741 8.03976 100.03 8.03976C100.087 8.03976 100.087 8.08128 100.143 8.08128C100.199 8.08128 100.199 8.02213 100.256 8.02213C100.312 8.02213 100.312 8.13872 100.368 8.13872C100.424 8.13872 100.424 8.04867 100.481 8.04867C100.537 8.04867 100.537 8.02536 100.593 8.02536C100.65 8.02536 100.65 8.08394 100.706 8.08394C100.762 8.08394 100.762 7.99768 100.819 7.99768C100.875 7.99768 100.875 8.02744 100.931 8.02744C100.987 8.02744 100.987 8.06403 101.043 8.06403C101.099 8.06403 101.099 8.0191 101.155 8.0191C101.211 8.0191 101.211 8.12014 101.267 8.12014C101.324 8.12014 101.324 8.05702 101.38 8.05702C101.436 8.05702 101.436 8.04413 101.493 8.04413C101.549 8.04413 101.549 7.99787 101.606 7.99787C101.662 7.99787 101.662 8.02668 101.718 8.02668C101.774 8.02668 101.774 8.0483 101.83 8.0483C101.887 8.0483 101.887 8.02839 101.943 8.02839C101.999 8.02839 101.999 8.08507 102.055 8.08507C102.112 8.08507 102.112 8.07654 102.168 8.07654C102.224 8.07654 102.224 8.10517 102.281 8.10517C102.337 8.10517 102.337 8.02194 102.393 8.02194C102.45 8.02194 102.45 8.02213 102.506 8.02213C102.562 8.02213 102.562 8.01929 102.619 8.01929C102.675 8.01929 102.675 8.04621 102.731 8.04621C102.788 8.04621 102.788 7.99749 102.844 7.99749C102.9 7.99749 102.9 8.01095 102.957 8.01095C103.013 8.01095 103.013 8.01038 103.069 8.01038C103.126 8.01038 103.126 8.03446 103.182 8.03446C103.239 8.03446 103.239 8.07825 103.295 8.07825C103.352 8.07825 103.352 8.03692 103.408 8.03692C103.465 8.03692 103.465 8.00204 103.521 8.00204C103.577 8.00204 103.577 8.12394 103.634 8.12394C103.69 8.12394 103.69 8.03332 103.746 8.03332C103.803 8.03332 103.803 8.02725 103.859 8.02725C103.916 8.02725 103.916 8.06934 103.972 8.06934C104.029 8.06934 104.029 8.04413 104.085 8.04413C104.141 8.04413 104.141 8.12962 104.198 8.12962C104.254 8.12962 104.254 8.101 104.311 8.101C104.367 8.101 104.367 8.07616 104.424 8.07616C104.481 8.07616 104.481 8.00033 104.537 8.00033C104.594 8.00033 104.594 8.00071 104.651 8.00071C104.707 8.00071 104.707 8.08166 104.764 8.08166C104.802 8.08166 104.836 7.99142 104.873 7.98991C104.911 7.9882 104.951 8.05531 104.988 8.05209C105.026 8.04886 105.064 8.0536 105.101 8.04867C105.139 8.04356 105.169 7.99806 105.205 7.99142C105.242 7.98479 105.282 7.99654 105.318 7.98839C105.355 7.98005 105.38 7.93303 105.416 7.92318C105.453 7.91332 105.487 7.90441 105.522 7.89284C105.558 7.88147 105.598 7.88943 105.633 7.87635C105.669 7.86327 105.696 7.83654 105.731 7.82194C105.765 7.80734 105.803 7.80412 105.837 7.78801C105.87 7.7717 105.896 7.74289 105.929 7.72526C105.962 7.70763 106.012 7.72222 106.044 7.70308C106.076 7.68393 106.113 7.67312 106.144 7.65265C106.176 7.63199 106.201 7.60374 106.232 7.58175C106.262 7.55995 106.253 7.48999 106.282 7.46687C106.312 7.44355 106.433 7.52961 106.461 7.50516C106.49 7.4807 106.519 7.45265 106.546 7.42686C106.573 7.40127 106.518 7.29264 106.544 7.26572C106.57 7.2388 106.677 7.28563 106.702 7.25757C106.727 7.2297 106.679 7.14041 106.703 7.11141C106.726 7.0824 106.741 7.04828 106.763 7.01833C106.785 6.98818 106.861 6.99558 106.882 6.96449C106.902 6.93359 106.927 6.90306 106.946 6.87122C106.965 6.83937 107 6.81358 107.017 6.78079C107.035 6.74818 106.968 6.67216 106.985 6.63861C107.001 6.60524 107.004 6.56827 107.019 6.53396C107.034 6.49984 107.088 6.48277 107.101 6.44808C107.114 6.41339 107.176 6.39462 107.188 6.35917C107.199 6.32391 107.161 6.27291 107.171 6.23708C107.181 6.20144 107.134 6.15272 107.142 6.11651C107.15 6.0803 107.232 6.06021 107.239 6.02362C107.246 5.98722 107.244 5.94893 107.249 5.91196C107.254 5.87537 107.312 5.84314 107.316 5.80599C107.319 5.76902 107.314 5.72902 107.316 5.69186C107.318 5.65489 107.295 5.61546 107.295 5.57811C107.295 5.54077 107.338 5.50039 107.336 5.46342C107.334 5.42626 107.202 5.39745 107.199 5.36048C107.196 5.32332 107.175 5.29129 107.17 5.2547C107.165 5.21773 107.262 5.16617 107.255 5.12958C107.248 5.09299 107.258 5.05147 107.249 5.01545C107.241 4.97905 107.252 4.93526 107.242 4.89943C107.232 4.8636 107.1 4.86417 107.088 4.82891C107.077 4.79346 107.183 4.71725 107.169 4.68256C107.156 4.64767 107.036 4.65526 107.021 4.62113C107.006 4.58682 107.015 4.54398 106.999 4.51061C106.982 4.47706 106.923 4.46796 106.905 4.43535C106.887 4.40255 106.956 4.32198 106.937 4.29032C106.917 4.25828 106.837 4.2653 106.816 4.23421C106.796 4.20331 106.806 4.15193 106.784 4.12198C106.762 4.09203 106.734 4.06681 106.711 4.03781C106.688 4.0088 106.638 4.00311 106.613 3.97525C106.589 3.94719 106.599 3.88899 106.573 3.86207C106.547 3.83534 106.575 3.75287 106.547 3.72709C106.521 3.7015 106.431 3.74169 106.403 3.71723C106.374 3.69278 106.382 3.62472 106.353 3.6014C106.323 3.57827 106.282 3.56804 106.252 3.54624C106.221 3.52425 106.178 3.52007 106.147 3.49941C106.116 3.47894 106.087 3.45258 106.055 3.43344C106.023 3.41429 105.954 3.46168 105.921 3.44405C105.888 3.42642 105.85 3.42548 105.816 3.40936C105.783 3.39325 105.752 3.37903 105.717 3.36424C105.683 3.34964 105.689 3.23742 105.654 3.22433C105.619 3.21125 105.564 3.2558 105.528 3.24424C105.493 3.23268 105.474 3.16557 105.438 3.15571C105.402 3.14566 105.365 3.13087 105.329 3.12272C105.292 3.11438 105.262 3.0649 105.225 3.05808C105.188 3.05163 105.146 3.0541 105.109 3.04917C105.072 3.04424 105.022 3.14737 104.985 3.14414C104.948 3.14092 104.911 3.16955 104.873 3.16784C104.836 3.16614 104.802 3.16632 104.764 3.16632C104.726 3.16632 104.69 3.10282 104.653 3.10452C104.616 3.10623 104.576 3.07817 104.539 3.08158C104.502 3.08481 104.499 3.07286 104.462 3.07779C104.459 3.04026 104.389 3.04405 104.385 3.00689C104.381 2.96973 104.365 2.93542 104.36 2.89845C104.354 2.8613 104.372 2.82205 104.365 2.78528C104.359 2.74831 104.373 2.70812 104.366 2.67153C104.358 2.63475 104.367 2.59418 104.358 2.55797C104.349 2.52158 104.341 2.48442 104.331 2.4484C104.321 2.41238 104.369 2.3574 104.358 2.32176C104.347 2.28593 104.213 2.29067 104.2 2.2556C104.188 2.22015 104.17 2.18868 104.157 2.1538C104.143 2.11892 104.194 2.05806 104.179 2.02375C104.164 1.98943 104.078 1.98811 104.062 1.95455C104.045 1.92062 104.129 1.83796 104.111 1.80479C104.094 1.77161 104.043 1.75512 104.025 1.72251C104.006 1.6899 104.033 1.62962 104.013 1.59777C103.994 1.56573 103.878 1.59398 103.857 1.5627C103.836 1.53142 103.818 1.50071 103.796 1.47018C103.774 1.43947 103.843 1.34279 103.82 1.31303C103.797 1.28326 103.697 1.31303 103.673 1.28402C103.649 1.25502 103.698 1.16421 103.673 1.13615C103.649 1.1079 103.564 1.13217 103.538 1.10468C103.513 1.07738 103.479 1.05805 103.452 1.03169C103.426 1.00515 103.394 0.985059 103.367 0.959466C103.339 0.933873 103.342 0.874915 103.314 0.85027C103.286 0.825815 103.231 0.831881 103.202 0.808184C103.173 0.784487 103.114 0.80079 103.084 0.778231C103.054 0.755482 103.079 0.659935 103.048 0.638324C103.018 0.616712 102.984 0.597944 102.953 0.57747C102.921 0.556806 102.895 0.526094 102.863 0.506568C102.831 0.487042 102.767 0.521544 102.734 0.503156C102.701 0.484767 102.704 0.400026 102.671 0.382775C102.638 0.365523 102.563 0.431306 102.528 0.415192C102.494 0.399078 102.473 0.358698 102.438 0.343722C102.404 0.328935 102.366 0.323627 102.331 0.309788C102.296 0.295949 102.299 0.180117 102.263 0.167416C102.228 0.155093 102.143 0.288176 102.107 0.276801C102.071 0.265616 102.058 0.18353 102.021 0.173482C101.985 0.163435 101.95 0.14751 101.913 0.1386C101.877 0.12969 101.827 0.181444 101.791 0.173861C101.753 0.166278 101.719 0.155093 101.682 0.148648C101.645 0.142392 101.607 0.154714 101.57 0.149596C101.532 0.144477 101.499 0.118884 101.462 0.115093C101.424 0.111301 101.391 0.0625801 101.354 0.059926C101.316 0.0574615 101.28 0.0231482 101.242 0.0220107C101.204 0.0206837 101.165 0.0642863 101.128 0.0642863Z" fill="#A7CFFE"/>
</g>
</svg>
