<svg width="106" height="123" viewBox="0 0 106 123" fill="none" xmlns="http://www.w3.org/2000/svg">
<path fill-rule="evenodd" clip-rule="evenodd" d="M95.6211 100.678C101.522 89.914 102.957 75.0638 95.5575 64.623C89.4236 55.9671 77.4898 51.2373 67.0155 51.8177C61.189 52.1408 54.3013 55.9245 50.3276 60.1019C45.6334 65.0369 43.976 71.1145 39.6729 76.394C38.8272 77.4317 37.9788 78.4885 36.9042 79.2911C35.4837 80.352 33.7552 80.9058 32.0872 81.5189C27.7165 83.1252 23.0465 85.878 22.2381 90.4358C21.8894 92.4014 22.337 94.4206 22.9232 96.3325C24.2006 100.498 26.2079 104.538 29.3522 107.579C32.4967 110.62 36.8882 112.562 41.2484 112.126C42.9484 111.956 44.5945 111.44 46.2881 111.217C54.9316 110.082 62.9899 116.613 71.7104 116.458C81.9733 116.274 90.7616 109.542 95.6211 100.678Z" fill="#E6F0F9"/>
<path fill-rule="evenodd" clip-rule="evenodd" d="M10.9057 25.4757C10.8451 25.4757 10.7818 25.3716 10.7214 25.3737C10.661 25.3758 10.6066 25.5056 10.5464 25.5098C10.4858 25.514 10.4177 25.429 10.3579 25.4351C10.2973 25.4414 10.2394 25.474 10.1796 25.4821C10.1196 25.4905 10.0558 25.4799 9.99613 25.4901C9.93669 25.5003 9.87707 25.5183 9.8182 25.5307C9.75876 25.5428 9.70582 25.5847 9.64715 25.5989C9.58829 25.6135 9.51967 25.5936 9.46157 25.6099C9.40347 25.6262 9.3578 25.6869 9.30065 25.7051C9.24294 25.7236 9.19611 25.771 9.13935 25.7915C9.0824 25.8118 9.01608 25.8063 8.96008 25.8287C8.90389 25.8509 8.82324 25.8177 8.76801 25.8419C8.71258 25.8662 8.65391 25.888 8.59963 25.9142C8.54497 25.9401 8.52147 26.0291 8.46814 26.0571C8.41463 26.085 8.4196 26.2141 8.36723 26.2437C8.31468 26.2734 8.26269 26.2962 8.21128 26.3276C8.16006 26.3593 8.09871 26.3692 8.04864 26.4025C7.99838 26.4359 7.90205 26.4006 7.85313 26.4355C7.80401 26.4706 7.7333 26.4776 7.68552 26.5142C7.63755 26.5508 7.57983 26.5771 7.53319 26.6154C7.48675 26.6537 7.41145 26.662 7.36616 26.7019C7.32105 26.7417 7.36329 26.877 7.31953 26.9184C7.27576 26.9597 7.24518 27.012 7.20275 27.0547C7.16051 27.0975 7.08999 27.1121 7.04909 27.1563C7.00819 27.2004 6.91378 27.1984 6.87441 27.244C6.83523 27.2895 6.86944 27.3957 6.83179 27.4425C6.79395 27.4894 6.72266 27.5098 6.68673 27.558C6.65061 27.6061 6.59347 27.6401 6.55907 27.6894C6.52467 27.7387 6.62175 27.8729 6.58907 27.9233C6.55658 27.9737 6.42376 27.9603 6.39279 28.0118C6.36202 28.0634 6.38324 28.1432 6.35419 28.1959C6.32514 28.2482 6.25653 28.2788 6.2292 28.3324C6.20225 28.3859 6.18046 28.4414 6.15543 28.496C6.1302 28.5502 6.09733 28.601 6.07382 28.6564C6.0505 28.7116 6.10038 28.794 6.07898 28.8501C6.05776 28.9061 5.97501 28.9385 5.95571 28.9952C5.93621 29.0518 5.91175 29.1239 5.89436 29.1813C5.83989 29.1671 5.79555 29.0295 5.74051 29.0172C5.68566 29.0048 5.61418 29.0573 5.55876 29.0471C5.50333 29.0369 5.44389 29.0435 5.38809 29.0354C5.33228 29.0272 5.28488 28.9351 5.22869 28.9288C5.1727 28.9227 5.09682 29.1309 5.04063 29.1267C4.98445 29.1228 4.93724 28.973 4.88086 28.9709C4.82448 28.9688 4.76657 29.1262 4.71 29.1262C4.64942 29.1262 4.59246 29.1 4.53245 29.1023C4.47187 29.1046 4.41587 29.1174 4.35586 29.1222C4.29566 29.1269 4.22571 29.0156 4.16589 29.0227C4.10588 29.0297 4.06326 29.1516 4.00401 29.1609C3.94419 29.1701 3.85666 29.0209 3.79779 29.0325C3.73836 29.0443 3.68217 29.0795 3.62369 29.0934C3.56501 29.1076 3.54934 29.2792 3.49143 29.2955C3.43314 29.3118 3.34408 29.2179 3.28694 29.2365C3.22941 29.2551 3.13462 29.173 3.07804 29.1937C3.02147 29.2145 3.0467 29.4414 2.99109 29.4644C2.93528 29.4875 2.78697 29.301 2.73212 29.326C2.67746 29.3512 2.62108 29.3834 2.56757 29.4105C2.51386 29.4378 2.54291 29.6202 2.49036 29.6494C2.43761 29.6788 2.3216 29.6009 2.27019 29.6321C2.21897 29.6636 2.22203 29.7802 2.17215 29.8134C2.12188 29.8467 2.10908 29.9281 2.06034 29.9633C2.01161 29.9986 1.89827 29.9468 1.85088 29.9838C1.80367 30.021 1.71767 30.0139 1.6718 30.0528C1.62593 30.0919 1.7062 30.2701 1.66205 30.3106C1.61771 30.3514 1.54012 30.3527 1.4975 30.395C1.45488 30.4373 1.36333 30.4316 1.32244 30.4754C1.28154 30.5192 1.15941 30.4949 1.12023 30.5402C1.08105 30.5857 1.16916 30.7364 1.13151 30.7834C1.09424 30.8305 1.09195 30.9004 1.05659 30.9488C1.02104 30.9971 0.952431 31.0193 0.918794 31.0689C0.885348 31.1186 0.850374 31.1654 0.818839 31.2164C0.787305 31.2672 0.71984 31.2964 0.690408 31.3486C0.660785 31.4007 0.70264 31.489 0.675119 31.5423C0.647789 31.5956 0.561786 31.6185 0.536367 31.6729C0.510948 31.7272 0.431634 31.7588 0.408509 31.814C0.385384 31.8691 0.469476 31.9656 0.448261 32.0219C0.42743 32.0779 0.281033 32.0908 0.262495 32.1478C0.243765 32.2045 0.338369 32.2961 0.321933 32.3537C0.305496 32.4111 0.183372 32.4417 0.16942 32.4999C0.155278 32.5579 0.158527 32.622 0.146677 32.6807C0.13521 32.7391 0.258481 32.8208 0.248926 32.8802C0.239561 32.9391 0.211658 32.9924 0.204586 33.0519C0.197515 33.1112 0.00486789 33.1535 8.99413e-05 33.2132C-0.00449689 33.2728 0.167892 33.3439 0.165598 33.4038C0.163114 33.4635 0.0916354 33.5209 0.0916354 33.581C0.0916354 33.6411 0.0904887 33.7016 0.0929733 33.7611C0.0952667 33.821 0.0176728 33.8876 0.0224507 33.9471C0.0270376 34.0068 0.125272 34.0593 0.132344 34.1187C0.139415 34.1782 0.205542 34.2284 0.214907 34.2874C0.224271 34.3467 0.0595276 34.4379 0.0711858 34.4963C0.082844 34.5553 0.157953 34.6038 0.171905 34.662C0.185857 34.7202 0.33856 34.742 0.354805 34.7994C0.371241 34.8572 0.412522 34.9033 0.431061 34.96C0.449982 35.0171 0.47196 35.0682 0.492983 35.1242C0.514006 35.1803 0.482472 35.2533 0.505597 35.3084C0.528722 35.3638 0.522033 35.4303 0.547452 35.4846C0.57287 35.5388 0.575164 35.6038 0.602685 35.6571C0.630015 35.7103 0.689644 35.7458 0.719076 35.7979C0.748699 35.8501 0.740481 35.9238 0.772015 35.9748C0.803741 36.0258 0.898918 36.0351 0.932172 36.0848C0.965809 36.1346 1.01206 36.1721 1.04761 36.2205C1.08296 36.2688 1.02716 36.385 1.06462 36.4319C1.10188 36.4789 1.15922 36.5109 1.1984 36.5564C1.23758 36.6017 1.37518 36.5577 1.41608 36.6015C1.45717 36.6455 1.3534 36.8264 1.39602 36.8687C1.43863 36.9109 1.50075 36.9371 1.5449 36.9777C1.58924 37.0184 1.65804 37.034 1.7041 37.0728C1.74977 37.1117 1.73793 37.2243 1.78532 37.2615C1.83253 37.2984 1.95504 37.2412 2.00377 37.2766C2.05251 37.3117 2.05251 37.4192 2.10239 37.4525C2.15246 37.4859 2.29924 37.3699 2.35065 37.4014C2.40187 37.4326 2.36384 37.6148 2.41639 37.644C2.46876 37.6734 2.5131 37.7267 2.5668 37.754C2.62032 37.7811 2.73384 37.691 2.7885 37.7162C2.84316 37.7413 2.92744 37.6944 2.98325 37.7174C3.03887 37.7403 3.05339 37.8628 3.11015 37.8836C3.16653 37.9043 3.25062 37.8429 3.30815 37.8615C3.36549 37.8799 3.40371 37.9551 3.462 37.9714C3.51972 37.9875 3.58317 37.9809 3.64184 37.9949C3.70032 38.0088 3.73989 38.1117 3.79913 38.1235C3.85819 38.135 3.93005 38.0818 3.98968 38.091C4.04911 38.1003 4.09632 38.2127 4.15652 38.2198C4.21615 38.2268 4.29317 38.0672 4.35357 38.0717C4.41339 38.0764 4.46957 38.1183 4.53016 38.1206C4.59017 38.1229 4.64942 38.1405 4.71 38.1405C4.79906 38.1405 4.79906 38.0526 4.88812 38.0526C4.97699 38.0526 4.97699 38.2679 5.06605 38.2679C5.15511 38.2679 5.15511 38.0922 5.24437 38.0922C5.33343 38.0922 5.33343 38.092 5.42249 38.092C5.51136 38.092 5.51136 38.1832 5.60042 38.1832C5.68948 38.1832 5.68948 38.04 5.77854 38.04C5.8676 38.04 5.8676 38.1083 5.95666 38.1083C6.04572 38.1083 6.04572 38.238 6.13498 38.238C6.22404 38.238 6.22404 38.1805 6.31329 38.1805C6.40254 38.1805 6.40254 38.251 6.4916 38.251C6.58105 38.251 6.58105 38.2571 6.6703 38.2571C6.75936 38.2571 6.75936 38.0939 6.84842 38.0939C6.93767 38.0939 6.93767 38.2639 7.02673 38.2639C7.11598 38.2639 7.11598 38.0905 7.20504 38.0905C7.2943 38.0905 7.2943 38.2503 7.38317 38.2503C7.47223 38.2503 7.47223 38.1691 7.56148 38.1691C7.65054 38.1691 7.65054 38.118 7.73979 38.118C7.82885 38.118 7.82885 38.179 7.91792 38.179C8.00717 38.179 8.00717 38.1159 8.09642 38.1159C8.18586 38.1159 8.18586 38.2224 8.27492 38.2224C8.36418 38.2224 8.36418 38.2347 8.45343 38.2347C8.54268 38.2347 8.54268 38.0306 8.63193 38.0306C8.72099 38.0306 8.72099 38.1181 8.81005 38.1181C8.89931 38.1181 8.89931 38.2059 8.98856 38.2059C9.07762 38.2059 9.07762 38.1151 9.16668 38.1151C9.25593 38.1151 9.25593 38.1807 9.34518 38.1807C9.43444 38.1807 9.43444 38.0869 9.52369 38.0869C9.61294 38.0869 9.61294 38.2719 9.70219 38.2719C9.79144 38.2719 9.79144 38.1291 9.8807 38.1291C9.96995 38.1291 9.96995 38.0922 10.059 38.0922C10.1483 38.0922 10.1483 38.1849 10.2375 38.1849C10.3268 38.1849 10.3268 38.0482 10.4158 38.0482C10.5047 38.0482 10.5047 38.0956 10.5936 38.0956C10.6824 38.0956 10.6824 38.1534 10.7715 38.1534C10.8604 38.1534 10.8604 38.0823 10.9494 38.0823C11.0383 38.0823 11.0383 38.2423 11.1274 38.2423C11.2166 38.2423 11.2166 38.1422 11.3059 38.1422C11.3953 38.1422 11.3953 38.1219 11.4846 38.1219C11.5738 38.1219 11.5738 38.0486 11.6631 38.0486C11.7521 38.0486 11.7521 38.0941 11.8414 38.0941C11.9302 38.0941 11.9302 38.1286 12.0193 38.1286C12.1084 38.1286 12.1084 38.0969 12.1976 38.0969C12.2867 38.0969 12.2867 38.1868 12.3757 38.1868C12.465 38.1868 12.465 38.1731 12.5544 38.1731C12.6439 38.1731 12.6439 38.2186 12.7333 38.2186C12.8224 38.2186 12.8224 38.0865 12.9116 38.0865C13.0009 38.0865 13.0009 38.0869 13.0901 38.0869C13.1792 38.0869 13.1792 38.0827 13.2685 38.0827C13.3579 38.0827 13.3579 38.1252 13.4473 38.1252C13.5368 38.1252 13.5368 38.0478 13.6258 38.0478C13.7153 38.0478 13.7153 38.0692 13.8045 38.0692C13.894 38.0692 13.894 38.0683 13.9834 38.0683C14.0727 38.0683 14.0727 38.1066 14.1621 38.1066C14.2516 38.1066 14.2516 38.1762 14.341 38.1762C14.4303 38.1762 14.4303 38.1104 14.5197 38.1104C14.6091 38.1104 14.6091 38.0552 14.6986 38.0552C14.788 38.0552 14.788 38.2482 14.8775 38.2482C14.9667 38.2482 14.9667 38.1049 15.056 38.1049C15.1454 38.1049 15.1454 38.0952 15.2345 38.0952C15.3239 38.0952 15.3239 38.1618 15.4136 38.1618C15.503 38.1618 15.503 38.1219 15.5923 38.1219C15.6819 38.1219 15.6819 38.2575 15.7713 38.2575C15.861 38.2575 15.861 38.2118 15.9504 38.2118C16.04 38.2118 16.04 38.1727 16.1295 38.1727C16.2193 38.1727 16.2193 38.0526 16.3088 38.0526C16.3988 38.0526 16.3988 38.0529 16.4886 38.0529C16.5784 38.0529 16.5784 38.1813 16.6683 38.1813C16.7279 38.1813 16.7823 38.0385 16.8414 38.0359C16.901 38.0332 16.9651 38.1398 17.0241 38.1345C17.0834 38.1293 17.1443 38.1369 17.203 38.129C17.2621 38.1212 17.3098 38.049 17.3679 38.0385C17.4266 38.0279 17.4893 38.0465 17.5472 38.0334C17.6053 38.0203 17.6452 37.9458 17.7022 37.9301C17.7595 37.9144 17.8136 37.9005 17.8698 37.8823C17.9264 37.8641 17.9908 37.8768 18.0462 37.856C18.1018 37.8351 18.146 37.793 18.2004 37.7697C18.2551 37.7466 18.3151 37.7415 18.3684 37.7159C18.4219 37.6903 18.4619 37.6444 18.5143 37.6165C18.5664 37.5885 18.6457 37.6118 18.6968 37.5815C18.7476 37.5511 18.8067 37.5339 18.8562 37.5015C18.9057 37.4689 18.9462 37.4239 18.9942 37.3892C19.0421 37.3545 19.0284 37.2438 19.0746 37.207C19.1211 37.1701 19.3137 37.3064 19.3584 37.2677C19.4031 37.2288 19.4498 37.1845 19.4928 37.1437C19.5356 37.103 19.4477 36.9308 19.4888 36.8884C19.5299 36.8457 19.7009 36.9198 19.7401 36.8755C19.7791 36.8311 19.7036 36.6897 19.7409 36.6436C19.7777 36.5976 19.8012 36.5439 19.8362 36.4961C19.871 36.4486 19.9918 36.4601 20.0247 36.411C20.0573 36.3619 20.0963 36.3136 20.1267 36.2631C20.1573 36.2127 20.2112 36.1716 20.2397 36.1198C20.2678 36.0681 20.1619 35.9475 20.1877 35.8944C20.2135 35.8415 20.219 35.7829 20.2425 35.7287C20.266 35.6747 20.3513 35.6476 20.3723 35.5924C20.3933 35.5374 20.4906 35.5075 20.5091 35.4516C20.5275 35.3956 20.4677 35.3149 20.4835 35.258C20.4992 35.2015 20.4237 35.1245 20.4369 35.0669C20.4501 35.0097 20.5799 34.978 20.5906 34.9198C20.6011 34.862 20.5984 34.8015 20.6064 34.7429C20.6143 34.6847 20.7071 34.6337 20.7123 34.575C20.7178 34.5164 20.7102 34.4531 20.7127 34.3939C20.7156 34.3353 20.6804 34.273 20.6804 34.2138C20.6804 34.1545 20.7471 34.0908 20.7444 34.0322C20.7419 33.9731 20.533 33.9274 20.5279 33.869C20.5223 33.8102 20.4893 33.7594 20.4814 33.7012C20.4734 33.6426 20.6267 33.5609 20.6162 33.5031C20.6055 33.4449 20.6204 33.3791 20.6072 33.3221C20.5938 33.2644 20.612 33.195 20.5963 33.1384C20.5804 33.0815 20.3704 33.0824 20.3522 33.0265C20.3337 32.9704 20.5011 32.8496 20.4803 32.7945C20.4593 32.7393 20.2689 32.7512 20.2454 32.6972C20.2221 32.643 20.2357 32.5749 20.21 32.522C20.1841 32.469 20.0896 32.4546 20.0614 32.4028C20.0333 32.3509 20.1424 32.2233 20.1118 32.1728C20.0812 32.1222 19.9538 32.1332 19.9209 32.0841C19.888 32.035 19.9048 31.9539 19.8699 31.9063C19.8351 31.8585 19.7907 31.8187 19.7538 31.7728C19.7168 31.7268 19.638 31.7181 19.599 31.6737C19.5599 31.6293 19.5763 31.537 19.5352 31.4944C19.4941 31.4517 19.5381 31.3213 19.4951 31.2805C19.4523 31.2398 19.3099 31.3036 19.2652 31.265C19.2204 31.2261 19.2327 31.118 19.1862 31.0813C19.14 31.0445 19.0742 31.0286 19.0263 30.9937C18.9783 30.9592 18.9095 30.9522 18.8598 30.9196C18.8103 30.8871 18.766 30.8454 18.7149 30.8151C18.6641 30.7848 18.5546 30.8598 18.5024 30.8318C18.4502 30.8039 18.3896 30.8026 18.3363 30.777C18.283 30.7514 18.2343 30.7287 18.1796 30.7053C18.125 30.6822 18.1349 30.5046 18.0793 30.4837C18.0238 30.4631 17.9361 30.5336 17.8794 30.5152C17.8232 30.497 17.7936 30.3904 17.7362 30.3747C17.6791 30.359 17.6217 30.3357 17.5636 30.3224C17.5059 30.3095 17.4574 30.2308 17.3989 30.2204C17.3406 30.21 17.2745 30.214 17.2156 30.206C17.1569 30.1982 17.0778 30.3616 17.0184 30.3565C16.9595 30.3512 16.9008 30.3967 16.8414 30.3942C16.7822 30.3916 16.7281 30.3918 16.6683 30.3918C16.6092 30.3918 16.5509 30.2911 16.4922 30.2938C16.4334 30.2964 16.3709 30.2521 16.3122 30.2574C16.2535 30.2625 16.2482 30.2435 16.1899 30.2513C16.1861 30.192 16.0741 30.198 16.0681 30.1393C16.062 30.0801 16.0355 30.0257 16.0274 29.9671C16.0194 29.9082 16.0464 29.8462 16.0366 29.788C16.0265 29.7292 16.0494 29.6655 16.0374 29.6075C16.0251 29.5493 16.0395 29.485 16.0255 29.4276C16.0114 29.37 15.9986 29.311 15.9825 29.2541C15.9665 29.1969 16.0435 29.1097 16.0253 29.0534C16.0072 28.9967 15.795 29.0041 15.7752 28.9482C15.7551 28.8922 15.7276 28.8422 15.7058 28.7872C15.6838 28.7318 15.7656 28.6353 15.7417 28.5809C15.7178 28.5265 15.581 28.5246 15.5552 28.4712C15.5296 28.4177 15.662 28.2865 15.6345 28.234C15.607 28.1813 15.5265 28.1552 15.4971 28.1036C15.4678 28.0518 15.5097 27.9565 15.4787 27.9059C15.4476 27.8552 15.2637 27.8998 15.2309 27.8503C15.198 27.8008 15.1685 27.7519 15.134 27.7036C15.0996 27.6551 15.2083 27.5019 15.1722 27.4547C15.1361 27.4075 14.977 27.4547 14.9392 27.4088C14.9016 27.3629 14.9793 27.2188 14.9402 27.1743C14.9008 27.1295 14.7666 27.1678 14.7257 27.1246C14.685 27.0812 14.6325 27.0507 14.59 27.0086C14.548 26.9667 14.4979 26.9348 14.4541 26.8943C14.4106 26.8539 14.4157 26.7604 14.3708 26.7214C14.3257 26.6823 14.2395 26.6922 14.1933 26.6547C14.147 26.6171 14.0538 26.6429 14.0062 26.6071C13.9586 26.5712 13.9985 26.4196 13.9498 26.3855C13.9009 26.3511 13.8479 26.3216 13.7979 26.289C13.748 26.2564 13.7071 26.2074 13.656 26.1765C13.605 26.1456 13.5035 26.2002 13.4514 26.171C13.3996 26.142 13.4045 26.008 13.3516 25.9805C13.2986 25.9532 13.1796 26.0573 13.1257 26.0317C13.072 26.0061 13.0378 25.9422 12.9829 25.9185C12.9283 25.8948 12.8686 25.8865 12.813 25.8647C12.7574 25.8429 12.762 25.6592 12.7056 25.6393C12.6494 25.6194 12.5145 25.8306 12.4575 25.8126C12.4006 25.7945 12.3796 25.6649 12.322 25.6488C12.2645 25.6328 12.2093 25.6076 12.1512 25.5936C12.0933 25.5794 12.0147 25.6613 11.956 25.6491C11.8978 25.6372 11.8433 25.6196 11.7842 25.6095C11.7256 25.5995 11.6654 25.619 11.6059 25.6108C11.5469 25.6029 11.4947 25.5623 11.4352 25.5563C11.3758 25.5504 11.3238 25.4728 11.264 25.4689C11.2046 25.4649 11.1469 25.4107 11.0867 25.4086C11.0272 25.4067 10.9657 25.4757 10.9057 25.4757Z" fill="#A7CFFE"/>
<path fill-rule="evenodd" clip-rule="evenodd" d="M79.719 0.142423C79.6372 0.142423 79.5517 -0.00264685 79.4708 0.00028808C79.3886 0.00280374 79.315 0.18435 79.2337 0.189801C79.1523 0.195671 79.0604 0.0774349 78.9794 0.0858205C78.8981 0.0946253 78.8196 0.139907 78.7394 0.151228C78.6581 0.162967 78.5714 0.148293 78.4917 0.162548C78.4112 0.176803 78.3306 0.20196 78.2509 0.21915C78.1712 0.236341 78.0992 0.29462 78.0203 0.314326C77.941 0.334451 77.8482 0.306779 77.7697 0.32942C77.6912 0.35248 77.6299 0.437174 77.5522 0.46275C77.475 0.488326 77.4112 0.554572 77.3347 0.583082C77.2579 0.611593 77.1688 0.604046 77.0931 0.635073C77.0175 0.666099 76.9083 0.619979 76.8335 0.653521C76.7591 0.687482 76.6794 0.71767 76.6062 0.754147C76.5326 0.790624 76.5012 0.91473 76.4288 0.953723C76.3564 0.992715 76.3634 1.173 76.2927 1.21409C76.2219 1.25602 76.1516 1.28705 76.0821 1.33107C76.013 1.37551 75.93 1.38935 75.8626 1.43589C75.7947 1.48243 75.6651 1.43337 75.5989 1.48201C75.5327 1.53107 75.437 1.54029 75.3724 1.59186C75.3082 1.64301 75.2302 1.67949 75.1672 1.73274C75.1042 1.78641 75.0024 1.79815 74.9411 1.85349C74.8806 1.90883 74.9379 2.09793 74.8786 2.15579C74.8197 2.21323 74.778 2.28618 74.7208 2.34572C74.6639 2.40568 74.5687 2.42622 74.5139 2.48785C74.4587 2.54949 74.3308 2.54655 74.2776 2.61028C74.2253 2.67401 74.2711 2.82202 74.2204 2.88743C74.1693 2.95283 74.0728 2.98134 74.0242 3.04843C73.9759 3.11551 73.8986 3.16289 73.8516 3.23165C73.8054 3.30041 73.9367 3.48783 73.8925 3.55827C73.8488 3.62871 73.6693 3.60984 73.628 3.68195C73.5859 3.75365 73.6145 3.86518 73.5757 3.93855C73.5364 4.01192 73.4436 4.05427 73.4073 4.1289C73.3705 4.20395 73.341 4.28152 73.3071 4.35741C73.2727 4.4333 73.2286 4.50374 73.1971 4.5813C73.1656 4.65845 73.2331 4.77333 73.2041 4.85174C73.1755 4.92972 73.0638 4.975 73.0373 5.05425C73.0115 5.13349 72.9788 5.2337 72.9551 5.31378C72.8811 5.29407 72.8214 5.10204 72.747 5.08485C72.673 5.06766 72.5769 5.14062 72.5021 5.12636C72.4273 5.11253 72.3468 5.12133 72.2716 5.11001C72.1963 5.09869 72.1322 4.96997 72.0565 4.96159C71.9809 4.9532 71.8783 5.24334 71.8026 5.23747C71.7266 5.23202 71.6628 5.02322 71.5864 5.02028C71.5108 5.01735 71.4323 5.23705 71.3562 5.23705C71.2745 5.23705 71.1976 5.20015 71.1167 5.20351C71.0349 5.20686 70.9593 5.22489 70.8783 5.23118C70.797 5.23789 70.7025 5.08276 70.622 5.0924C70.541 5.10204 70.4834 5.27227 70.4033 5.28527C70.3227 5.29826 70.2046 5.08988 70.1249 5.10624C70.0447 5.12259 69.9687 5.17206 69.8902 5.19135C69.8109 5.21064 69.7896 5.45046 69.7116 5.4731C69.6331 5.49574 69.5125 5.36493 69.4356 5.39093C69.3575 5.41692 69.23 5.30246 69.1535 5.33097C69.0771 5.36032 69.1114 5.67687 69.0362 5.70874C68.961 5.74102 68.7602 5.48065 68.6871 5.51587C68.6127 5.55067 68.5366 5.59595 68.4647 5.63369C68.3919 5.67184 68.4311 5.92634 68.3604 5.96701C68.2893 6.0081 68.1323 5.89951 68.0632 5.94311C67.9937 5.98672 67.9982 6.14982 67.9308 6.19594C67.8629 6.24248 67.8453 6.3561 67.7799 6.40557C67.7141 6.45463 67.5612 6.38209 67.497 6.43367C67.4332 6.48566 67.3171 6.47601 67.2554 6.5301C67.1933 6.58461 67.302 6.83324 67.2419 6.88984C67.1826 6.94686 67.0776 6.94854 67.0203 7.00765C66.9627 7.06677 66.8392 7.05881 66.7836 7.12002C66.7288 7.18124 66.5637 7.14685 66.5109 7.21017C66.4578 7.2739 66.5768 7.48437 66.5261 7.54978C66.4758 7.61519 66.4729 7.71288 66.4247 7.78038C66.3769 7.84789 66.2845 7.87891 66.2391 7.94809C66.1937 8.01769 66.1467 8.08268 66.1038 8.15396C66.0612 8.22481 65.9705 8.2659 65.9304 8.33844C65.8908 8.41139 65.9472 8.53466 65.9104 8.60887C65.8732 8.68308 65.7571 8.71537 65.7232 8.79126C65.6888 8.86673 65.5817 8.91075 65.5502 8.9879C65.5192 9.06504 65.6324 9.19963 65.6042 9.27804C65.5756 9.35644 65.3781 9.37447 65.3528 9.45371C65.3278 9.53296 65.4554 9.66084 65.4333 9.74134C65.4112 9.821 65.2469 9.86377 65.2277 9.94511C65.2085 10.026 65.213 10.1153 65.197 10.1975C65.1811 10.2793 65.3479 10.3929 65.3348 10.4759C65.3221 10.5581 65.2841 10.6327 65.2747 10.7157C65.2657 10.7983 65.0053 10.8575 64.9991 10.9409C64.993 11.0239 65.2256 11.1229 65.2224 11.2067C65.2191 11.2897 65.1226 11.3702 65.1226 11.4541C65.1226 11.5379 65.121 11.6222 65.1242 11.7052C65.1275 11.7891 65.0229 11.8817 65.029 11.9648C65.0355 12.0482 65.168 12.1216 65.1774 12.2042C65.1868 12.2876 65.2763 12.3576 65.289 12.4398C65.3017 12.5224 65.0789 12.6499 65.0952 12.7316C65.1112 12.8138 65.2121 12.8813 65.2309 12.9622C65.2497 13.044 65.4554 13.0742 65.4779 13.1542C65.4999 13.2352 65.5555 13.2993 65.5809 13.3786C65.6062 13.4582 65.6361 13.5295 65.6643 13.6075C65.6925 13.6859 65.65 13.7878 65.681 13.8649C65.7125 13.9421 65.7035 14.0347 65.7379 14.1102C65.7718 14.1865 65.7755 14.2767 65.8119 14.3513C65.8491 14.4255 65.93 14.475 65.9697 14.5475C66.0097 14.6205 65.9979 14.7236 66.0408 14.7945C66.0833 14.8657 66.2121 14.8787 66.2571 14.9483C66.3029 15.0175 66.365 15.0703 66.4128 15.1374C66.4607 15.2049 66.3854 15.3672 66.4357 15.4326C66.4864 15.4984 66.5633 15.5429 66.6164 15.6062C66.6692 15.6695 66.8548 15.6083 66.9104 15.6695C66.9655 15.7307 66.8257 15.9831 66.8834 16.0422C66.9406 16.1013 67.0244 16.1374 67.0845 16.1944C67.1438 16.251 67.237 16.2728 67.2987 16.3269C67.3609 16.381 67.3445 16.5382 67.4087 16.5902C67.4725 16.6422 67.6376 16.5621 67.7035 16.6112C67.7693 16.6602 67.7693 16.8103 67.8371 16.8569C67.9046 16.9034 68.1025 16.7416 68.1716 16.7852C68.241 16.8292 68.1895 17.0833 68.2607 17.1244C68.3314 17.165 68.3907 17.2397 68.4634 17.2774C68.5358 17.3156 68.6891 17.1898 68.7627 17.225C68.8367 17.2598 68.9503 17.1944 69.0256 17.2267C69.1004 17.2585 69.12 17.4292 69.1969 17.4585C69.2729 17.4875 69.387 17.4019 69.4642 17.4275C69.5411 17.4535 69.593 17.5583 69.6719 17.581C69.7496 17.6036 69.835 17.5944 69.9147 17.6137C69.9932 17.6334 70.0468 17.7768 70.1269 17.7931C70.2062 17.8095 70.3035 17.7348 70.3841 17.7478C70.4642 17.7608 70.5284 17.9181 70.6093 17.9277C70.6899 17.9374 70.7937 17.7147 70.875 17.721C70.9556 17.7277 71.0316 17.786 71.1134 17.7893C71.1943 17.7927 71.2745 17.817 71.3562 17.817C71.4764 17.817 71.4764 17.6946 71.5966 17.6946C71.7168 17.6946 71.7168 17.9948 71.837 17.9948C71.9572 17.9948 71.9572 17.7495 72.0774 17.7495C72.1976 17.7495 72.1976 17.7495 72.3178 17.7495C72.4379 17.7495 72.4379 17.8766 72.5581 17.8766C72.6783 17.8766 72.6783 17.6766 72.7985 17.6766C72.9187 17.6766 72.9187 17.7722 73.0389 17.7722C73.1591 17.7722 73.1591 17.9529 73.2797 17.9529C73.3999 17.9529 73.3999 17.8728 73.5205 17.8728C73.6407 17.8728 73.6407 17.9713 73.7613 17.9713C73.8819 17.9713 73.8819 17.9797 74.0021 17.9797C74.1227 17.9797 74.1227 17.752 74.2425 17.752C74.3631 17.752 74.3631 17.9893 74.4833 17.9893C74.6034 17.9893 74.6034 17.7474 74.724 17.7474C74.8442 17.7474 74.8442 17.9705 74.9644 17.9705C75.0846 17.9705 75.0846 17.8569 75.2052 17.8569C75.3254 17.8569 75.3254 17.7856 75.4456 17.7856C75.5662 17.7856 75.5662 17.8707 75.6864 17.8707C75.807 17.8707 75.807 17.7826 75.9272 17.7826C76.0478 17.7826 76.0478 17.9315 76.168 17.9315C76.2886 17.9315 76.2886 17.9483 76.4088 17.9483C76.5294 17.9483 76.5294 17.6636 76.6496 17.6636C76.7702 17.6636 76.7702 17.786 76.8904 17.786C77.011 17.786 77.011 17.9084 77.1312 17.9084C77.2518 17.9084 77.2518 17.7814 77.3719 17.7814C77.4925 17.7814 77.4925 17.8732 77.6127 17.8732C77.7333 17.8732 77.7333 17.7424 77.8539 17.7424C77.9741 17.7424 77.9741 18.0002 78.0943 18.0002C78.2149 18.0002 78.2149 17.8011 78.3355 17.8011C78.4557 17.8011 78.4557 17.7495 78.5763 17.7495C78.6965 17.7495 78.6965 17.8791 78.8171 17.8791C78.9377 17.8791 78.9377 17.6883 79.0579 17.6883C79.1781 17.6883 79.1781 17.7541 79.2979 17.7541C79.4181 17.7541 79.4181 17.835 79.5378 17.835C79.658 17.835 79.658 17.7357 79.7782 17.7357C79.898 17.7357 79.898 17.9592 80.0182 17.9592C80.1388 17.9592 80.1388 17.8195 80.259 17.8195C80.3796 17.8195 80.3796 17.791 80.5002 17.791C80.6208 17.791 80.6208 17.6887 80.7414 17.6887C80.8616 17.6887 80.8616 17.7525 80.9818 17.7525C81.102 17.7525 81.102 17.8003 81.2222 17.8003C81.3428 17.8003 81.3428 17.7562 81.463 17.7562C81.5831 17.7562 81.5832 17.8816 81.7033 17.8816C81.8239 17.8816 81.8239 17.8627 81.9441 17.8627C82.0651 17.8627 82.0651 17.926 82.1857 17.926C82.3059 17.926 82.3059 17.742 82.4265 17.742C82.5471 17.742 82.5471 17.7424 82.6673 17.7424C82.7879 17.7424 82.7879 17.7361 82.9085 17.7361C83.0291 17.7361 83.0291 17.7956 83.1497 17.7956C83.2703 17.7956 83.2703 17.6879 83.3905 17.6879C83.5111 17.6879 83.5111 17.7177 83.6317 17.7177C83.7523 17.7177 83.7523 17.7164 83.8729 17.7164C83.9939 17.7164 83.9939 17.7696 84.1145 17.7696C84.2351 17.7696 84.2351 17.8665 84.3557 17.8665C84.4767 17.8665 84.4767 17.7751 84.5973 17.7751C84.7179 17.7751 84.7179 17.6979 84.8385 17.6979C84.9591 17.6979 84.9591 17.9675 85.0802 17.9675C85.2008 17.9675 85.2008 17.7671 85.321 17.7671C85.4416 17.7671 85.4415 17.7537 85.5622 17.7537C85.6828 17.7537 85.6828 17.8468 85.8038 17.8468C85.9244 17.8468 85.9244 17.791 86.045 17.791C86.166 17.791 86.166 17.9801 86.2866 17.9801C86.4076 17.9801 86.4076 17.9168 86.5286 17.9168C86.6492 17.9168 86.6492 17.8619 86.7702 17.8619C86.8912 17.8619 86.8912 17.6942 87.0122 17.6942C87.1336 17.6942 87.1336 17.695 87.2551 17.695C87.3757 17.695 87.3757 17.874 87.4971 17.874C87.578 17.874 87.6512 17.6745 87.7309 17.6711C87.8115 17.6673 87.8981 17.8158 87.9774 17.8086C88.0576 17.8015 88.1401 17.812 88.219 17.8011C88.2988 17.7898 88.3634 17.6891 88.4418 17.6745C88.5207 17.6598 88.6054 17.6858 88.6835 17.6678C88.7619 17.6493 88.8159 17.5453 88.8928 17.5235C88.9704 17.5017 89.0432 17.482 89.1188 17.4564C89.1957 17.4313 89.2824 17.4489 89.3572 17.42C89.4324 17.391 89.4917 17.3319 89.5653 17.2996C89.6393 17.2673 89.7198 17.2602 89.7922 17.2246C89.8641 17.1885 89.9181 17.1248 89.9888 17.0858C90.0595 17.0468 90.1666 17.0791 90.2353 17.0367C90.304 16.9944 90.3837 16.9705 90.4504 16.9252C90.5174 16.8795 90.5722 16.817 90.6368 16.7684C90.7014 16.7202 90.6826 16.5655 90.7455 16.5143C90.8081 16.4628 91.0681 16.6531 91.1282 16.599C91.1887 16.5449 91.2516 16.4829 91.3097 16.4259C91.3673 16.3693 91.2488 16.129 91.3044 16.0695C91.36 16.0099 91.5905 16.1135 91.6433 16.0514C91.696 15.9898 91.5942 15.7923 91.6445 15.7282C91.6944 15.664 91.7259 15.5886 91.7729 15.5223C91.8203 15.4557 91.9834 15.472 92.0276 15.4032C92.0717 15.3349 92.1245 15.2674 92.1653 15.197C92.2066 15.1265 92.2798 15.0695 92.3174 14.997C92.3558 14.9249 92.2132 14.7567 92.2475 14.6825C92.2823 14.6087 92.29 14.527 92.3215 14.4511C92.353 14.3756 92.4687 14.3379 92.4969 14.2611C92.5251 14.1844 92.6563 14.1429 92.6817 14.0645C92.7066 13.9865 92.6253 13.8737 92.6469 13.7945C92.6682 13.7157 92.5664 13.6079 92.5844 13.5278C92.602 13.4477 92.7769 13.4033 92.7916 13.3224C92.806 13.2419 92.8023 13.1572 92.8125 13.0754C92.8235 12.9945 92.9486 12.9232 92.956 12.841C92.9629 12.7593 92.9531 12.6708 92.9564 12.5886C92.9601 12.5069 92.9127 12.4197 92.9127 12.3371C92.9127 12.2545 93.0026 12.1652 92.9989 12.0834C92.9956 12.0012 92.7136 11.9375 92.707 11.8557C92.6997 11.7736 92.6551 11.7027 92.6441 11.6218C92.6338 11.54 92.8403 11.426 92.826 11.3451C92.8117 11.2641 92.8317 11.1723 92.8137 11.0927C92.7961 11.0122 92.8207 10.9153 92.799 10.8361C92.7777 10.7568 92.4944 10.7581 92.4695 10.6801C92.445 10.6017 92.671 10.4331 92.6424 10.3564C92.6142 10.2793 92.3571 10.296 92.3256 10.2206C92.2941 10.1447 92.3129 10.0499 92.2778 9.97613C92.243 9.90192 92.1151 9.88179 92.077 9.80968C92.039 9.73714 92.1866 9.55895 92.1453 9.48893C92.104 9.41807 91.9319 9.43359 91.8878 9.36483C91.8432 9.29648 91.8661 9.18286 91.8191 9.11662C91.7712 9.05037 91.712 8.99461 91.6621 8.93046C91.6122 8.86631 91.5059 8.85373 91.4532 8.7921C91.4004 8.73004 91.4225 8.60133 91.3669 8.54179C91.3113 8.48267 91.371 8.30028 91.3125 8.24326C91.2549 8.18666 91.0628 8.27555 91.0027 8.22146C90.9422 8.16737 90.9585 8.01685 90.896 7.96528C90.8334 7.91413 90.7451 7.89149 90.6801 7.84327C90.6151 7.79464 90.5223 7.78541 90.4557 7.73971C90.389 7.69443 90.3285 7.63615 90.2598 7.5938C90.1912 7.55146 90.0436 7.65628 89.9729 7.61728C89.9021 7.57829 89.8208 7.57619 89.7484 7.54056C89.6765 7.50492 89.6107 7.47347 89.5371 7.44077C89.4635 7.40848 89.477 7.16027 89.4022 7.13134C89.3269 7.10241 89.2084 7.20094 89.1319 7.17537C89.0563 7.14979 89.0162 7.00137 88.939 6.97956C88.8617 6.95734 88.784 6.92464 88.7055 6.90661C88.6279 6.88816 88.5624 6.77873 88.4831 6.76364C88.4046 6.74938 88.3155 6.75483 88.2358 6.74393C88.1569 6.73303 88.0502 6.96111 87.9701 6.95399C87.8904 6.94686 87.8115 7.01017 87.7309 7.0064C87.6508 7.00262 87.578 7.00304 87.4971 7.00304C87.4174 7.00304 87.3393 6.86259 87.2596 6.86636C87.1802 6.87013 87.096 6.80808 87.0171 6.81563C86.9374 6.82275 86.9305 6.79634 86.8516 6.80724C86.8462 6.72422 86.695 6.73261 86.6872 6.65043C86.679 6.56825 86.6431 6.49236 86.6324 6.4106C86.6214 6.32843 86.6582 6.24164 86.6443 6.1603C86.6308 6.07854 86.6619 5.98965 86.6455 5.90873C86.6292 5.82739 86.6484 5.73767 86.6296 5.65759C86.6104 5.57708 86.5932 5.49491 86.5719 5.41524C86.5503 5.33558 86.6537 5.21399 86.6292 5.13517C86.605 5.05592 86.3189 5.06641 86.2915 4.98884C86.2645 4.91043 86.2277 4.84083 86.1983 4.76369C86.1684 4.68654 86.2788 4.55195 86.2465 4.47606C86.2146 4.40017 86.0298 4.39724 85.9951 4.32303C85.9603 4.24798 86.139 4.06517 86.1018 3.9918C86.0646 3.91843 85.9562 3.88195 85.9166 3.80983C85.8769 3.73772 85.9334 3.60439 85.8917 3.53395C85.8496 3.46309 85.6014 3.52556 85.5568 3.45638C85.5127 3.3872 85.473 3.31928 85.4264 3.25178C85.3798 3.18385 85.5266 2.97002 85.4779 2.9042C85.4293 2.83837 85.2143 2.9042 85.1636 2.84005C85.1125 2.7759 85.2175 2.57506 85.1648 2.51301C85.1116 2.45054 84.9305 2.50421 84.8753 2.44341C84.8206 2.38304 84.7494 2.34027 84.6922 2.28199C84.635 2.22329 84.5675 2.17885 84.509 2.12225C84.4498 2.06564 84.4567 1.93525 84.3958 1.88074C84.3353 1.82666 84.2192 1.84007 84.1562 1.78766C84.0941 1.73525 83.9682 1.77131 83.904 1.72142C83.8398 1.6711 83.8938 1.45979 83.828 1.41199C83.7621 1.36419 83.6902 1.32269 83.6231 1.2774C83.5557 1.2317 83.5001 1.16378 83.4314 1.12059C83.3627 1.07741 83.2254 1.15372 83.155 1.11305C83.0851 1.07238 83.0921 0.884961 83.0205 0.846807C82.949 0.808653 82.7887 0.954142 82.7156 0.918503C82.6428 0.882865 82.597 0.793559 82.5226 0.760436C82.449 0.727733 82.3685 0.715993 82.2937 0.685386C82.2185 0.654779 82.2246 0.398601 82.1485 0.370509C82.0729 0.343256 81.8906 0.637588 81.8137 0.612432C81.7373 0.587694 81.7087 0.406148 81.631 0.383926C81.5533 0.361704 81.4789 0.326485 81.4 0.306779C81.3219 0.287073 81.216 0.401536 81.1371 0.384765C81.0578 0.367994 80.9846 0.343256 80.9049 0.329001C80.8256 0.315165 80.7447 0.342418 80.6645 0.331097C80.5844 0.319777 80.5141 0.263174 80.4336 0.254789C80.3538 0.246403 80.2835 0.138649 80.203 0.132779C80.1225 0.127329 80.0444 0.0514398 79.9634 0.0489241C79.8829 0.0459892 79.7999 0.142423 79.719 0.142423Z" fill="#A7CFFE"/>
<path d="M71 73V69L55 59V48C55 46.34 53.66 45 52 45C50.34 45 49 46.34 49 48V59L33 69V73L49 68V79L45 82V85L52 83L59 85V82L55 79V68L71 73Z" fill="black"/>
</svg>
